<?xml version="1.0" encoding="UTF-8"?><svg id="a" xmlns="http://www.w3.org/2000/svg" viewBox="0 0 1080 1080"><defs><style>.b{fill:#6a45ff;}.c{fill:#fff;}.d{fill:#efbe45;}.e{fill:#9d85ff;}.f{fill:#f4d956;stroke:#f4d956;}.f,.g{stroke-miterlimit:10;}.g{fill:none;stroke:#b3b3ff;stroke-width:4.31px;}</style></defs><g><path class="g" d="M863.98,216.03c.45,.05,.93,.13,1.4,.2l-1.6-1.6c.07,.47,.15,.94,.2,1.4ZM216.03,863.98c-.45-.05-.89-.13-1.34-.18l1.52,1.52c-.05-.45-.13-.89-.18-1.34Z"/><path class="d" d="M216.03,863.98c.05,.45,.13,.89,.18,1.34,179.32,178.49,469.35,178.23,648.35-.76,178.98-178.98,179.27-469.01,.82-648.33-.47-.07-.94-.15-1.4-.2,23.05,171.9-31.49,352.2-163.62,484.33-132.11,132.11-312.41,186.66-484.33,163.62Z"/><path class="f" d="M863.98,216.03c-.06-.45-.13-.93-.2-1.4-179.32-178.45-469.37-178.18-648.35,.8-179,179-179.23,469.04-.74,648.37,.45,.05,.89,.13,1.34,.18,171.92,23.03,352.22-31.51,484.33-163.62,132.13-132.13,186.67-312.43,163.62-484.33Z"/></g><g><path class="e" d="M529.93,1079.44C232.23,1073.89-5.45,827.34,.1,529.84,5.65,232.33,252.36-5.2,550.07,.35c297.7,5.55,535.39,252.1,529.84,549.6-5.55,297.5-252.27,535.03-549.97,529.49Zm18.49-991c-249.1-4.64-455.21,194.11-460.18,443.04-5.28,264.33,194.24,455.23,443.33,459.87,249.1,4.64,455.97-194.1,460.18-443.04,4.31-254.74-194.24-455.23-443.33-459.87Z"/><path class="b" d="M529.89,1079.9c-246.73-4.6-446.39-158.01-508.65-390.85-6.28-23.5,7.69-47.65,31.21-53.93,23.52-6.29,47.68,7.68,53.97,31.19,62.99,235.59,268.38,322.59,425.12,325.51,17.92,.33,36.03-.33,53.83-1.97,24.23-2.22,45.71,15.59,47.95,39.82,2.24,24.23-15.6,45.68-39.84,47.92-21.03,1.94-42.42,2.72-63.58,2.33Zm499.15-573.67c-20.99-.39-39.31-15.78-42.67-37.22-34.01-216.6-218.19-376.79-437.95-380.88h-.34c-24.19-.46-44.4-20.33-44.14-44.54C504.21,19.25,523.27-.26,547.62,0c.06,0,1.17,.02,1.23,.02,.06,0,1.17,.02,1.23,.02,262.62,4.89,482.74,196.38,523.4,455.32,3.77,24.03-12.67,46.57-36.72,50.35-2.59,.4-5.17,.58-7.71,.53Z"/></g><g><path class="e" d="M529.93,1079.44C232.23,1073.89-5.45,827.34,.1,529.84,5.65,232.33,252.36-5.2,550.07,.35c297.7,5.55,535.39,252.1,529.84,549.6-5.55,297.5-252.27,535.03-549.97,529.49Zm18.49-991c-249.1-4.64-455.21,194.11-460.18,443.04-5.28,264.33,194.24,455.23,443.33,459.87,249.1,4.64,455.97-194.1,460.18-443.04,4.31-254.74-194.24-455.23-443.33-459.87Z"/><path class="b" d="M529.89,1079.9c-246.73-4.6-446.39-158.01-508.65-390.85-6.28-23.5,7.69-47.65,31.21-53.93,23.52-6.29,47.68,7.68,53.97,31.19,62.99,235.59,268.38,322.59,425.12,325.51,17.92,.33,36.03-.33,53.83-1.97,24.23-2.22,45.71,15.59,47.95,39.82,2.24,24.23-15.6,45.68-39.84,47.92-21.03,1.94-42.42,2.72-63.58,2.33Zm499.15-573.67c-20.99-.39-39.31-15.78-42.67-37.22-34.01-216.6-218.19-376.79-437.95-380.88h-.34c-24.19-.46-44.4-20.33-44.14-44.54C504.21,19.25,523.27-.26,547.62,0c.06,0,1.17,.02,1.23,.02,.06,0,1.17,.02,1.23,.02,262.62,4.89,482.74,196.38,523.4,455.32,3.77,24.03-12.67,46.57-36.72,50.35-2.59,.4-5.17,.58-7.71,.53Z"/></g><g><path class="c" d="M823.14,344.14c-33.06-133.37-108.34-160.58-230.21-75.58-25.55,17.82-49.21,38.39-73.32,58.2-58.22,47.84-145.19,36.39-215.17,33.55-26.3-1.07-42.8,10-50.79,33.6-23.05,68.11-22.26,136.6,.46,204.55,7.32,21.89,22.39,34.59,48,32.71,31.72-2.33,64.38-2.88,96.19-3.46,66.97-1.22,121.66,29.39,169.14,74.54,22.87,21.75,51.67,39.12,80.6,52.31,77.07,35.13,128.55,15.33,159.51-63.08,44.78-113.41,44.53-230.6,15.59-347.33Zm-100.27,376.57c-5,1.12-9.86,.12-14.43-3.12-38.86-17.86-68.48-110.42-68.48-221.99,0-123.87,36.5-224.34,81.63-225.12l.04-.04,.03,.03c.15,0,.3-.03,.46-.03,45.38,0,82.16,100.8,82.16,225.15s-36.38,224-81.41,225.1Z"/><path class="c" d="M683.22,546.34c0,18.7,19.68,30.81,36.41,22.47,26.87-13.39,45.33-41.14,45.33-73.21s-18.46-59.82-45.33-73.21c-16.73-8.34-36.41,3.78-36.41,22.47v101.47Z"/><path class="c" d="M320.3,705.68c-6.46-34.66-1.69-47.48,35.28-48.77,28.05-.98,69.03-8.29,86.27,20.15,14.07,23.22,33.55,84.88,45.34,110.55,8.47,18.44,3.2,30.92-12.66,41.4-20.6,13.62-42.91,22.91-66.83,28.75-26.36,6.44-46.13,.01-55.88-27.35-11.7-32.86-26.47-91.62-31.52-124.74Z"/></g></svg>