<?xml version="1.0" encoding="UTF-8"?><svg id="a" xmlns="http://www.w3.org/2000/svg" viewBox="0 0 1080 1080"><defs><style>.b{fill:#6a45ff;}.c{fill:#f1c75a;}.d{fill:#9d85ff;}.e{fill:#ffdc83;stroke:#ffdc83;}.e,.f,.g{stroke-miterlimit:10;}.f{fill:#f9ebb4;stroke:#f9ebb4;}.g{fill:none;stroke:#b3b3ff;stroke-width:4.31px;}</style></defs><g><path class="g" d="M863.98,216.03c.45,.05,.93,.13,1.4,.2l-1.6-1.6c.07,.47,.15,.94,.2,1.4ZM216.03,863.98c-.45-.05-.89-.13-1.34-.18l1.52,1.52c-.05-.45-.13-.89-.18-1.34Z"/><path class="e" d="M216.03,863.98c.05,.45,.13,.89,.18,1.34,179.32,178.49,469.35,178.23,648.35-.76,178.98-178.98,179.27-469.01,.82-648.33-.47-.07-.94-.15-1.4-.2,23.05,171.9-31.49,352.2-163.62,484.33-132.11,132.11-312.41,186.66-484.33,163.62Z"/><path class="f" d="M863.98,216.03c-.06-.45-.13-.93-.2-1.4-179.32-178.45-469.37-178.18-648.35,.8-179,179-179.23,469.04-.74,648.37,.45,.05,.89,.13,1.34,.18,171.92,23.03,352.22-31.51,484.33-163.62,132.13-132.13,186.67-312.43,163.62-484.33Z"/></g><g><path class="c" d="M802.98,680.37c-5.57-8.77-9.05-18.88-13.48-28.38-57.36-123.06-115-245.99-171.87-369.27-12.33-26.73-31.3-39.62-60.57-37.59-5.22,.36-10.49,.03-15.74,.13-22.1,.43-37.99,10.74-47.33,30.64-25.19,53.67-50.33,107.37-75.34,161.12,5.71,0,11.41,0,17.12,0,24.98,0,49.95,0,74.93,.01,3.33,0,7.76,.04,12.46,.3,3.12,.18,6.81,.39,10.73,1.05,4.61,.78,8.84-2.7,8.84-7.38,0-10.15,0-26.4,0-39.7,0-6.16,4.99-11.14,11.15-11.14h0c6.16,0,11.15,5,11.15,11.16,0,16.23-.02,31.96,0,47.69,.07,47.23,17.64,64.86,64.39,64.72,15.93-.05,31.86-.02,47.62-.01,6.17,0,11.17,5.01,11.17,11.18h0c0,6.18-5.02,11.18-11.2,11.18-18.94-.02-37.27-.08-55.61,.03-30.29,.18-48.91,13.78-54.54,39.45,0,10.73,0,21.21,0,21.21,0,21.45-.01,42.89,.02,64.34,0,6.28-.35,13.09-3.02,20.37-4.18,11.42-12.89,20.17-24.52,24.65-4.95,1.9-10.03,2.87-15.12,2.87-17.3,0-28.01-10.68-33.16-15.81l-.43-.43c-2.12-2.11-4.27-4.2-6.41-6.28-.98-.95-1.96-1.91-2.95-2.88-4.92-4.81-12.37-5.87-18.42-2.61-37.99,20.51-76.36,40.96-113.65,60.83-7.2,3.84-14.41,7.68-21.61,11.53,3.06,.81,6.27,1.26,9.6,1.27,49.85,.11,99.74-1.23,149.53,.56,26.85,.96,44.4-6.88,53.09-33.17,1.4-4.23,8.97-9.14,13.46-8.92,5.26,.26,11.07,5.01,15.13,9.26,3.44,3.59,4.61,9.3,6.98,13.98,5.95,11.79,15.34,18.31,28.81,18.31,57.19,0,114.4,.49,171.57-.57,7.98-.15,18.36-6.03,23.2-12.54,11.44-15.4,15.73-32.75,4.03-51.17Z"/><path class="c" d="M536.87,567.17c0,28-.03,56.01,.01,84.01,.01,7.08-.4,13.92-8.32,16.98-7.54,2.9-12.15-2.06-16.78-6.65-8.15-8.1-16.63-15.91-24.22-24.51-6.01-6.8-11.11-7.46-19.31-3.01-58.05,31.49-116.4,62.41-174.66,93.52-1.58,.85-3.19,1.65-4.79,2.46-5.34,2.68-10.97,4.86-15.89-.22-4.93-5.09-2.53-10.58,.38-15.84,25.18-45.55,50.32-91.11,75.5-136.66,7.81-14.14,15.36-28.43,23.67-42.27,4.17-6.94,2.91-11.44-2.75-16.72-9.7-9.05-18.69-18.85-27.97-28.34-3.85-3.93-7.54-7.95-5.3-14.15,2.34-6.47,7.82-7.92,13.78-8.39,3.57-.28,7.17-.34,10.76-.34,49.9-.02,99.81-.02,149.71,0,3.59,0,7.18,.05,10.76,.26,14.19,.81,15.37,1.94,15.4,15.86,.07,28,.02,56.01,.02,84.01Z"/></g><g><path class="d" d="M529.93,1079.44C232.23,1073.89-5.45,827.34,.1,529.84,5.65,232.33,252.36-5.2,550.07,.35c297.7,5.55,535.39,252.1,529.84,549.6-5.55,297.5-252.27,535.03-549.97,529.49Zm18.49-991c-249.1-4.64-455.21,194.11-460.18,443.04-5.28,264.33,194.24,455.23,443.33,459.87,249.1,4.64,455.97-194.1,460.18-443.04,4.31-254.74-194.24-455.23-443.33-459.87Z"/><path class="b" d="M529.89,1079.9c-246.73-4.6-446.39-158.01-508.65-390.85-6.28-23.5,7.69-47.65,31.21-53.93,23.52-6.29,47.68,7.68,53.97,31.19,62.99,235.59,268.38,322.59,425.12,325.51,17.92,.33,36.03-.33,53.83-1.97,24.23-2.22,45.71,15.59,47.95,39.82,2.24,24.23-15.6,45.68-39.84,47.92-21.03,1.94-42.42,2.72-63.58,2.33Zm499.15-573.67c-20.99-.39-39.31-15.78-42.67-37.22-34.01-216.6-218.19-376.79-437.95-380.88h-.34c-24.19-.46-44.4-20.33-44.14-44.54C504.21,19.25,523.27-.26,547.62,0c.06,0,1.17,.02,1.23,.02,.06,0,1.17,.02,1.23,.02,262.62,4.89,482.74,196.38,523.4,455.32,3.77,24.03-12.67,46.57-36.72,50.35-2.59,.4-5.17,.58-7.71,.53Z"/></g></svg>