<?xml version="1.0" encoding="UTF-8"?><svg id="a" xmlns="http://www.w3.org/2000/svg" viewBox="0 0 1080 1080"><defs><style>.b{fill:#6a45ff;}.c{fill:#fff;}.d{fill:#9d85ff;}.e{fill:#00aaa5;stroke:#00aaa5;}.e,.f,.g{stroke-miterlimit:10;}.e,.g{stroke-width:4.31px;}.f{fill:#00ced1;stroke:#00ced1;}.g{fill:none;stroke:#b3b3ff;}</style></defs><g><path class="g" d="M863.98,216.03c.45,.05,.93,.13,1.4,.2l-1.6-1.6c.07,.47,.15,.94,.2,1.4ZM216.03,863.98c-.45-.05-.89-.13-1.34-.18l1.52,1.52c-.05-.45-.13-.89-.18-1.34Z"/><path class="e" d="M216.03,863.98c.05,.45,.13,.89,.18,1.34,179.32,178.49,469.35,178.23,648.35-.76,178.98-178.98,179.27-469.01,.82-648.33-.47-.07-.94-.15-1.4-.2,23.05,171.9-31.49,352.2-163.62,484.33-132.11,132.11-312.41,186.66-484.33,163.62Z"/><path class="f" d="M863.98,216.03c-.06-.45-.13-.93-.2-1.4-179.32-178.45-469.37-178.18-648.35,.8-179,179-179.23,469.04-.74,648.37,.45,.05,.89,.13,1.34,.18,171.92,23.03,352.22-31.51,484.33-163.62,132.13-132.13,186.67-312.43,163.62-484.33Z"/></g><g><path class="c" d="M482.27,654.25c-5.57,8.07-11.01,16.51-16.26,24.68-3.76,5.84-7.65,11.88-11.59,17.78-.2,.3-.55,.98-.86,1.59-1.46,2.85-3.91,7.63-9.25,9.21-2.27,.67-5.85,.97-10.05-1.43-4.34-2.48-5.98-5.81-6.58-8.17-1.44-5.59,1.39-10.25,3.26-13.33,.38-.62,.74-1.21,.94-1.62,3.41-6.7,6.96-13.44,10.4-19.95,4.1-7.75,8.33-15.77,12.29-23.71,9.51-19.05,9.03-39.84-1.31-57.03-10.39-17.27-28.62-27.48-50.02-28.02-11.57-.29-23.27-.85-34.59-1.4-3.56-.17-7.12-.34-10.68-.51-2.18-.1-4.21-.44-6-.75-.47-.08-.95-.16-1.42-.24h-.06c-1.97-.32-4.66-.75-7.21-2.26-3.96-2.35-6.12-6.49-5.92-11.35,.2-4.9,2.7-8.87,6.88-10.89,2.8-1.35,5.67-1.5,7.57-1.6,2.27-.12,4.54-.24,6.82-.36,8.01-.42,16.28-.86,24.47-1.14,2.32-.08,4.65-.13,6.91-.19,12.65-.29,24.6-.57,35.67-4.93,14.78-5.82,26.59-17.65,32.38-32.46,5.83-14.9,5.23-31-1.7-45.35-5.15-10.67-10.73-21.42-16.13-31.82-2.77-5.33-5.63-10.84-8.41-16.29-1.23-2.42-4.13-8.09-1.9-13.99,.95-2.51,3.2-5.95,8.53-8.06h0c1.29-.51,2.68-.69,4.05-.52h0c7.46,.9,10.79,6.15,12.57,8.98l.33,.52c3.38,5.26,6.78,10.63,10.07,15.82,5.92,9.34,12.03,19,18.22,28.33,4.68,7.05,10.44,12.85,16.98,17.22,5.5,3.69,12.9-.29,12.91-6.92,.09-46.49,.13-82.04,.08-91.45-.03-5.81-.81-11.7-1.99-17.4-6.56-31.61-34.14-55.12-65.66-56.24-33.08-1.18-62.62,18.31-70.3,49.65-8.89,36.28-30.77,56.7-66.2,66.9-52.99,15.26-67.76,80.69-27.97,118.98,24.76,23.83,24.47,46.56-.07,70.69-19,18.68-26.75,41.4-20.34,67.76,6.5,26.74,23.38,44.85,49.81,51.72,34.39,8.95,55.11,29.58,63.82,64,8.19,32.35,38.34,54.01,70.03,52.2,34.2-1.95,61.71-26.2,67.32-59.48,.28-1.68,.58-47.13,.83-107.24,.03-6.53-7.13-10.52-12.7-7.11-6.95,4.25-13.06,10.03-17.98,17.16Z"/><path class="c" d="M798.46,504.55c39.79-38.28,25.01-103.72-27.98-118.98-35.43-10.2-57.31-30.62-66.2-66.9-7.68-31.35-37.22-50.83-70.3-49.65-31.51,1.12-59.1,24.63-65.66,56.24-1.18,5.7-1.96,11.59-1.99,17.4-.05,9.54-.02,45.92,.08,93.33,.01,6.35,6.87,10.37,12.39,7.24,7.96-4.52,14.98-11.02,20.52-19.23,5.68-8.42,11.27-17.17,16.67-25.63,3.85-6.04,7.84-12.28,11.85-18.39,.18-.28,.42-.69,.68-1.13,1.09-1.86,2.58-4.42,5.12-6.32,4.02-3,9.03-3.23,13.72-.62,5.01,2.79,7.57,7.45,7.03,12.8-.34,3.38-1.84,6.2-3.04,8.46l-.32,.6c-2.62,4.99-5.31,10.02-7.91,14.9-5.49,10.27-11.16,20.9-16.37,31.46-8.9,18.08-8.61,38.02,.81,54.72,9.44,16.74,26.41,27.33,46.56,29.07,11.63,1,23.57,1.62,35.11,2.22,5.59,.29,11.38,.59,17.08,.93,.38,.02,.78,.03,1.19,.04,2.03,.05,4.8,.12,7.55,1.28,4.26,1.8,7,5.63,7.5,10.48,.5,4.82-1.25,7.97-2.8,9.76-3.61,4.17-8.9,4.39-11.75,4.51-.29,.01-.57,.02-.83,.04l-5.33,.32c-15.24,.92-31,1.86-46.59,2.23-19.82,.47-37.75,10.8-47.96,27.65-4.87,8.03-7.72,17.16-8.26,26.42-.57,9.9,1.43,19.57,5.94,28.74,5.05,10.27,10.34,20.66,15.46,30.72,2.61,5.13,5.22,10.25,7.81,15.39l.36,.7c.95,1.87,1.93,3.8,2.77,5.96,1.08,2.77,1.44,5.3,1.1,7.74-.52,3.72-2.66,6.88-6.02,8.92-2.11,1.28-4.35,1.9-6.55,1.9-4.06,0-8-2.11-10.85-6.09-2.84-3.96-5.43-7.94-8.44-12.7-2.9-4.59-5.82-9.26-8.65-13.78-4.44-7.11-9.04-14.46-13.64-21.59-4.99-7.73-11.37-13.97-18.73-18.51-5.5-3.39-12.58,.73-12.55,7.19,.26,60.01,.55,105.36,.83,107.04,5.61,33.28,33.12,57.53,67.32,59.48,31.69,1.8,61.83-19.86,70.03-52.2,8.72-34.42,29.44-55.05,63.82-64,26.43-6.88,43.32-24.98,49.81-51.72,6.4-26.36-1.35-49.09-20.34-67.76-24.54-24.13-24.83-46.86-.07-70.69Z"/></g><g><path class="d" d="M529.93,1079.44C232.23,1073.89-5.45,827.34,.1,529.84,5.65,232.33,252.36-5.2,550.07,.35c297.7,5.55,535.39,252.1,529.84,549.6-5.55,297.5-252.27,535.03-549.97,529.49Zm18.49-991c-249.1-4.64-455.21,194.11-460.18,443.04-5.28,264.33,194.24,455.23,443.33,459.87,249.1,4.64,455.97-194.1,460.18-443.04,4.31-254.74-194.24-455.23-443.33-459.87Z"/><path class="b" d="M529.89,1079.9c-246.73-4.6-446.39-158.01-508.65-390.85-6.28-23.5,7.69-47.65,31.21-53.93,23.52-6.29,47.68,7.68,53.97,31.19,62.99,235.59,268.38,322.59,425.12,325.51,17.92,.33,36.03-.33,53.83-1.97,24.23-2.22,45.71,15.59,47.95,39.82,2.24,24.23-15.6,45.68-39.84,47.92-21.03,1.94-42.42,2.72-63.58,2.33Zm499.15-573.67c-20.99-.39-39.31-15.78-42.67-37.22-34.01-216.6-218.19-376.79-437.95-380.88h-.34c-24.19-.46-44.4-20.33-44.14-44.54C504.21,19.25,523.27-.26,547.62,0c.06,0,1.17,.02,1.23,.02,.06,0,1.17,.02,1.23,.02,262.62,4.89,482.74,196.38,523.4,455.32,3.77,24.03-12.67,46.57-36.72,50.35-2.59,.4-5.17,.58-7.71,.53Z"/></g></svg>