<?xml version="1.0" encoding="UTF-8"?><svg id="a" xmlns="http://www.w3.org/2000/svg" viewBox="0 0 1080 1080"><defs><style>.b{fill:#6a45ff;}.c{fill:#9d85ff;}.d{fill:#e54888;stroke:#e54888;}.d,.e,.f,.g{stroke-miterlimit:10;}.d,.e,.g{stroke-width:4.31px;}.e{fill:#ef73a0;stroke:#ef73a0;}.f{fill:#ffa6c6;stroke:#ffa6c6;}.g{fill:none;stroke:#b3b3ff;}</style></defs><g><path class="g" d="M846.37,215.76c.45,.05,.93,.13,1.4,.2l-1.6-1.6c.07,.47,.15,.94,.2,1.4ZM198.42,863.71c-.45-.05-.89-.13-1.34-.18l1.52,1.52c-.05-.45-.13-.89-.18-1.34Z"/><path class="e" d="M198.42,863.71c.05,.45,.13,.89,.18,1.34,179.32,178.49,469.35,178.23,648.35-.76,178.98-178.98,179.27-469.01,.82-648.33-.47-.07-.94-.15-1.4-.2,23.05,171.9-31.49,352.2-163.62,484.33-132.11,132.11-312.41,186.66-484.33,163.62Z"/><path class="f" d="M846.37,215.76c-.06-.45-.13-.93-.2-1.4-179.32-178.45-469.37-178.18-648.35,.8-179,179-179.23,469.04-.74,648.37,.45,.05,.89,.13,1.34,.18,171.92,23.03,352.22-31.51,484.33-163.62,132.13-132.13,186.67-312.43,163.62-484.33Z"/></g><g><path class="d" d="M480.14,748.99c.05,3.71,.13-5.46,0,0h0Z"/><path class="d" d="M783.33,775.9c-15.76,1.95-19.68-5.71-19.51-20.43,.65-58.97,.7-59.99,0-118.96-.18-15.51,3.79-23.34,20.59-21.39,47.63,5.52,67.61-36.47,100.4-57.4-15.53-2.7-30.05-2.83-44.57-2.67-28.02,.3-54.87-5.04-80.78-15.75-9.66-3.99-14.48-10.04-14.43-20.86,.17-37.69,.22-54.56,.14-79.97,3.06-2.41,7.66-3.46,14.52-2.85,7.8,.7,12.66-3.46,12.89-12.06,.21-7.92-2.58-13.01-11.02-14.07-2.29-.29-4.48-1.28-10.34-3.02,24.37-11.19,40.5-27.53,58.85-40.73,4.06-2.92,11.71-5.43,9.19-11.92-2.36-6.09-9.99-4.23-14.93-3.45-34.1,5.38-60.24-6.33-82-33.02-10.25-12.57-22.54-22.57-19.44-40.98,.46-2.71,.29-7.09-3.66-7.19-2.52-.07-5.87,1.96-7.53,4.07-7.78,9.88-17.16,13.99-30.17,13.91-82.33-.52-164.67-.4-247-.13-10.61,.04-19.12-2.04-25.4-11.33-2.52-3.72-5.62-9.57-11.32-7.24-5.38,2.21-4.59,8.6-3.95,13.17,2.81,19.97-7.44,32.06-20.96,45.63-18.7,18.77-38.81,26.27-64.25,22.97-6.04-.78-12.28-.22-18.42-.02-3.53,.12-8-.77-9.64,3.46-1.69,4.33,2.34,6.56,5.02,8.8,14.12,11.84,28.33,23.57,42.56,35.27,5.05,4.15,13.04,5.08,4.59,15.72-6.08,7.66-5.44,21.82,10.8,22.11,4.94,.09,8.43,1.04,10.87,2.76,.01,8.65,.08,17.2,.07,36.41,0,61.09-2.86,64.22-64.27,76.5-21.32,4.26-42.73,3.89-64.21,3.82-3.54-.01-7.75-1.05-10.09,2.57-2.22,3.44,.76,5.94,3.12,7.6,31.55,22.29,55.73,59.5,102.93,50.21,9.95-1.96,14.14,4.11,14.11,14.19-.19,63.27-.14,68.59-.06,131.86,.01,8.77-3.27,14.94-12.67,14.17-16.52-1.36-15.31,9.57-15.58,20.35-.34,13.49,7.25,16.03,18.85,16.01,158.49-.2,316.98-.23,475.47,.02,13.08,.02,18.86-4.13,19.04-17.93,.17-13.29-3.92-19.96-17.83-18.24Zm-94.6-377.44c0-6.03,4.89-10.92,10.92-10.92s10.92,4.89,10.92,10.92v147.68c0,6.03-4.89,10.92-10.92,10.92s-10.92-4.89-10.92-10.92v-147.68Zm-148.73-10.92c27.26,0,49.36,22.1,49.36,49.36s-22.1,49.36-49.36,49.36-49.36-22.1-49.36-49.36,22.1-49.36,49.36-49.36Zm-173.54,10.92c0-6.03,4.89-10.92,10.92-10.92s10.92,4.89,10.92,10.92v147.68c0,6.03-4.89,10.92-10.92,10.92s-10.92-4.89-10.92-10.92v-147.68Zm29.91,310.91c-15.14,.38-26.54-10.58-27.29-26.24-.79-16.55,8.63-27.28,24.64-28.06,17.04-.83,29.27,9.68,29.67,25.5,.41,16.01-11.22,28.4-27.03,28.8Zm184.92,64.5c-28.25-.77-56.54-.5-84.8-.14-11.7,.15-16.69-4.48-16.5-16.36,.07-4.29,.12-6.88,.16-8.38-.02-1.26-.03-3.97-.03-9.25-.02-23.97,.49-47.95-.21-71.9-.46-15.96,7.33-25.7,20.85-31.37,22.32-9.36,45.7-10.1,68.61-3.5,24.85,7.16,30.79,16.67,30.82,43.02,.05,45.48-.39,33,.23,78.47,.2,14.3-4.63,19.8-19.14,19.4Zm101.5-64.52c-16.15-.48-26.67-12.08-26.12-28.82,.53-16.19,10.5-25.59,27.02-25.48,17.22,.11,27.88,10.74,27.32,27.24-.55,16.15-12.41,27.53-28.22,27.06Z"/></g><g><path class="c" d="M512.33,1079.17C214.62,1073.62-23.06,827.07-17.51,529.56-11.96,232.06,234.75-5.47,532.46,.08c297.7,5.55,535.39,252.1,529.84,549.6-5.55,297.5-252.27,535.03-549.97,529.49Zm18.49-991c-249.1-4.64-455.21,194.11-460.18,443.04-5.28,264.33,194.24,455.23,443.33,459.87,249.1,4.64,455.97-194.1,460.18-443.04,4.31-254.74-194.24-455.23-443.33-459.87Z"/><path class="b" d="M512.29,1079.63c-246.73-4.6-446.39-158.01-508.65-390.85-6.28-23.5,7.69-47.65,31.21-53.93,23.52-6.29,47.68,7.68,53.97,31.19,62.99,235.59,268.38,322.59,425.12,325.51,17.92,.33,36.03-.33,53.83-1.97,24.23-2.22,45.71,15.59,47.95,39.82,2.24,24.23-15.6,45.68-39.84,47.92-21.03,1.94-42.42,2.72-63.58,2.33ZM1011.44,505.96c-20.99-.39-39.31-15.78-42.67-37.22-34.01-216.6-218.19-376.79-437.95-380.88h-.34c-24.19-.46-44.4-20.33-44.14-44.54,.27-24.33,19.33-43.84,43.68-43.58,.06,0,1.17,.02,1.23,.02,.06,0,1.17,.02,1.23,.02,262.62,4.89,482.74,196.38,523.4,455.32,3.77,24.03-12.67,46.57-36.72,50.35-2.59,.4-5.17,.58-7.71,.53Z"/></g><g><path class="c" d="M512.33,1079.17C214.62,1073.62-23.06,827.07-17.51,529.56-11.96,232.06,234.75-5.47,532.46,.08c297.7,5.55,535.39,252.1,529.84,549.6-5.55,297.5-252.27,535.03-549.97,529.49Zm18.49-991c-249.1-4.64-455.21,194.11-460.18,443.04-5.28,264.33,194.24,455.23,443.33,459.87,249.1,4.64,455.97-194.1,460.18-443.04,4.31-254.74-194.24-455.23-443.33-459.87Z"/><path class="b" d="M512.29,1079.63c-246.73-4.6-446.39-158.01-508.65-390.85-6.28-23.5,7.69-47.65,31.21-53.93,23.52-6.29,47.68,7.68,53.97,31.19,62.99,235.59,268.38,322.59,425.12,325.51,17.92,.33,36.03-.33,53.83-1.97,24.23-2.22,45.71,15.59,47.95,39.82,2.24,24.23-15.6,45.68-39.84,47.92-21.03,1.94-42.42,2.72-63.58,2.33ZM1011.44,505.96c-20.99-.39-39.31-15.78-42.67-37.22-34.01-216.6-218.19-376.79-437.95-380.88h-.34c-24.19-.46-44.4-20.33-44.14-44.54,.27-24.33,19.33-43.84,43.68-43.58,.06,0,1.17,.02,1.23,.02,.06,0,1.17,.02,1.23,.02,262.62,4.89,482.74,196.38,523.4,455.32,3.77,24.03-12.67,46.57-36.72,50.35-2.59,.4-5.17,.58-7.71,.53Z"/></g></svg>