<?xml version="1.0" encoding="UTF-8"?><svg id="a" xmlns="http://www.w3.org/2000/svg" xmlns:xlink="http://www.w3.org/1999/xlink" viewBox="0 0 1080 1080"><defs><style>.c{fill:#007a3d;}.d{fill:#fff;}.e{fill:#ffbe2c;}.f{fill:#ce1126;}.g{clip-path:url(#b);}</style><clipPath id="b"><ellipse class="e" cx="540" cy="540" rx="539.89" ry="539.83"/></clipPath></defs><g><ellipse class="e" cx="540" cy="540" rx="539.89" ry="539.83"/><g class="g"><ellipse class="f" cx="540" cy="540" rx="539.89" ry="539.83"/><path class="c" d="M894.81,133.1C771.25,25.54,600.41-24.7,427.81,11.96,136.15,73.91-50.06,360.54,11.9,652.17c11.33,53.32,30.2,103.1,55.21,148.5,511.02-207.74,736.71-503.51,827.71-667.57Z"/></g></g><g><path class="d" d="M559.46,402.46c-22.27-35.04-13.94-27.77-51.15-28.53-1.37-.03-2.75-.02-4.13,.01-13.46,.28-15.46,2.2-15.47,15.71-.05,46.07-.02,92.15-.02,138.22,0,2.06,0,4.13,0,6.19,0,45.04,.1,90.08-.09,135.12-.03,7.5,1.59,12.4,10.31,10.75,7.89-1.49,4.89-8.03,5.05-12.58,.48-13.63,.35-13.78,13.98-13.83,15.82-.06,31.63-.12,47.45,.01,15.9,.13,19.49-3.13,14.84,17.1-.74,3.2-3.83,8.82,3.52,9.38,5.23,.4,10.14,.61,11.56-6.79,7.36-38.41,15.45-76.43,12.95-116.24-3.5-55.86-18.96-107.6-48.8-154.54Zm32.62,140.07c.14,9.38-6.18,8.27-11.9,8.34-10.63,.13-21.27,.04-31.91,.03-11.32-.01-22.65-.21-33.97,.06-7.11,.17-10.79-2.44-10.28-9.51,.07-.94,.07-2.5,.06-3.44-.2-16.56,0-16.57,16.64-16.57,19.56,0,39.12-.09,58.67,.13,10.16,.11,12.45,4.67,12.69,20.97Zm-8.18-37.99c-2.01,2.86-5.5,2.47-8.52,2.5-10.3,.1-20.61-.3-30.92-.65-10.25-.34-20.5-.63-30.73-.29-6.99,.23-10.3-2.37-9.65-9.54,.23-2.51,.21-5.04-.07-7.54-1-8.89,3.18-11.6,11.89-11.36,18.15,.51,36.33,.04,54.49,.24,7.2,.08,17.63,20.8,13.51,26.65Zm-74.96-114.61c5.92-2.28,12.83-2.07,18.75,.11,6.74,2.48,24.01,18.97,19.68,26.69-3.08,5.5-13.34,1.14-19.2,2.09-4.92,0-8.71-.29-12.43,.06-7.21,.67-11.33-2.92-11.7-10.04-.33-6.3-2.43-16.07,4.9-18.89Zm6.81,44.14c11.65,.63,23.37,.08,35.06,.18,8.11,.07,21.24,17.04,19.38,24.88-.9,3.78-4.1,3.16-6.66,3.21-8.59,.15-17.19,.06-25.78,.06v.04c-7.56,0-15.15-.41-22.68,.11-8.84,.6-11.98-3.36-10.95-11.8,.2-1.66,.16-3.35-.06-5.02-1.14-8.93,2.69-12.14,11.7-11.65Zm73.88,187.56c-.73,2.67-1.24,5.41-1.46,8.17-.49,6.29-3.76,8.36-9.35,8.33-21.98-.12-43.96-.19-65.93,.03-6.84,.07-9.25-2.99-8.8-9.37,.17-2.39,.25-4.84-.04-7.2-1.11-9.03,2.75-12.33,11.75-11.83,10.61,.59,21.28,.14,31.93,.14,11.33,0,22.68,.33,33.99-.11,8.36-.33,10.17,3.56,7.91,11.84Zm-6.48-26.99c-11.33-.46-22.69-.12-34.03-.11s-22.71-.39-34.03,.13c-8.71,.4-11.89-3.22-11.04-11.52,.32-3.06,.19-6.19,.1-9.28-.14-5.16,2.23-7.5,7.43-7.49,24.75,.06,49.51,.06,74.26-.04,5.98-.03,8.55,2.84,8.14,9.08-.17,2.67-.15,5.35,.02,8.02,.48,7.88-2.58,11.55-10.86,11.22Z"/><path class="d" d="M781.81,216.09c-6.94-.92-13.88-1.34-20.96-1.39-78.59-.52-150.14,53.48-181.72,107.99-8.84,15.25-7.53,34.3,2.97,48.45,9.14,12.32,17.56,25.39,25.39,39.06,25.27,44.1,39.88,91.98,46.01,142.35,5.17,42.44,1.09,84.37-8.55,125.86-.78,3.35-1.47,6.72-2.38,10.03-1.73,6.28-.39,9.52,7.06,9.99,12.48,.79,14.63,3.56,14.77,16.03,.09,8.25-.11,16.51,.05,24.77,.1,5.07-1.19,9.5-4.73,13.19h-239.42c-3.54-3.69-4.86-8.12-4.73-13.19,.16-6.19,.02-12.38,.02-18.57,0-19.82,0-19.95,19.96-22.36,4.71-.57,6.84-2.45,6.72-7.11-.08-3.09,.03-6.19,.03-9.29,0-130.96,0-261.92,0-392.88,0-23.67-13.8-45.29-35.42-54.91-27.9-12.41-58.35-19.5-87.87-19.5-6.79,0-12.85,.59-20.45,1.53-20.6,2.57-36.14,20.16-36.14,40.92l-.07,443.09c1.34,91.2,76.26,165.39,167.01,165.39,40.59,0,78.96-14.64,108.73-40.48,1.01-.88,2.5-.88,3.51,0,29.77,25.84,68.15,40.48,108.74,40.48,90.8,0,165.69-74.26,166.94-165.96l.42-442.53c.03-20.67-15.4-38.28-35.86-40.95Z"/><path class="d" d="M435.29,723.19c-.27,10.45,4.98,10.23,10.81,10.23,62.58-.05,125.16-.04,187.74,0,5.8,0,11.1,.32,10.85-10.17-.24-10.16-5.76-8.76-10.81-8.77-31.29-.05-62.58-.03-93.87-.03-31.29,0-62.58-.03-93.87,.03-5.02,0-10.59-1.46-10.85,8.71Z"/></g></svg>