<?xml version="1.0" encoding="UTF-8"?><svg id="a" xmlns="http://www.w3.org/2000/svg" viewBox="0 0 1080 1080"><defs><style>.b{fill:#6a45ff;}.c{fill:#fff;}.d{fill:#9d85ff;}.e{fill:#2fadeb;stroke:#2fadeb;}.e,.f,.g{stroke-miterlimit:10;}.e,.g{stroke-width:4.31px;}.f{fill:#52b9eb;stroke:#52b9eb;}.g{fill:none;stroke:#b3b3ff;}</style></defs><g><g><path class="g" d="M863.98,216.03c.45,.05,.93,.13,1.4,.2l-1.6-1.6c.07,.47,.15,.94,.2,1.4ZM216.03,863.98c-.45-.05-.89-.13-1.34-.18l1.52,1.52c-.05-.45-.13-.89-.18-1.34Z"/><path class="e" d="M216.03,863.98c.05,.45,.13,.89,.18,1.34,179.32,178.49,469.35,178.23,648.35-.76,178.98-178.98,179.27-469.01,.82-648.33-.47-.07-.94-.15-1.4-.2,23.05,171.9-31.49,352.2-163.62,484.33-132.11,132.11-312.41,186.66-484.33,163.62Z"/><path class="f" d="M863.98,216.03c-.06-.45-.13-.93-.2-1.4-179.32-178.45-469.37-178.18-648.35,.8-179,179-179.23,469.04-.74,648.37,.45,.05,.89,.13,1.34,.18,171.92,23.03,352.22-31.51,484.33-163.62,132.13-132.13,186.67-312.43,163.62-484.33Z"/></g><path class="c" d="M816.98,480.2c-14.98-91.76-92.7-182.58-213.48-194.75-120.78-12.17-276.21,65.54-322.09,160.11-45.88,94.57-45.88,206.93,17.79,268.72,63.67,61.8,118.85,79.59,197.53,81.46,69.95,1.66,99.92-23.31,95.83-84.81-1.45-21.88,9.65-42.77,28.74-53.57,13.8-7.81,33.33-15.95,60.85-22.67,80.52-19.66,149.81-62.73,134.83-154.49Zm-529.8,98.82c-8.91-24.65,3.84-51.85,28.49-60.77,24.65-8.91,51.85,3.84,60.76,28.49,8.91,24.65-3.84,51.85-28.49,60.77-24.65,8.91-51.85-3.84-60.76-28.49Zm91.11,124.08c-21.02,7.6-44.22-3.28-51.83-24.3-7.6-21.02,3.28-44.23,24.3-51.83,21.02-7.6,44.22,3.28,51.83,24.3,7.6,21.02-3.28,44.23-24.3,51.83Zm33.62-200.77c-27.46,9.93-57.77-4.28-67.71-31.74-9.93-27.46,4.28-57.78,31.74-67.71,27.46-9.93,57.78,4.28,67.71,31.74,9.93,27.46-4.28,57.78-31.74,67.71Zm77.72-160.1c31.3-11.32,65.85,4.88,77.17,36.18,11.32,31.3-4.88,65.85-36.18,77.17-31.3,11.32-65.85-4.88-77.17-36.18-11.32-31.3,4.88-65.85,36.18-77.17Zm171.61,243.47c-12.48,16.23-48.69,26.22-94.26,48.69-45.57,22.47-47.44,78.65-47.44,78.65-4.32,23.82-34.96,23.72-43.69,9.99-8.74-13.73-26.84-63.05,9.05-122.97,35.89-59.92,127.03-65.54,155.74-57.43,28.71,8.12,33.08,26.84,20.6,43.07Zm19.4-124.18c-34.58,12.5-72.75-5.39-85.25-39.97-12.5-34.58,5.39-72.75,39.97-85.25,34.58-12.51,72.75,5.39,85.25,39.97,12.51,34.58-5.39,72.75-39.97,85.25Zm50.51,102.02c-23.79,0-43.07-19.28-43.07-43.07s19.28-43.07,43.07-43.07,43.07,19.28,43.07,43.07-19.28,43.07-43.07,43.07Z"/></g><g><path class="d" d="M529.93,1079.44C232.23,1073.89-5.45,827.34,.1,529.84,5.65,232.33,252.36-5.2,550.07,.35s535.39,252.1,529.84,549.6c-5.55,297.5-252.27,535.03-549.97,529.49Zm18.49-991c-249.1-4.64-455.21,194.11-460.18,443.04-5.28,264.33,194.24,455.23,443.33,459.87,249.1,4.64,455.97-194.1,460.18-443.04,4.31-254.74-194.24-455.23-443.33-459.87Z"/><path class="b" d="M529.89,1079.9c-246.73-4.6-446.39-158.01-508.65-390.85-6.28-23.5,7.69-47.65,31.21-53.93,23.52-6.29,47.68,7.68,53.97,31.19,62.99,235.59,268.38,322.59,425.12,325.51,17.92,.33,36.03-.33,53.83-1.97,24.23-2.22,45.71,15.59,47.95,39.82,2.24,24.23-15.6,45.68-39.84,47.92-21.03,1.94-42.42,2.72-63.58,2.33Zm499.15-573.67c-20.99-.39-39.31-15.78-42.67-37.22-34.01-216.6-218.19-376.79-437.95-380.88h-.34c-24.19-.46-44.4-20.33-44.14-44.54C504.21,19.25,523.27-.26,547.62,0c.06,0,1.17,.02,1.23,.02,.06,0,1.17,.02,1.23,.02,262.62,4.89,482.74,196.38,523.4,455.32,3.77,24.03-12.67,46.57-36.72,50.35-2.59,.4-5.17,.58-7.71,.53Z"/></g></svg>