<?xml version="1.0" encoding="UTF-8"?><svg id="a" xmlns="http://www.w3.org/2000/svg" viewBox="0 0 1080 1080"><defs><style>.b{fill:#6a45ff;}.c{fill:#9d85ff;}.d{fill:#4b1fff;}.e{fill:#8775ef;stroke:#8775ef;}.e,.f,.g{stroke-miterlimit:10;}.f{fill:#776ce5;stroke:#776ce5;}.g{fill:none;stroke:#b3b3ff;stroke-width:4.31px;}</style></defs><g><path class="g" d="M863.98,216.03c.45,.05,.93,.13,1.4,.2l-1.6-1.6c.07,.47,.15,.94,.2,1.4ZM216.03,863.98c-.45-.05-.89-.13-1.34-.18l1.52,1.52c-.05-.45-.13-.89-.18-1.34Z"/><path class="f" d="M216.03,863.98c.05,.45,.13,.89,.18,1.34,179.32,178.49,469.35,178.23,648.35-.76,178.98-178.98,179.27-469.01,.82-648.33-.47-.07-.94-.15-1.4-.2,23.05,171.9-31.49,352.2-163.62,484.33-132.11,132.11-312.41,186.66-484.33,163.62Z"/><path class="e" d="M863.98,216.03c-.06-.45-.13-.93-.2-1.4-179.32-178.45-469.37-178.18-648.35,.8-179,179-179.23,469.04-.74,648.37,.45,.05,.89,.13,1.34,.18,171.92,23.03,352.22-31.51,484.33-163.62,132.13-132.13,186.67-312.43,163.62-484.33Z"/></g><g><path class="c" d="M529.93,1079.44C232.23,1073.89-5.45,827.34,.1,529.84,5.65,232.33,252.36-5.2,550.07,.35c297.7,5.55,535.39,252.1,529.84,549.6-5.55,297.5-252.27,535.03-549.97,529.49Zm18.49-991c-249.1-4.64-455.21,194.11-460.18,443.04-5.28,264.33,194.24,455.23,443.33,459.87,249.1,4.64,455.97-194.1,460.18-443.04,4.31-254.74-194.24-455.23-443.33-459.87Z"/><path class="b" d="M529.89,1079.9c-246.73-4.6-446.39-158.01-508.65-390.85-6.28-23.5,7.69-47.65,31.21-53.93,23.52-6.29,47.68,7.68,53.97,31.19,62.99,235.59,268.38,322.59,425.12,325.51,17.92,.33,36.03-.33,53.83-1.97,24.23-2.22,45.71,15.59,47.95,39.82,2.24,24.23-15.6,45.68-39.84,47.92-21.03,1.94-42.42,2.72-63.58,2.33Zm499.15-573.67c-20.99-.39-39.31-15.78-42.67-37.22-34.01-216.6-218.19-376.79-437.95-380.88h-.34c-24.19-.46-44.4-20.33-44.14-44.54C504.21,19.25,523.27-.26,547.62,0c.06,0,1.17,.02,1.23,.02,.06,0,1.17,.02,1.23,.02,262.62,4.89,482.74,196.38,523.4,455.32,3.77,24.03-12.67,46.57-36.72,50.35-2.59,.4-5.17,.58-7.71,.53Z"/></g><g><path class="c" d="M529.93,1079.44C232.23,1073.89-5.45,827.34,.1,529.84,5.65,232.33,252.36-5.2,550.07,.35c297.7,5.55,535.39,252.1,529.84,549.6-5.55,297.5-252.27,535.03-549.97,529.49Zm18.49-991c-249.1-4.64-455.21,194.11-460.18,443.04-5.28,264.33,194.24,455.23,443.33,459.87,249.1,4.64,455.97-194.1,460.18-443.04,4.31-254.74-194.24-455.23-443.33-459.87Z"/><path class="b" d="M529.89,1079.9c-246.73-4.6-446.39-158.01-508.65-390.85-6.28-23.5,7.69-47.65,31.21-53.93,23.52-6.29,47.68,7.68,53.97,31.19,62.99,235.59,268.38,322.59,425.12,325.51,17.92,.33,36.03-.33,53.83-1.97,24.23-2.22,45.71,15.59,47.95,39.82,2.24,24.23-15.6,45.68-39.84,47.92-21.03,1.94-42.42,2.72-63.58,2.33Zm499.15-573.67c-20.99-.39-39.31-15.78-42.67-37.22-34.01-216.6-218.19-376.79-437.95-380.88h-.34c-24.19-.46-44.4-20.33-44.14-44.54C504.21,19.25,523.27-.26,547.62,0c.06,0,1.17,.02,1.23,.02,.06,0,1.17,.02,1.23,.02,262.62,4.89,482.74,196.38,523.4,455.32,3.77,24.03-12.67,46.57-36.72,50.35-2.59,.4-5.17,.58-7.71,.53Z"/></g><path class="d" d="M285.26,420.24c-.43-13.79-.25-25.87-3.65-37.63-1.49-5.17-2.06-10.57-8.56-12.76-4.06-1.37-2.67-4.07,.37-5.75,6.11-3.39,19.14-2.82,26.94-5.88,6.87-2.7,15.22,2.57,21.78-.8,5.66-2.91,7.1-10.9,12.67-14,6.26-3.49,13.76,.89,20.8,2.27,14.16,2.77,27.29-6.95,40.39-13,15.89-7.34,35.96-3.17,49.81-13.16,4.81-3.47,10.38-2.37,15.68-.39,8.26,3.08,16.69,5.22,25.61,5.33,5.32,.07,10.83,1.46,13.25,6.46,8.87,18.35,61.43,8.15,78.24,11.76,6.73,1.45,13.31,3.58,20.12,4.58,12.44,1.82,25.06-.22,37.61-1,25.72-1.61,75.56-3.26,97.91,11.03,2.75,1.76,7.05,1.42,10.64,1.44,43.5,.31,83.66,.63,125.86,13.96l.21-7.93c.12-4.69,25.71,11.95,27.23,13.42,4.04,3.91,1.6,7.93,.23,11.74-1.5,4.18-5.39,3.55-8.54,2.84-6.47-1.46-12.8-3.48-19.21-5.2-2.29-.61-5.37-1.98-6.61,.59-1.74,3.62,2.19,4.21,4.34,5.51,1.81,1.09,3.81,1.86,5.57,3,1.56,1.01,2.79,2.53,2.32,4.54-.48,2.04-2.29,2.84-4.16,2.85-7.09,.03-11.83,3.78-15.64,9.31-2.47,3.57-5.93,4.76-10.29,4.11-2.95-.44-6.05-.56-8.99-.18-2.88,.37-6.77,.43-7.68,3.75-1.1,4.03,3.15,4.39,5.57,5.87,13.08,8,19.14,27.84,12.68,41.55-2.08,4.41-5.36,4.82-8.79,1.97-9.53-7.92-19.43-15.51-28.08-24.31-5.86-5.96-8.11-13.66-3.68-22.44v-.03c6.69-13.28-21.4-18.67-23.88-12.07-.62,1.66-.14,3.51-.3,5.28-.4,4.44-4.94,7.59-9.38,7.99-10.54,.94-22.85-2.58-33.77-2.34-7.99,.17-18.25,7.06-18.3,15.93-.08,15.11,19.94,10.82,30.82,13.43,17.35,4.16,29.4,19.46,40.03,33.79,2.29,3.09,4.66,6.37,5.07,10.19s-1.99,8.23-5.86,8.54c-4.45,.32-12.53-7.47-16.28-9.41-4.92,9.34-6.44,24.22-17.63,29.92-2.46,1.25-5.21,1.98-7.46,3.58-5.82,4.14-6.38,13.03-3.18,19.42,3.44,6.86,26.81,22.26,9.84,28.94-5.14,2.02-11.01,4.91-14.18-1.94-3.63-7.84-5.29-16.77-15.9-18.5-.76-.12-1.57-1.86-1.8-2.96-1.96-9.55-7.61-8.7-14.17-5.05-3.26,1.81-6.13,2.82-8.21-1.54-1.06-2.24-1.35-6.13-5.19-4.42-19.5,8.66,16.91,13.07,17.82,14.93l.02,.05c2.24,4.71-.74,16.81,1.56,23.15v.04c10.1,27.65,26.36,49.59-7.35,72.17-11.04,7.4-24.33,10.79-37.56,12.23h-.08c-35.32,3.89,25.57,48.93-3.82,71.02-.24,.18-.51,.33-.74,.52q-13.88,10.95-25.27-2.52c-2.53-3-5.03-6.03-7.64-8.96-1.98-2.22-3.92-5.22-7.48-3.88-18.63,7.06,13.67,37.27,17.55,42.79,3.46,4.91,5.37,10.72,7.2,16.45,1.15,3.59,2.28,7.47,1.16,11.07s-5.54,6.38-8.76,4.42c7.49,10.87,12.94,23.14,16.01,35.98,.41,1.73,.83,3.56,2.05,4.85,1.13,1.2,2.78,1.74,4.37,2.16,9.08,2.39,18.65,2.18,27.85,4.02s18.7,6.46,22.56,15.02c-17.06,.33-34.18-1.75-50.66-6.16-2.44-.65-4.92-1.38-7.03-2.76-2.55-1.67-4.41-4.17-6.21-6.62-16.35-22.27-32.33-44.8-47.96-67.59-1.16-1.69-2.36-3.84-1.42-5.67,1.28-2.48,5.07-1.79,7.41-.25,8.84,5.83,14.44,18.92,24.98,17.9-15.64-19.76-25.33-44.15-27.53-69.25-.66-7.52-2.04-16.97-9.3-19.04-1.98-.57-4.1-.42-6.13-.74-13.24-2.13-19.81-26.49-28.49-35.14-13.8-13.75-40.74,23.71-48.54,31.36-2.85,2.8-5.78,5.7-7.37,9.37-5.98,13.8,1.3,31.91-11.74,42.91-3.06,2.58-7.81,3.61-11.06,1.27-2.02-1.45-3.08-3.86-4.04-6.16-8.1-19.27-16.21-38.54-24.31-57.81-1.85-4.4-3.76-8.9-7-12.41-24.86-27.01-48.4-40.31-86.39-31.5,13.57,5.49,19.55,14.91,12.91,28.71-7.08,14.72-20.4,17.68-32.28,24.96-16.7,10.23-55.15,39.09-61.01,8.58-1.53-7.96-5.96-15.01-10.3-21.85-8.08-12.73-16.83-27.92-26.46-40.68-7.56-10.01-31.21-25.8-30.17-39.45,.18-2.3,16.52-14.68,17.63-25.44,.06-.6-.06-1.21-.05-1.81q.22-11.92-11.65-8.45c-16.29,4.76-34.92-2.36-41.69-15.62-2.28-4.47-2.07-6.89,3.14-8.87,10.99-4.18,22.69-5.98,33.48-10.88,5.16-2.34,10.71,.14,15.94,1.57,2.91,.79,5.69,2.31,8.63,2.69,5.78,.75,12.66,1.11,15.04-5.12,2.32-6.08-4.07-8.48-8.32-11.17-3.06-1.94-6.11-3.91-9.27-5.68-3.64-2.04-5.88-4.36-2.89-8.6,1.23-1.75,2.52-3.77,.45-5.67l-.04-.04c-9.09-8.16-11.94,16.3-21.19,12.54-17.79-7.23-5.28-51.1,.93-62.26,1.75-3.14,3.25-6.48,4.43-9.88,9.31-26.89,34.79-35.54,58.89-19.93,1.21,.78,2.48,1.47,5.01,2.96Zm24.57,124.4c-2.72,9.33,5.37,10.82,11.54,13.47,4.09,1.76,8.71,2.06,11.05-2.73,2.21-4.51-.05-8.16-3.97-10.8-3.24-2.18-6.77-3.96-7.68-8.4-1.26-6.11-4.51-10.89-9.39-14.99-5.12-4.3-7.54-9.57-1.51-15.41,1.35-1.31,4.22-2.36,2.4-5.04-1.32-1.95-3.73-2.07-5.8-1.65-5.81,1.18-11.31,3.72-13.88,9.1-2.31,4.83,.98,9.39,3.92,13.23,2.56,3.34,5.78,6.16,8.62,9.3,3.38,3.73,5.38,8.01,4.69,13.93Zm25.53,98.85c1.24-.48,2.69-.92,4.03-1.58,3.24-1.58,7.54-2.94,7.64-6.9,.09-3.56-4.5-3.26-7.03-4.56-7.58-3.91-14.86-8.05-19.33-15.78-.89-1.54-2.53-3.15-4.44-1.86-2.04,1.38-.9,3.52,.34,4.7,5.23,4.98,7.65,11.2,9.62,18.01,1.1,3.79,3.91,7.57,9.15,7.97Z"/></svg>