<?xml version="1.0" encoding="UTF-8"?><svg id="a" xmlns="http://www.w3.org/2000/svg" viewBox="0 0 1080 1080"><defs><style>.b{fill:#6a45ff;}.c{fill:#ff553e;}.d{fill:#9d85ff;}.e{fill:#ff7364;stroke:#ff7364;}.e,.f,.g{stroke-miterlimit:10;}.e,.g{stroke-width:4.31px;}.f{fill:#ff9c7d;stroke:#ff9c7d;}.g{fill:none;stroke:#b3b3ff;}</style></defs><g><path class="g" d="M863.98,216.03c.45,.05,.93,.13,1.4,.2l-1.6-1.6c.07,.47,.15,.94,.2,1.4ZM216.03,863.98c-.45-.05-.89-.13-1.34-.18l1.52,1.52c-.05-.45-.13-.89-.18-1.34Z"/><path class="e" d="M216.03,863.98c.05,.45,.13,.89,.18,1.34,179.32,178.49,469.35,178.23,648.35-.76,178.98-178.98,179.27-469.01,.82-648.33-.47-.07-.94-.15-1.4-.2,23.05,171.9-31.49,352.2-163.62,484.33-132.11,132.11-312.41,186.66-484.33,163.62Z"/><path class="f" d="M863.98,216.03c-.06-.45-.13-.93-.2-1.4-179.32-178.45-469.37-178.18-648.35,.8-179,179-179.23,469.04-.74,648.37,.45,.05,.89,.13,1.34,.18,171.92,23.03,352.22-31.51,484.33-163.62,132.13-132.13,186.67-312.43,163.62-484.33Z"/></g><g><path class="d" d="M529.93,1079.44C232.23,1073.89-5.45,827.34,.1,529.84,5.65,232.33,252.36-5.2,550.07,.35c297.7,5.55,535.39,252.1,529.84,549.6-5.55,297.5-252.27,535.03-549.97,529.49Zm18.49-991c-249.1-4.64-455.21,194.11-460.18,443.04-5.28,264.33,194.24,455.23,443.33,459.87,249.1,4.64,455.97-194.1,460.18-443.04,4.31-254.74-194.24-455.23-443.33-459.87Z"/><path class="b" d="M529.89,1079.9c-246.73-4.6-446.39-158.01-508.65-390.85-6.28-23.5,7.69-47.65,31.21-53.93,23.52-6.29,47.68,7.68,53.97,31.19,62.99,235.59,268.38,322.59,425.12,325.51,17.92,.33,36.03-.33,53.83-1.97,24.23-2.22,45.71,15.59,47.95,39.82,2.24,24.23-15.6,45.68-39.84,47.92-21.03,1.94-42.42,2.72-63.58,2.33Zm499.15-573.67c-20.99-.39-39.31-15.78-42.67-37.22-34.01-216.6-218.19-376.79-437.95-380.88h-.34c-24.19-.46-44.4-20.33-44.14-44.54C504.21,19.25,523.27-.26,547.62,0c.06,0,1.17,.02,1.23,.02,.06,0,1.17,.02,1.23,.02,262.62,4.89,482.74,196.38,523.4,455.32,3.77,24.03-12.67,46.57-36.72,50.35-2.59,.4-5.17,.58-7.71,.53Z"/></g><path class="c" d="M287.55,737.36c17.06,.88,25.98-11.48,35.51-22.35,32.24-36.81,95.68-108.36,127.9-145.19,24.49-28,24.49-27.75-1.18-54.29-5.15-5.32-9.15-6.5-15.66-2.27-52.1,33.8-135.98,101.67-188.08,135.47-8.02,5.2-14.19,12.21-15.09,22.68-1.58,18.28,38.27,64.9,56.61,65.95Z"/><path class="c" d="M668.79,832.38c-42.25,0-84.5,0-126.74,0-3.46,0-6.91,0-10.37-.11-8.21-.25-13.33-4.62-13.57-12.65-.25-8.16,5-12.3,13-13.27,17.05-2.05,17.04-2.11,17.69-18.99,.83-21.51,14.89-37.74,36.26-41.38,6.02-1.03,12.2-1.53,18.31-1.55,43.78-.14,87.58,.45,131.35-.27,38.85-.64,56.69,22.64,54.67,51.6-.5,7.19,2.37,10.95,9.95,10.38,1.91-.15,3.85-.04,5.76,.12,8.17,.69,14.48,3.87,14.08,13.22-.37,8.77-5.71,12.95-14.42,12.95-18.44,0-36.87,.03-55.31,.03-26.88,0-53.77,0-80.65,0v-.07Z"/><path class="c" d="M669.21,467.41c-1.36-2.04-2.89-4.94-4.97-7.35-36.81-42.78-73.8-85.41-110.44-128.35-5.94-6.96-10.33-7.46-17.29-1.36-33.26,29.12-66.79,57.94-100.44,86.62-5.88,5.01-6.84,8.81-1.45,15,37.69,43.27,75.17,86.72,112.54,130.27,4.89,5.7,8.66,7.19,14.98,1.66,33.62-29.43,67.55-58.51,101.34-87.75,2.45-2.12,5.29-4.05,5.75-8.73Z"/><path class="c" d="M555.53,622.7c.38,1.35,.57,5.48,2.55,8.37,9.08,13.2,19.37,25.57,31.21,36.31,8.08,7.33,17.28,6.1,25.56-1.04,47.76-41.21,95.57-82.36,143.26-123.64,8.86-7.67,9.97-17.36,3.16-26.5-8.41-11.29-17.28-22.47-27.41-32.16-9.4-8.99-20.3-8.06-30.44,.72-45.92,39.75-91.95,79.37-137.94,119.04-5.1,4.4-9.41,9.29-9.95,18.91Z"/><path class="c" d="M379.25,415.54c6.58,.43,11.9-2.49,16.64-6.58,46.73-40.3,93.44-80.63,140.11-120.99,10.36-8.96,11.06-19.53,3.25-30.12-8.1-10.97-17.04-21.34-27.25-30.51-8.7-7.82-17.73-8.53-26.62-.9-47.88,41.13-95.7,82.33-143.38,123.69-7.43,6.44-10.48,14.95-5.01,24.07,8.52,14.22,19.98,26.11,31.82,37.59,2.77,2.68,6.57,3.59,10.45,3.74Z"/></svg>