<?xml version="1.0" encoding="UTF-8"?><svg id="a" xmlns="http://www.w3.org/2000/svg" viewBox="0 0 1080 1080"><defs><style>.b,.c{fill:#6a45ff;}.d{fill:#fff;}.e{fill:#9d85ff;}.f{fill:#4b1fff;stroke:#4b1fff;}.f,.c,.g{stroke-miterlimit:10;}.f,.g{stroke-width:4.31px;}.c{stroke:#6a45ff;}.g{fill:none;stroke:#b3b3ff;}</style></defs><g><path class="g" d="M863.98,216.03c.45,.05,.93,.13,1.4,.2l-1.6-1.6c.07,.47,.15,.94,.2,1.4ZM216.03,863.98c-.45-.05-.89-.13-1.34-.18l1.52,1.52c-.05-.45-.13-.89-.18-1.34Z"/><path class="f" d="M216.03,863.98c.05,.45,.13,.89,.18,1.34,179.32,178.49,469.35,178.23,648.35-.76,178.98-178.98,179.27-469.01,.82-648.33-.47-.07-.94-.15-1.4-.2,23.05,171.9-31.49,352.2-163.62,484.33-132.11,132.11-312.41,186.66-484.33,163.62Z"/><path class="c" d="M863.98,216.03c-.06-.45-.13-.93-.2-1.4-179.32-178.45-469.37-178.18-648.35,.8-179,179-179.23,469.04-.74,648.37,.45,.05,.89,.13,1.34,.18,171.92,23.03,352.22-31.51,484.33-163.62,132.13-132.13,186.67-312.43,163.62-484.33Z"/></g><g><path class="e" d="M529.93,1079.44C232.23,1073.89-5.45,827.34,.1,529.84,5.65,232.33,252.36-5.2,550.07,.35c297.7,5.55,535.39,252.1,529.84,549.6-5.55,297.5-252.27,535.03-549.97,529.49Zm18.49-991c-249.1-4.64-455.21,194.11-460.18,443.04-5.28,264.33,194.24,455.23,443.33,459.87,249.1,4.64,455.97-194.1,460.18-443.04,4.31-254.74-194.24-455.23-443.33-459.87Z"/><path class="b" d="M529.89,1079.9c-246.73-4.6-446.39-158.01-508.65-390.85-6.28-23.5,7.69-47.65,31.21-53.93,23.52-6.29,47.68,7.68,53.97,31.19,62.99,235.59,268.38,322.59,425.12,325.51,17.92,.33,36.03-.33,53.83-1.97,24.23-2.22,45.71,15.59,47.95,39.82,2.24,24.23-15.6,45.68-39.84,47.92-21.03,1.94-42.42,2.72-63.58,2.33Zm499.15-573.67c-20.99-.39-39.31-15.78-42.67-37.22-34.01-216.6-218.19-376.79-437.95-380.88h-.34c-24.19-.46-44.4-20.33-44.14-44.54C504.21,19.25,523.27-.26,547.62,0c.06,0,1.17,.02,1.23,.02,.06,0,1.17,.02,1.23,.02,262.62,4.89,482.74,196.38,523.4,455.32,3.77,24.03-12.67,46.57-36.72,50.35-2.59,.4-5.17,.58-7.71,.53Z"/></g><g><path class="e" d="M529.93,1079.44C232.23,1073.89-5.45,827.34,.1,529.84,5.65,232.33,252.36-5.2,550.07,.35c297.7,5.55,535.39,252.1,529.84,549.6-5.55,297.5-252.27,535.03-549.97,529.49Zm18.49-991c-249.1-4.64-455.21,194.11-460.18,443.04-5.28,264.33,194.24,455.23,443.33,459.87,249.1,4.64,455.97-194.1,460.18-443.04,4.31-254.74-194.24-455.23-443.33-459.87Z"/><path class="b" d="M529.89,1079.9c-246.73-4.6-446.39-158.01-508.65-390.85-6.28-23.5,7.69-47.65,31.21-53.93,23.52-6.29,47.68,7.68,53.97,31.19,62.99,235.59,268.38,322.59,425.12,325.51,17.92,.33,36.03-.33,53.83-1.97,24.23-2.22,45.71,15.59,47.95,39.82,2.24,24.23-15.6,45.68-39.84,47.92-21.03,1.94-42.42,2.72-63.58,2.33Zm499.15-573.67c-20.99-.39-39.31-15.78-42.67-37.22-34.01-216.6-218.19-376.79-437.95-380.88h-.34c-24.19-.46-44.4-20.33-44.14-44.54C504.21,19.25,523.27-.26,547.62,0c.06,0,1.17,.02,1.23,.02,.06,0,1.17,.02,1.23,.02,262.62,4.89,482.74,196.38,523.4,455.32,3.77,24.03-12.67,46.57-36.72,50.35-2.59,.4-5.17,.58-7.71,.53Z"/></g><path class="d" d="M866.27,468.21c-9.19-14.16-14.63-14.35-8.48-31.66,5.95-16.76-10.55-28.79-15.29-43.56-1.67-5.21-4.93-10.75-10.31-11.67-3.78-.64-7.56,1.21-11.39,1.07-7.4-.27-11.61-6.86-16.14-11.72-5.5-5.9-12.25-10.78-18.62-15.88-1.41-1.13-2.85-2.29-3.82-3.82-2.55-4.05-1.23-9.68-3.82-13.71-3.5-5.46-11.53-4.82-17.56-7.23-9-3.6-14.12-14.61-23.67-16.26-6.33-1.1-12.44,2.36-18.69,3.88-1.71,.42-3.39,.67-5.05,.83,0,0-24.26,3.42-77.42-26.24-4.89-2.73-30.79-10.06-36.37-9.81-18.16,.82-36.32,1.64-54.48,2.46-4.27,.19-8.58,.38-12.79-.36-3.15-.56-6.19-1.63-9.37-2.01-8.12-.98-14.44,4.93-22.36,4.25-3.88-.33-7.36-2.39-10.98-3.85-8.6-3.47-18.54-3.52-27.17-.13-11.28,4.43-23.42,32.01-35.13,35.11-8.31,2.2-15.13,0-22.72-3.15-7.72-3.19-15.04-1.47-23.11-3.44-6.24-1.53-12.36-4.98-18.69-3.88-9.55,1.66-14.67,12.66-23.67,16.26-6.02,2.41-14.06,1.77-17.56,7.23-2.58,4.03-1.27,9.66-3.82,13.71-.97,1.53-2.4,2.69-3.82,3.82-6.37,5.11-13.12,9.98-18.62,15.88-4.53,4.86-8.74,11.45-16.14,11.72-3.83,.14-7.61-1.71-11.39-1.07-5.39,.92-8.64,6.47-10.31,11.67-4.75,14.77-21.25,26.8-15.29,43.56,6.15,17.32,.71,17.5-8.48,31.66-4.74,7.3-4.99,16.74-3.09,25.24,1.9,8.5,5.73,16.41,8.73,24.59,3.25,8.86,3.31,19.65,6.86,28.06,2.94,6.98,4.56,7.24,13.34,7.27,9.27,.03,18.49-.07,27.73,1.18,5.6,.76,11.77,1.96,16.25-3.61,.92-1.15,2.2-.34,3.28,.25,6.16,3.38,12.35,6.72,18.51,10.12,13.53,7.48,27.85,13.25,43.29,13.93,16.91,.74,32.75,4.01,46.76,13.69,4.76,3.29,9.68,4.66,15.25,4.63,10.07-.05,20.14-.28,30.2-.04,38.63,.92,51.16,27.73,50.37,52.81-.39,12.59-3.83,24.61-8.44,36.3-8.09,20.54-13.01,41.47-8.13,63.7,3.18,14.47,.71,28.39-4.52,42.01-3.96,10.33-8.74,20.36-11.45,31.16-2.07,8.26-2.02,8.38,6.59,8.39,47.32,0,94.64,0,141.96,0,16.58,0-6.55-18.28-13.76-19.46-3.37-.55-6.8-.72-9.99-2.14-3.97-1.77-4.83-5.01-4.58-8.95,.26-4.09,3.25-4.78,6.33-5.04,4-.33,8.03-.27,12.04-.46,4.89-.24,7.95-2.99,7.11-7.74-1.82-10.29-13.32-85.31-13.73-90.46-1.42-17.51-.73-35.01,.53-52.47,1.78-24.63,9.29-46.85,30.36-61.81,20.93-14.86,42.73-26.65,70.09-16.97,10.35,3.66,21.48,2.1,32.26-.33,4.48-1.01,10.35-3.19,8.83-7.64,5.15,1.37,37.6,5.7,40.29,4.62,1.61-.65,3.25-.62,4.9-.22,1.89,1.65,3.99,2.4,6.19,2.64,.6,.31,1.19,.62,1.78,.9,10.37,5.03,21.83,3.07,31.52-2.45,.1-.06,.2-.13,.3-.2,.9,0,1.81,0,2.71,0,8.78-.03,10.4-.29,13.34-7.27,3.55-8.42,3.61-19.2,6.86-28.06,3-8.17,6.83-16.09,8.73-24.59,1.9-8.5,1.65-17.93-3.09-25.24Zm-122.47,78.45c-14.27,3.04-28.04,.34-41.6-3.95-2.66-.84-7.41,.44-7.55-3.13-.12-2.98,4.22-4.36,7.03-5.9,1.39-.76,2.79-1.51,4.59-2.49-2.23-2.42-4.86-1.82-6.82-1.24-5.24,1.54-9.99,.87-14.39-2.11-2.62-1.77-4.03-.79-6.08,1.2-12.99,12.6-26.05,25.17-42.45,33.43-4.73,2.38-8.47,6.14-12.88,8.94-1.32,.84-2.78,2.23-4.37,1.06-1.52-1.12-1.11-3.05-.5-4.49,6.79-16,14.28-31.58,27.8-43.23,4.08-3.51,8.91-5.44,14.24-6.06,4.05-.48,6.06-1.03,2.5-5.62-2.84-3.66-5.05-5.25-9.86-4.28-5.93,1.19-8.87-2.13-8.68-8.39,.08-2.56,1.09-5.22-.77-7.58-.62-.78-1.19-1.82-2.33-1.63-1.14,.19-1.45,1.32-1.6,2.29-.52,3.38-1.08,6.76-1.39,10.17-1.97,21.87-13.42,38.83-28.18,53.96-4.43,4.54-10.42,4.27-15.86,.13-5.14-3.91-6.56-9.3-3.88-14.95,.51-1.08,1.01-2.32,1.87-3.07,10.86-9.42,13.46-22.43,15.84-35.63,1.1-6.13,2.56-12.22,4.19-18.23,.91-3.37,.43-5.91-2.45-7.92-2.7-1.89-4.55-1.86-5.93,1.72-3.31,8.56-4.34,17.56-5.69,26.51-1.24,8.23-5.21,15.01-10.26,21.39-2.42-1.28-2.19-3.32-2.27-4.96-.74-15.2-6.55-28.95-12.13-42.76-2.11-5.22-12.01-11.43-17.43-11.37-2.94,.03-3.96,1.63-3.68,4.26,.25,2.29,1.56,4.15,3.11,5.75,8.46,8.75,12.42,19.59,14.7,31.24,2.46,12.58,2.1,25.27,1.1,37.92-.69,8.67-4.48,12.89-10.98,13.81-11.2,1.59-17.43-5.04-13.91-15.79,4.51-13.75,4.24-27.78,3.83-41.86-.22-7.64-4.84-13.02-10.46-17.56-2.81-2.27-6.12-3.95-8.82-6.32-3.13-2.76-5.4-1.45-7.81,.8-3.09,2.89-.49,4.73,1.35,6.4,14.05,12.86,14.8,28.18,8.31,44.77-2.22,5.66-3.94,11.39-4.65,17.44-.51,4.35-1.43,8.62-3.58,12.81,.49-15.53-9.01-24.5-21.34-29.87-10.78-4.69-14.87-11.82-14.53-22.79,.2-6.47-2.07-12.2-5.85-17.42-6.46-8.92-15.43-7.05-25.54-6.25,4.82,3.5,8.86,6.01,12.4,9.08,6.42,5.58,9.86,12.64,9.04,21.37-.21,2.2-.35,5.2-3.45,4.49-8.14-1.86-16.04,.34-24.02,.81-4.83,.28-8.66-.64-11.02-5.41-1.35-2.71-3.8-4.62-6.3-6.39-6.07-4.29-9.28-3.01-10.9,4.39-.38,1.76,.72,2.61,1.74,3.53,3.44,3.1,6.89,6.18,10.39,9.21,6.97,6.04,14.74,9.19,24.31,8.42,8.39-.67,16.93-.69,25.27,1.12,12.17,2.64,20.38,10.03,24.93,21.5,.87,2.2,1.68,4.84-.17,6.91-2.15,2.4-4.53,.5-6.64-.36-6.71-2.74-13.35-5.62-20.47-7.22-8.23-1.84-15.34-.66-21.56,5.75-6.13,6.32-19.59,7.33-27.11,2.8-1.44-.87-2.58-2-3.05-3.6-2.7-9.07-9.08-15.53-15.51-21.94-5.85-5.82-11.76-11.58-17.68-17.33-1.28-1.24-3.07-3.14-4.64-1.59-4.99,4.95-11.18,3.64-17.1,3.99-1.16,.07-2.48-.12-3.41,1.58,3.41,3.38,7.96,4.91,12.25,6.74,4.53,1.93,8.69,4.32,11.85,8.09,6.33,7.55,12.16,15.54,20.85,20.75,1.84,1.1,3.7,3.19,2.72,5.55-1.21,2.92-3.86,1.43-5.79,.79-6.11-2.03-12.36-3.82-18.14-6.6-13.86-6.65-28.59-9.26-43.68-10.62-4.69-.42-8.95-2.15-13.14-4.21-3.19-1.56-6.08-4.7-10.29-1.34-1.47,1.17-3.76-.89-5.2-2.25-2.34-2.2-4.43-4.67-6.75-6.9-4-3.84-8.18-5.26-13.46,.97,1.2-4.75,1.5-8.32,5.24-9.61,3.67-1.27,5.94,1.6,8.26,3.81,2.48,2.35,4.73,4.99,7.41,7.08,2.99,2.34,6.25,2.6,7.65-1.73,1.27-3.94,3.99-4.53,7.45-4.6,5.23-.1,10.46,.06,15.65-.98,5.24-1.05,10.35-2.03,12.07-8.31,.6-2.17,2.72-2.84,4.83-3.02,4.01-.34,8.02-.66,12.03-.93,2.88-.19,5.9-.48,7.63-2.96,3.42-4.89,8.18-6.08,13.69-6.01,2.61,.03,5.21-.42,7.83-.55,10.96-.57,12.98-2.2,14.16-12.87,.48-4.36,2.94-6.01,6.67-6.34,3.8-.33,7.64-.24,11.46-.27,4.16-.04,7.08-1.64,7.58-6.09,.43-3.84,2.72-5.13,6.23-4.91,6.27,.39,12.37,.34,18.25-2.63,3.49-1.76,7.13-.08,10.46,1.35,2.95,1.26,5.75,2.9,8.64,4.32,2.18,1.07,4.94,2.76,6.85,1.52,5.76-3.77,13.41-3.21,18.47-7.89,5.15-4.78,10.98-6.29,17.67-6.23,5.58,.05,11.22,.66,14.53-5.92,1.47-2.92,4.86-.75,7.08,.27,5.82,2.69,11.25,6.49,18,6.37,5.42-.1,10.85-.44,16.26-.81,8.12-.55,15.26,.3,18.47,9.59,1.17,3.4,4.69,4.29,8.15,3.71,2.57-.43,5.07-1.25,7.6-1.91,5.02-1.31,8.95-.06,12.12,4.3,3.43,4.71,5.9,10.75,13.57,10.35,2.09-.11,2.54,2.82,3.09,4.75,1.94,6.85,6.14,10.69,13.58,10.31,3.62-.19,5.82,1.18,7.19,4.93,2.43,6.66,9.46,10.25,16.59,9.09,5.83-.95,55.07,17.87,55.23,21.74-1.29-1.5-5.97-.48-7.87-.07Z"/></svg>