<?xml version="1.0" encoding="UTF-8"?><svg id="a" xmlns="http://www.w3.org/2000/svg" viewBox="0 0 1080 1080"><defs><style>.b{fill:#6a45ff;}.c{fill:#fff;}.d{fill:#efbe45;}.e{fill:#9d85ff;}.f{fill:#f4d956;stroke:#f4d956;}.f,.g{stroke-miterlimit:10;}.g{fill:none;stroke:#b3b3ff;stroke-width:4.31px;}</style></defs><g><path class="g" d="M863.98,216.03c.45,.05,.93,.13,1.4,.2l-1.6-1.6c.07,.47,.15,.94,.2,1.4ZM216.03,863.98c-.45-.05-.89-.13-1.34-.18l1.52,1.52c-.05-.45-.13-.89-.18-1.34Z"/><path class="d" d="M216.03,863.98c.05,.45,.13,.89,.18,1.34,179.32,178.49,469.35,178.23,648.35-.76,178.98-178.98,179.27-469.01,.82-648.33-.47-.07-.94-.15-1.4-.2,23.05,171.9-31.49,352.2-163.62,484.33-132.11,132.11-312.41,186.66-484.33,163.62Z"/><path class="f" d="M863.98,216.03c-.06-.45-.13-.93-.2-1.4-179.32-178.45-469.37-178.18-648.35,.8-179,179-179.23,469.04-.74,648.37,.45,.05,.89,.13,1.34,.18,171.92,23.03,352.22-31.51,484.33-163.62,132.13-132.13,186.67-312.43,163.62-484.33Z"/></g><g><path class="e" d="M529.93,1079.44C232.23,1073.89-5.45,827.34,.1,529.84,5.65,232.33,252.36-5.2,550.07,.35c297.7,5.55,535.39,252.1,529.84,549.6-5.55,297.5-252.27,535.03-549.97,529.49Zm18.49-991c-249.1-4.64-455.21,194.11-460.18,443.04-5.28,264.33,194.24,455.23,443.33,459.87,249.1,4.64,455.97-194.1,460.18-443.04,4.31-254.74-194.24-455.23-443.33-459.87Z"/><path class="b" d="M529.89,1079.9c-246.73-4.6-446.39-158.01-508.65-390.85-6.28-23.5,7.69-47.65,31.21-53.93,23.52-6.29,47.68,7.68,53.97,31.19,62.99,235.59,268.38,322.59,425.12,325.51,17.92,.33,36.03-.33,53.83-1.97,24.23-2.22,45.71,15.59,47.95,39.82,2.24,24.23-15.6,45.68-39.84,47.92-21.03,1.94-42.42,2.72-63.58,2.33Zm499.15-573.67c-20.99-.39-39.31-15.78-42.67-37.22-34.01-216.6-218.19-376.79-437.95-380.88h-.34c-24.19-.46-44.4-20.33-44.14-44.54C504.21,19.25,523.27-.26,547.62,0c.06,0,1.17,.02,1.23,.02,.06,0,1.17,.02,1.23,.02,262.62,4.89,482.74,196.38,523.4,455.32,3.77,24.03-12.67,46.57-36.72,50.35-2.59,.4-5.17,.58-7.71,.53Z"/></g><g><path class="c" d="M552.96,527.84c-15.21,.04-26.89,11.55-27.16,26.78-.14,7.67,2.69,14.82,7.96,20.14,5.13,5.18,12.01,8.02,19.39,8.02,.09,0,.17,0,.26,0,14.76-.13,27.05-12.27,27.39-27.06,.17-7.47-2.53-14.45-7.62-19.64-5.22-5.33-12.39-8.24-20.23-8.23Z"/><path class="c" d="M751.01,286.59H355.45c-30.72,0-55.63,24.91-55.63,55.63v40.29h-7.79c-10.31,0-18.67,8.36-18.67,18.67v71.4c0,10.31,8.36,18.67,18.67,18.67h7.79v97.49h-7.79c-10.31,0-18.67,8.36-18.67,18.67v71.4c0,10.31,8.36,18.67,18.67,18.67h7.79v40.29c0,30.72,24.91,55.63,55.63,55.63h395.57c30.72,0,55.63-24.91,55.63-55.63V342.22c0-30.72-24.91-55.63-55.63-55.63Zm-23.38,234.95c-8.64,2.47-17.28,4.94-25.92,7.42-24.52,7.03-49.88,14.3-74.9,21.15-10.07,2.75-16.11,5.19-15.15,15.82,.25,2.81-.79,6.26-2.54,8.37-14.12,17.08-3.89,30.82,6,44.1,5.39,7.24,10.3,14.77,15.49,22.74,2.12,3.25,4.28,6.57,6.53,9.95,26.14-24.1,40.21-51.7,43.01-84.32l.02-.22c2.1-24.46,2.67-24.96,30.9-26.88,.32-.02,.64,.09,.88,.3,.24,.21,.39,.52,.41,.84,3.34,54.74-15.42,99.71-57.33,137.44,.89,1.41,1.76,2.82,2.62,4.22,2.32,3.74,4.5,7.27,6.87,10.76,5.58,8.2,10.48,18.65-1.24,26.65-3.13,2.14-6.2,3.22-9.15,3.22-.78,0-1.56-.08-2.32-.23-6.17-1.23-10.74-7.26-13.64-11.7-5.95-9.1-11.93-18.17-17.92-27.24-12.18-18.46-24.77-37.55-36.83-56.54-6.4-10.07-14.15-11.8-25.89-14.43-25.05-5.6-34.07,7.91-44.52,23.55-.98,1.47-1.98,2.96-2.99,4.44-4.08,5.95-8.35,11.92-12.47,17.68-1.67,2.33-3.33,4.66-4.99,7,25.58,18.11,55.12,20.72,108.29,9.7,.52-.11,1.05,.14,1.31,.6l13.35,24.21c.17,.3,.2,.66,.08,.99-.11,.33-.36,.59-.69,.72-47.5,19.39-93.94,16.65-141.94-8.37-1.13,1.52-2.25,3.01-3.36,4.48-2.93,3.9-5.7,7.58-8.44,11.37-7.26,10.04-14.83,12.23-23.13,6.71-4.2-2.79-6.69-6.17-7.4-10.05-.83-4.5,.74-9.57,4.66-15.08,3.52-4.95,7.04-9.9,10.55-14.85,16.75-23.57,34.07-47.95,51.5-71.63,6.11-8.3,9.85-14.84,2.32-23.54-1.65-1.91-3.27-5.16-3.18-8.12,.55-17.83-9.71-23.28-27.61-26.67-9.6-1.82-18.94-4.56-28.83-7.46-4.02-1.18-8.16-2.4-12.4-3.57-6.49,37.53,3.01,71.13,29.84,105.62,.36,.46,.34,1.11-.04,1.55l-19.01,21.72c-.23,.26-.56,.41-.91,.41h0c-.35,0-.68-.15-.91-.41-35.13-39.96-48.45-84.95-40.7-137.48l-16.96-4.78c-10.23-2.89-20.23-7.62-16.74-20.87,1.24-4.7,3.54-8.05,6.84-9.93,4.17-2.39,9.97-2.49,17.7-.3,14.3,4.03,28.86,8.03,42.95,11.89,19.54,5.36,39.75,10.9,59.54,16.63,9.24,2.67,16.2,3.85,21.69-5.37,1.73-2.91,5.33-6.51,9.14-7.54,18.43-4.98,17.66-18.85,16.85-33.54-.54-9.74-.42-19.61-.29-30.06,.05-4.43,.11-9.01,.12-13.77-35.72,5.31-63.63,21.47-85.27,49.39-15.25,19.66-16.36,19.82-39.75,5.77-.56-.34-.75-1.05-.44-1.62,26.74-49.08,67.88-77.35,125.75-86.43v-5.48c-.01-4.73-.02-9.34,0-13.96,.08-12.96,5.52-19.54,16.16-19.54h.01c4.78,0,8.53,1.34,11.17,3.99,3.23,3.24,4.79,8.38,4.77,15.7-.03,7.92-.05,15.85-.07,23.77-.06,27.1-.13,55.12-.62,82.67-.19,10.67,1.49,16.57,11.23,19.22,4.18,1.14,9.63,4.17,12.38,8.38,8.43,12.92,18.32,12.42,32.54,7.18,10.22-3.77,20.73-6.54,31.86-9.47,4.5-1.19,9.14-2.41,13.87-3.73-18.07-39.2-48.31-63.85-92.38-75.35-.57-.15-.95-.68-.91-1.27l2.27-28.94c.03-.35,.2-.67,.49-.88,.28-.21,.64-.29,.98-.21,56.46,12.1,95.91,43.9,120.56,97.21,1.67-.4,3.36-.78,5.04-1.16,4.37-.98,8.9-2,13.18-3.43,7.12-2.37,12.91-2.41,17.2-.14,3.54,1.88,6.04,5.32,7.42,10.23,4.2,14.92-9.82,18.92-16.56,20.84Z"/></g></svg>