<?xml version="1.0" encoding="UTF-8"?><svg id="a" xmlns="http://www.w3.org/2000/svg" viewBox="0 0 1080 1080"><defs><style>.b{fill:#6a45ff;}.c{fill:#fff;}.d{fill:#9d85ff;}.e{fill:#ff553e;stroke:#ff553e;}.e,.f,.g{stroke-miterlimit:10;}.e,.g{stroke-width:4.31px;}.f{fill:coral;stroke:coral;}.g{fill:none;stroke:#b3b3ff;}</style></defs><g><path class="g" d="M863.98,216.03c.45,.05,.93,.13,1.4,.2l-1.6-1.6c.07,.47,.15,.94,.2,1.4ZM216.03,863.98c-.45-.05-.89-.13-1.34-.18l1.52,1.52c-.05-.45-.13-.89-.18-1.34Z"/><path class="e" d="M216.03,863.98c.05,.45,.13,.89,.18,1.34,179.32,178.49,469.35,178.23,648.35-.76,178.98-178.98,179.27-469.01,.82-648.33-.47-.07-.94-.15-1.4-.2,23.05,171.9-31.49,352.2-163.62,484.33-132.11,132.11-312.41,186.66-484.33,163.62Z"/><path class="f" d="M863.98,216.03c-.06-.45-.13-.93-.2-1.4-179.32-178.45-469.37-178.18-648.35,.8-179,179-179.23,469.04-.74,648.37,.45,.05,.89,.13,1.34,.18,171.92,23.03,352.22-31.51,484.33-163.62,132.13-132.13,186.67-312.43,163.62-484.33Z"/></g><g><path class="d" d="M529.93,1079.44C232.23,1073.89-5.45,827.34,.1,529.84,5.65,232.33,252.36-5.2,550.07,.35c297.7,5.55,535.39,252.1,529.84,549.6-5.55,297.5-252.27,535.03-549.97,529.49Zm18.49-991c-249.1-4.64-455.21,194.11-460.18,443.04-5.28,264.33,194.24,455.23,443.33,459.87,249.1,4.64,455.97-194.1,460.18-443.04,4.31-254.74-194.24-455.23-443.33-459.87Z"/><path class="b" d="M529.89,1079.9c-246.73-4.6-446.39-158.01-508.65-390.85-6.28-23.5,7.69-47.65,31.21-53.93,23.52-6.29,47.68,7.68,53.97,31.19,62.99,235.59,268.38,322.59,425.12,325.51,17.92,.33,36.03-.33,53.83-1.97,24.23-2.22,45.71,15.59,47.95,39.82,2.24,24.23-15.6,45.68-39.84,47.92-21.03,1.94-42.42,2.72-63.58,2.33Zm499.15-573.67c-20.99-.39-39.31-15.78-42.67-37.22-34.01-216.6-218.19-376.79-437.95-380.88h-.34c-24.19-.46-44.4-20.33-44.14-44.54C504.21,19.25,523.27-.26,547.62,0c.06,0,1.17,.02,1.23,.02,.06,0,1.17,.02,1.23,.02,262.62,4.89,482.74,196.38,523.4,455.32,3.77,24.03-12.67,46.57-36.72,50.35-2.59,.4-5.17,.58-7.71,.53Z"/></g><g><path class="c" d="M695.47,236.04l-.91,.64c-7.02,4.94-14.36,10.51-20.57,17.72-24.79,28.78-44.61,60.98-62.78,91.5-22.85,38.36-38.27,71.4-48.51,103.97-4.78,15.18-10.12,35.35-9.03,56.66,1.37,26.82,8.72,52.22,16.8,78.04,20.78,66.47,49.55,134.2,87.97,207.07l2.12,4.04c8.48,16.14,17.24,32.83,29.7,47.09l1.05,1.2h8.08l.62-2.73c1.57-6.96-.81-13.14-2.91-18.58l-.49-1.27c-5.61-14.71-11.43-29.6-17.07-44.01-10.48-26.81-21.31-54.53-31.2-82.07-16.11-44.88-34.37-95.75-44.61-148.05-6.95-35.5-7.05-64.8-.32-92.24,5.04-20.56,11.92-41.58,20.42-62.48,22.22-54.58,43.98-93.73,70.54-126.95,5-6.25,8.42-13.24,11.73-19.99,.73-1.49,1.46-2.99,2.21-4.47l2.56-5.08h-15.4Z"/><path class="c" d="M489.71,376.5c-19.04-35.85-42.59-77.8-72.87-117.07-7.01-9.1-15.61-19.14-28.91-23.24l-.5-.15h-18.29l2.3,4.97c.09,.19,.16,.4,.23,.61,.33,.93,.77,2.2,1.9,3.22,5.91,5.33,10.83,11.88,15.59,18.21,1.8,2.4,3.67,4.88,5.58,7.28,28.16,35.48,51.45,77.97,71.2,129.9,21.41,56.3,25.27,110.8,11.8,166.62-9.95,41.22-23.21,83.83-40.54,130.24-10.71,28.7-21.94,57.76-32.79,85.87-5.4,13.98-10.8,27.97-16.16,41.97l-.19,.5c-1.8,4.68-3.84,9.98-2.05,16.03l.74,2.51h6.49l1.02-.99c6.23-6.04,10.65-13.21,14.64-20.02,20.66-35.25,38.36-72.56,54.4-107.63,18.94-41.4,42.83-96.43,59.57-155.01,12.4-43.39,11.06-84.85-3.99-123.21-7.88-20.09-17.47-38.56-29.18-60.61Z"/><path class="c" d="M609.09,298.16c1.69-1.99,3.54-4.67,2.85-7.72-.7-3.06-3.53-4.66-5.92-5.72-13.03-5.77-26.23-11.78-39-17.59-6.2-2.82-12.4-5.64-18.6-8.45-1.18-.53-2.37-.92-3.53-1.3-.51-.17-1.04-.34-1.59-.53l-1.18-.41-1.17,.42c-.43,.16-.87,.3-1.31,.45-1.05,.36-2.25,.76-3.42,1.29-20.37,9.23-38.72,17.55-57.03,25.92-3.54,1.62-6.33,2.9-6.93,5.83-.61,2.98,1.6,5.4,4.16,8.19,19.43,21.21,34.89,45.02,46.19,63.39,3.77,6.13,8.37,13.31,13.9,20.06,2.02,2.46,4.22,3.71,6.54,3.71,.04,0,.08,0,.12,0,2.32-.04,4.44-1.31,6.29-3.75,.73-.96,1.47-1.91,2.22-2.86,2.07-2.63,4.21-5.35,5.98-8.37,15.18-25.87,32.48-50.29,51.41-72.58Z"/></g></svg>