<?xml version="1.0" encoding="UTF-8"?><svg id="a" xmlns="http://www.w3.org/2000/svg" viewBox="0 0 1080 1080"><defs><style>.b{fill:#6a45ff;}.c{fill:#9d85ff;}.d{fill:#29ccb4;stroke:#29ccb4;}.d,.e,.f{stroke-miterlimit:10;}.d,.f{stroke-width:4.31px;}.e{fill:#85e1cb;stroke:#85e1cb;}.g{fill:#fff;fill-rule:evenodd;}.f{fill:none;stroke:#b3b3ff;}</style></defs><g><g><path class="f" d="M863.98,216.03c.45,.05,.93,.13,1.4,.2l-1.6-1.6c.07,.47,.15,.94,.2,1.4ZM216.03,863.98c-.45-.05-.89-.13-1.34-.18l1.52,1.52c-.05-.45-.13-.89-.18-1.34Z"/><path class="d" d="M216.03,863.98c.05,.45,.13,.89,.18,1.34,179.32,178.49,469.35,178.23,648.35-.76,178.98-178.98,179.27-469.01,.82-648.33-.47-.07-.94-.15-1.4-.2,23.05,171.9-31.49,352.2-163.62,484.33-132.11,132.11-312.41,186.66-484.33,163.62Z"/><path class="e" d="M863.98,216.03c-.06-.45-.13-.93-.2-1.4-179.32-178.45-469.37-178.18-648.35,.8-179,179-179.23,469.04-.74,648.37,.45,.05,.89,.13,1.34,.18,171.92,23.03,352.22-31.51,484.33-163.62,132.13-132.13,186.67-312.43,163.62-484.33Z"/></g><g><path class="g" d="M279.75,398.07c-12.18-.92-30.85,4.81-36.65,13.92-15.95,25.07,5.13,31.37,26.41,32.98,10.31,.78,15.12,14.2,7.99,22.26-15.96,18.04-34.66,41.09-36.31,48.54-2.92,12.83-2.87,115.11-3.14,137.11-.43,31.78-7.29,106.75,18.51,116.94,7.39,2.92,48.66,3.21,57.6,1.09,17.59-4.17,17.51-19.18,17.5-38.27,0-7.02,5.1-12.85,11.62-13.21,83.89-4.64,318.65-4.64,402.35,0,6.53,.36,11.63,6.2,11.61,13.24-.04,17.76-.07,32.48,15.06,37.61,8.99,3.03,52.07,2.69,60.05-.46,31.97-12.6,15.37-137.9,16.01-180.63,.97-62.16-.37-87.18-33.3-121.37-7.57-7.86-3.01-21.77,7.49-22.64,18.75-1.56,35.44-7.76,24.59-30.84-5.32-11.34-39.14-25.54-51.64-9.85-25.21,31.64-22.64-1.98-45.31-37.59-.28-.44-.55-.92-.77-1.4-26.54-57.14-33.61-56.25-117.33-55.28-.22,0-.45,0-.68-.01-27.72-1.36-57.64-2.5-85.3-2.56-28.83-.11-139.98,3.61-163.97,9.62-23.45,.52-54.25,65.8-65.15,88.94-17.13,36.2-13.99-6.3-37.23-8.13h0Zm37.07,41.41c71,1.32,151.74-9.34,225.98-9.39,69.89-.1,139.74,7.22,208.59,9.03,9.35,.25,15.57-10.33,11.28-19.28l-31.2-65.09c-.12-.25-.26-.51-.39-.75-7.29-12.89-7.65-17.92-23.61-20.76-59.41-10.42-261.46-9.05-322.94-.4-22.5,3.21-22.34,12.71-39.94,46.45-10.64,20.33-20.05,39.29-27.76,60.19h0Zm111.58,172.9c0,22.45,17.07,40.77,37.87,40.77h156.47c20.8,0,37.86-18.32,37.86-40.77v-14.91c0-29.7-22.58-53.99-50.18-53.99h-131.88c-27.58,0-50.15,24.28-50.15,53.96v14.93Zm-48.19,.11c3.75-1.91,7.53-5,10.87-8.63,6.52-7.07,3.44-19.19-5.48-21.87-29.66-8.93-83.13-13.05-111.12-10.76-6.26,.51-11.32,6-11.34,12.75-.2,62.16,93.91,40.38,117.07,28.51h0Zm307.89-24.11c3.19,8.94,12.02,19.7,20.69,24.11,23.16,11.87,117.27,33.65,117.07-28.51-.02-6.75-5.08-12.24-11.34-12.75-33.99-2.78-105.55,3.89-126.42,17.14h0Z"/><path class="g" d="M701.1,582.71s-13.31,6.58-4.19,20c9.11,13.43-11.89,0-11.89,0l-9.97-18.18,6.79-13.93,19.26,12.1Z"/></g></g><g><path class="c" d="M529.93,1079.44C232.23,1073.89-5.45,827.34,.1,529.84,5.65,232.33,252.36-5.2,550.07,.35s535.39,252.1,529.84,549.6c-5.55,297.5-252.27,535.03-549.97,529.49Zm18.49-991c-249.1-4.64-455.21,194.11-460.18,443.04-5.28,264.33,194.24,455.23,443.33,459.87,249.1,4.64,455.97-194.1,460.18-443.04,4.31-254.74-194.24-455.23-443.33-459.87Z"/><path class="b" d="M529.89,1079.9c-246.73-4.6-446.39-158.01-508.65-390.85-6.28-23.5,7.69-47.65,31.21-53.93,23.52-6.29,47.68,7.68,53.97,31.19,62.99,235.59,268.38,322.59,425.12,325.51,17.92,.33,36.03-.33,53.83-1.97,24.23-2.22,45.71,15.59,47.95,39.82,2.24,24.23-15.6,45.68-39.84,47.92-21.03,1.94-42.42,2.72-63.58,2.33Zm499.15-573.67c-20.99-.39-39.31-15.78-42.67-37.22-34.01-216.6-218.19-376.79-437.95-380.88h-.34c-24.19-.46-44.4-20.33-44.14-44.54C504.21,19.25,523.27-.26,547.62,0c.06,0,1.17,.02,1.23,.02,.06,0,1.17,.02,1.23,.02,262.62,4.89,482.74,196.38,523.4,455.32,3.77,24.03-12.67,46.57-36.72,50.35-2.59,.4-5.17,.58-7.71,.53Z"/></g></svg>