<?xml version="1.0" encoding="UTF-8"?><svg id="a" xmlns="http://www.w3.org/2000/svg" viewBox="0 0 1080 1080"><defs><style>.b{fill:#6a45ff;}.c{fill:#fff;}.d{fill:#9d85ff;}.e{fill:#ff553e;stroke:#ff553e;}.e,.f,.g{stroke-miterlimit:10;}.e,.g{stroke-width:4.31px;}.f{fill:coral;stroke:coral;}.g{fill:none;stroke:#b3b3ff;}</style></defs><g><path class="g" d="M863.98,216.03c.45,.05,.93,.13,1.4,.2l-1.6-1.6c.07,.47,.15,.94,.2,1.4ZM216.03,863.98c-.45-.05-.89-.13-1.34-.18l1.52,1.52c-.05-.45-.13-.89-.18-1.34Z"/><path class="e" d="M216.03,863.98c.05,.45,.13,.89,.18,1.34,179.32,178.49,469.35,178.23,648.35-.76,178.98-178.98,179.27-469.01,.82-648.33-.47-.07-.94-.15-1.4-.2,23.05,171.9-31.49,352.2-163.62,484.33-132.11,132.11-312.41,186.66-484.33,163.62Z"/><path class="f" d="M863.98,216.03c-.06-.45-.13-.93-.2-1.4-179.32-178.45-469.37-178.18-648.35,.8-179,179-179.23,469.04-.74,648.37,.45,.05,.89,.13,1.34,.18,171.92,23.03,352.22-31.51,484.33-163.62,132.13-132.13,186.67-312.43,163.62-484.33Z"/></g><path class="c" d="M674.35,815.16s0,26.67-105.1,26.67h-210.2s-32.94,1.57-32.94-26.67c0-28.24,51.76-28.24,86.27-28.24,18.72,0,58.22-1.85,90.45-3.54,14.6-.77,19.24-20.06,6.59-27.39l-176.1-101.96c-8.06-4.67-9.84-15.6-3.59-22.51,6.69-7.4,18.17-13.8,37.24-9.43,24.14,5.53,101.35,35.18,153.9,55.85,14,5.51,26.25-11.09,16.86-22.84l-93.1-116.51c-7.18-8.99-1.72-22.43,9.71-23.76,4.77-.55,10.49-.18,17.29,1.82,16.12,4.74,79.63,51.17,127.6,87.34,12.7,9.58,29.44-5.04,21.66-18.92l-27.8-49.59c-6.53-11.65,4.61-25.28,17.32-21.17,15.71,5.08,35.5,16.56,54.8,41.68,41.7,54.29,63.9,73.48,107.64,70.11,43.74-3.36,109.79,11.73,103.9,78.18-5.89,66.45-59.32,112.75-102.22,95.93-42.9-16.82-94.2-112.71-130.37-116.07s-37.01,21.03-14.3,49.63,48.63,34.91,44.5,81.38Z"/><g><path class="d" d="M529.93,1079.44C232.23,1073.89-5.45,827.34,.1,529.84,5.65,232.33,252.36-5.2,550.07,.35c297.7,5.55,535.39,252.1,529.84,549.6-5.55,297.5-252.27,535.03-549.97,529.49Zm18.49-991c-249.1-4.64-455.21,194.11-460.18,443.04-5.28,264.33,194.24,455.23,443.33,459.87,249.1,4.64,455.97-194.1,460.18-443.04,4.31-254.74-194.24-455.23-443.33-459.87Z"/><path class="b" d="M529.89,1079.9c-246.73-4.6-446.39-158.01-508.65-390.85-6.28-23.5,7.69-47.65,31.21-53.93,23.52-6.29,47.68,7.68,53.97,31.19,62.99,235.59,268.38,322.59,425.12,325.51,17.92,.33,36.03-.33,53.83-1.97,24.23-2.22,45.71,15.59,47.95,39.82,2.24,24.23-15.6,45.68-39.84,47.92-21.03,1.94-42.42,2.72-63.58,2.33Zm499.15-573.67c-20.99-.39-39.31-15.78-42.67-37.22-34.01-216.6-218.19-376.79-437.95-380.88h-.34c-24.19-.46-44.4-20.33-44.14-44.54C504.21,19.25,523.27-.26,547.62,0c.06,0,1.17,.02,1.23,.02,.06,0,1.17,.02,1.23,.02,262.62,4.89,482.74,196.38,523.4,455.32,3.77,24.03-12.67,46.57-36.72,50.35-2.59,.4-5.17,.58-7.71,.53Z"/></g><path class="c" d="M493.46,344.87c-41.49,18.04-61.97,38.51-80.01,80.01-5.15,11.84-21.89,11.84-27.04,0-18.04-41.49-38.51-61.97-80.01-80.01-11.84-5.15-11.84-21.89,0-27.04,41.49-18.04,61.97-38.51,80.01-80.01,5.15-11.84,21.89-11.84,27.04,0,18.04,41.49,38.51,61.97,80.01,80.01,11.84,5.15,11.84,21.89,0,27.04Z"/></svg>