<?xml version="1.0" encoding="UTF-8"?><svg id="a" xmlns="http://www.w3.org/2000/svg" viewBox="0 0 1080 1080"><defs><style>.b{fill:#6a45ff;}.c{fill:#fff;}.d{fill:#9d85ff;}.e{fill:#2fadeb;stroke:#2fadeb;}.e,.f,.g{stroke-miterlimit:10;}.e,.g{stroke-width:4.31px;}.f{fill:#52b9eb;stroke:#52b9eb;}.g{fill:none;stroke:#b3b3ff;}</style></defs><g><path class="g" d="M863.98,216.03c.45,.05,.93,.13,1.4,.2l-1.6-1.6c.07,.47,.15,.94,.2,1.4ZM216.03,863.98c-.45-.05-.89-.13-1.34-.18l1.52,1.52c-.05-.45-.13-.89-.18-1.34Z"/><path class="e" d="M216.03,863.98c.05,.45,.13,.89,.18,1.34,179.32,178.49,469.35,178.23,648.35-.76,178.98-178.98,179.27-469.01,.82-648.33-.47-.07-.94-.15-1.4-.2,23.05,171.9-31.49,352.2-163.62,484.33-132.11,132.11-312.41,186.66-484.33,163.62Z"/><path class="f" d="M863.98,216.03c-.06-.45-.13-.93-.2-1.4-179.32-178.45-469.37-178.18-648.35,.8-179,179-179.23,469.04-.74,648.37,.45,.05,.89,.13,1.34,.18,171.92,23.03,352.22-31.51,484.33-163.62,132.13-132.13,186.67-312.43,163.62-484.33Z"/></g><g><path class="d" d="M529.93,1079.44C232.23,1073.89-5.45,827.34,.1,529.84,5.65,232.33,252.36-5.2,550.07,.35c297.7,5.55,535.39,252.1,529.84,549.6-5.55,297.5-252.27,535.03-549.97,529.49Zm18.49-991c-249.1-4.64-455.21,194.11-460.18,443.04-5.28,264.33,194.24,455.23,443.33,459.87,249.1,4.64,455.97-194.1,460.18-443.04,4.31-254.74-194.24-455.23-443.33-459.87Z"/><path class="b" d="M529.89,1079.9c-246.73-4.6-446.39-158.01-508.65-390.85-6.28-23.5,7.69-47.65,31.21-53.93,23.52-6.29,47.68,7.68,53.97,31.19,62.99,235.59,268.38,322.59,425.12,325.51,17.92,.33,36.03-.33,53.83-1.97,24.23-2.22,45.71,15.59,47.95,39.82,2.24,24.23-15.6,45.68-39.84,47.92-21.03,1.94-42.42,2.72-63.58,2.33Zm499.15-573.67c-20.99-.39-39.31-15.78-42.67-37.22-34.01-216.6-218.19-376.79-437.95-380.88h-.34c-24.19-.46-44.4-20.33-44.14-44.54C504.21,19.25,523.27-.26,547.62,0c.06,0,1.17,.02,1.23,.02,.06,0,1.17,.02,1.23,.02,262.62,4.89,482.74,196.38,523.4,455.32,3.77,24.03-12.67,46.57-36.72,50.35-2.59,.4-5.17,.58-7.71,.53Z"/></g><path class="c" d="M391.78,828.25c0-4.13-.09-7.47,.02-10.81,.56-17.87,10.04-27.47,27.93-28.36,15.48-.77,20.01-5.02,23.57-19.85,1.89-7.89,3.84-16.43,8.3-22.94,20.64-30.15,28.24-64.74,35.25-99.52,7.78-38.56,11.59-77.54,10.46-117.56-3.71-.88-7.22-1.66-10.71-2.54-7.17-1.81-11.87-5.7-12.39-13.74-.5-7.75,1.95-12,10.04-14.82,3.89-1.36,8.41-9.16,7.9-13.48-2.12-18.09-5.08-36.21-9.52-53.88-6.81-27.1-14.92-53.88-22.82-80.69-2.62-8.88-.08-13.82,9.07-15.04,6.63-.89,13.31-1.46,20.89-2.28,.71-2.39,1.58-5.15,2.36-7.93,3.03-10.82,9.25-17.64,21.3-17.83,7.91-.13,9.99-4.84,9.11-12.09-.83-6.82-3.55-10.08-10.97-8.78-4.24,.74-8.71,.13-13.61,.13v-52.69c6.78,1.12,12.9,2.14,20.43,3.38-1.99-9.07-3.77-17.17-5.72-26.06h54.22c-1.84,8.39-3.62,16.52-5.67,25.9,7.18-1.08,13.57-2.03,20.55-3.08v52.42c-5,0-10.07,.53-14.99-.13-6.56-.87-9.73,2.43-9.14,7.95,.47,4.36,3.4,12.02,5.42,12.08,17.62,.51,23.84,11.58,26.44,26.74,6.67,.65,12.98,.96,19.19,1.94,12.52,1.97,13.52,5.26,10.24,17.56-10.77,40.34-20.91,80.84-31.03,121.35-1.15,4.62-1.75,9.99-.48,14.41,1.15,4.01,4.57,9.3,8.07,10.32,7.64,2.22,10.28,6.17,10.02,13.64-.28,7.97-4.45,12.37-11.64,14.45-3.55,1.02-7.2,1.69-13.94,3.23,3.34,34.17,5.91,68.74,10.4,103.06,2.51,19.16,6.99,38.28,12.85,56.7,5.38,16.88,13.93,32.74,20.84,49.15,4.46,10.58,8.89,21.21,12.57,32.07,3,8.86,5.93,17.09,16.89,18.39,29.98,3.56,35.22,9.52,34.17,38.67,12.97,6.29,20.75,22.09,17.27,36.15-.51,2.04-3.51,3.95-5.78,4.93-1.9,.82-4.42,.19-6.66,.19-101.76,0-203.51,0-305.27,0-13.21,0-13.83-.68-12.43-14,1.25-11.89,3.59-23.16,17.01-26.69Z"/></svg>