<?xml version="1.0" encoding="UTF-8"?><svg id="a" xmlns="http://www.w3.org/2000/svg" viewBox="0 0 1080 1080"><defs><style>.b{fill:#6a45ff;}.c{fill:#fff;}.d{fill:#9d85ff;}.e{fill:#dd1956;stroke:#dd1956;}.e,.f,.g{stroke-miterlimit:10;}.e,.g{stroke-width:4.31px;}.f{fill:#ff4576;stroke:#ff4576;}.g{fill:none;stroke:#b3b3ff;}</style></defs><g><path class="g" d="M863.98,216.03c.45,.05,.93,.13,1.4,.2l-1.6-1.6c.07,.47,.15,.94,.2,1.4ZM216.03,863.98c-.45-.05-.89-.13-1.34-.18l1.52,1.52c-.05-.45-.13-.89-.18-1.34Z"/><path class="e" d="M216.03,863.98c.05,.45,.13,.89,.18,1.34,179.32,178.49,469.35,178.23,648.35-.76,178.98-178.98,179.27-469.01,.82-648.33-.47-.07-.94-.15-1.4-.2,23.05,171.9-31.49,352.2-163.62,484.33-132.11,132.11-312.41,186.66-484.33,163.62Z"/><path class="f" d="M863.98,216.03c-.06-.45-.13-.93-.2-1.4-179.32-178.45-469.37-178.18-648.35,.8-179,179-179.23,469.04-.74,648.37,.45,.05,.89,.13,1.34,.18,171.92,23.03,352.22-31.51,484.33-163.62,132.13-132.13,186.67-312.43,163.62-484.33Z"/></g><g><path class="d" d="M529.93,1079.44C232.23,1073.89-5.45,827.34,.1,529.84,5.65,232.33,252.36-5.2,550.07,.35c297.7,5.55,535.39,252.1,529.84,549.6-5.55,297.5-252.27,535.03-549.97,529.49Zm18.49-991c-249.1-4.64-455.21,194.11-460.18,443.04-5.28,264.33,194.24,455.23,443.33,459.87,249.1,4.64,455.97-194.1,460.18-443.04,4.31-254.74-194.24-455.23-443.33-459.87Z"/><path class="b" d="M529.89,1079.9c-246.73-4.6-446.39-158.01-508.65-390.85-6.28-23.5,7.69-47.65,31.21-53.93,23.52-6.29,47.68,7.68,53.97,31.19,62.99,235.59,268.38,322.59,425.12,325.51,17.92,.33,36.03-.33,53.83-1.97,24.23-2.22,45.71,15.59,47.95,39.82,2.24,24.23-15.6,45.68-39.84,47.92-21.03,1.94-42.42,2.72-63.58,2.33Zm499.15-573.67c-20.99-.39-39.31-15.78-42.67-37.22-34.01-216.6-218.19-376.79-437.95-380.88h-.34c-24.19-.46-44.4-20.33-44.14-44.54C504.21,19.25,523.27-.26,547.62,0c.06,0,1.17,.02,1.23,.02,.06,0,1.17,.02,1.23,.02,262.62,4.89,482.74,196.38,523.4,455.32,3.77,24.03-12.67,46.57-36.72,50.35-2.59,.4-5.17,.58-7.71,.53Z"/></g><path class="c" d="M802.74,650.53c-.12-21.98-10.61-37.78-30.07-47.4-9.22-4.56-18.79-8.46-28.35-12.29l-46.26-19.25c.04-12.82,.07-25.63,.16-38.45,.17-26.96-11.1-45.23-35.54-56.83-32.71-15.52-64.87-32.18-97.18-48.54-2.76-1.4-6.79-4.04-6.91-6.28-.67-12.78-.32-25.62-.32-39.07,11.87,0,22.09,.11,32.31-.03,12.57-.17,19.5-6.43,19.55-17.37,.05-10.61-7.49-17.67-19.38-17.84-10.52-.15-21.04-.03-32.62-.03,0-11.16,.04-21.33-.01-31.49-.04-8.42-2.57-15.64-10.76-19.42-12.2-5.63-24.57,2.74-25.35,17.54-.57,10.8-.11,21.66-.11,33.39h-20.49c-23.37,0-31.7,4.74-31.54,17.96,.16,13.2,7.44,17.28,30.88,17.28,6.73,0,13.46,0,21.09,0,0,11.93-.51,22.51,.18,33.01,.46,7.03-2.45,10.25-8.36,13.14-32.53,15.92-64.69,32.6-97.35,48.25-24.05,11.52-34.72,29.94-34.55,56.38,.08,12.8,.12,25.59,.15,38.39l-60.59,25.02c-.21,.09-.4,.21-.61,.31-4.86,2.08-9.67,4.25-14.36,6.66-18.86,9.72-29.04,25.42-29.13,46.98-.1,26-.03,52-.03,78.01,0,35.81,20.83,56.85,56.49,56.88,81.43,.06,162.85,.04,244.28,.05,57.14,0,114.27,.07,171.41-.04,30.91-.06,53.33-22.35,53.39-52.81,.06-27.37,.13-54.74-.03-82.11Zm-193.9,98.54h-137.64c0-27.93-1.01-55.18-.14-82.28,5.32-28.92,28.1-51.11,58.99-56.23,.44-.07,.88-.12,1.33-.19,3.12-.27,6.28-.37,9.44-.3,5.26,.12,10.4,.65,15.36,1.51,22.7,5.48,42.49,22.58,50.08,46.07,1.34,4.15,2.19,8.5,2.75,12.93,.57,25.8-.17,51.76-.17,78.49Z"/></svg>