<?xml version="1.0" encoding="UTF-8"?><svg id="a" xmlns="http://www.w3.org/2000/svg" viewBox="0 0 1080 1080"><defs><style>.b{fill:#6a45ff;}.c{fill:#fff;}.d{fill:#9d85ff;}.e{fill:#066;stroke:#066;}.e,.f,.g{stroke-miterlimit:10;}.e,.g{stroke-width:4.31px;}.f{fill:teal;stroke:teal;}.g{fill:none;stroke:#b3b3ff;}</style></defs><g><path class="g" d="M863.98,216.03c.45,.05,.93,.13,1.4,.2l-1.6-1.6c.07,.47,.15,.94,.2,1.4ZM216.03,863.98c-.45-.05-.89-.13-1.34-.18l1.52,1.52c-.05-.45-.13-.89-.18-1.34Z"/><path class="e" d="M216.03,863.98c.05,.45,.13,.89,.18,1.34,179.32,178.49,469.35,178.23,648.35-.76,178.98-178.98,179.27-469.01,.82-648.33-.47-.07-.94-.15-1.4-.2,23.05,171.9-31.49,352.2-163.62,484.33-132.11,132.11-312.41,186.66-484.33,163.62Z"/><path class="f" d="M863.98,216.03c-.06-.45-.13-.93-.2-1.4-179.32-178.45-469.37-178.18-648.35,.8-179,179-179.23,469.04-.74,648.37,.45,.05,.89,.13,1.34,.18,171.92,23.03,352.22-31.51,484.33-163.62,132.13-132.13,186.67-312.43,163.62-484.33Z"/></g><g><path class="d" d="M529.93,1079.44C232.23,1073.89-5.45,827.34,.1,529.84,5.65,232.33,252.36-5.2,550.07,.35c297.7,5.55,535.39,252.1,529.84,549.6-5.55,297.5-252.27,535.03-549.97,529.49Zm18.49-991c-249.1-4.64-455.21,194.11-460.18,443.04-5.28,264.33,194.24,455.23,443.33,459.87,249.1,4.64,455.97-194.1,460.18-443.04,4.31-254.74-194.24-455.23-443.33-459.87Z"/><path class="b" d="M529.89,1079.9c-246.73-4.6-446.39-158.01-508.65-390.85-6.28-23.5,7.69-47.65,31.21-53.93,23.52-6.29,47.68,7.68,53.97,31.19,62.99,235.59,268.38,322.59,425.12,325.51,17.92,.33,36.03-.33,53.83-1.97,24.23-2.22,45.71,15.59,47.95,39.82,2.24,24.23-15.6,45.68-39.84,47.92-21.03,1.94-42.42,2.72-63.58,2.33Zm499.15-573.67c-20.99-.39-39.31-15.78-42.67-37.22-34.01-216.6-218.19-376.79-437.95-380.88h-.34c-24.19-.46-44.4-20.33-44.14-44.54C504.21,19.25,523.27-.26,547.62,0c.06,0,1.17,.02,1.23,.02,.06,0,1.17,.02,1.23,.02,262.62,4.89,482.74,196.38,523.4,455.32,3.77,24.03-12.67,46.57-36.72,50.35-2.59,.4-5.17,.58-7.71,.53Z"/></g><g><path class="c" d="M838.41,531.29c-11.32-38.38-44.8-63.44-85.29-63.85-44.4-.44-89.56-.35-133.23-.26-19.23,.04-39.12,.08-58.67,.08-16.56,0-33.12-.02-49.69-.03-20.72-.01-41.74-.03-62.88-.03-27.01,0-54.19,.02-81.11,.1-11.69,.03-18.69,1.92-22.71,6.13-4.02,4.22-5.58,11.35-5.05,23.12,.42,9.39,1.32,19.52,2.77,30.98,9.03,71.77,32.38,103.06,51.71,122.3,27.61,27.47,63.29,43.02,109.08,47.54,49.57,4.89,106.72,5.11,154.8-30.33,22.94-16.91,44.96-23.45,71.38-21.19,7.2,.61,14.61,.33,22.21-.03,20.8-1.01,37.88-6.45,52.21-16.65,31.32-22.29,45.18-61.62,34.48-97.87Zm-75.42,70.37c-.7,.09-2.69,.34-12.99,.34-1.17,0-2.45,0-3.85-.01-5.48-.03-10.61-2.2-14.43-6.12-3.83-3.92-5.88-9.09-5.78-14.57l.94-50.48c.21-11.01,9.3-19.93,20.29-19.93h.08c3.74,.02,7.26,.07,10.48,.17,26.98,.84,46.48,18.88,47.42,43.88,.9,23.88-16.83,43.53-42.17,46.72Z"/><path class="c" d="M664.56,737c-82.64-.34-168.36-.35-254.79-.03-11.64,.04-20.67,3.02-26.13,8.6-4.47,4.57-6.66,10.89-6.51,18.78,.31,16.6,11.29,25.07,32.65,25.17,28.12,.13,56.71,.11,84.37,.09,13.76-.01,27.52-.02,41.28-.01,10.34,0,20.69,.02,31.03,.03,31.59,.03,64.25,.07,96.37-.04,33.58-.11,34.05-19.22,34.21-25.49,.2-8.05-1.87-14.36-6.16-18.77-5.31-5.47-14.17-8.27-26.32-8.32Z"/><path class="c" d="M431.34,354.67c-2.87,22.8-2.78,42.87,.27,61.36,1.49,9.01,8.19,13.68,17.94,12.51,8.73-1.05,13.55-6.41,13.93-15.49,.25-5.92,.19-12,.13-17.89-.02-1.52-.03-3.04-.04-4.56h-.22v-3.5c0-3.04,.04-6.08,.08-9.12,.09-6.66,.18-13.55-.19-20.24-.54-9.62-5.93-15.03-15.6-15.63-.45-.03-.9-.04-1.34-.04-8.17,0-13.97,4.84-14.95,12.61Z"/><path class="c" d="M521.09,321.62c-.92,17.35-.98,35.95-.18,55.26,.43,10.49,6.51,16.29,16.63,15.9,12.49-.47,15.55-9.6,15.91-17.17,.28-5.89,.21-11.95,.14-17.81-.02-1.55-.04-3.09-.05-4.64h-.03l-.05-3.46c0-2.86,.04-5.73,.08-8.6,.09-6.26,.18-12.73-.18-19-.56-9.95-5.69-15.24-15.22-15.72-.47-.02-.93-.04-1.38-.04-9.6,0-15.14,5.38-15.66,15.27Z"/><path class="c" d="M610.74,387.25c-.01,1.7-.03,3.39-.05,5.09-.07,6.25-.15,12.71,.15,19,.54,11.14,5.78,16.96,15.59,17.3,9.45,.35,16-5.25,16.58-14.23,1.29-20.12,1.31-39.77,.08-58.42-.59-8.93-7.14-14.35-16.72-13.82-9.61,.54-14.72,5.83-15.18,15.72-.28,5.89-.21,11.94-.14,17.8,.03,2.69,.06,5.37,.06,8.06v3.5h-.37Z"/></g></svg>