<?xml version="1.0" encoding="UTF-8"?><svg id="a" xmlns="http://www.w3.org/2000/svg" viewBox="0 0 1080 1080"><defs><style>.b,.c{fill:#6a45ff;}.d{fill:#fff;}.e{fill:#9d85ff;}.f{fill:#4b1fff;stroke:#4b1fff;}.f,.c,.g{stroke-miterlimit:10;}.f,.g{stroke-width:4.31px;}.c{stroke:#6a45ff;}.g{fill:none;stroke:#b3b3ff;}</style></defs><g><g><path class="g" d="M863.98,216.03c.45,.05,.93,.13,1.4,.2l-1.6-1.6c.07,.47,.15,.94,.2,1.4ZM216.03,863.98c-.45-.05-.89-.13-1.34-.18l1.52,1.52c-.05-.45-.13-.89-.18-1.34Z"/><path class="f" d="M216.03,863.98c.05,.45,.13,.89,.18,1.34,179.32,178.49,469.35,178.23,648.35-.76,178.98-178.98,179.27-469.01,.82-648.33-.47-.07-.94-.15-1.4-.2,23.05,171.9-31.49,352.2-163.62,484.33-132.11,132.11-312.41,186.66-484.33,163.62Z"/><path class="c" d="M863.98,216.03c-.06-.45-.13-.93-.2-1.4-179.32-178.45-469.37-178.18-648.35,.8-179,179-179.23,469.04-.74,648.37,.45,.05,.89,.13,1.34,.18,171.92,23.03,352.22-31.51,484.33-163.62,132.13-132.13,186.67-312.43,163.62-484.33Z"/></g><g><g><circle class="d" cx="750.39" cy="420.54" r="87.93"/><path class="d" d="M862,692.05c-20.29,6.59-53.71,12.88-107.6,12.88-10.79,0-20.83-.24-30.16-.7-8.13-.4-15.07-5.85-17.47-13.64-11.43-37.18-30.85-66.54-56.79-86.84-8.46-6.63-10.05-18.73-3.39-27.17,21.61-27.38,55.89-49.63,110.24-49.63,102.24,0,126.65,78.8,132.35,122.14,2.51,19.05-8.93,37-27.17,42.95Z"/></g><g><circle class="d" cx="329.62" cy="420.54" r="87.93"/><path class="d" d="M429.77,572.17c7.07,8.23,5.85,20.84-2.79,27.42-9.05,6.89-17.23,15.01-24.54,24.33-16.35,21.01-25.34,44.95-30.24,65.64-1.98,8.35-9.19,14.35-17.77,14.75s-18.52,.63-28.8,.63c-53.92,0-87.35-6.29-107.64-12.88-18.24-5.96-29.68-23.9-27.17-42.95,5.7-43.34,30.11-122.14,132.34-122.14,51.4,0,84.85,19.9,106.59,45.22Z"/></g><g><circle class="d" cx="541.3" cy="499.06" r="87.93"/><path class="d" d="M676.74,723.16c4.86,20.25-6.73,40.85-26.64,46.96-22.07,6.77-57.67,13.34-112.79,13.34-53.9,0-87.33-6.27-107.6-12.89-18.26-5.96-29.7-23.91-27.19-42.95,5.7-43.35,30.13-122.14,132.36-122.14,98.82,0,131.28,73.61,141.86,117.68Z"/></g></g></g><g><path class="e" d="M529.93,1079.44C232.23,1073.89-5.45,827.34,.1,529.84,5.65,232.33,252.36-5.2,550.07,.35s535.39,252.1,529.84,549.6c-5.55,297.5-252.27,535.03-549.97,529.49Zm18.49-991c-249.1-4.64-455.21,194.11-460.18,443.04-5.28,264.33,194.24,455.23,443.33,459.87,249.1,4.64,455.97-194.1,460.18-443.04,4.31-254.74-194.24-455.23-443.33-459.87Z"/><path class="b" d="M529.89,1079.9c-246.73-4.6-446.39-158.01-508.65-390.85-6.28-23.5,7.69-47.65,31.21-53.93,23.52-6.29,47.68,7.68,53.97,31.19,62.99,235.59,268.38,322.59,425.12,325.51,17.92,.33,36.03-.33,53.83-1.97,24.23-2.22,45.71,15.59,47.95,39.82,2.24,24.23-15.6,45.68-39.84,47.92-21.03,1.94-42.42,2.72-63.58,2.33Zm499.15-573.67c-20.99-.39-39.31-15.78-42.67-37.22-34.01-216.6-218.19-376.79-437.95-380.88h-.34c-24.19-.46-44.4-20.33-44.14-44.54C504.21,19.25,523.27-.26,547.62,0c.06,0,1.17,.02,1.23,.02,.06,0,1.17,.02,1.23,.02,262.62,4.89,482.74,196.38,523.4,455.32,3.77,24.03-12.67,46.57-36.72,50.35-2.59,.4-5.17,.58-7.71,.53Z"/></g></svg>