<?xml version="1.0" encoding="UTF-8"?><svg id="a" xmlns="http://www.w3.org/2000/svg" viewBox="0 0 1080 1080"><defs><style>.b{fill:#6a45ff;}.c{fill:#9d85ff;}.d{fill:#8775ef;stroke:#8775ef;}.d,.e,.f{stroke-miterlimit:10;}.e{fill:#776ce5;stroke:#776ce5;}.f{fill:none;stroke:#b3b3ff;stroke-width:4.31px;}.g{fill:#4b1fff;opacity:.8;}</style></defs><g><path class="f" d="M863.98,216.03c.45,.05,.93,.13,1.4,.2l-1.6-1.6c.07,.47,.15,.94,.2,1.4ZM216.03,863.98c-.45-.05-.89-.13-1.34-.18l1.52,1.52c-.05-.45-.13-.89-.18-1.34Z"/><path class="e" d="M216.03,863.98c.05,.45,.13,.89,.18,1.34,179.32,178.49,469.35,178.23,648.35-.76,178.98-178.98,179.27-469.01,.82-648.33-.47-.07-.94-.15-1.4-.2,23.05,171.9-31.49,352.2-163.62,484.33-132.11,132.11-312.41,186.66-484.33,163.62Z"/><path class="d" d="M863.98,216.03c-.06-.45-.13-.93-.2-1.4-179.32-178.45-469.37-178.18-648.35,.8-179,179-179.23,469.04-.74,648.37,.45,.05,.89,.13,1.34,.18,171.92,23.03,352.22-31.51,484.33-163.62,132.13-132.13,186.67-312.43,163.62-484.33Z"/></g><g><path class="c" d="M529.93,1079.44C232.23,1073.89-5.45,827.34,.1,529.84,5.65,232.33,252.36-5.2,550.07,.35c297.7,5.55,535.39,252.1,529.84,549.6-5.55,297.5-252.27,535.03-549.97,529.49Zm18.49-991c-249.1-4.64-455.21,194.11-460.18,443.04-5.28,264.33,194.24,455.23,443.33,459.87,249.1,4.64,455.97-194.1,460.18-443.04,4.31-254.74-194.24-455.23-443.33-459.87Z"/><path class="b" d="M529.89,1079.9c-246.73-4.6-446.39-158.01-508.65-390.85-6.28-23.5,7.69-47.65,31.21-53.93,23.52-6.29,47.68,7.68,53.97,31.19,62.99,235.59,268.38,322.59,425.12,325.51,17.92,.33,36.03-.33,53.83-1.97,24.23-2.22,45.71,15.59,47.95,39.82,2.24,24.23-15.6,45.68-39.84,47.92-21.03,1.94-42.42,2.72-63.58,2.33Zm499.15-573.67c-20.99-.39-39.31-15.78-42.67-37.22-34.01-216.6-218.19-376.79-437.95-380.88h-.34c-24.19-.46-44.4-20.33-44.14-44.54C504.21,19.25,523.27-.26,547.62,0c.06,0,1.17,.02,1.23,.02,.06,0,1.17,.02,1.23,.02,262.62,4.89,482.74,196.38,523.4,455.32,3.77,24.03-12.67,46.57-36.72,50.35-2.59,.4-5.17,.58-7.71,.53Z"/></g><g><path class="g" d="M532.06,377.78c26.16,.79,48.49-20.53,48.67-46.44,.19-26.92-19.84-47.55-46.83-48.25-24.92-.64-47.01,20.97-47.47,46.44-.47,25.75,20.08,47.47,45.63,48.24Z"/><path class="g" d="M370.6,398.56c27.71,.18,47.97-19.15,48.37-46.15,.39-25.97-20.02-46.8-46.25-47.18-26.93-.39-48.13,19.93-48.39,46.37-.25,26.05,20.18,46.79,46.26,46.96Z"/><path class="g" d="M857.04,547.29c-27.6-62.55-66.4-114.29-134.75-136.87-87.14-28.79-179.24-22.42-268.98-10.79-32.35,4.19-64.5,9.56-95.62,19.85-68.33,22.58-107.14,74.32-134.73,136.87-4.68,10.62,1.89,25.04,12.1,30.62,10.81,5.91,19.14,3.88,28.51-8.01,8.91-11.31,16.86-23.39,25.93-34.56,3.51-4.33,8.24-9.88,14.94-7.17,5.75,2.32,5.93,8.51,6.66,14.14,3.84,29.69-.15,59.23-1.63,88.78-1.57,31.41-3.04,62.79,4.47,93.6,6.71,27.51,19.46,50.84,48.93,60.04,31.11,9.72,49.2-3.34,48.73-35.6-.66-45.75-5.2-91.41-2.76-137.23,1.2-22.58,5.78-44.4,13.1-65.78,13.1-38.24,38.51-63.14,77.88-73.26,20.05-5.16,40.17-10.1,60.25-15.14,.15,.39,.31,.78,.46,1.18-24.62,10.26-50.71,30.64-73.87,50.17-5.27,4.45-10.47,11.17-10.44,19.09,.24,70.81-.27,116.94,.39,187.74,.27,28.64,21.75,53.47,48.74,59.56,28.7,6.48,55.72-5.52,70.35-31.16,7.69-13.48,8.19-28.36,8.21-43.19,.15-76.32,.97-151.64-.49-227.94,.13,.08,1.46,.38,3.7,.81v.16c24.35,13.07,41.1,34.24,50.93,62.92,7.33,21.39,11.9,43.2,13.1,65.78,2.44,45.82-2.09,91.49-2.76,137.23-.47,32.25,17.61,45.31,48.73,35.6,29.47-9.2,42.23-32.53,48.93-60.04,7.51-30.81,6.04-62.19,4.47-93.6-1.48-29.55-5.47-59.09-1.63-88.78,.73-5.63,.91-11.82,6.66-14.14,6.7-2.7,11.43,2.84,14.94,7.17,9.07,11.17,17.02,23.25,25.93,34.56,9.37,11.89,17.69,13.93,28.51,8.01,10.2-5.58,16.78-20,12.1-30.62Z"/><path class="g" d="M709.4,389.51c26.07-.17,46.51-20.91,46.26-46.96-.25-26.44-21.46-46.76-48.39-46.37-26.22,.38-46.64,21.2-46.25,47.18,.41,27,20.67,46.33,48.38,46.15Z"/></g></svg>