<?xml version="1.0" encoding="UTF-8"?><svg id="a" xmlns="http://www.w3.org/2000/svg" viewBox="0 0 1080 1080"><defs><style>.b,.c{fill:#6a45ff;}.d{fill:#fff;}.e{fill:#9d85ff;}.f{fill:#4b1fff;stroke:#4b1fff;}.f,.c,.g{stroke-miterlimit:10;}.f,.g{stroke-width:4.31px;}.c{stroke:#6a45ff;}.g{fill:none;stroke:#b3b3ff;}</style></defs><g><g><path class="g" d="M863.98,216.03c.45,.05,.93,.13,1.4,.2l-1.6-1.6c.07,.47,.15,.94,.2,1.4ZM216.03,863.98c-.45-.05-.89-.13-1.34-.18l1.52,1.52c-.05-.45-.13-.89-.18-1.34Z"/><path class="f" d="M216.03,863.98c.05,.45,.13,.89,.18,1.34,179.32,178.49,469.35,178.23,648.35-.76,178.98-178.98,179.27-469.01,.82-648.33-.47-.07-.94-.15-1.4-.2,23.05,171.9-31.49,352.2-163.62,484.33-132.11,132.11-312.41,186.66-484.33,163.62Z"/><path class="c" d="M863.98,216.03c-.06-.45-.13-.93-.2-1.4-179.32-178.45-469.37-178.18-648.35,.8-179,179-179.23,469.04-.74,648.37,.45,.05,.89,.13,1.34,.18,171.92,23.03,352.22-31.51,484.33-163.62,132.13-132.13,186.67-312.43,163.62-484.33Z"/></g><g><path class="e" d="M529.93,1079.44C232.23,1073.89-5.45,827.34,.1,529.84,5.65,232.33,252.36-5.2,550.07,.35s535.39,252.1,529.84,549.6c-5.55,297.5-252.27,535.03-549.97,529.49Zm18.49-991c-249.1-4.64-455.21,194.11-460.18,443.04-5.28,264.33,194.24,455.23,443.33,459.87,249.1,4.64,455.97-194.1,460.18-443.04,4.31-254.74-194.24-455.23-443.33-459.87Z"/><path class="b" d="M529.89,1079.9c-246.73-4.6-446.39-158.01-508.65-390.85-6.28-23.5,7.69-47.65,31.21-53.93,23.52-6.29,47.68,7.68,53.97,31.19,62.99,235.59,268.38,322.59,425.12,325.51,17.92,.33,36.03-.33,53.83-1.97,24.23-2.22,45.71,15.59,47.95,39.82,2.24,24.23-15.6,45.68-39.84,47.92-21.03,1.94-42.42,2.72-63.58,2.33Zm499.15-573.67c-20.99-.39-39.31-15.78-42.67-37.22-34.01-216.6-218.19-376.79-437.95-380.88h-.34c-24.19-.46-44.4-20.33-44.14-44.54C504.21,19.25,523.27-.26,547.62,0c.06,0,1.17,.02,1.23,.02,.06,0,1.17,.02,1.23,.02,262.62,4.89,482.74,196.38,523.4,455.32,3.77,24.03-12.67,46.57-36.72,50.35-2.59,.4-5.17,.58-7.71,.53Z"/></g></g><path class="d" d="M740.22,271.67c-5.83-.78-11.51-1.14-17.35-1.14-38.65,0-75.95,15.1-102.34,41.45-24.49,24.45-37.98,56.78-37.98,91.06v237.6c0,24.92-17.5,44.45-40.71,45.48h0c-.69-.04-1.39-.06-2.08-.06-.65,0-1.29,.02-1.94,.06h0c-23.14-1.1-40.57-20.64-40.57-45.48v-237.69c0-74.28-61.62-132.49-140.29-132.49h0c-5.6,0-10.63,.49-16.92,1.27-17.07,2.13-29.92,16.7-29.92,33.89l-.06,366.86v.18c1.17,75.48,63.22,136.88,138.31,136.88,33.87,0,66.37-12.37,91.51-34.81h0c25.14,22.44,57.64,34.81,91.51,34.81,75.15,0,137.19-61.62,138.25-137.35v-.16l.35-366.41c.02-17.11-12.73-31.7-29.7-33.91l-.04-.04Zm-229.39,471.12h0c-1.61,1.08-10.73,6.42-31.6,6.42-13.49-.06-26.71-2.68-39.32-7.77-8.77-3.54-25.08-12.35-35.79-31.68-8.56-15.43-12.92-34.46-12.92-56.55v-248.84c0-27.18-2.94-38.34-9.52-53.1-4.66-10.46-13.47-18.23-18.31-21.91-2.92-2.23-3.78-6.21-2.08-9.46,1.31-2.47,3.84-4.01,6.64-4.01l1.9,.22c1.33,.45,21.77,7.4,34.26,29.08,9.38,16.25,14.53,37.28,14.53,59.19v248.84c0,16.33,3.09,30.23,9.14,41.31,5.11,9.32,12.9,16.9,23.16,22.56,13.18,7.28,34.15,11.96,53.43,11.96h2.29c3.33,0,6.21,2.11,7.19,5.27,.98,3.21-.22,6.6-3.02,8.46h.04Zm208.17-413.44c-4.82,3.68-13.63,11.45-18.31,21.93-6.58,14.74-9.52,25.9-9.52,53.08v248.84c0,22.09-4.35,41.12-12.92,56.55-10.71,19.31-27.02,28.14-35.79,31.68-12.61,5.09-26.04,7.71-39.9,7.77-20.81,0-30.05-5.76-31.05-6.42-2.78-1.86-3.99-5.27-3-8.46,.98-3.17,3.9-5.29,7.28-5.29h2.37c19.15,.02,40.08-4.68,53.28-11.94,10.26-5.66,18.05-13.24,23.16-22.56,6.07-11.1,9.14-25,9.14-41.31v-248.84c0-21.91,5.15-42.92,14.53-59.19,12.47-21.6,32.99-28.66,33.85-28.94l1.82-.37c3.27,0,5.83,1.53,7.13,4.01,1.72,3.27,.84,7.24-2.08,9.46h.02Z"/></svg>