<?xml version="1.0" encoding="UTF-8"?><svg id="a" xmlns="http://www.w3.org/2000/svg" viewBox="0 0 1080 1080"><defs><style>.b{fill:#6a45ff;}.c{fill:#fff;}.d{fill:#9d85ff;}.e{fill:#066;stroke:#066;}.e,.f,.g{stroke-miterlimit:10;}.e,.g{stroke-width:4.31px;}.f{fill:teal;stroke:teal;}.g{fill:none;stroke:#b3b3ff;}</style></defs><g><path class="g" d="M863.98,216.03c.45,.05,.93,.13,1.4,.2l-1.6-1.6c.07,.47,.15,.94,.2,1.4ZM216.03,863.98c-.45-.05-.89-.13-1.34-.18l1.52,1.52c-.05-.45-.13-.89-.18-1.34Z"/><path class="e" d="M216.03,863.98c.05,.45,.13,.89,.18,1.34,179.32,178.49,469.35,178.23,648.35-.76,178.98-178.98,179.27-469.01,.82-648.33-.47-.07-.94-.15-1.4-.2,23.05,171.9-31.49,352.2-163.62,484.33-132.11,132.11-312.41,186.66-484.33,163.62Z"/><path class="f" d="M863.98,216.03c-.06-.45-.13-.93-.2-1.4-179.32-178.45-469.37-178.18-648.35,.8-179,179-179.23,469.04-.74,648.37,.45,.05,.89,.13,1.34,.18,171.92,23.03,352.22-31.51,484.33-163.62,132.13-132.13,186.67-312.43,163.62-484.33Z"/></g><g><path class="d" d="M529.93,1079.44C232.23,1073.89-5.45,827.34,.1,529.84,5.65,232.33,252.36-5.2,550.07,.35c297.7,5.55,535.39,252.1,529.84,549.6-5.55,297.5-252.27,535.03-549.97,529.49Zm18.49-991c-249.1-4.64-455.21,194.11-460.18,443.04-5.28,264.33,194.24,455.23,443.33,459.87,249.1,4.64,455.97-194.1,460.18-443.04,4.31-254.74-194.24-455.23-443.33-459.87Z"/><path class="b" d="M529.89,1079.9c-246.73-4.6-446.39-158.01-508.65-390.85-6.28-23.5,7.69-47.65,31.21-53.93,23.52-6.29,47.68,7.68,53.97,31.19,62.99,235.59,268.38,322.59,425.12,325.51,17.92,.33,36.03-.33,53.83-1.97,24.23-2.22,45.71,15.59,47.95,39.82,2.24,24.23-15.6,45.68-39.84,47.92-21.03,1.94-42.42,2.72-63.58,2.33Zm499.15-573.67c-20.99-.39-39.31-15.78-42.67-37.22-34.01-216.6-218.19-376.79-437.95-380.88h-.34c-24.19-.46-44.4-20.33-44.14-44.54C504.21,19.25,523.27-.26,547.62,0c.06,0,1.17,.02,1.23,.02,.06,0,1.17,.02,1.23,.02,262.62,4.89,482.74,196.38,523.4,455.32,3.77,24.03-12.67,46.57-36.72,50.35-2.59,.4-5.17,.58-7.71,.53Z"/></g><g><path class="d" d="M529.93,1079.44C232.23,1073.89-5.45,827.34,.1,529.84,5.65,232.33,252.36-5.2,550.07,.35c297.7,5.55,535.39,252.1,529.84,549.6-5.55,297.5-252.27,535.03-549.97,529.49Zm18.49-991c-249.1-4.64-455.21,194.11-460.18,443.04-5.28,264.33,194.24,455.23,443.33,459.87,249.1,4.64,455.97-194.1,460.18-443.04,4.31-254.74-194.24-455.23-443.33-459.87Z"/><path class="b" d="M529.89,1079.9c-246.73-4.6-446.39-158.01-508.65-390.85-6.28-23.5,7.69-47.65,31.21-53.93,23.52-6.29,47.68,7.68,53.97,31.19,62.99,235.59,268.38,322.59,425.12,325.51,17.92,.33,36.03-.33,53.83-1.97,24.23-2.22,45.71,15.59,47.95,39.82,2.24,24.23-15.6,45.68-39.84,47.92-21.03,1.94-42.42,2.72-63.58,2.33Zm499.15-573.67c-20.99-.39-39.31-15.78-42.67-37.22-34.01-216.6-218.19-376.79-437.95-380.88h-.34c-24.19-.46-44.4-20.33-44.14-44.54C504.21,19.25,523.27-.26,547.62,0c.06,0,1.17,.02,1.23,.02,.06,0,1.17,.02,1.23,.02,262.62,4.89,482.74,196.38,523.4,455.32,3.77,24.03-12.67,46.57-36.72,50.35-2.59,.4-5.17,.58-7.71,.53Z"/></g><path class="c" d="M575.14,496.86h.02c-2.43-15.53-18.45-26.9-34.39-24.41-16.37,2.57-28.2,19.29-25,35.35,3.26,16.33,18.02,25.96,35,22.84,17.2-3.16,27.04-16.8,24.37-33.78Z"/><path class="c" d="M756.22,484.94c-18.88,.8-25.61-129.49-138.37-168.22-67.65-23.24-133.22-18.71-196.41,10.86-4.04,1.9-10.61,5.37-19.06,10.9-13.04,8.51-2.41,28.47,11.94,22.41,40.49-17.06,89.06-30.41,132.37-22.82,68.98,12.08,119.3,126.47,99.35,189.85-7.29,23.14-25.1,39.16-39.26,57.67-19.24,25.18-36.02,51.94-32.75,85.41,3.43,35.14,39.16,50.53,58.59,55.57,28.59,7.41,96.36,9.27,167.42-56.25,22.8-21.02,43.86-43.9,48.83-74.51,1.63-10.04,2.31-19.99,1.19-28.57-4.53-34.73-31.18-84.96-93.84-82.3Zm18.98,121.53c-19.39,3.84-56.51-20.73-59.35-40.65-4.41-30.98,16.82-40.47,44.77-47.04,19.75-2.88,39.63,.51,46.35,27.1,5.43,21.51-13.78,57.04-31.77,60.59Z"/><path class="c" d="M472.67,653.82c-10.96-19.41-21.65-36.69-40.59-55.2-7.71-8.59-16.63-17.71-27-27.39-9.88-9.2-18.16-19.14-25-29.8-10.37-22.96-14.47-50.08-17.59-74.98-2.45-19.59-3.88-39.29-4.39-59.02l-.04-1.16c-.33-12.33-16.69-16.63-22.88-5.96-5.08,8.75-9.92,17.67-14.61,26.71-25.06,48.24-69.26,240.37,6.61,311.08,23.42,21.82,57.01,36.94,88.43,37.1,52.76,.26,85.53-14.57,77.12-67.06-2.69-16.86-8.16-33.26-20.06-54.33Z"/></svg>