<?xml version="1.0" encoding="UTF-8"?><svg id="a" xmlns="http://www.w3.org/2000/svg" viewBox="0 0 1080 1080"><defs><style>.b{fill:#6a45ff;}.c{fill:#9d85ff;}.d{fill:#8775ef;stroke:#8775ef;}.d,.e,.f{stroke-miterlimit:10;}.e{fill:#776ce5;stroke:#776ce5;}.f{fill:none;stroke:#b3b3ff;stroke-width:4.31px;}.g{fill:#4b1fff;opacity:.8;}</style></defs><g><path class="f" d="M863.98,216.03c.45,.05,.93,.13,1.4,.2l-1.6-1.6c.07,.47,.15,.94,.2,1.4ZM216.03,863.98c-.45-.05-.89-.13-1.34-.18l1.52,1.52c-.05-.45-.13-.89-.18-1.34Z"/><path class="e" d="M216.03,863.98c.05,.45,.13,.89,.18,1.34,179.32,178.49,469.35,178.23,648.35-.76,178.98-178.98,179.27-469.01,.82-648.33-.47-.07-.94-.15-1.4-.2,23.05,171.9-31.49,352.2-163.62,484.33-132.11,132.11-312.41,186.66-484.33,163.62Z"/><path class="d" d="M863.98,216.03c-.06-.45-.13-.93-.2-1.4-179.32-178.45-469.37-178.18-648.35,.8-179,179-179.23,469.04-.74,648.37,.45,.05,.89,.13,1.34,.18,171.92,23.03,352.22-31.51,484.33-163.62,132.13-132.13,186.67-312.43,163.62-484.33Z"/></g><path class="g" d="M303.4,564.57c0,121.36,98.73,220.09,220.09,220.09h33.02c121.36,0,220.09-98.73,220.09-220.09v-243.71c0-14.07-11.45-25.51-25.51-25.51h-16.51c-55.41,0-108.17,23.92-144.75,65.63-23.19,26.44-35.95,60.91-35.95,97.07,0,40.94,33.31,74.25,74.25,74.25h29.11c4,0,7.24,3.25,7.24,7.24v12.16c0,4-3.25,7.24-7.24,7.24h-29.02c-40.94,0-74.25,33.31-74.25,74.25v29.11c0,4-3.25,7.24-7.24,7.24h-13.24c-4,0-7.24-3.25-7.24-7.24v-29.02c0-40.99-33.35-74.34-74.34-74.34h-29.11c-3.99,0-7.24-3.25-7.24-7.24v-12.16c0-4,3.25-7.24,7.24-7.24h29.02c40.94,0,74.25-33.31,74.25-74.25v-.21c0-36.14-12.78-70.58-35.99-96.98-36.6-41.64-89.32-65.52-144.62-65.52h-16.51c-14.07,0-25.51,11.45-25.51,25.51v243.71Z"/><g><path class="c" d="M529.93,1079.44C232.23,1073.89-5.45,827.34,.1,529.84,5.65,232.33,252.36-5.2,550.07,.35c297.7,5.55,535.39,252.1,529.84,549.6-5.55,297.5-252.27,535.03-549.97,529.49Zm18.49-991c-249.1-4.64-455.21,194.11-460.18,443.04-5.28,264.33,194.24,455.23,443.33,459.87,249.1,4.64,455.97-194.1,460.18-443.04,4.31-254.74-194.24-455.23-443.33-459.87Z"/><path class="b" d="M529.89,1079.9c-246.73-4.6-446.39-158.01-508.65-390.85-6.28-23.5,7.69-47.65,31.21-53.93,23.52-6.29,47.68,7.68,53.97,31.19,62.99,235.59,268.38,322.59,425.12,325.51,17.92,.33,36.03-.33,53.83-1.97,24.23-2.22,45.71,15.59,47.95,39.82,2.24,24.23-15.6,45.68-39.84,47.92-21.03,1.94-42.42,2.72-63.58,2.33Zm499.15-573.67c-20.99-.39-39.31-15.78-42.67-37.22-34.01-216.6-218.19-376.79-437.95-380.88h-.34c-24.19-.46-44.4-20.33-44.14-44.54C504.21,19.25,523.27-.26,547.62,0c.06,0,1.17,.02,1.23,.02,.06,0,1.17,.02,1.23,.02,262.62,4.89,482.74,196.38,523.4,455.32,3.77,24.03-12.67,46.57-36.72,50.35-2.59,.4-5.17,.58-7.71,.53Z"/></g></svg>