<?xml version="1.0" encoding="UTF-8"?><svg id="a" xmlns="http://www.w3.org/2000/svg" viewBox="0 0 1080 1080"><defs><style>.b{fill:#6a45ff;}.c{fill:#fff;}.d{fill:#9d85ff;}.e{fill:#066;stroke:#066;}.e,.f,.g{stroke-miterlimit:10;}.e,.g{stroke-width:4.31px;}.f{fill:teal;stroke:teal;}.g{fill:none;stroke:#b3b3ff;}</style></defs><g><path class="g" d="M863.98,216.03c.45,.05,.93,.13,1.4,.2l-1.6-1.6c.07,.47,.15,.94,.2,1.4ZM216.03,863.98c-.45-.05-.89-.13-1.34-.18l1.52,1.52c-.05-.45-.13-.89-.18-1.34Z"/><path class="e" d="M216.03,863.98c.05,.45,.13,.89,.18,1.34,179.32,178.49,469.35,178.23,648.35-.76,178.98-178.98,179.27-469.01,.82-648.33-.47-.07-.94-.15-1.4-.2,23.05,171.9-31.49,352.2-163.62,484.33-132.11,132.11-312.41,186.66-484.33,163.62Z"/><path class="f" d="M863.98,216.03c-.06-.45-.13-.93-.2-1.4-179.32-178.45-469.37-178.18-648.35,.8-179,179-179.23,469.04-.74,648.37,.45,.05,.89,.13,1.34,.18,171.92,23.03,352.22-31.51,484.33-163.62,132.13-132.13,186.67-312.43,163.62-484.33Z"/></g><g><path class="d" d="M529.93,1079.44C232.23,1073.89-5.45,827.34,.1,529.84,5.65,232.33,252.36-5.2,550.07,.35c297.7,5.55,535.39,252.1,529.84,549.6-5.55,297.5-252.27,535.03-549.97,529.49Zm18.49-991c-249.1-4.64-455.21,194.11-460.18,443.04-5.28,264.33,194.24,455.23,443.33,459.87,249.1,4.64,455.97-194.1,460.18-443.04,4.31-254.74-194.24-455.23-443.33-459.87Z"/><path class="b" d="M529.89,1079.9c-246.73-4.6-446.39-158.01-508.65-390.85-6.28-23.5,7.69-47.65,31.21-53.93,23.52-6.29,47.68,7.68,53.97,31.19,62.99,235.59,268.38,322.59,425.12,325.51,17.92,.33,36.03-.33,53.83-1.97,24.23-2.22,45.71,15.59,47.95,39.82,2.24,24.23-15.6,45.68-39.84,47.92-21.03,1.94-42.42,2.72-63.58,2.33Zm499.15-573.67c-20.99-.39-39.31-15.78-42.67-37.22-34.01-216.6-218.19-376.79-437.95-380.88h-.34c-24.19-.46-44.4-20.33-44.14-44.54C504.21,19.25,523.27-.26,547.62,0c.06,0,1.17,.02,1.23,.02,.06,0,1.17,.02,1.23,.02,262.62,4.89,482.74,196.38,523.4,455.32,3.77,24.03-12.67,46.57-36.72,50.35-2.59,.4-5.17,.58-7.71,.53Z"/></g><g><path class="c" d="M397.58,393.99c-7.1,0-13.26,1.85-18.19,7.02-7.98,8.35-8.68,19.92-1.74,30,7.21,10.48,14.59,20.85,21.88,31.27,33.59,47.99,67.16,95.99,100.75,143.98,9.14,13.06,18.25,26.13,27.49,39.11,2.06,2.89,2.86,5.84,2.85,9.36-.09,30.62-.04,61.25-.06,91.87,0,8.11,.77,7.56-7.38,7.53-4.66-.02-9.25,.35-13.48,2.44-9.52,4.7-14.47,14.79-12.45,25.16,2.01,10.31,11.07,18.42,21.99,18.56,22.79,.29,45.59,.33,68.38,0,12.84-.19,22.9-10.96,22.83-23.34-.07-12.32-10.43-22.42-23.37-22.79q-10.73-.3-10.73-10.91c0-29.64,.03-59.29-.05-88.93,0-3.24,.85-5.84,2.72-8.51,46.85-66.86,93.63-133.79,140.41-200.7,3.6-5.16,7.34-10.23,10.77-15.49,4.81-7.38,5.43-15.24,1.35-23.09-4.23-8.13-11.2-12.37-20.38-12.44-17.2-.13-34.4-.04-51.6-.04,0,0-210.54,0-262-.07Z"/><path class="c" d="M422.29,360.98c8.25,0,16.5,.03,24.74-.04,1.3-.01,3.06,.72,3.79-.83,.58-1.23-.73-2.29-1.38-3.32-16.95-26.7-41.12-42.78-72.35-47.21-34.41-4.88-64.31,5.56-88.47,30.39-36.6,37.61-38.07,97.29-3.37,136.57,27.08,30.65,61.33,40.8,101.2,32.71,4.65-.94,4.81-1.57,1.97-5.64-12.72-18.22-25.62-36.32-38.13-54.68-18.45-27.06-11.12-61.93,16.51-79.5,9.76-6.2,20.68-8.23,32.01-8.43,7.83-.14,15.66-.03,23.48-.03Z"/></g></svg>