<?xml version="1.0" encoding="UTF-8"?><svg id="a" xmlns="http://www.w3.org/2000/svg" viewBox="0 0 1080 1080"><defs><style>.b{fill:#6a45ff;}.c{fill:#fff;}.d{fill:#9d85ff;}.e{fill:#29ccb4;stroke:#29ccb4;}.e,.f,.g{stroke-miterlimit:10;}.e,.g{stroke-width:4.31px;}.f{fill:#85e1cb;stroke:#85e1cb;}.g{fill:none;stroke:#b3b3ff;}</style></defs><g><path class="g" d="M863.98,216.03c.45,.05,.93,.13,1.4,.2l-1.6-1.6c.07,.47,.15,.94,.2,1.4ZM216.03,863.98c-.45-.05-.89-.13-1.34-.18l1.52,1.52c-.05-.45-.13-.89-.18-1.34Z"/><path class="e" d="M216.03,863.98c.05,.45,.13,.89,.18,1.34,179.32,178.49,469.35,178.23,648.35-.76,178.98-178.98,179.27-469.01,.82-648.33-.47-.07-.94-.15-1.4-.2,23.05,171.9-31.49,352.2-163.62,484.33-132.11,132.11-312.41,186.66-484.33,163.62Z"/><path class="f" d="M863.98,216.03c-.06-.45-.13-.93-.2-1.4-179.32-178.45-469.37-178.18-648.35,.8-179,179-179.23,469.04-.74,648.37,.45,.05,.89,.13,1.34,.18,171.92,23.03,352.22-31.51,484.33-163.62,132.13-132.13,186.67-312.43,163.62-484.33Z"/></g><g><path class="d" d="M529.93,1079.44C232.23,1073.89-5.45,827.34,.1,529.84,5.65,232.33,252.36-5.2,550.07,.35c297.7,5.55,535.39,252.1,529.84,549.6-5.55,297.5-252.27,535.03-549.97,529.49Zm18.49-991c-249.1-4.64-455.21,194.11-460.18,443.04-5.28,264.33,194.24,455.23,443.33,459.87,249.1,4.64,455.97-194.1,460.18-443.04,4.31-254.74-194.24-455.23-443.33-459.87Z"/><path class="b" d="M529.89,1079.9c-246.73-4.6-446.39-158.01-508.65-390.85-6.28-23.5,7.69-47.65,31.21-53.93,23.52-6.29,47.68,7.68,53.97,31.19,62.99,235.59,268.38,322.59,425.12,325.51,17.92,.33,36.03-.33,53.83-1.97,24.23-2.22,45.71,15.59,47.95,39.82,2.24,24.23-15.6,45.68-39.84,47.92-21.03,1.94-42.42,2.72-63.58,2.33Zm499.15-573.67c-20.99-.39-39.31-15.78-42.67-37.22-34.01-216.6-218.19-376.79-437.95-380.88h-.34c-24.19-.46-44.4-20.33-44.14-44.54C504.21,19.25,523.27-.26,547.62,0c.06,0,1.17,.02,1.23,.02,.06,0,1.17,.02,1.23,.02,262.62,4.89,482.74,196.38,523.4,455.32,3.77,24.03-12.67,46.57-36.72,50.35-2.59,.4-5.17,.58-7.71,.53Z"/></g><path class="c" d="M842.43,540.18c-.08,165.96-136.62,302.33-302.63,302.26-165.98-.07-302.35-136.62-302.23-302.61,.12-166,136.61-302.33,302.61-302.25,165.93,.08,302.33,136.63,302.25,302.61Zm-302.45-237.86c-110.03-2.23-208.57,77.07-233.14,187.03-3.3,14.76,5.42,26.81,20.49,27.96,7.89,.6,15.71-.41,23.54-2.02,20.59-4.23,36.75-17.3,54.7-26.76,43.09-22.71,88.78-36.41,137.58-35.42,54.86,1.12,105.46,17.89,151.82,47.42,16.03,10.21,33.35,16.96,52.79,16.94,19.98-.03,28.88-10.86,24.55-30.54-23.03-104.53-120.28-186.99-232.32-184.61Zm40.45,405.52c-.52,9.75,1.11,19.21,2.92,28.59,4.1,21.31,25.7,33.01,45.74,24.68,62.22-25.85,105.92-70.36,132.08-132.21,7.06-16.7-1.22-38-18.63-42.89-40.18-11.28-79.22-8.72-114.1,16.86-35.39,25.96-45.36,63.91-48.01,104.97Zm-204.19-127.61c-9.33-.36-20.07,.76-30.7,3.08-23.78,5.19-35.1,26.05-25.6,48.31,22.93,53.75,60.54,94.04,112.33,121.08,2.94,1.53,6.19,2.43,9.23,3.8,33.52,15.03,52.57,4.94,56.56-32.2,7.93-73.79-34.4-145.42-121.82-144.07Zm211.13-39.7c.2-26.86-20.17-47.67-46.86-47.88-26.91-.21-47.76,20.15-47.93,46.81-.18,26.9,20.16,47.7,46.86,47.92,26.89,.22,47.74-20.16,47.93-46.86Z"/></svg>