<?xml version="1.0" encoding="UTF-8"?><svg id="a" xmlns="http://www.w3.org/2000/svg" viewBox="0 0 1080 1080"><defs><style>.b{fill:#6a45ff;}.c{fill:#9d85ff;}.d{fill:#4b1fff;}.e{fill:#8775ef;stroke:#8775ef;}.e,.f,.g{stroke-miterlimit:10;}.f{fill:#776ce5;stroke:#776ce5;}.g{fill:none;stroke:#b3b3ff;stroke-width:4.31px;}</style></defs><g><path class="g" d="M861.84,216.03c.45,.05,.93,.13,1.4,.2l-1.6-1.6c.07,.47,.15,.94,.2,1.4ZM213.89,863.98c-.45-.05-.89-.13-1.34-.18l1.52,1.52c-.05-.45-.13-.89-.18-1.34Z"/><path class="f" d="M213.89,863.98c.05,.45,.13,.89,.18,1.34,179.32,178.49,469.35,178.23,648.35-.76,178.98-178.98,179.27-469.01,.82-648.33-.47-.07-.94-.15-1.4-.2,23.05,171.9-31.49,352.2-163.62,484.33-132.11,132.11-312.41,186.66-484.33,163.62Z"/><path class="e" d="M861.84,216.03c-.06-.45-.13-.93-.2-1.4-179.32-178.45-469.37-178.18-648.35,.8-179,179-179.23,469.04-.74,648.37,.45,.05,.89,.13,1.34,.18,171.92,23.03,352.22-31.51,484.33-163.62,132.13-132.13,186.67-312.43,163.62-484.33Z"/></g><g><path class="c" d="M527.8,1079.44C230.09,1073.89-7.59,827.34-2.04,529.84,3.51,232.33,250.22-5.2,547.93,.35c297.7,5.55,535.39,252.1,529.84,549.6-5.55,297.5-252.27,535.03-549.97,529.49Zm18.49-991c-249.1-4.64-455.21,194.11-460.18,443.04-5.28,264.33,194.24,455.23,443.33,459.87,249.1,4.64,455.97-194.1,460.18-443.04,4.31-254.74-194.24-455.23-443.33-459.87Z"/><path class="b" d="M527.75,1079.9c-246.73-4.6-446.39-158.01-508.65-390.85-6.28-23.5,7.69-47.65,31.21-53.93,23.52-6.29,47.68,7.68,53.97,31.19,62.99,235.59,268.38,322.59,425.12,325.51,17.92,.33,36.03-.33,53.83-1.97,24.23-2.22,45.71,15.59,47.95,39.82,2.24,24.23-15.6,45.68-39.84,47.92-21.03,1.94-42.42,2.72-63.58,2.33Zm499.15-573.67c-20.99-.39-39.31-15.78-42.67-37.22-34.01-216.6-218.19-376.79-437.95-380.88h-.34c-24.19-.46-44.4-20.33-44.14-44.54C502.07,19.25,521.14-.26,545.48,0c.06,0,1.17,.02,1.23,.02,.06,0,1.17,.02,1.23,.02,262.62,4.89,482.74,196.38,523.4,455.32,3.77,24.03-12.67,46.57-36.72,50.35-2.59,.4-5.17,.58-7.71,.53Z"/></g><g><path class="d" d="M379.82,818.97c34.62,0,70.26-12.66,100.35-35.65l3.61-2.76,3.09,3.33c21.01,22.62,51.48,35.08,85.78,35.08,76.96,0,151.85-63.13,166.94-140.74l70.17-386.14c1.41-7.74-.04-15.08-4.1-20.68-3.66-5.04-9.27-8.31-15.8-9.21-5.64-.78-11.2-1.16-16.99-1.17-38.63,0-78.85,15.48-110.35,42.46l-.27,.23-.3,.19c-.13,.09-13.96,9.05-30.75,27.9-15.45,17.36-36.65,46.92-49.89,89.13-10.67,34.02-14.75,61.05-13.65,90.4v.05h0c.34,9.07,1.13,17.72,1.85,25.01,2.92,15.27,9.34,30.07,19.09,43.99,8.63,12.33,20.16,22.31,34.25,29.65,9.02,4.7,12.95,11.66,12.37,21.9-.5,8.88-.51,17.64,0,26.04,.24,3.96,.1,9.71-3.8,13.85-3.93,4.17-9.77,4.65-13.83,4.65h-.4c-.37,0-.75,0-1.12,0-25.85,0-49.59,8.44-70.56,25.1-9.98,7.92-16.97,16.28-21.36,25.56-5.47,11.54-13.53,17.16-24.65,17.16-1.82,0-3.76-.16-5.76-.46-.63-.1-1.34-.14-2.24-.14-.77,0-1.56,.03-2.41,.07-.9,.04-1.82,.07-2.78,.07h-.46c-12.64,0-19.6,0-24.37-4.24-4.72-4.2-5.49-11.02-6.89-23.41l-.18-1.56c-4.32-38.09-22.72-66.53-54.69-84.52-9.23-5.2-13.09-11.87-12.54-21.64,.51-8.93,.51-18.04,.01-27.08-.33-5.91,.9-10.25,3.76-13.27,3.85-4.07,9.53-4.54,13.48-4.54h.42c.44,0,.87,0,1.31,0,28.2,0,52.86-9.16,73.29-27.24,6.11-5.41,11.38-11.31,15.65-17.54,1.15-3.32,2.11-6.51,2.94-9.72,13.81-53.94-12.68-95.47-21.13-106.91l-.09-.12-.08-.13c-20.13-31.13-56.25-48.99-99.1-48.99-5.54,0-10.68,.5-17.16,1.3-16.05,1.99-30.57,15.63-33.79,31.72l-58.89,294.65c-3.51,19.02-3.16,37.43,1.05,54.74,4.05,16.64,11.46,31.52,22.04,44.24,21.14,25.41,52.72,39.4,88.92,39.4Z"/><path class="d" d="M511.06,523.93c-13.14,52.25-44.36,82.77-95.8,96.19,51.76,13.32,82.71,44.53,96.02,96.27,13.24-51.92,44.17-82.81,96.26-96.35-52.49-13.16-83.04-44.68-96.48-96.11Z"/></g></svg>