<?xml version="1.0" encoding="UTF-8"?><svg id="a" xmlns="http://www.w3.org/2000/svg" viewBox="0 0 1080 1080"><defs><style>.b{fill:#6a45ff;}.c{fill:#fff;}.d{fill:#9d85ff;}.e{fill:#ff553e;stroke:#ff553e;}.e,.f,.g{stroke-miterlimit:10;}.e,.g{stroke-width:4.31px;}.f{fill:coral;stroke:coral;}.g{fill:none;stroke:#b3b3ff;}</style></defs><g><g><path class="g" d="M863.98,216.03c.45,.05,.93,.13,1.4,.2l-1.6-1.6c.07,.47,.15,.94,.2,1.4ZM216.03,863.98c-.45-.05-.89-.13-1.34-.18l1.52,1.52c-.05-.45-.13-.89-.18-1.34Z"/><path class="e" d="M216.03,863.98c.05,.45,.13,.89,.18,1.34,179.32,178.49,469.35,178.23,648.35-.76,178.98-178.98,179.27-469.01,.82-648.33-.47-.07-.94-.15-1.4-.2,23.05,171.9-31.49,352.2-163.62,484.33-132.11,132.11-312.41,186.66-484.33,163.62Z"/><path class="f" d="M863.98,216.03c-.06-.45-.13-.93-.2-1.4-179.32-178.45-469.37-178.18-648.35,.8-179,179-179.23,469.04-.74,648.37,.45,.05,.89,.13,1.34,.18,171.92,23.03,352.22-31.51,484.33-163.62,132.13-132.13,186.67-312.43,163.62-484.33Z"/></g><g><path class="c" d="M268.32,745.92c0,8.88,3.61,17.54,9.85,23.82,6.28,6.28,14.98,9.89,23.86,9.89h475.97c8.84,0,17.54-3.61,23.82-9.89,6.25-6.28,9.85-14.95,9.85-23.82V479.94c0-7.02-5.69-12.72-12.72-12.72H281.04c-7.02,0-12.72,5.69-12.72,12.72v265.98Zm446.67-256.1h52.35c7.02,0,12.72,5.69,12.72,12.72v43.77c0,7.02-5.69,12.72-12.72,12.72h-52.35c-7.02,0-12.72-5.69-12.72-12.72v-43.77c0-7.02,5.69-12.72,12.72-12.72Zm0,88.33h52.35c7.02,0,12.72,5.69,12.72,12.72v43.77c0,7.02-5.69,12.72-12.72,12.72h-52.35c-7.02,0-12.72-5.69-12.72-12.72v-43.77c0-7.02,5.69-12.72,12.72-12.72Zm-100.6-88.33h52.39c7.02,0,12.72,5.69,12.72,12.72v43.77c0,7.02-5.69,12.72-12.72,12.72h-52.39c-7.02,0-12.72-5.69-12.72-12.72v-43.77c0-7.02,5.69-12.72,12.72-12.72Zm0,88.33h52.39c7.02,0,12.72,5.69,12.72,12.72v43.77c0,7.02-5.69,12.72-12.72,12.72h-52.39c-7.02,0-12.72-5.69-12.72-12.72v-43.77c0-7.02,5.69-12.72,12.72-12.72Zm0,88.33h52.39c7.02,0,12.72,5.69,12.72,12.72v43.77c0,7.02-5.69,12.72-12.72,12.72h-52.39c-7.02,0-12.72-5.69-12.72-12.72v-43.77c0-7.02,5.69-12.72,12.72-12.72Zm-100.57-176.66h52.36c7.02,0,12.72,5.69,12.72,12.72v43.77c0,7.02-5.69,12.72-12.72,12.72h-52.36c-7.02,0-12.72-5.69-12.72-12.72v-43.77c0-7.02,5.69-12.72,12.72-12.72Zm0,88.33h52.36c7.02,0,12.72,5.69,12.72,12.72v43.77c0,7.02-5.69,12.72-12.72,12.72h-52.36c-7.02,0-12.72-5.69-12.72-12.72v-43.77c0-7.02,5.69-12.72,12.72-12.72Zm0,88.33h52.36c7.02,0,12.72,5.69,12.72,12.72v43.77c0,7.02-5.69,12.72-12.72,12.72h-52.36c-7.02,0-12.72-5.69-12.72-12.72v-43.77c0-7.02,5.69-12.72,12.72-12.72Zm-100.6-176.66h52.39c7.02,0,12.72,5.69,12.72,12.72v43.77c0,7.02-5.69,12.72-12.72,12.72h-52.39c-7.02,0-12.72-5.69-12.72-12.72v-43.77c0-7.02,5.69-12.72,12.72-12.72Zm0,88.33h52.39c7.02,0,12.72,5.69,12.72,12.72v43.77c0,7.02-5.69,12.72-12.72,12.72h-52.39c-7.02,0-12.72-5.69-12.72-12.72v-43.77c0-7.02,5.69-12.72,12.72-12.72Zm0,88.33h52.39c7.02,0,12.72,5.69,12.72,12.72v43.77c0,7.02-5.69,12.72-12.72,12.72h-52.39c-7.02,0-12.72-5.69-12.72-12.72v-43.77c0-7.02,5.69-12.72,12.72-12.72Zm-100.57-88.33h52.35c7.02,0,12.72,5.69,12.72,12.72v43.77c0,7.02-5.69,12.72-12.72,12.72h-52.35c-7.02,0-12.72-5.69-12.72-12.72v-43.77c0-7.02,5.69-12.72,12.72-12.72Zm0,88.33h52.35c7.02,0,12.72,5.69,12.72,12.72v43.77c0,7.02-5.69,12.72-12.72,12.72h-52.35c-7.02,0-12.72-5.69-12.72-12.72v-43.77c0-7.02,5.69-12.72,12.72-12.72Z"/><path class="c" d="M801.81,349.04c-6.27-6.28-14.96-9.87-23.82-9.87h-44.45c-7.02,0-12.72,5.69-12.72,12.72v18.68c0,15.26-12.37,27.62-27.62,27.62h-5.99c-15.25,0-27.61-12.36-27.61-27.61v-18.69c0-7.02-5.69-12.72-12.72-12.72h-213.72c-7.02,0-12.72,5.69-12.72,12.72v18.68c0,15.26-12.37,27.62-27.62,27.62h-5.99c-15.25,0-27.61-12.36-27.61-27.61v-18.69c0-7.02-5.69-12.72-12.72-12.72h-44.46c-8.87,0-17.56,3.59-23.84,9.87-6.26,6.28-9.87,14.95-9.87,23.82v69.46c0,7.02,5.69,12.72,12.72,12.72H798.97c7.02,0,12.72-5.69,12.72-12.72v-69.46c0-8.87-3.6-17.55-9.88-23.82Z"/><path class="c" d="M405.53,339.17v-26.09c0-7.02-5.69-12.72-12.72-12.72h-6c-7.02,0-12.72,5.69-12.72,12.72v57.49c0,7.02,5.69,12.72,12.72,12.72h6c7.02,0,12.72-5.69,12.72-12.72v-31.4Z"/><path class="c" d="M705.91,339.17v-26.09c0-7.02-5.69-12.72-12.72-12.72h-5.99c-7.02,0-12.72,5.69-12.72,12.72v57.49c0,7.02,5.69,12.72,12.72,12.72h5.99c7.02,0,12.72-5.69,12.72-12.72v-31.4Z"/></g></g><g><path class="d" d="M529.93,1079.44C232.23,1073.89-5.45,827.34,.1,529.84,5.65,232.33,252.36-5.2,550.07,.35c297.7,5.55,535.39,252.1,529.84,549.6-5.55,297.5-252.27,535.03-549.97,529.49Zm18.49-991c-249.1-4.64-455.21,194.11-460.18,443.04-5.28,264.33,194.24,455.23,443.33,459.87,249.1,4.64,455.97-194.1,460.18-443.04,4.31-254.74-194.24-455.23-443.33-459.87Z"/><path class="b" d="M529.89,1079.9c-246.73-4.6-446.39-158.01-508.65-390.85-6.28-23.5,7.69-47.65,31.21-53.93,23.52-6.29,47.68,7.68,53.97,31.19,62.99,235.59,268.38,322.59,425.12,325.51,17.92,.33,36.03-.33,53.83-1.97,24.23-2.22,45.71,15.59,47.95,39.82,2.24,24.23-15.6,45.68-39.84,47.92-21.03,1.94-42.42,2.72-63.58,2.33Zm499.15-573.67c-20.99-.39-39.31-15.78-42.67-37.22-34.01-216.6-218.19-376.79-437.95-380.88h-.34c-24.19-.46-44.4-20.33-44.14-44.54C504.21,19.25,523.27-.26,547.62,0c.06,0,1.17,.02,1.23,.02,.06,0,1.17,.02,1.23,.02,262.62,4.89,482.74,196.38,523.4,455.32,3.77,24.03-12.67,46.57-36.72,50.35-2.59,.4-5.17,.58-7.71,.53Z"/></g></svg>