<?xml version="1.0" encoding="UTF-8"?><svg id="a" xmlns="http://www.w3.org/2000/svg" viewBox="0 0 1080 1080"><defs><style>.b{fill:#6a45ff;}.c{fill:#fff;}.d{fill:#9d85ff;}.e{fill:#066;stroke:#066;}.e,.f,.g{stroke-miterlimit:10;}.e,.g{stroke-width:4.31px;}.f{fill:teal;stroke:teal;}.g{fill:none;stroke:#b3b3ff;}</style></defs><g><g><path class="g" d="M863.98,216.03c.45,.05,.93,.13,1.4,.2l-1.6-1.6c.07,.47,.15,.94,.2,1.4ZM216.03,863.98c-.45-.05-.89-.13-1.34-.18l1.52,1.52c-.05-.45-.13-.89-.18-1.34Z"/><path class="e" d="M216.03,863.98c.05,.45,.13,.89,.18,1.34,179.32,178.49,469.35,178.23,648.35-.76,178.98-178.98,179.27-469.01,.82-648.33-.47-.07-.94-.15-1.4-.2,23.05,171.9-31.49,352.2-163.62,484.33-132.11,132.11-312.41,186.66-484.33,163.62Z"/><path class="f" d="M863.98,216.03c-.06-.45-.13-.93-.2-1.4-179.32-178.45-469.37-178.18-648.35,.8-179,179-179.23,469.04-.74,648.37,.45,.05,.89,.13,1.34,.18,171.92,23.03,352.22-31.51,484.33-163.62,132.13-132.13,186.67-312.43,163.62-484.33Z"/></g><g><path class="c" d="M654.89,513.07h-218.61c-7.03,0-10.7,8.36-5.94,13.53l109.3,118.83c3.2,3.48,8.68,3.48,11.88,0l109.3-118.83c4.76-5.17,1.09-13.53-5.94-13.53Z"/><path class="c" d="M682.6,780.15v-234.98c0-7.35-9.03-10.87-14.01-5.46l-108.07,117.49c-2.84,3.09-2.84,7.84,0,10.93l108.07,117.48c4.98,5.41,14.01,1.89,14.01-5.46Z"/><path class="c" d="M422.57,785.62l108.07-117.48c2.84-3.09,2.84-7.84,0-10.93l-108.07-117.49c-4.98-5.41-14.01-1.89-14.01,5.46v234.98c0,7.35,9.03,10.87,14.01,5.46Z"/><path class="c" d="M436.28,812.26h218.61c7.03,0,10.7-8.36,5.94-13.53l-109.3-118.82c-3.2-3.48-8.68-3.48-11.88,0l-109.3,118.82c-4.76,5.17-1.09,13.53,5.94,13.53Z"/><path class="c" d="M745.38,318.99l-163.1-48.07c-23.95-7.06-49.44-7.05-73.38,.04l-162.27,48.03c-2.37,.7-4.29,2.45-5.2,4.74l-65.47,163.68c-2.12,5.3,1.78,11.07,7.49,11.07h10.82c4.46,0,8.07,3.61,8.07,8.07v304.94c0,4.46,3.61,8.07,8.07,8.07h75.49c4.46,0,8.07-3.61,8.07-8.07V506.55c0-4.46,3.61-8.07,8.07-8.07h287.09c4.46,0,8.07,3.61,8.07,8.07v304.94c0,4.46,3.61,8.07,8.07,8.07h76.34c4.46,0,8.07-3.61,8.07-8.07V506.55c0-4.46,3.61-8.07,8.07-8.07h10.82c5.71,0,9.61-5.77,7.49-11.07l-65.47-163.68c-.92-2.3-2.84-4.04-5.21-4.74Zm-152.74,98.4h-97.38c-4.46,0-8.07-3.61-8.07-8.07v-29.27c0-4.46,3.61-8.07,8.07-8.07h97.38c4.46,0,8.07,3.61,8.07,8.07v29.27c0,4.46-3.61,8.07-8.07,8.07Z"/></g></g><g><path class="d" d="M529.93,1079.44C232.23,1073.89-5.45,827.34,.1,529.84,5.65,232.33,252.36-5.2,550.07,.35c297.7,5.55,535.39,252.1,529.84,549.6-5.55,297.5-252.27,535.03-549.97,529.49Zm18.49-991c-249.1-4.64-455.21,194.11-460.18,443.04-5.28,264.33,194.24,455.23,443.33,459.87,249.1,4.64,455.97-194.1,460.18-443.04,4.31-254.74-194.24-455.23-443.33-459.87Z"/><path class="b" d="M529.89,1079.9c-246.73-4.6-446.39-158.01-508.65-390.85-6.28-23.5,7.69-47.65,31.21-53.93,23.52-6.29,47.68,7.68,53.97,31.19,62.99,235.59,268.38,322.59,425.12,325.51,17.92,.33,36.03-.33,53.83-1.97,24.23-2.22,45.71,15.59,47.95,39.82,2.24,24.23-15.6,45.68-39.84,47.92-21.03,1.94-42.42,2.72-63.58,2.33Zm499.15-573.67c-20.99-.39-39.31-15.78-42.67-37.22-34.01-216.6-218.19-376.79-437.95-380.88h-.34c-24.19-.46-44.4-20.33-44.14-44.54C504.21,19.25,523.27-.26,547.62,0c.06,0,1.17,.02,1.23,.02,.06,0,1.17,.02,1.23,.02,262.62,4.89,482.74,196.38,523.4,455.32,3.77,24.03-12.67,46.57-36.72,50.35-2.59,.4-5.17,.58-7.71,.53Z"/></g></svg>