<?xml version="1.0" encoding="UTF-8"?><svg id="a" xmlns="http://www.w3.org/2000/svg" viewBox="0 0 1080 1080"><defs><style>.b{fill:#6a45ff;}.c{fill:#9d85ff;}.d{fill:#9144e2;}.e{fill:#a973ef;stroke:#a973ef;}.e,.f,.g{stroke-miterlimit:10;}.e,.g{stroke-width:4.31px;}.f{fill:#cfabef;stroke:#cfabef;}.g{fill:none;stroke:#b3b3ff;}</style></defs><g><path class="g" d="M858.56,216.03c.45,.05,.93,.13,1.4,.2l-1.6-1.6c.07,.47,.15,.94,.2,1.4ZM210.61,863.98c-.45-.05-.89-.13-1.34-.18l1.52,1.52c-.05-.45-.13-.89-.18-1.34Z"/><path class="e" d="M210.61,863.98c.05,.45,.13,.89,.18,1.34,179.32,178.49,469.35,178.23,648.35-.76,178.98-178.98,179.27-469.01,.82-648.33-.47-.07-.94-.15-1.4-.2,23.05,171.9-31.49,352.2-163.62,484.33-132.11,132.11-312.41,186.66-484.33,163.62Z"/><path class="f" d="M858.56,216.03c-.06-.45-.13-.93-.2-1.4-179.32-178.45-469.37-178.18-648.35,.8-179,179-179.23,469.04-.74,648.37,.45,.05,.89,.13,1.34,.18,171.92,23.03,352.22-31.51,484.33-163.62,132.13-132.13,186.67-312.43,163.62-484.33Z"/></g><g><path class="c" d="M526.52,1079.44C228.81,1073.89-8.87,827.34-3.32,529.84,2.23,232.33,248.95-5.2,546.65,.35c297.7,5.55,535.39,252.1,529.84,549.6-5.55,297.5-252.27,535.03-549.97,529.49Zm18.49-991c-249.1-4.64-455.21,194.11-460.18,443.04-5.28,264.33,194.24,455.23,443.33,459.87,249.1,4.64,455.97-194.1,460.18-443.04,4.31-254.74-194.24-455.23-443.33-459.87Z"/><path class="b" d="M526.48,1079.9c-246.73-4.6-446.39-158.01-508.65-390.85-6.28-23.5,7.69-47.65,31.21-53.93,23.52-6.29,47.68,7.68,53.97,31.19,62.99,235.59,268.38,322.59,425.12,325.51,17.92,.33,36.03-.33,53.83-1.97,24.23-2.22,45.71,15.59,47.95,39.82,2.24,24.23-15.6,45.68-39.84,47.92-21.03,1.94-42.42,2.72-63.58,2.33Zm499.15-573.67c-20.99-.39-39.31-15.78-42.67-37.22-34.01-216.6-218.19-376.79-437.95-380.88h-.34c-24.19-.46-44.4-20.33-44.14-44.54C500.8,19.25,519.86-.26,544.2,0c.06,0,1.17,.02,1.23,.02,.06,0,1.17,.02,1.23,.02,262.62,4.89,482.74,196.38,523.4,455.32,3.77,24.03-12.67,46.57-36.72,50.35-2.59,.4-5.17,.58-7.71,.53Z"/></g><path class="d" d="M535.21,741.85c-45.96,0-91.92,.23-137.87-.07-30.03-.19-38.25-8.82-37.43-39,.92-33.49,16.05-61.2,36.69-86.38,50.81-61.98,52.11-71.19,13.49-142.43-10.23-18.87-23.53-36.08-35.48-54-28.35-42.52-20.16-70.66,26.01-88.72,14.84-5.81,29.67-11.72,44.77-16.79,22.02-7.39,38.35-20.03,42.07-44.25,2.34-15.22,11.57-20.21,25.49-20.11,15,.11,30.02,.49,45.01-.02,16.64-.56,26.69,5.54,28.6,23.26,2.18,20.2,15.81,31.03,33.49,37.84,23.62,9.1,47.12,18.55,70.98,26.98,20.68,7.3,26.67,21.45,22.88,41.88-3.33,17.91-10.89,33.71-21.21,48.56-10.7,15.39-21.46,30.82-30.93,46.97-34.22,58.36-33.1,81.94,9.23,133.77,21.93,26.85,38.67,55.14,41.77,90.3,2.71,30.74-6.53,41.86-36.87,42.1-46.89,.38-93.79,.1-140.68,.11Z"/><rect class="d" x="504.2" y="779.7" width="64.77" height="92.39" rx="14.42" ry="14.42"/></svg>