<?xml version="1.0" encoding="UTF-8"?><svg id="a" xmlns="http://www.w3.org/2000/svg" viewBox="0 0 1080 1080"><defs><style>.b{fill:#6a45ff;}.c{fill:#fff;}.d{fill:#9d85ff;}.e{fill:#066;stroke:#066;}.e,.f,.g{stroke-miterlimit:10;}.e,.g{stroke-width:4.31px;}.f{fill:teal;stroke:teal;}.g{fill:none;stroke:#b3b3ff;}</style></defs><g><g><path class="g" d="M863.98,216.03c.45,.05,.93,.13,1.4,.2l-1.6-1.6c.07,.47,.15,.94,.2,1.4ZM216.03,863.98c-.45-.05-.89-.13-1.34-.18l1.52,1.52c-.05-.45-.13-.89-.18-1.34Z"/><path class="e" d="M216.03,863.98c.05,.45,.13,.89,.18,1.34,179.32,178.49,469.35,178.23,648.35-.76,178.98-178.98,179.27-469.01,.82-648.33-.47-.07-.94-.15-1.4-.2,23.05,171.9-31.49,352.2-163.62,484.33-132.11,132.11-312.41,186.66-484.33,163.62Z"/><path class="f" d="M863.98,216.03c-.06-.45-.13-.93-.2-1.4-179.32-178.45-469.37-178.18-648.35,.8-179,179-179.23,469.04-.74,648.37,.45,.05,.89,.13,1.34,.18,171.92,23.03,352.22-31.51,484.33-163.62,132.13-132.13,186.67-312.43,163.62-484.33Z"/></g><path class="c" d="M723.53,718.64l-119.26-119.19-19.87-19.87c-1.29-1.29-3.38-1.29-4.67,0l-35.38,35.38c-1.89,1.89-.85,5.11,1.77,5.61,3.59,.69,7.03,1.07,10.31,1.19,.87,.03,1.68,.4,2.27,1.04l124.23,136.43c12.14,12.22,31.21,13.04,42.39,1.86,11.17-11.17,10.35-30.24-1.79-42.46ZM459.3,454.49c-45.22-45.22-90.29-90.36-117.55-117.55-3.8-3.8-8.64-5.59-13.93-4.92-3.8,.45-9.39,4.1-10.35,13.41-3.95,38.22,24.06,104.59,123.66,204.19,2.12,2.12,4.21,4.18,6.27,6.19,2.22,2.16,5.77,2.11,7.96-.09l48.57-48.57c2.22-2.22,2.22-5.82,0-8.04l-44.62-44.63Zm112.56-50.8c-.89,.89-1.79,1.86-2.68,2.76l2.83-2.83-.15,.08Zm203.37-5.44c-6.33-6.33-15.12-7.9-19.59-3.43l-89.17,89.17c-4.47,4.47-12.74,3.43-18.47-2.31-5.66-5.74-6.7-14-2.24-18.4l89.17-89.24c4.47-4.4,2.91-13.19-3.43-19.52-6.33-6.33-15.12-7.9-19.59-3.43l-89.24,89.09c-4.4,4.47-12.66,3.43-18.4-2.31-5.74-5.66-6.78-13.93-2.31-18.4l89.24-89.09c4.47-4.47,2.9-13.26-3.43-19.59-6.33-6.33-15.12-7.82-19.52-3.43l-96.24,96.24-.15,.08c-.89,.89-1.79,1.86-2.68,2.76-26.96,28.82-18.84,49.54-2.78,68.23,1.13,1.31,1.09,3.27-.14,4.49l-245.66,245.66c-12.22,12.22-13.04,31.29-1.86,42.46,11.17,11.17,30.24,10.35,42.39-1.86l245.74-245.74c1.23-1.23,3.18-1.26,4.49-.13,19.29,16.63,40.77,24.75,71.06-5.54l96.25-96.25c4.39-4.39,2.83-13.18-3.43-19.51Z"/></g><g><path class="d" d="M529.93,1079.44C232.23,1073.89-5.45,827.34,.1,529.84,5.65,232.33,252.36-5.2,550.07,.35c297.7,5.55,535.39,252.1,529.84,549.6-5.55,297.5-252.27,535.03-549.97,529.49Zm18.49-991c-249.1-4.64-455.21,194.11-460.18,443.04-5.28,264.33,194.24,455.23,443.33,459.87,249.1,4.64,455.97-194.1,460.18-443.04,4.31-254.74-194.24-455.23-443.33-459.87Z"/><path class="b" d="M529.89,1079.9c-246.73-4.6-446.39-158.01-508.65-390.85-6.28-23.5,7.69-47.65,31.21-53.93,23.52-6.29,47.68,7.68,53.97,31.19,62.99,235.59,268.38,322.59,425.12,325.51,17.92,.33,36.03-.33,53.83-1.97,24.23-2.22,45.71,15.59,47.95,39.82,2.24,24.23-15.6,45.68-39.84,47.92-21.03,1.94-42.42,2.72-63.58,2.33Zm499.15-573.67c-20.99-.39-39.31-15.78-42.67-37.22-34.01-216.6-218.19-376.79-437.95-380.88h-.34c-24.19-.46-44.4-20.33-44.14-44.54C504.21,19.25,523.27-.26,547.62,0c.06,0,1.17,.02,1.23,.02,.06,0,1.17,.02,1.23,.02,262.62,4.89,482.74,196.38,523.4,455.32,3.77,24.03-12.67,46.57-36.72,50.35-2.59,.4-5.17,.58-7.71,.53Z"/></g></svg>