<?xml version="1.0" encoding="UTF-8"?><svg id="a" xmlns="http://www.w3.org/2000/svg" viewBox="0 0 1080 1080"><defs><style>.b{fill:#6a45ff;}.c{fill:#9d85ff;}.d{fill:#2fadeb;}.e{fill:#8dccf7;stroke:#8dccf7;}.e,.f,.g{stroke-miterlimit:10;}.f{fill:#6ebded;stroke:#6ebded;}.g{fill:none;stroke:#b3b3ff;stroke-width:4.31px;}</style></defs><g><path class="g" d="M863.98,216.03c.45,.05,.93,.13,1.4,.2l-1.6-1.6c.07,.47,.15,.94,.2,1.4ZM216.03,863.98c-.45-.05-.89-.13-1.34-.18l1.52,1.52c-.05-.45-.13-.89-.18-1.34Z"/><path class="f" d="M216.03,863.98c.05,.45,.13,.89,.18,1.34,179.32,178.49,469.35,178.23,648.35-.76,178.98-178.98,179.27-469.01,.82-648.33-.47-.07-.94-.15-1.4-.2,23.05,171.9-31.49,352.2-163.62,484.33-132.11,132.11-312.41,186.66-484.33,163.62Z"/><path class="e" d="M863.98,216.03c-.06-.45-.13-.93-.2-1.4-179.32-178.45-469.37-178.18-648.35,.8-179,179-179.23,469.04-.74,648.37,.45,.05,.89,.13,1.34,.18,171.92,23.03,352.22-31.51,484.33-163.62,132.13-132.13,186.67-312.43,163.62-484.33Z"/></g><g><path class="c" d="M529.93,1079.44C232.23,1073.89-5.45,827.34,.1,529.84,5.65,232.33,252.36-5.2,550.07,.35c297.7,5.55,535.39,252.1,529.84,549.6-5.55,297.5-252.27,535.03-549.97,529.49Zm18.49-991c-249.1-4.64-455.21,194.11-460.18,443.04-5.28,264.33,194.24,455.23,443.33,459.87,249.1,4.64,455.97-194.1,460.18-443.04,4.31-254.74-194.24-455.23-443.33-459.87Z"/><path class="b" d="M529.89,1079.9c-246.73-4.6-446.39-158.01-508.65-390.85-6.28-23.5,7.69-47.65,31.21-53.93,23.52-6.29,47.68,7.68,53.97,31.19,62.99,235.59,268.38,322.59,425.12,325.51,17.92,.33,36.03-.33,53.83-1.97,24.23-2.22,45.71,15.59,47.95,39.82,2.24,24.23-15.6,45.68-39.84,47.92-21.03,1.94-42.42,2.72-63.58,2.33Zm499.15-573.67c-20.99-.39-39.31-15.78-42.67-37.22-34.01-216.6-218.19-376.79-437.95-380.88h-.34c-24.19-.46-44.4-20.33-44.14-44.54C504.21,19.25,523.27-.26,547.62,0c.06,0,1.17,.02,1.23,.02,.06,0,1.17,.02,1.23,.02,262.62,4.89,482.74,196.38,523.4,455.32,3.77,24.03-12.67,46.57-36.72,50.35-2.59,.4-5.17,.58-7.71,.53Z"/></g><path class="d" d="M514.94,234.53c16.71,0,33.41,0,50.12,0,1.16,.24,2.32,.59,3.49,.69,19.86,1.7,39.46,5.12,58.41,11.2,103.05,33.04,171.79,100.92,205.74,203.77,6.94,21.03,10.27,42.82,12.77,64.75v50.12c-.8,6.49-1.41,13.02-2.43,19.48-11.88,75.19-46.27,138.02-103.83,187.94-34.8,30.19-74.71,50.88-119.14,63.02-18.07,4.94-36.49,7.67-55.02,9.97h-50.12c-4.51-.62-9.02-1.3-13.54-1.85-52.21-6.43-99.72-25.17-141.96-56.26-54.32-39.99-91.76-92.43-112.02-156.96-6.69-21.31-10.38-43.2-12.89-65.34v-50.12c.77-6.3,1.36-12.62,2.33-18.89,8.49-54.99,29.45-104.61,64.54-147.94,41.7-51.49,94.6-85.98,158.52-103.63,18.06-4.99,36.51-7.6,55.02-9.95Zm66.79,490.04c32.86-1.11,63.83-4.26,94.59-9.65,3.13-.55,4.82-2.42,6.19-4.99,5.24-9.81,10.53-19.6,15.8-29.4,14.95-27.83,29.9-55.66,44.86-83.49,1.54-2.86,2.69-5.5,.98-8.93-14.28-28.71-31.43-55.7-49.11-82.38-1.72-2.59-3.9-3.76-7.03-3.39-4.33,.52-8.69,.88-13.03,1.33-36.91,3.86-73.81,7.84-110.75,11.45-4.97,.49-7.86,2.17-10.15,6.58-14.56,28.04-29.26,56-44.14,83.87-2.21,4.13-2.4,7.29,.05,11.48,19.06,32.59,38.06,65.22,56.58,98.11,4.02,7.15,8.3,11.43,15.15,9.41Zm36.88-425.64c-9.34-1.14-17.27,.12-25.18,.52-20.82,1.04-41.58,3.03-62.27,5.63-4.1,.51-6.31,2.38-7.6,6.28-11.02,33.4-22.13,66.78-33.33,100.12-1.24,3.7-.58,6.3,2.17,9.05,21.51,21.52,40.85,45,60.97,67.77,4.65,5.26,9.19,6.36,15.57,5.63,21.9-2.49,43.84-4.63,65.76-6.88,16.39-1.68,32.79-3.32,49.18-4.99,4.41-.45,7.65-2.02,9.44-6.74,8.58-22.67,18.26-44.92,25.54-68.09,1.19-3.79,1.2-6.61-1.61-9.76-26.23-29.34-52.5-58.65-78.35-88.32-6.01-6.89-11.89-12.2-20.28-10.23Zm-107.32,488.98c3.8,.56,5.93-1.78,7.88-4.43,10.8-14.74,21.55-29.53,32.45-44.2,2.32-3.12,1.69-5.68-.07-8.71-19.53-33.69-39-67.42-58.42-101.17-1.51-2.63-3.39-3.99-6.49-4.45-33.79-5.09-67.38-11.2-100.43-19.98-3.79-1.01-6.2-.21-8.4,3.28-15.55,24.72-31.23,49.37-47.03,73.93-2.12,3.3-2.17,6-.32,9.32,13.58,24.34,28.6,47.71,46.17,69.39,2.12,2.62,4.63,3.9,8.01,4.49,28.75,5.01,57.46,10.22,86.19,15.35,13.48,2.41,26.97,4.79,40.45,7.19Zm-64.51-517.28c-2.38,.79-4.67,1.46-6.89,2.29-35.46,13.24-67,32.85-94.63,58.68-6.51,6.08-13.75,11.73-18.21,19.56-10.67,18.7-18.39,38.75-25.74,58.93-1.75,4.8-.99,7.9,3.88,10.67,18.81,10.73,37.46,21.76,55.98,33.01,4.17,2.53,7.17,2.53,11.28-.09,29.42-18.7,60.4-34.45,92.71-47.53,4.29-1.74,6.58-4.45,8-8.77,9.96-30.4,20.05-60.76,30.26-91.07,1.35-4.02,.79-6.42-2.94-8.89-15.31-10.13-31.32-18.84-48.58-25.16-1.66-.61-3.37-1.08-5.09-1.63Zm-80.26,313.75c-.14-.98-.23-1.97-.42-2.94-6.65-33.39-10-67.13-10.21-101.16-.03-4.13-1.71-6.54-5.14-8.55-18-10.54-35.92-21.23-53.86-31.87q-9.02-5.35-15.08,3.53c-1.9,2.79-3.83,5.57-5.63,8.43-5.39,8.57-11.76,16.83-14.46,26.62-3.79,13.78-5.54,28.08-6.3,42.34-1.71,31.93,1.36,63.41,9.28,94.49,3.56,13.99,9.35,25.73,21.38,34.43,7.87,5.7,15.49,11.76,23.54,17.25,3.2,2.18,5.07,1.79,7.17-1.53,15.81-25.03,31.76-49.97,47.67-74.94,1.18-1.86,2.29-3.75,2.07-6.1Zm456.97-19.33c-17.46,12.62-34.87,22.54-53.15,30.93-2.67,1.23-4.55,2.95-5.94,5.53-21.18,39.61-42.41,79.2-63.66,118.78-1.49,2.77-2.15,5.56-1.29,8.59,3.36,11.86,6.25,23.82,8.02,36.03,.61,4.22,2.33,4.38,5.49,1.91,55.06-42.98,90.51-98.38,105.63-166.66,2.48-11.19,4.58-22.46,4.91-35.12Zm-27.44-147.9c.14-.46,.42-.88,.33-1.18-.37-1.12-.79-2.25-1.32-3.3-30.46-60.44-76.58-104.63-138.11-132.75-2.27-1.04-5.5-4.22-7.33-1.21-1.91,3.13-2.9,7.51-.1,11.26,.71,.95,1.55,1.81,2.34,2.7,27.15,30.6,54.31,61.19,81.42,91.82,2.55,2.89,5.36,5.11,9.04,6.51,16.77,6.34,32.7,14.4,47.98,23.78,1.75,1.07,3.28,2.96,5.75,2.38Zm-391.61,372.97c43.84,24.24,90.73,35.77,140.83,34.18-8.24-3.43-16.35-7.01-24.37-10.8-3.4-1.61-6.77-3.74-10.38-4.4-35.33-6.47-70.71-12.69-106.08-18.97Z"/></svg>