<?xml version="1.0" encoding="UTF-8"?><svg id="a" xmlns="http://www.w3.org/2000/svg" viewBox="0 0 1080 1080"><defs><style>.b{fill:#6a45ff;}.c{fill:#fff;}.d{fill:#efbe45;}.e{fill:#9d85ff;}.f{fill:#f4d956;stroke:#f4d956;}.f,.g{stroke-miterlimit:10;}.g{fill:none;stroke:#b3b3ff;stroke-width:4.31px;}</style></defs><g><g><path class="g" d="M863.98,216.03c.45,.05,.93,.13,1.4,.2l-1.6-1.6c.07,.47,.15,.94,.2,1.4ZM216.03,863.98c-.45-.05-.89-.13-1.34-.18l1.52,1.52c-.05-.45-.13-.89-.18-1.34Z"/><path class="d" d="M216.03,863.98c.05,.45,.13,.89,.18,1.34,179.32,178.49,469.35,178.23,648.35-.76,178.98-178.98,179.27-469.01,.82-648.33-.47-.07-.94-.15-1.4-.2,23.05,171.9-31.49,352.2-163.62,484.33-132.11,132.11-312.41,186.66-484.33,163.62Z"/><path class="f" d="M863.98,216.03c-.06-.45-.13-.93-.2-1.4-179.32-178.45-469.37-178.18-648.35,.8-179,179-179.23,469.04-.74,648.37,.45,.05,.89,.13,1.34,.18,171.92,23.03,352.22-31.51,484.33-163.62,132.13-132.13,186.67-312.43,163.62-484.33Z"/></g><g><path class="c" d="M453.64,752.7l32.57-114.36c.19-.67,.41-1.33,.66-1.97,1.23-3.12,1.07-6.56-.72-9.4-.17-.27-.34-.56-.5-.84l-9-15.98c-2.58-4.59-3.85-9.83-3.79-15.05,.08-6.51-5.88-11.5-12.19-9.87-83.86,21.76-149.91,87.74-171.78,171.57-8.01,30.69,14.94,60.76,46.67,60.76h154.75c2.79,0,4.26-3.31,2.39-5.39l-34.34-37.93c-5.23-5.8-7.07-14.05-4.71-21.54Z"/><path class="c" d="M592.51,761.61l-32.67-114.69c-.8-2.78-3.39-4.76-6.32-4.76h-28.57c-2.92,0-5.51,1.98-6.32,4.76l-32.62,114.55c-.9,2.87-.23,5.89,1.65,8.01l45.96,50.72c.94,1.04,2.17,1.74,3.49,2.07h4.24c1.32-.33,2.55-1.04,3.49-2.07l45.91-50.77c1.93-2.07,2.59-5.09,1.74-7.82Z"/><path class="c" d="M791.11,756.8c-21.92-84.02-88.23-150.14-172.38-171.71-6.29-1.61-12.27,3.36-12.16,9.85,.09,5.4-1.22,10.81-3.92,15.5v.05l-9.19,15.84c-.27,.46-.55,.91-.85,1.33-1.76,2.49-2.16,5.77-1.03,8.61,.27,.67,.51,1.37,.7,2.08l32.62,114.5c2.31,7.35,.47,15.65-4.81,21.45l-34.34,37.88c-1.88,2.07-.41,5.39,2.39,5.39h156.3c31.77,0,54.68-30.07,46.67-60.76Z"/><path class="c" d="M530.21,559.21c91.07,5.76,166.14-69.32,160.39-160.39-4.74-75.1-65.68-136.05-140.78-140.79-91.07-5.76-166.15,69.32-160.4,160.39,4.75,75.1,65.68,136.04,140.79,140.79Z"/><path class="c" d="M517.89,580.41c-10.09,0-15.93,14.9-9.99,25.46l7.54,13.39c1.27,2.31,3.35,3.68,5.61,3.68h37.19c2.17,0,4.24-1.32,5.51-3.58l7.68-13.29c6.08-10.56,.28-25.65-9.85-25.65h-43.7Z"/></g></g><g><path class="e" d="M529.93,1079.44C232.23,1073.89-5.45,827.34,.1,529.84,5.65,232.33,252.36-5.2,550.07,.35c297.7,5.55,535.39,252.1,529.84,549.6-5.55,297.5-252.27,535.03-549.97,529.49Zm18.49-991c-249.1-4.64-455.21,194.11-460.18,443.04-5.28,264.33,194.24,455.23,443.33,459.87,249.1,4.64,455.97-194.1,460.18-443.04,4.31-254.74-194.24-455.23-443.33-459.87Z"/><path class="b" d="M529.89,1079.9c-246.73-4.6-446.39-158.01-508.65-390.85-6.28-23.5,7.69-47.65,31.21-53.93,23.52-6.29,47.68,7.68,53.97,31.19,62.99,235.59,268.38,322.59,425.12,325.51,17.92,.33,36.03-.33,53.83-1.97,24.23-2.22,45.71,15.59,47.95,39.82,2.24,24.23-15.6,45.68-39.84,47.92-21.03,1.94-42.42,2.72-63.58,2.33Zm499.15-573.67c-20.99-.39-39.31-15.78-42.67-37.22-34.01-216.6-218.19-376.79-437.95-380.88h-.34c-24.19-.46-44.4-20.33-44.14-44.54C504.21,19.25,523.27-.26,547.62,0c.06,0,1.17,.02,1.23,.02,.06,0,1.17,.02,1.23,.02,262.62,4.89,482.74,196.38,523.4,455.32,3.77,24.03-12.67,46.57-36.72,50.35-2.59,.4-5.17,.58-7.71,.53Z"/></g></svg>