<?xml version="1.0" encoding="UTF-8"?><svg id="a" xmlns="http://www.w3.org/2000/svg" viewBox="0 0 1080 1080"><defs><style>.b{fill:#6a45ff;}.c{fill:#fff;}.d{fill:#9d85ff;}.e{fill:#2fadeb;stroke:#2fadeb;}.e,.f,.g{stroke-miterlimit:10;}.e,.g{stroke-width:4.31px;}.f{fill:#52b9eb;stroke:#52b9eb;}.g{fill:none;stroke:#b3b3ff;}</style></defs><g><g><path class="g" d="M863.98,216.03c.45,.05,.93,.13,1.4,.2l-1.6-1.6c.07,.47,.15,.94,.2,1.4ZM216.03,863.98c-.45-.05-.89-.13-1.34-.18l1.52,1.52c-.05-.45-.13-.89-.18-1.34Z"/><path class="e" d="M216.03,863.98c.05,.45,.13,.89,.18,1.34,179.32,178.49,469.35,178.23,648.35-.76,178.98-178.98,179.27-469.01,.82-648.33-.47-.07-.94-.15-1.4-.2,23.05,171.9-31.49,352.2-163.62,484.33-132.11,132.11-312.41,186.66-484.33,163.62Z"/><path class="f" d="M863.98,216.03c-.06-.45-.13-.93-.2-1.4-179.32-178.45-469.37-178.18-648.35,.8-179,179-179.23,469.04-.74,648.37,.45,.05,.89,.13,1.34,.18,171.92,23.03,352.22-31.51,484.33-163.62,132.13-132.13,186.67-312.43,163.62-484.33Z"/></g><g><path class="c" d="M651.16,345.46c74.02,0,136.99,54,148.26,127.16l27.95,181.12s8.88,58.56-52.56,76.5c-10.26,3-19.72,4.31-28.44,4.31-57.89,0-82.45-57.59-82.45-57.59l-35.93-71.9h-175.98l-35.93,71.9s-24.55,57.59-82.45,57.59c-8.71,0-18.18-1.3-28.44-4.31-61.44-17.94-52.56-76.5-52.56-76.5l27.95-181.12c11.27-73.16,74.24-127.16,148.26-127.16h222.32m15.24,100.43c13.79,0,24.93-11.13,24.93-24.93s-11.13-24.93-24.93-24.93-24.88,11.18-24.88,24.93,11.13,24.93,24.88,24.93m-305.75,54h31.1v31.1c0,13.39,10.86,24.25,24.25,24.25s24.25-10.86,24.25-24.25v-31.1h31.1c13.39,0,24.21-10.86,24.21-24.25s-10.82-24.25-24.21-24.25h-31.1v-31.1c0-13.39-10.86-24.25-24.25-24.25s-24.25,10.86-24.25,24.25v31.1h-31.1c-13.39,0-24.25,10.86-24.25,24.25s10.86,24.25,24.25,24.25m360.43,.68c13.75,0,24.93-11.18,24.93-24.93s-11.18-24.93-24.93-24.93-24.93,11.18-24.93,24.93,11.18,24.93,24.93,24.93m-109.36,0c13.79,0,24.93-11.18,24.93-24.93s-11.13-24.93-24.93-24.93-24.88,11.18-24.88,24.93,11.13,24.93,24.88,24.93m54.68,54.68c13.79,0,24.93-11.18,24.93-24.93s-11.13-24.93-24.93-24.93-24.88,11.18-24.88,24.93,11.13,24.93,24.88,24.93m-15.24-231.34h-222.32c-40.94,0-80.61,14.68-111.69,41.34-31.08,26.66-51.64,63.63-57.87,104.1l-27.95,181.11v.06c-.31,2.01-2.79,20.28,4.03,41.39,4.2,12.99,11.02,24.38,20.26,33.87,11.26,11.56,25.9,20.02,43.53,25.17,11.72,3.43,23.32,5.17,34.48,5.17,29.82,0,57.05-12.34,78.73-35.68,14.24-15.33,21.54-30.52,23.23-34.29l29.74-59.51h149.32l29.74,59.51c1.69,3.77,8.99,18.96,23.24,34.29,21.69,23.34,48.91,35.68,78.73,35.68,11.16,0,22.76-1.74,34.49-5.17,17.61-5.14,32.26-13.61,43.52-25.17,9.24-9.49,16.06-20.88,20.26-33.87,6.83-21.11,4.35-39.37,4.04-41.39v-.06l-27.96-181.12c-6.23-40.46-26.78-77.43-57.87-104.09-31.08-26.66-70.75-41.34-111.69-41.34h0Zm15.24,100.43c-1.86,0-3.32-1.48-3.32-3.37s1.49-3.37,3.32-3.37,3.37,1.51,3.37,3.37-1.48,3.37-3.37,3.37h0Zm-305.75,54c-1.48,0-2.69-1.21-2.69-2.69s1.21-2.69,2.69-2.69h52.66v-52.66c0-1.48,1.21-2.69,2.69-2.69s2.69,1.21,2.69,2.69v52.66h52.66c1.46,0,2.65,1.21,2.65,2.69s-1.19,2.69-2.65,2.69h-52.66v52.66c0,1.48-1.21,2.69-2.69,2.69s-2.69-1.21-2.69-2.69v-52.66h-52.66Zm360.43,.68c-1.83,0-3.37-1.54-3.37-3.37s1.51-3.37,3.37-3.37,3.37,1.51,3.37,3.37-1.51,3.37-3.37,3.37h0Zm-109.36,0c-1.83,0-3.32-1.51-3.32-3.37s1.49-3.37,3.32-3.37,3.37,1.51,3.37,3.37-1.51,3.37-3.37,3.37h0Zm54.68,54.68c-1.83,0-3.32-1.51-3.32-3.37s1.49-3.37,3.32-3.37,3.37,1.51,3.37,3.37-1.51,3.37-3.37,3.37h0Z"/><path class="c" d="M691.32,420.96c0,13.79-11.13,24.93-24.93,24.93s-24.88-11.13-24.88-24.93,11.13-24.93,24.88-24.93,24.93,11.18,24.93,24.93Z"/><path class="c" d="M746,475.64c0,13.75-11.18,24.93-24.93,24.93s-24.93-11.18-24.93-24.93,11.18-24.93,24.93-24.93,24.93,11.18,24.93,24.93Z"/><path class="c" d="M691.32,530.32c0,13.75-11.13,24.93-24.93,24.93s-24.88-11.18-24.88-24.93,11.13-24.93,24.88-24.93,24.93,11.18,24.93,24.93Z"/><path class="c" d="M636.64,475.64c0,13.75-11.13,24.93-24.93,24.93s-24.88-11.18-24.88-24.93,11.13-24.93,24.88-24.93,24.93,11.18,24.93,24.93Z"/><path class="c" d="M495.55,475.64c0,13.39-10.82,24.25-24.21,24.25h-31.1v31.1c0,13.39-10.86,24.25-24.25,24.25s-24.25-10.86-24.25-24.25v-31.1h-31.1c-13.39,0-24.25-10.86-24.25-24.25s10.86-24.25,24.25-24.25h31.1v-31.1c0-13.39,10.86-24.25,24.25-24.25s24.25,10.86,24.25,24.25v31.1h31.1c13.39,0,24.21,10.86,24.21,24.25Z"/></g></g><g><path class="d" d="M529.93,1079.44C232.23,1073.89-5.45,827.34,.1,529.84,5.65,232.33,252.36-5.2,550.07,.35s535.39,252.1,529.84,549.6c-5.55,297.5-252.27,535.03-549.97,529.49Zm18.49-991c-249.1-4.64-455.21,194.11-460.18,443.04-5.28,264.33,194.24,455.23,443.33,459.87,249.1,4.64,455.97-194.1,460.18-443.04,4.31-254.74-194.24-455.23-443.33-459.87Z"/><path class="b" d="M529.89,1079.9c-246.73-4.6-446.39-158.01-508.65-390.85-6.28-23.5,7.69-47.65,31.21-53.93,23.52-6.29,47.68,7.68,53.97,31.19,62.99,235.59,268.38,322.59,425.12,325.51,17.92,.33,36.03-.33,53.83-1.97,24.23-2.22,45.71,15.59,47.95,39.82,2.24,24.23-15.6,45.68-39.84,47.92-21.03,1.94-42.42,2.72-63.58,2.33Zm499.15-573.67c-20.99-.39-39.31-15.78-42.67-37.22-34.01-216.6-218.19-376.79-437.95-380.88h-.34c-24.19-.46-44.4-20.33-44.14-44.54C504.21,19.25,523.27-.26,547.62,0c.06,0,1.17,.02,1.23,.02,.06,0,1.17,.02,1.23,.02,262.62,4.89,482.74,196.38,523.4,455.32,3.77,24.03-12.67,46.57-36.72,50.35-2.59,.4-5.17,.58-7.71,.53Z"/></g></svg>