<?xml version="1.0" encoding="UTF-8"?><svg id="a" xmlns="http://www.w3.org/2000/svg" viewBox="0 0 1080 1080"><defs><style>.b{fill:#6a45ff;}.c{fill:#9d85ff;}.d{fill:#2fadeb;stroke:#2fadeb;}.d,.e,.f,.g{stroke-miterlimit:10;}.d,.g{stroke-width:4.31px;}.e{fill:#8dccf7;stroke:#8dccf7;}.f{fill:#6ebded;stroke:#6ebded;}.g{fill:none;stroke:#b3b3ff;}</style></defs><g><path class="g" d="M863.98,216.03c.45,.05,.93,.13,1.4,.2l-1.6-1.6c.07,.47,.15,.94,.2,1.4ZM216.03,863.98c-.45-.05-.89-.13-1.34-.18l1.52,1.52c-.05-.45-.13-.89-.18-1.34Z"/><path class="f" d="M216.03,863.98c.05,.45,.13,.89,.18,1.34,179.32,178.49,469.35,178.23,648.35-.76,178.98-178.98,179.27-469.01,.82-648.33-.47-.07-.94-.15-1.4-.2,23.05,171.9-31.49,352.2-163.62,484.33-132.11,132.11-312.41,186.66-484.33,163.62Z"/><path class="e" d="M863.98,216.03c-.06-.45-.13-.93-.2-1.4-179.32-178.45-469.37-178.18-648.35,.8-179,179-179.23,469.04-.74,648.37,.45,.05,.89,.13,1.34,.18,171.92,23.03,352.22-31.51,484.33-163.62,132.13-132.13,186.67-312.43,163.62-484.33Z"/></g><g><path class="c" d="M529.93,1079.44C232.23,1073.89-5.45,827.34,.1,529.84,5.65,232.33,252.36-5.2,550.07,.35c297.7,5.55,535.39,252.1,529.84,549.6-5.55,297.5-252.27,535.03-549.97,529.49Zm18.49-991c-249.1-4.64-455.21,194.11-460.18,443.04-5.28,264.33,194.24,455.23,443.33,459.87,249.1,4.64,455.97-194.1,460.18-443.04,4.31-254.74-194.24-455.23-443.33-459.87Z"/><path class="b" d="M529.89,1079.9c-246.73-4.6-446.39-158.01-508.65-390.85-6.28-23.5,7.69-47.65,31.21-53.93,23.52-6.29,47.68,7.68,53.97,31.19,62.99,235.59,268.38,322.59,425.12,325.51,17.92,.33,36.03-.33,53.83-1.97,24.23-2.22,45.71,15.59,47.95,39.82,2.24,24.23-15.6,45.68-39.84,47.92-21.03,1.94-42.42,2.72-63.58,2.33Zm499.15-573.67c-20.99-.39-39.31-15.78-42.67-37.22-34.01-216.6-218.19-376.79-437.95-380.88h-.34c-24.19-.46-44.4-20.33-44.14-44.54C504.21,19.25,523.27-.26,547.62,0c.06,0,1.17,.02,1.23,.02,.06,0,1.17,.02,1.23,.02,262.62,4.89,482.74,196.38,523.4,455.32,3.77,24.03-12.67,46.57-36.72,50.35-2.59,.4-5.17,.58-7.71,.53Z"/></g><g><rect class="d" x="206.23" y="500.95" width="60.14" height="75.73" rx="20.56" ry="20.56"/><rect class="d" x="290.86" y="407.46" width="60.14" height="262.71" rx="20.56" ry="20.56"/><rect class="d" x="813.15" y="500.95" width="60.13" height="75.73" rx="20.56" ry="20.56"/><rect class="d" x="728.51" y="407.46" width="60.14" height="262.71" rx="20.56" ry="20.56"/><path class="d" d="M619.98,508.75h-160.44c-11.36,0-20.56-9.21-20.56-20.56v-128.87c0-11.36-9.21-20.56-20.56-20.56h-19.01c-11.36,0-20.56,9.21-20.56,20.56v359c0,11.36,9.21,20.56,20.56,20.56h19.01c11.36,0,20.56-9.21,20.56-20.56v-128.87c0-11.36,9.21-20.56,20.56-20.56h160.44c11.36,0,20.56,9.21,20.56,20.56v128.87c0,11.36,9.21,20.56,20.56,20.56h19.01c11.36,0,20.56-9.21,20.56-20.56V359.31c0-11.36-9.21-20.56-20.56-20.56h-19.01c-11.36,0-20.56,9.21-20.56,20.56v128.87c0,11.36-9.21,20.56-20.56,20.56Z"/></g></svg>