<?xml version="1.0" encoding="UTF-8"?><svg id="a" xmlns="http://www.w3.org/2000/svg" viewBox="0 0 1080 1080"><defs><style>.c{fill:#6a45ff;}.d{fill:#fff;}.e{fill:#9d85ff;}.f{fill:#8a2be2;stroke:#8a2be2;}.f,.g,.h{stroke-miterlimit:10;}.f,.h{stroke-width:4.31px;}.g{fill:#b57edc;stroke:#b57edc;}.h{fill:none;stroke:#b3b3ff;}</style></defs><g><g><path class="h" d="M863.98,216.03c.45,.05,.93,.13,1.4,.2l-1.6-1.6c.07,.47,.15,.94,.2,1.4ZM216.03,863.98c-.45-.05-.89-.13-1.34-.18l1.52,1.52c-.05-.45-.13-.89-.18-1.34Z"/><path class="f" d="M216.03,863.98c.05,.45,.13,.89,.18,1.34,179.32,178.49,469.35,178.23,648.35-.76,178.98-178.98,179.27-469.01,.82-648.33-.47-.07-.94-.15-1.4-.2,23.05,171.9-31.49,352.2-163.62,484.33-132.11,132.11-312.41,186.66-484.33,163.62Z"/><path class="g" d="M863.98,216.03c-.06-.45-.13-.93-.2-1.4-179.32-178.45-469.37-178.18-648.35,.8-179,179-179.23,469.04-.74,648.37,.45,.05,.89,.13,1.34,.18,171.92,23.03,352.22-31.51,484.33-163.62,132.13-132.13,186.67-312.43,163.62-484.33Z"/></g><g id="b"><g><path class="d" d="M473.32,696.4h-3.79c-17.89,0-35.77,.01-53.66,0-15.54-.01-24.48-13.52-18.53-27.93,22.75-55.05,45.5-110.11,68.25-165.16,5.33-12.9,10.62-25.81,16-38.7,1.23-2.96,.95-5.62-1.04-8.05-1.79-2.18-4.2-2.93-6.95-2.5-3.24,.51-4.78,2.82-5.93,5.62-5.92,14.42-11.89,28.81-17.85,43.22-10.91,26.42-21.82,52.84-32.74,79.26-6.14,14.86-22.82,21.89-37.58,15.88-14.91-6.07-21.94-22.85-15.76-37.83,21.23-51.43,42.46-102.87,63.8-154.26,3.47-8.37,6.64-17.06,11.5-24.61,10.89-16.94,27.06-25.73,47.21-25.9,35.86-.31,71.74-.52,107.6,.06,24.44,.4,42.53,12.42,52.14,34.89,17.75,41.49,34.59,83.36,51.82,125.07,6.1,14.76,12.17,29.52,18.34,44.25,6.23,14.88-.32,31.73-14.87,38-14.92,6.43-31.67-.02-38.04-15.12-10.45-24.75-20.57-49.64-30.83-74.47-6.72-16.26-13.44-32.51-20.19-48.76-1.98-4.76-5.88-6.58-10.05-4.79-3.94,1.69-5.43,5.84-3.54,10.41,11.14,27.05,22.34,54.08,33.5,81.13,16.85,40.83,33.69,81.67,50.53,122.51,5.91,14.34-2.91,27.74-18.35,27.77-17.69,.04-35.39,.07-53.08-.06-2.83-.02-3.47,.86-3.46,3.56,.08,49.95,.07,99.9,.04,149.85,0,14.49-9.25,25.86-23.2,28.75-17.39,3.6-34.32-10.14-34.33-27.93-.02-50.05,0-100.09,0-150.14,0-1.22,0-2.44,0-3.83h-19.17c-.06,1.34-.17,2.64-.17,3.94,0,49.66,0,99.33-.02,148.99,0,14.57-9.28,26.05-23.32,28.97-15.58,3.24-31.31-7.64-33.8-23.44-.34-2.16-.45-4.38-.45-6.58-.02-49.28-.02-98.56-.01-147.85,0-1.23,0-2.47,0-4.22Z"/><path class="d" d="M539.94,335.93c-37.12,0-67.14-30-67.17-67.13-.03-37.44,30.13-67.9,67.2-67.87,37.11,.03,67.32,30.32,67.29,67.47-.04,37.65-29.82,67.53-67.32,67.53Z"/></g></g></g><g><path class="e" d="M529.93,1079.44C232.23,1073.89-5.45,827.34,.1,529.84,5.65,232.33,252.36-5.2,550.07,.35s535.39,252.1,529.84,549.6c-5.55,297.5-252.27,535.03-549.97,529.49Zm18.49-991c-249.1-4.64-455.21,194.11-460.18,443.04-5.28,264.33,194.24,455.23,443.33,459.87,249.1,4.64,455.97-194.1,460.18-443.04,4.31-254.74-194.24-455.23-443.33-459.87Z"/><path class="c" d="M529.89,1079.9c-246.73-4.6-446.39-158.01-508.65-390.85-6.28-23.5,7.69-47.65,31.21-53.93,23.52-6.29,47.68,7.68,53.97,31.19,62.99,235.59,268.38,322.59,425.12,325.51,17.92,.33,36.03-.33,53.83-1.97,24.23-2.22,45.71,15.59,47.95,39.82,2.24,24.23-15.6,45.68-39.84,47.92-21.03,1.94-42.42,2.72-63.58,2.33Zm499.15-573.67c-20.99-.39-39.31-15.78-42.67-37.22-34.01-216.6-218.19-376.79-437.95-380.88h-.34c-24.19-.46-44.4-20.33-44.14-44.54C504.21,19.25,523.27-.26,547.62,0c.06,0,1.17,.02,1.23,.02,.06,0,1.17,.02,1.23,.02,262.62,4.89,482.74,196.38,523.4,455.32,3.77,24.03-12.67,46.57-36.72,50.35-2.59,.4-5.17,.58-7.71,.53Z"/></g></svg>