<?xml version="1.0" encoding="UTF-8"?><svg id="a" xmlns="http://www.w3.org/2000/svg" xmlns:xlink="http://www.w3.org/1999/xlink" viewBox="0 0 1080 1080"><defs><style>.c{fill:#fff;}.d{fill:#ffbe2c;}.e{fill:#ff9935;}.f{fill:#0f8604;}.g{clip-path:url(#b);}</style><clipPath id="b"><ellipse class="d" cx="540" cy="540" rx="539.89" ry="539.83"/></clipPath></defs><g><ellipse class="d" cx="540" cy="540" rx="539.89" ry="539.83"/><g class="g"><ellipse class="f" cx="540" cy="540" rx="539.89" ry="539.83"/><path class="e" d="M894.81,133.1C771.25,25.54,600.41-24.7,427.81,11.96,136.15,73.91-50.06,360.54,11.9,652.17c11.33,53.32,30.2,103.1,55.21,148.5,511.02-207.74,736.71-503.51,827.71-667.57Z"/></g></g><g><path class="c" d="M581.61,601.12c-.53-19.95-18.24-37.82-37.58-39.51-1.27-.11-2.53-.14-3.79-.11h0c-.08,0-.16,0-.24,0-.08,0-.16,0-.24,0h0c-1.26-.03-2.53,0-3.79,.11-19.34,1.69-37.05,19.55-37.58,39.51-.69,25.8-.16,51.62-.36,77.43-.06,8.09,4.47,10.15,17.06,7.85,8.14-1.48,16.4-2.12,24.66-2.06h0c.08,0,.16,0,.24,0,.08,0,.16,0,.24,0h0c8.26-.05,16.52,.58,24.66,2.07,12.6,2.3,17.12,.23,17.06-7.85-.19-25.81,.33-51.64-.36-77.43Z"/><path class="c" d="M781.81,216.09c-6.94-.92-13.88-1.34-20.96-1.39-92.88-.61-162.34,59.83-188.47,112.8,0,0,0,.29-.01,.82,0,1.46,.68,2.85,1.86,3.72,13.62,9.95,28.11,18.77,41.1,29.54,16.15,13.39,30.34,30.83,33.66,51.54,4.33,27.01-10.64,53.54-29.09,73.73,9.37,3.15,19.87-2.77,25.18-11.12,2.36-3.71,3.94-7.77,5.07-12.01,.87-3.24,5.31-3.5,6.66-.44,4.77,10.84,13.18,20.56,20.71,30.01,9.74,12.23,18.86,27.51,16.94,42.47-.89,6.9,6.69,11.72,12.67,8.16,3.73-2.23,6.75-5.82,6.8-9.81,.05-4.4,2.67-10.13,6.22-12.75,16.11-11.89,24.66,4.84,24.66,21.36,0,25.25,.03,138.66-.78,178.84-.16,7.86-6.58,14.16-14.45,14.16-64.84,.01-123.66,.03-189.41,.04h-.35c-65.75-.01-124.57-.03-189.41-.04-7.87,0-14.29-6.29-14.45-14.16-.81-40.18-.78-153.59-.78-178.84,0-16.52,8.54-33.24,24.66-21.36,3.54,2.61,6.16,8.35,6.22,12.75,.05,3.99,3.06,7.58,6.8,9.81,5.98,3.57,13.56-1.25,12.67-8.16-1.92-14.96,7.2-30.24,16.94-42.47,7.52-9.45,15.94-19.16,20.71-30.01,1.35-3.07,5.8-2.8,6.66,.44,1.13,4.24,2.71,8.3,5.07,12.01,5.31,8.34,15.8,14.27,25.18,11.12-18.45-20.19-33.42-46.72-29.09-73.73,3.32-20.71,17.52-38.15,33.66-51.54,12.93-10.73,27.35-19.52,40.92-29.42,1.21-.89,1.93-2.32,1.86-3.82,0-.02,0-.04,0-.04-27.96-65.41-111.37-113.69-188.47-113.7-6.79,0-12.85,.59-20.45,1.53-20.6,2.57-36.14,20.16-36.14,40.92l-.07,443.09c1.34,91.2,76.26,165.39,167.01,165.39,40.59,0,78.96-14.64,108.73-40.48,1.01-.88,2.5-.88,3.51,0,29.77,25.84,68.15,40.48,108.74,40.48,90.8,0,165.69-74.26,166.94-165.96l.42-442.53c.03-20.67-15.4-38.28-35.86-40.95Z"/></g></svg>