<?xml version="1.0" encoding="UTF-8"?><svg id="a" xmlns="http://www.w3.org/2000/svg" viewBox="0 0 1080 1080"><defs><style>.b{fill:#6a45ff;}.c{fill:#fff;}.d{fill:#efbe45;}.e{fill:#9d85ff;}.f{fill:#f4d956;stroke:#f4d956;}.f,.g{stroke-miterlimit:10;}.g{fill:none;stroke:#b3b3ff;stroke-width:4.31px;}</style></defs><g><path class="e" d="M529.93,1079.44C232.23,1073.89-5.45,827.34,.1,529.84,5.65,232.33,252.36-5.2,550.07,.35c297.7,5.55,535.39,252.1,529.84,549.6-5.55,297.5-252.27,535.03-549.97,529.49Zm18.49-991c-249.1-4.64-455.21,194.11-460.18,443.04-5.28,264.33,194.24,455.23,443.33,459.87,249.1,4.64,455.97-194.1,460.18-443.04,4.31-254.74-194.24-455.23-443.33-459.87Z"/><path class="b" d="M529.89,1079.9c-246.73-4.6-446.39-158.01-508.65-390.85-6.28-23.5,7.69-47.65,31.21-53.93,23.52-6.29,47.68,7.68,53.97,31.19,62.99,235.59,268.38,322.59,425.12,325.51,17.92,.33,36.03-.33,53.83-1.97,24.23-2.22,45.71,15.59,47.95,39.82,2.24,24.23-15.6,45.68-39.84,47.92-21.03,1.94-42.42,2.72-63.58,2.33Zm499.15-573.67c-20.99-.39-39.31-15.78-42.67-37.22-34.01-216.6-218.19-376.79-437.95-380.88h-.34c-24.19-.46-44.4-20.33-44.14-44.54C504.21,19.25,523.27-.26,547.62,0c.06,0,1.17,.02,1.23,.02,.06,0,1.17,.02,1.23,.02,262.62,4.89,482.74,196.38,523.4,455.32,3.77,24.03-12.67,46.57-36.72,50.35-2.59,.4-5.17,.58-7.71,.53Z"/></g><g><path class="e" d="M529.93,1079.44C232.23,1073.89-5.45,827.34,.1,529.84,5.65,232.33,252.36-5.2,550.07,.35c297.7,5.55,535.39,252.1,529.84,549.6-5.55,297.5-252.27,535.03-549.97,529.49Zm18.49-991c-249.1-4.64-455.21,194.11-460.18,443.04-5.28,264.33,194.24,455.23,443.33,459.87,249.1,4.64,455.97-194.1,460.18-443.04,4.31-254.74-194.24-455.23-443.33-459.87Z"/><path class="b" d="M529.89,1079.9c-246.73-4.6-446.39-158.01-508.65-390.85-6.28-23.5,7.69-47.65,31.21-53.93,23.52-6.29,47.68,7.68,53.97,31.19,62.99,235.59,268.38,322.59,425.12,325.51,17.92,.33,36.03-.33,53.83-1.97,24.23-2.22,45.71,15.59,47.95,39.82,2.24,24.23-15.6,45.68-39.84,47.92-21.03,1.94-42.42,2.72-63.58,2.33Zm499.15-573.67c-20.99-.39-39.31-15.78-42.67-37.22-34.01-216.6-218.19-376.79-437.95-380.88h-.34c-24.19-.46-44.4-20.33-44.14-44.54C504.21,19.25,523.27-.26,547.62,0c.06,0,1.17,.02,1.23,.02,.06,0,1.17,.02,1.23,.02,262.62,4.89,482.74,196.38,523.4,455.32,3.77,24.03-12.67,46.57-36.72,50.35-2.59,.4-5.17,.58-7.71,.53Z"/></g><g><path class="g" d="M863.98,216.03c.45,.05,.93,.13,1.4,.2l-1.6-1.6c.07,.47,.15,.94,.2,1.4ZM216.03,863.98c-.45-.05-.89-.13-1.34-.18l1.52,1.52c-.05-.45-.13-.89-.18-1.34Z"/><path class="d" d="M216.03,863.98c.05,.45,.13,.89,.18,1.34,179.32,178.49,469.35,178.23,648.35-.76,178.98-178.98,179.27-469.01,.82-648.33-.47-.07-.94-.15-1.4-.2,23.05,171.9-31.49,352.2-163.62,484.33-132.11,132.11-312.41,186.66-484.33,163.62Z"/><path class="f" d="M863.98,216.03c-.06-.45-.13-.93-.2-1.4-179.32-178.45-469.37-178.18-648.35,.8-179,179-179.23,469.04-.74,648.37,.45,.05,.89,.13,1.34,.18,171.92,23.03,352.22-31.51,484.33-163.62,132.13-132.13,186.67-312.43,163.62-484.33Z"/></g><g><path class="c" d="M861.82,545.47c3.02,10.52,.86,19.19-7.07,26.05-7.96,6.88-17.39,7.64-27.04,3.56-28.19-11.93-56.32-24.01-84.52-35.91-13.21-5.58-23.3-16.67-27.62-30.35l-18.27-57.82c-4.63-14.67-2.11-30.66,6.82-43.18s20.76-29.09,28.36-39.65c9.1-12.63,18.4-25.12,27.57-37.7,6.41-8.78,14.97-12.89,25.7-10.86,10.59,2.01,16.04,9.21,18.8,19.45,9.26,34.34,47.37,171.97,57.26,206.41Z"/><path class="c" d="M677.81,576.38c-2.72-57.82-17.84-112.57-44.27-164.12-11.83-23.07-27.4-42.61-50.36-55.87-28.42-16.41-59.15-20.26-91.04-17.97-33.53,2.4-66.3,9.22-91.6,16.98-23.57,6.78-40.38,11.16-56.69,17.4-27,10.33-53.67,21.28-76.57,39.37-29.93,23.64-49.3,53.68-50.28,92.66-1.67,66.31,13.71,128.73,46.18,186.72,22.56,40.28,56.84,63.18,102.87,67.8,11.86,1.19,23.87,.71,35.79,1.48,17.42,1.12,26.45,8.64,31.11,25.28,3.85,13.76,7.66,27.53,11.46,41.3,2.78,10.09,8.74,17.21,19.29,19.2,10.86,2.05,18.97-2.52,25.35-11.38,23.05-32.04,46.46-63.81,69.42-95.91,13.45-18.8,32.84-29.73,51.86-41.51,44.96-27.85,70.04-67.42,67.49-121.44Zm-357.68-27.46c-22.18,0-40.15-17.98-40.15-40.15s17.98-40.15,40.15-40.15,40.15,17.98,40.15,40.15-17.98,40.15-40.15,40.15Z"/></g></svg>