<?xml version="1.0" encoding="UTF-8"?><svg id="a" xmlns="http://www.w3.org/2000/svg" viewBox="0 0 1080 1080"><defs><style>.b{fill:#6a45ff;}.c{fill:#fff;}.d{fill:#efbe45;}.e{fill:#9d85ff;}.f{fill:#f4d956;stroke:#f4d956;}.f,.g{stroke-miterlimit:10;}.g{fill:none;stroke:#b3b3ff;stroke-width:4.31px;}</style></defs><g><g><path class="g" d="M863.98,216.03c.45,.05,.93,.13,1.4,.2l-1.6-1.6c.07,.47,.15,.94,.2,1.4ZM216.03,863.98c-.45-.05-.89-.13-1.34-.18l1.52,1.52c-.05-.45-.13-.89-.18-1.34Z"/><path class="d" d="M216.03,863.98c.05,.45,.13,.89,.18,1.34,179.32,178.49,469.35,178.23,648.35-.76,178.98-178.98,179.27-469.01,.82-648.33-.47-.07-.94-.15-1.4-.2,23.05,171.9-31.49,352.2-163.62,484.33-132.11,132.11-312.41,186.66-484.33,163.62Z"/><path class="f" d="M863.98,216.03c-.06-.45-.13-.93-.2-1.4-179.32-178.45-469.37-178.18-648.35,.8-179,179-179.23,469.04-.74,648.37,.45,.05,.89,.13,1.34,.18,171.92,23.03,352.22-31.51,484.33-163.62,132.13-132.13,186.67-312.43,163.62-484.33Z"/></g><path class="c" d="M826.98,502.45v-151.63c0-10.88-3.49-21.38-10.11-30.38-5.93-8.08-14.19-14.59-23.87-18.84l-112.64-49.41c-8.29-3.64-17.53-5.56-26.7-5.56-10,0-19.96,2.26-28.81,6.55-5.92,2.86-11.15,6.54-15.59,10.84-21.78-5.25-44.52-8.04-67.91-8.04-159.45,0-288.7,129.26-288.7,288.7,0,32.6,0,65.22,1.05,97.81,.85,26.2-3.76,61.74,13.88,83.28,6.89,8.41,16.3,14.82,27.2,18.54l59.53,20.29c50.38,42.89,115.69,68.78,187.04,68.78,130.39,0,240.59-86.44,276.42-205.14,4.15-13.74,6.55-27.55,7.92-41.45,2.73-27.79,1.29-55.91,1.29-84.33Zm-366.57,229.06c0,8.68-5.11,16.41-14.01,21.21-5.3,2.86-11.25,4.31-17.28,4.31-4.11,0-8.25-.67-12.25-2.04l-112.64-38.4c-11.68-3.98-19.23-13.2-19.23-23.49v-176.7c0-8.68,5.11-16.41,14.01-21.22,5.3-2.86,11.25-4.31,17.28-4.31,4.11,0,8.25,.67,12.25,2.04l112.64,38.4c11.68,3.98,19.23,13.2,19.23,23.49v176.7Zm168.64-64.56c0,8.91-5.32,16.76-14.6,21.52-5.19,2.67-10.93,4.01-16.71,4.01-4.55,0-9.13-.83-13.5-2.51l-87.29-33.54v-101.64c0-22.26-16.34-42.2-41.62-50.82l-1.69-.57v-88.24c0-8.91,5.32-16.76,14.6-21.52,5.19-2.67,10.93-4.01,16.71-4.01,4.55,0,9.13,.83,13.51,2.51l112.64,43.27c10.91,4.19,17.96,13.23,17.96,23.02v208.51Zm168.64-67.83c0,9.06-5.73,17.24-15.31,21.88-4.99,2.41-10.52,3.63-16.06,3.63-5.11,0-10.23-1.03-14.94-3.1l-85.8-37.64v-125.46c0-21.2-15.25-40.75-38.86-49.82l-4.44-1.71v-105.5c0-9.06,5.73-17.24,15.31-21.88,4.99-2.41,10.52-3.63,16.06-3.63,5.11,0,10.23,1.03,14.94,3.1l112.64,49.41c10.15,4.45,16.46,13.04,16.46,22.41v248.31Z"/></g><g><path class="e" d="M529.93,1079.44C232.23,1073.89-5.45,827.34,.1,529.84,5.65,232.33,252.36-5.2,550.07,.35c297.7,5.55,535.39,252.1,529.84,549.6-5.55,297.5-252.27,535.03-549.97,529.49Zm18.49-991c-249.1-4.64-455.21,194.11-460.18,443.04-5.28,264.33,194.24,455.23,443.33,459.87,249.1,4.64,455.97-194.1,460.18-443.04,4.31-254.74-194.24-455.23-443.33-459.87Z"/><path class="b" d="M529.89,1079.9c-246.73-4.6-446.39-158.01-508.65-390.85-6.28-23.5,7.69-47.65,31.21-53.93,23.52-6.29,47.68,7.68,53.97,31.19,62.99,235.59,268.38,322.59,425.12,325.51,17.92,.33,36.03-.33,53.83-1.97,24.23-2.22,45.71,15.59,47.95,39.82,2.24,24.23-15.6,45.68-39.84,47.92-21.03,1.94-42.42,2.72-63.58,2.33Zm499.15-573.67c-20.99-.39-39.31-15.78-42.67-37.22-34.01-216.6-218.19-376.79-437.95-380.88h-.34c-24.19-.46-44.4-20.33-44.14-44.54C504.21,19.25,523.27-.26,547.62,0c.06,0,1.17,.02,1.23,.02,.06,0,1.17,.02,1.23,.02,262.62,4.89,482.74,196.38,523.4,455.32,3.77,24.03-12.67,46.57-36.72,50.35-2.59,.4-5.17,.58-7.71,.53Z"/></g><g><path class="e" d="M529.93,1079.44C232.23,1073.89-5.45,827.34,.1,529.84,5.65,232.33,252.36-5.2,550.07,.35c297.7,5.55,535.39,252.1,529.84,549.6-5.55,297.5-252.27,535.03-549.97,529.49Zm18.49-991c-249.1-4.64-455.21,194.11-460.18,443.04-5.28,264.33,194.24,455.23,443.33,459.87,249.1,4.64,455.97-194.1,460.18-443.04,4.31-254.74-194.24-455.23-443.33-459.87Z"/><path class="b" d="M529.89,1079.9c-246.73-4.6-446.39-158.01-508.65-390.85-6.28-23.5,7.69-47.65,31.21-53.93,23.52-6.29,47.68,7.68,53.97,31.19,62.99,235.59,268.38,322.59,425.12,325.51,17.92,.33,36.03-.33,53.83-1.97,24.23-2.22,45.71,15.59,47.95,39.82,2.24,24.23-15.6,45.68-39.84,47.92-21.03,1.94-42.42,2.72-63.58,2.33Zm499.15-573.67c-20.99-.39-39.31-15.78-42.67-37.22-34.01-216.6-218.19-376.79-437.95-380.88h-.34c-24.19-.46-44.4-20.33-44.14-44.54C504.21,19.25,523.27-.26,547.62,0c.06,0,1.17,.02,1.23,.02,.06,0,1.17,.02,1.23,.02,262.62,4.89,482.74,196.38,523.4,455.32,3.77,24.03-12.67,46.57-36.72,50.35-2.59,.4-5.17,.58-7.71,.53Z"/></g></svg>