<?xml version="1.0" encoding="UTF-8"?><svg id="a" xmlns="http://www.w3.org/2000/svg" viewBox="0 0 1080 1080"><defs><style>.b,.c{fill:#6a45ff;}.d{fill:#fff;}.e{fill:#9d85ff;}.f{fill:#4b1fff;stroke:#4b1fff;}.f,.c,.g{stroke-miterlimit:10;}.f,.g{stroke-width:4.31px;}.c{stroke:#6a45ff;}.g{fill:none;stroke:#b3b3ff;}</style></defs><g><path class="g" d="M863.98,216.03c.45,.05,.93,.13,1.4,.2l-1.6-1.6c.07,.47,.15,.94,.2,1.4ZM216.03,863.98c-.45-.05-.89-.13-1.34-.18l1.52,1.52c-.05-.45-.13-.89-.18-1.34Z"/><path class="f" d="M216.03,863.98c.05,.45,.13,.89,.18,1.34,179.32,178.49,469.35,178.23,648.35-.76,178.98-178.98,179.27-469.01,.82-648.33-.47-.07-.94-.15-1.4-.2,23.05,171.9-31.49,352.2-163.62,484.33-132.11,132.11-312.41,186.66-484.33,163.62Z"/><path class="c" d="M863.98,216.03c-.06-.45-.13-.93-.2-1.4-179.32-178.45-469.37-178.18-648.35,.8-179,179-179.23,469.04-.74,648.37,.45,.05,.89,.13,1.34,.18,171.92,23.03,352.22-31.51,484.33-163.62,132.13-132.13,186.67-312.43,163.62-484.33Z"/></g><g><path class="e" d="M529.93,1079.44C232.23,1073.89-5.45,827.34,.1,529.84,5.65,232.33,252.36-5.2,550.07,.35s535.39,252.1,529.84,549.6c-5.55,297.5-252.27,535.03-549.97,529.49Zm18.49-991c-249.1-4.64-455.21,194.11-460.18,443.04-5.28,264.33,194.24,455.23,443.33,459.87,249.1,4.64,455.97-194.1,460.18-443.04,4.31-254.74-194.24-455.23-443.33-459.87Z"/><path class="b" d="M529.89,1079.9c-246.73-4.6-446.39-158.01-508.65-390.85-6.28-23.5,7.69-47.65,31.21-53.93,23.52-6.29,47.68,7.68,53.97,31.19,62.99,235.59,268.38,322.59,425.12,325.51,17.92,.33,36.03-.33,53.83-1.97,24.23-2.22,45.71,15.59,47.95,39.82,2.24,24.23-15.6,45.68-39.84,47.92-21.03,1.94-42.42,2.72-63.58,2.33Zm499.15-573.67c-20.99-.39-39.31-15.78-42.67-37.22-34.01-216.6-218.19-376.79-437.95-380.88h-.34c-24.19-.46-44.4-20.33-44.14-44.54C504.21,19.25,523.27-.26,547.62,0c.06,0,1.17,.02,1.23,.02,.06,0,1.17,.02,1.23,.02,262.62,4.89,482.74,196.38,523.4,455.32,3.77,24.03-12.67,46.57-36.72,50.35-2.59,.4-5.17,.58-7.71,.53Z"/></g><g><path class="e" d="M529.93,1079.44C232.23,1073.89-5.45,827.34,.1,529.84,5.65,232.33,252.36-5.2,550.07,.35s535.39,252.1,529.84,549.6c-5.55,297.5-252.27,535.03-549.97,529.49Zm18.49-991c-249.1-4.64-455.21,194.11-460.18,443.04-5.28,264.33,194.24,455.23,443.33,459.87,249.1,4.64,455.97-194.1,460.18-443.04,4.31-254.74-194.24-455.23-443.33-459.87Z"/><path class="b" d="M529.89,1079.9c-246.73-4.6-446.39-158.01-508.65-390.85-6.28-23.5,7.69-47.65,31.21-53.93,23.52-6.29,47.68,7.68,53.97,31.19,62.99,235.59,268.38,322.59,425.12,325.51,17.92,.33,36.03-.33,53.83-1.97,24.23-2.22,45.71,15.59,47.95,39.82,2.24,24.23-15.6,45.68-39.84,47.92-21.03,1.94-42.42,2.72-63.58,2.33Zm499.15-573.67c-20.99-.39-39.31-15.78-42.67-37.22-34.01-216.6-218.19-376.79-437.95-380.88h-.34c-24.19-.46-44.4-20.33-44.14-44.54C504.21,19.25,523.27-.26,547.62,0c.06,0,1.17,.02,1.23,.02,.06,0,1.17,.02,1.23,.02,262.62,4.89,482.74,196.38,523.4,455.32,3.77,24.03-12.67,46.57-36.72,50.35-2.59,.4-5.17,.58-7.71,.53Z"/></g><g><path class="d" d="M611.75,719.52c-3.23,0-6.46,.02-9.68,.04-3.25,.02-6.49,.04-9.74,.04-5.98,0-10.84-.08-15.29-.25-.23,0-.46-.01-.68-.01-4.16,0-6.41,1.45-8.62,5.54-5.42,10.03-11.25,19.87-15.72,27.33-3.12,5.2-7.31,8.07-11.81,8.07-3.11,0-7.7-1.35-11.93-7.8-.52-.78-.95-1.56-1.37-2.3-.16-.28-.31-.56-.47-.84l-32.21-55.81c-41.49-71.9-82.98-143.8-124.47-215.7l-1.49-2.58c-7.44-12.89-15.13-26.23-22.62-39.39-3.76-6.61-2.8-11.13-1.34-13.76,1.48-2.66,4.89-5.9,12.69-6.2,1.49-.06,2.94-.06,4.03-.06,.61,0,1.22,0,1.84,0,.59,0,1.18,0,1.78,0h117.38l97.34,.02c1.66,0,3.33-.01,4.99-.03h1.11c.18-.01,.35-.01,.5-.02-.11-.21-.24-.44-.4-.7l-.68-1.14c-6.44-10.8-13.09-21.97-19.12-33.29-2.42-4.55-4.93-6.01-10.3-6.01h-.16c-21.1,.13-43.78,.18-73.53,.18-11.74,0-23.48,0-35.22-.02-11.47,0-22.95-.02-34.42-.02h-82.82c-19.66,0-39.31,0-58.97,0-1.53,0-4.56,0-6.48,.19,.76,1.67,2.18,4.13,2.89,5.37l24.82,43.07c33.02,57.29,67.16,116.53,100.78,174.77,33.43,57.91,67.44,116.77,100.34,173.7,15.19,26.28,30.37,52.57,45.56,78.85,.75,1.3,1.31,2.17,1.72,2.74,.41-.57,.98-1.43,1.74-2.73,7.61-13.01,15.29-26.28,22.71-39.11l4.98-8.61,9.87-17.06c12.32-21.27,25.05-43.27,37.5-64.95,.34-.59,.61-1.08,.82-1.49-.44-.02-.97-.04-1.61-.04-1.42-.01-2.84-.01-4.25-.01Z"/><path class="d" d="M512.74,696.33c3.05,6.57,6.84,8.68,15.61,8.68,.2,0,.39,0,.59,0,56.97-.57,114.88-.76,170.89-.94l7.01-.02c10.69-.03,22.23-.05,36.31-.05,8.71,0,17.43,0,26.14,.01,8.71,0,17.42,.01,26.13,.01,6.37,0,12.75,0,19.12-.01,.64,0,1.17,0,1.62-.02-.18-.35-.41-.75-.67-1.22-6.38-11.31-13-22.76-19.4-33.82-2.36-4.08-4.72-8.15-7.07-12.23-11.71-20.32-23.42-40.64-35.13-60.96-29.19-50.66-59.38-103.04-89.11-154.53-16.61-28.77-33.56-57.98-49.95-86.24-10-17.24-20-34.48-29.99-51.73-7.3-12.61-14.59-25.23-21.88-37.85-7.14-12.36-14.28-24.72-21.43-37.07-.29-.5-.54-.92-.76-1.28-.24,.37-.51,.81-.83,1.33-1.48,2.44-2.94,4.98-4.35,7.43-.94,1.63-1.88,3.26-2.83,4.89-7.01,11.92-14.03,23.84-21.04,35.75-15.88,26.97-32.29,54.86-48.41,82.3-.31,.52-.56,.97-.75,1.34,.44,.02,.98,.04,1.62,.04,3.61,.03,7.48,.04,12.55,.04,2.08,0,4.16,0,6.23,0,2.08,0,4.16,0,6.24,0,4.66,0,10.19,0,15.89,.07h.16c2.87,0,4.28-.82,5.6-3.26,4.53-8.32,8.94-15.9,13.49-23.18,.61-.97,1.17-2.11,1.77-3.33,2.25-4.58,5.34-10.85,13.63-11.04,.13,0,.26,0,.39,0,8.75,0,11.91,6.66,14.23,11.52,.54,1.14,1.05,2.21,1.59,3.14,46.63,80.45,93.92,162.31,139.65,241.47l8.75,15.15c8.63,14.94,19.38,33.54,29.51,51.46,3.52,6.23,4.16,11.4,1.89,15.36-2.3,4.02-7.22,6.13-14.62,6.25-.57,0-1.14,.01-1.72,.01-.53,0-1.05,0-1.58,0-.51,0-1.03,0-1.54,0h-103.02l-4,.02c-9.76,0-19.52,0-29.27,0-9.76,0-19.51,0-29.27,0-22.19,0-39.24,.01-55.29,.03-.43,0-.81,0-1.15,.01,.13,.24,.28,.51,.45,.8,1.89,3.3,3.9,6.63,5.85,9.86,4.23,7,8.6,14.24,12.13,21.83Z"/><path class="d" d="M729.86,524.27c.1,.16,.19,.32,.27,.46,.09-.16,.19-.33,.3-.52,28.85-49.93,57.04-98.74,83.79-145.09,1.15-2,1.75-3.24,2.05-4.01-.79-.12-2.11-.22-4.31-.23-12.11-.02-24.21-.03-36.32-.03-7.27,0-14.54,0-21.8,0-7.27,0-14.54,0-21.81,0h-2.5c-7.36,0-14.73,0-22.09,0-8.06,0-16.12,0-24.18,0-14.38,0-26.08,.01-36.83,.04-1.09,0-1.91,.03-2.54,.07,.25,.5,.58,1.14,1.04,1.94,2.5,4.45,5.12,8.94,7.65,13.29,3.99,6.86,8.12,13.96,11.94,21.1,1.85,3.47,3.9,4.64,8.11,4.64,.11,0,.23,0,.35,0,7.56-.12,15.66-.17,25.49-.17,6.57,0,13.24,.02,19.7,.05h2.57c7.86,.04,12.82,2.03,15.16,6.11,2.34,4.07,1.56,9.36-2.39,16.15-3.18,5.48-6.35,10.98-9.52,16.47-5.03,8.72-10.23,17.73-15.4,26.57-1.57,2.68-1.5,3.75-.53,5.4,4,6.76,7.95,13.68,11.77,20.37,3.27,5.72,6.64,11.63,10.02,17.39Z"/><path class="d" d="M356.11,565.46c-1.36-2.4-2.73-4.81-4.1-7.2-.41-.72-1.24-2.16-1.99-3.32-.47,.73-1.05,1.69-1.74,2.87-26.55,45.81-53.75,92.87-83.17,143.87-.26,.45-.79,1.37-1.27,2.27,1.15,.04,2.42,.05,3.08,.05,13.13,.02,26.26,.02,39.39,.02h48.02c6.52,0,13.03,0,19.55,0,6.52,0,13.04,0,19.55,0,11.6,0,26.92,0,42.48,.08h.14c.09,0,.19,0,.27,0l-.04-.07c-6.14-10.36-13.38-22.69-20.48-35.49-1.99-3.58-4.12-4.85-8.14-4.85-.11,0-.22,0-.33,0-6.41,.11-13.37,.17-21.3,.17s-15.33-.05-22.81-.1l-3.69-.02c-7.75-.05-12.67-2.07-15.04-6.18-2.38-4.13-1.66-9.45,2.22-16.25,7.36-12.92,14.98-26.28,23.06-39.52,2.99-4.9,2.95-8.52-.14-13.38-4.78-7.51-9.23-15.35-13.53-22.94Z"/><path class="d" d="M413.45,523.73c.15,.26,.39,.66,.65,1.1,.24-.4,.44-.75,.56-.96,18.06-31.23,36.43-63.17,52.64-91.34,.35-.61,.67-1.29,.99-1.99h-.08c-.18,0-.36,0-.53,0-.2,0-.41,0-.6,0h-.11c-2.8-.01-5.59-.02-8.39-.02-2.65,0-5.29,0-7.94,0-2.65,0-5.3,0-7.95,0-4.71,0-10.94,0-17.26-.08h-.14c-2.76,0-4.24,.89-5.66,3.39-9.87,17.37-18.65,32.62-26.84,46.61-1.68,2.87-1.64,4.95,.16,7.95,4.25,7.1,8.43,14.38,12.47,21.42,2.62,4.57,5.33,9.3,8.04,13.92Z"/><path class="d" d="M687.66,598.31c1.47-2.54,1.22-3.96,.28-5.57-7.69-13.13-15.3-26.4-21.77-37.73-2.18,3.83-4.44,7.67-6.63,11.4-1.55,2.63-3.09,5.26-4.62,7.9-13.75,23.74-27.97,48.29-41.96,72.55-.49,.85-.84,1.51-1.09,2.02,.62,.06,1.47,.11,2.62,.14,2.23,.05,4.63,.08,7.53,.08,2.01,0,4.03-.01,6.04-.02,2.03-.01,4.06-.02,6.09-.02h4v.02h2.04c2.02-.01,4.04-.02,6.07-.02,3.25,0,5.91,.01,8.39,.04h.15c2.62,0,3.98-.77,5.23-2.96,7.56-13.28,15.37-26.71,22.92-39.69l4.72-8.12Z"/></g></svg>