<?xml version="1.0" encoding="UTF-8"?><svg id="a" xmlns="http://www.w3.org/2000/svg" viewBox="0 0 1080 1080"><defs><style>.b{fill:#f4d956;}.c{fill:#6a45ff;}.d{fill:#fff;}.e{fill:#eacd50;}.f{fill:#e5b13c;}.g{fill:#9d85ff;}.h{fill:none;stroke:#b3b3ff;stroke-miterlimit:10;stroke-width:4.31px;}</style></defs><path class="h" d="M863.98,216.03c.45,.05,.93,.13,1.4,.2l-1.6-1.6c.07,.47,.15,.94,.2,1.4ZM216.03,863.98c-.45-.05-.89-.13-1.34-.18l1.52,1.52c-.05-.45-.13-.89-.18-1.34Z"/><g><path class="f" d="M216.03,863.98c.05,.45,.13,.89,.18,1.34,179.32,178.49,469.35,178.23,648.35-.76,178.98-178.98,179.27-469.01,.82-648.33-.47-.07-.94-.15-1.4-.2,23.05,171.9-31.49,352.2-163.62,484.33-132.11,132.11-312.41,186.66-484.33,163.62Z"/><path class="e" d="M863.98,216.03c-.06-.45-.13-.93-.2-1.4-179.32-178.45-469.37-178.18-648.35,.8-179,179-179.23,469.04-.74,648.37,.45,.05,.89,.13,1.34,.18,171.92,23.03,352.22-31.51,484.33-163.62,132.13-132.13,186.67-312.43,163.62-484.33Z"/></g><g><path class="g" d="M529.93,1079.44C232.23,1073.89-5.45,827.34,.1,529.84,5.65,232.33,252.36-5.2,550.07,.35c297.7,5.55,535.39,252.1,529.84,549.6-5.55,297.5-252.27,535.03-549.97,529.49Zm18.49-991c-249.1-4.64-455.21,194.11-460.18,443.04-5.28,264.33,194.24,455.23,443.33,459.87,249.1,4.64,455.97-194.1,460.18-443.04,4.31-254.74-194.24-455.23-443.33-459.87Z"/><path class="c" d="M529.89,1079.9c-246.73-4.6-446.39-158.01-508.65-390.85-6.28-23.5,7.69-47.65,31.21-53.93,23.52-6.29,47.68,7.68,53.97,31.19,62.99,235.59,268.38,322.59,425.12,325.51,17.92,.33,36.03-.33,53.83-1.97,24.23-2.22,45.71,15.59,47.95,39.82,2.24,24.23-15.6,45.68-39.84,47.92-21.03,1.94-42.42,2.72-63.58,2.33Zm499.15-573.67c-20.99-.39-39.31-15.78-42.67-37.22-34.01-216.6-218.19-376.79-437.95-380.88h-.34c-24.19-.46-44.4-20.33-44.14-44.54C504.21,19.25,523.27-.26,547.62,0c.06,0,1.17,.02,1.23,.02,.06,0,1.17,.02,1.23,.02,262.62,4.89,482.74,196.38,523.4,455.32,3.77,24.03-12.67,46.57-36.72,50.35-2.59,.4-5.17,.58-7.71,.53Z"/></g><path class="d" d="M321.95,465.14s-28.65-57.3,1.82-61.85c0,0-6.82-55.48,15.46-43.2,0,0-8.19-92.77,15.92-82.31,0,0,29.56-100.5,104.59-94.59s77.31,76.85,77.31,116.87c0,0,8.78,1.3,2.06,25.67,0,0,9.66-1.26,3.78,14.29-5.88,15.55-11.35,32.78-11.35,32.78l10.93,29.83-220.52,62.51Z"/><path class="b" d="M502.01,264.46c-20.64-60.03-89.42-55.03-118.19,20.64-24.04,63.23-21.44,143.49-19.93,168.16l137.11-38.87c6.04-32.17,16.66-104.37,1-149.93Z"/><path class="d" d="M465.44,424.46c2.12-21.77,5.27-64.46,2.18-102.48-4.38-53.78-45.02-47.52-57.53,6.25-8.44,36.3-9.63,87.91-7.22,113.96l62.57-17.74h0Z"/><path class="d" d="M762.29,465.14s28.65-57.3-1.82-61.85c0,0,6.82-55.48-15.46-43.2,0,0,8.19-92.77-15.92-82.31,0,0-29.56-100.5-104.59-94.59-75.03,5.91-77.31,76.85-77.31,116.87,0,0-8.78,1.3-2.06,25.67,0,0-9.66-1.26-3.78,14.29,5.88,15.55,11.35,32.78,11.35,32.78l-10.93,29.83,220.52,62.51Z"/><path class="b" d="M582.22,264.46c20.64-60.03,89.42-55.03,118.19,20.64,24.04,63.23,21.44,143.49,19.93,168.16l-137.11-38.87c-6.04-32.17-16.66-104.37-1-149.93Z"/><path class="d" d="M618.79,424.46c-2.12-21.77-5.27-64.46-2.18-102.48,4.38-53.78,45.02-47.52,57.53,6.25,8.44,36.3,9.63,87.91,7.22,113.96l-62.57-17.74h0Z"/><path class="d" d="M821.18,588.29c-.87-1.48,.05-3.41,1.7-3.54l.27-.02c1.25-.1,2.16-1.28,2.02-2.6-4.69-43.31-33.14-73.22-44.39-83.49-1.56-1.43-.58-4.13,1.48-4.09,1.05,.02,2.08,.06,3.03,.1,1.82,.08,2.93-2.06,1.9-3.65-27.59-42.7-83.8-64.96-107.95-72.88-2.39-.78-1.88-4.51,.62-4.54,.08,0,.17,0,.25,0,2.2-.03,3.01-3.09,1.13-4.3-44.56-28.53-237.78-28.54-282.44-.03-1.9,1.21-1.13,4.3,1.08,4.33,.08,0,.16,0,.25,0,2.5,.04,3.01,3.76,.62,4.54-24.16,7.92-80.36,30.18-107.95,72.88-1.03,1.59,.09,3.73,1.9,3.65,.95-.04,1.99-.08,3.03-.1,2.06-.04,3.05,2.66,1.48,4.08-11.24,10.27-39.7,40.17-44.39,83.49-.14,1.32,.77,2.5,2.02,2.6l.27,.02c1.65,.13,2.57,2.07,1.7,3.55-6.17,10.44-24,46.07-21.75,106.07,.07,1.78,1.93,2.83,3.36,1.89l.91-.6c1.5-.99,3.44,.2,3.36,2.07-.56,13.34-.57,53.67,17.12,81.13,.75,1.17,2.32,1.35,3.3,.4l1.84-1.79c1.05-1.02,2.72-.73,3.41,.59,3.04,5.85,11.43,20.56,25.62,34.93,17.83,18.06,41.63,28.05,66.31,28.05h355.41c24.22,0,47.66-9.54,65.32-27.08,14.78-14.68,23.49-29.93,26.59-35.91,.69-1.32,2.36-1.61,3.41-.59l1.84,1.79c.99,.96,2.55,.77,3.3-.4,17.7-27.46,17.68-67.79,17.12-81.13-.08-1.87,1.86-3.07,3.36-2.07l.91,.6c1.43,.95,3.3-.1,3.36-1.89,2.24-60-15.59-95.63-21.75-106.07Z"/><path class="b" d="M743.15,570.99c-26.31-44.32-62.57-75.34-107.74-75.34h-184.37c-45.17,0-81.43,31.02-107.74,75.34-13.04,21.96-46.25,88.3-26.14,145.33,2.73,7.75,11.41,11.51,18.11,6.74,.17-.12,.26-.19,.26-.19,0,0,2.97,22.57,17.22,35.04,14.25,12.47,28.51,10.1,28.51,10.1,0,0,27.91,35.04,89.68,35.04l.04,.27h144.5l.04-.27c61.76,0,89.68-35.04,89.68-35.04,0,0,14.25,2.38,28.51-10.1,14.25-12.47,17.22-35.04,17.22-35.04,0,0,.09,.07,.26,.19,6.7,4.76,15.38,1.01,18.11-6.74,20.1-57.03-13.1-123.36-26.14-145.33Z"/><path class="d" d="M730.17,671.53c-.3-.68-1.26-.68-1.55,.01-8.83,21.43-60.93,88.53-187.22,90.58-126.29-2.05-178.39-69.14-187.22-90.58-.28-.69-1.25-.69-1.55-.01-3.17,7.3-13.83,33.89-5.27,43.19s24.84,4.82,29.63,3.28c.6-.19,1.19,.32,1.09,.94-.82,4.79-2.96,20.52,3.07,25.45,6.45,5.28,35.67-2.5,41.29-4.07,.49-.14,.99,.19,1.06,.7,.64,4.89,4.16,26.91,15.69,31.52,11.76,4.71,38.44-11.36,43.38-14.44,.43-.27,.98-.11,1.2,.35,2.07,4.28,11.94,23.34,23.86,24.49,11.98,1.16,29.53-16.32,33.17-20.1,.33-.34,.87-.34,1.21,0,3.64,3.78,21.19,21.26,33.17,20.1,11.91-1.15,21.78-20.21,23.86-24.49,.22-.45,.77-.61,1.2-.35,4.95,3.08,31.62,19.15,43.38,14.44,11.53-4.61,15.05-26.63,15.69-31.52,.07-.51,.56-.84,1.06-.7,5.62,1.56,34.84,9.35,41.29,4.07,6.03-4.93,3.89-20.66,3.07-25.45-.11-.62,.48-1.13,1.09-.94,4.79,1.54,21.18,5.91,29.63-3.28,8.56-9.3-2.1-35.89-5.27-43.19Z"/><ellipse class="d" cx="456.5" cy="649.13" rx="53.38" ry="74.86"/><ellipse class="b" cx="463.23" cy="657.52" rx="41.3" ry="63"/><ellipse class="d" cx="463.23" cy="657.52" rx="21.47" ry="32.75"/><ellipse class="d" cx="629.37" cy="649.13" rx="53.38" ry="74.86"/><ellipse class="b" cx="636.1" cy="657.52" rx="41.3" ry="63"/><ellipse class="d" cx="480.9" cy="553.19" rx="13.27" ry="20.62" transform="translate(-232.49 721.57) rotate(-62.28)"/><ellipse class="d" cx="603.75" cy="553.19" rx="20.62" ry="13.27" transform="translate(-188.03 344.34) rotate(-27.72)"/><path class="d" d="M730.23,666.93h-.02c-1.5-.49-3.12,.33-3.61,1.82-2.88,8.67-16.28,30.51-46.39,51.12-16.5,11.29-35.43,20.33-56.27,26.86-24.97,7.82-52.75,12.03-82.5,12.52-29.82-.49-57.6-4.7-82.57-12.52-20.84-6.53-39.77-15.56-56.27-26.86-30.11-20.61-43.51-42.45-46.4-51.12-.5-1.49-2.12-2.31-3.63-1.82-1.5,.5-2.32,2.13-1.82,3.63,3.09,9.31,17.23,32.58,48.6,54.05,16.97,11.61,36.42,20.9,57.8,27.6,25.39,7.95,53.58,12.25,83.8,12.77h.91c30.21-.52,58.41-4.82,83.79-12.77,21.38-6.7,40.83-15.98,57.8-27.6,31.37-21.47,45.51-44.74,48.6-54.05,.5-1.5-.32-3.13-1.82-3.63Z"/><ellipse class="d" cx="636.1" cy="657.52" rx="21.47" ry="32.75"/><path class="d" d="M538.87,698.57c-7.16-4.91-12.68-10.56-16.65-16.91-2.7-4.32-.21-10.02,4.8-10.92,10.71-1.94,21.34-2.01,31.89-.14,5.12,.91,7.61,6.81,4.7,11.12-4.18,6.21-9.68,11.73-16.28,16.67-2.49,1.86-5.89,1.95-8.46,.19Z"/></svg>