<?xml version="1.0" encoding="UTF-8"?><svg id="a" xmlns="http://www.w3.org/2000/svg" viewBox="0 0 1080 1080"><defs><style>.b,.c{fill:#6a45ff;}.d{fill:#fff;}.e{fill:#9d85ff;}.f{fill:#4b1fff;stroke:#4b1fff;}.f,.c,.g{stroke-miterlimit:10;}.f,.g{stroke-width:4.31px;}.c{stroke:#6a45ff;}.g{fill:none;stroke:#b3b3ff;}</style></defs><g><path class="g" d="M863.98,216.03c.45,.05,.93,.13,1.4,.2l-1.6-1.6c.07,.47,.15,.94,.2,1.4ZM216.03,863.98c-.45-.05-.89-.13-1.34-.18l1.52,1.52c-.05-.45-.13-.89-.18-1.34Z"/><path class="f" d="M216.03,863.98c.05,.45,.13,.89,.18,1.34,179.32,178.49,469.35,178.23,648.35-.76,178.98-178.98,179.27-469.01,.82-648.33-.47-.07-.94-.15-1.4-.2,23.05,171.9-31.49,352.2-163.62,484.33-132.11,132.11-312.41,186.66-484.33,163.62Z"/><path class="c" d="M863.98,216.03c-.06-.45-.13-.93-.2-1.4-179.32-178.45-469.37-178.18-648.35,.8-179,179-179.23,469.04-.74,648.37,.45,.05,.89,.13,1.34,.18,171.92,23.03,352.22-31.51,484.33-163.62,132.13-132.13,186.67-312.43,163.62-484.33Z"/></g><g><path class="e" d="M529.93,1079.44C232.23,1073.89-5.45,827.34,.1,529.84,5.65,232.33,252.36-5.2,550.07,.35s535.39,252.1,529.84,549.6c-5.55,297.5-252.27,535.03-549.97,529.49Zm18.49-991c-249.1-4.64-455.21,194.11-460.18,443.04-5.28,264.33,194.24,455.23,443.33,459.87,249.1,4.64,455.97-194.1,460.18-443.04,4.31-254.74-194.24-455.23-443.33-459.87Z"/><path class="b" d="M529.89,1079.9c-246.73-4.6-446.39-158.01-508.65-390.85-6.28-23.5,7.69-47.65,31.21-53.93,23.52-6.29,47.68,7.68,53.97,31.19,62.99,235.59,268.38,322.59,425.12,325.51,17.92,.33,36.03-.33,53.83-1.97,24.23-2.22,45.71,15.59,47.95,39.82,2.24,24.23-15.6,45.68-39.84,47.92-21.03,1.94-42.42,2.72-63.58,2.33Zm499.15-573.67c-20.99-.39-39.31-15.78-42.67-37.22-34.01-216.6-218.19-376.79-437.95-380.88h-.34c-24.19-.46-44.4-20.33-44.14-44.54C504.21,19.25,523.27-.26,547.62,0c.06,0,1.17,.02,1.23,.02,.06,0,1.17,.02,1.23,.02,262.62,4.89,482.74,196.38,523.4,455.32,3.77,24.03-12.67,46.57-36.72,50.35-2.59,.4-5.17,.58-7.71,.53Z"/></g><path class="d" d="M808.7,726.06c9.5-37.97-.07-77.73-26.26-109.07-15.88-19-37.59-30.12-58.47-39.89-2.24-1.05-3.51-3.47-3.09-5.91,.42-2.44,2.42-4.3,4.88-4.54,10.08-.99,20.08-1.14,29.76-1.28,6.44-.09,13.11-.19,19.58-.55,13.89-.76,19.16-8.12,18.8-26.24-.32-16.38-5.92-23.15-19.31-23.36-12.66-.2-25.18-.16-39.68-.11-6.77,.02-13.9,.05-21.57,.05-2.67,0-4.96-1.92-5.42-4.55-.46-2.63,1.04-5.21,3.55-6.12,3.88-1.4,7.14-2.56,10-3.57,5.15-1.83,8.86-3.14,12.55-4.58,34.88-13.62,61.3-41.05,72.5-75.26,11.18-34.14,6.11-71.79-13.9-103.29-23.65-37.24-65.86-60.91-112.92-63.32-47.59-2.44-92.69,17.24-120.63,52.65-6.52,8.26-12.25,13.79-19.01,13.89-.07,0-.13,0-.2,0-7.06,0-12.28-5.59-19.41-14.09-32.24-38.45-74.7-55.97-126.21-52.06-41.51,3.15-78.9,23.66-102.6,56.28-21.74,29.91-29.04,65.64-20.56,100.59,11.14,45.92,41.88,75.29,96.75,92.46,2.59,.81,4.21,3.39,3.79,6.08-.41,2.69-2.72,4.67-5.44,4.67h-12.3c-6.77,0-11.83,0-16.88,0-2.62,0-5.26-.01-7.88-.03-5.9-.04-12.01-.07-17.94,.13-20.3,.69-23.62,4.2-23.66,24.98-.02,10.83,1.23,16.79,4.19,19.93,2.97,3.17,8.82,4.71,19.55,5.18,9.27,.4,18.78,.3,27.99,.2,4.19-.04,8.52-.09,12.79-.09,2.69,0,4.98,1.94,5.42,4.59l.65,3.86c.43,2.55-.98,5.06-3.38,6.02-1.48,.59-2.97,1.17-4.46,1.75-3.05,1.19-6.21,2.42-9.19,3.73-31.8,13.99-55.47,39.02-66.67,70.47-11.15,31.33-8.65,65.51,7.06,96.25,20.54,40.21,61.47,67.28,109.48,72.42,5.58,.6,11.15,.89,16.66,.89,44.06,0,85.18-18.8,112.37-52.06,6.05-7.4,12.12-14.04,19.88-14.07h.06c7.6,0,13.96,6.37,19.7,13.26,21.05,25.26,48,42.4,77.93,49.58,29.65,7.11,61.54,4.3,92.23-8.11,40.26-16.28,69.02-48.26,78.89-87.73Zm-250.82-344.81c8.77-46.31,37.35-77.68,82.63-90.74,44.52-12.83,85.21-.98,117.67,34.28,14.93,16.22,22.88,37.43,22.37,59.73-.5,22.09-9.23,43.43-24.59,60.08-14.31,15.51-35.55,25.43-58.28,27.22-22.73,1.79-45.27-4.69-61.85-17.77-26.9-21.23-33.39-61.11-14.17-87.09,19.57-26.45,55.86-32.92,82.63-14.73,11.44,7.78,17.67,18,17.53,28.77-.11,8.78-4.42,21.93-24.28,34.7-2.27,1.46-5.26,1.06-7.06-.95-1.8-2.01-1.89-5.02-.19-7.13,13.26-16.47,11.77-23.89,5.08-30.52-10.27-10.16-22.48-12.76-36.3-7.72-14.89,5.43-22.98,15.72-24.05,30.57-.81,11.31,4,22.65,13.56,31.93,12.03,11.68,29.14,17.65,45.77,15.98,27.87-2.82,46.86-16.83,56.44-41.66,9.27-24.04,4.81-46.51-13.25-66.8-15.46-17.37-37.31-27.67-61.52-29-24.21-1.33-47.64,6.46-65.96,21.95-37.02,31.31-42.46,88.46-12.13,127.4,13.86,17.8,24.12,24.75,64.56,43.72,2.28,1.07,3.54,3.56,3.06,6.03-.48,2.47-2.58,4.3-5.1,4.44-1.72,.09-3.43,.14-5.14,.14-27.4,0-53.43-11.95-72.09-33.26-23.09-26.39-32.33-62.69-25.34-99.59Zm-236.62,59.97c-14.18-16.19-21.84-37.17-21.56-59.08,.27-21.89,8.44-42.88,23-59.11,14.82-16.52,34.66-28.13,57.39-33.58,22.67-5.43,46.12-4.22,67.81,3.5,20.5,7.29,38.55,20.78,52.2,39.01,13.54,18.08,21.48,39.08,22.95,60.72,3.51,51.77-17,90.42-60.97,114.89-9.69,5.39-19.81,7.24-31.59,7.24-5.23,0-10.8-.36-16.8-.95-2.62-.25-4.7-2.33-4.95-4.96s1.4-5.05,3.93-5.79c42.95-12.57,68.1-32.62,81.57-65.01,8.29-19.94,9.65-41.09,3.94-61.17-5.72-20.11-18.01-37.3-35.55-49.71-16.77-11.87-37.34-17.87-57.95-16.89-20.59,.98-40.4,8.89-55.79,22.28-14.47,12.59-23.15,30.57-23.81,49.33-.63,17.81,5.8,34.43,18.1,46.77,12.37,12.42,29.68,19.37,47.47,19.01,17.13-.33,32.66-7.1,43.72-19.08,8.11-8.79,11.88-20.34,10.33-31.7-1.39-10.21-6.85-18.74-15.37-24.01-12.08-7.48-24.88-7.92-38.05-1.31-11.03,5.54-14.45,14.35-11.43,29.47,.48,2.43-.72,4.88-2.93,5.99-2.22,1.11-4.9,.6-6.56-1.25-9.38-10.46-13.41-20.62-12-30.21,1.38-9.34,7.83-17.58,19.18-24.49,13.45-8.19,29.37-10.87,44.82-7.56,15.48,3.32,28.75,12.28,37.37,25.23,18.94,28.48,10.43,66.95-19.37,87.59-18.09,12.52-40.2,17.87-62.27,15.05-22.05-2.81-42.24-13.55-56.85-30.23Zm167.12,320.08c-22.19,21.43-51.24,32.28-80.48,32.28-25.88,0-51.9-8.5-73.46-25.71-20.14-16.07-32.4-38.81-34.53-64.05-2.08-24.72,5.9-48.56,22.48-67.12,15.92-17.81,38.97-28.61,63.24-29.61,23.95-.99,46.4,7.24,63.19,23.17,21.41,20.3,27.29,52.29,13.99,76.05-13.89,24.83-43.4,36.49-71.75,28.38-18.38-5.26-29.86-16.67-33.19-32.99-3.03-14.85,2.76-26.52,16.28-32.86,1.85-.87,4.04-.64,5.67,.6,1.63,1.24,2.44,3.28,2.09,5.3-3.78,22.21,.17,30.7,16.89,36.35,15.34,5.19,33.29-2.09,41.75-16.93,8.35-14.64,4.53-34.53-8.88-46.25-13.04-11.41-29.87-17-47.36-15.73-17.33,1.25-32.97,9.07-44.05,22.02-11.23,13.12-16.52,30.09-14.9,47.79,1.67,18.24,10.79,35.31,25.02,46.84,17.07,13.83,38.48,21.15,60.29,20.69,21.84-.49,43.26-8.81,60.31-23.44,15.43-13.23,25.76-32.35,29.1-53.83,3.34-21.53-.63-43.56-11.18-62.04-13.16-23.04-33.7-39.66-64.65-52.29-2.33-.95-3.71-3.35-3.37-5.84,.34-2.49,2.33-4.43,4.83-4.71,29.41-3.35,54.23,9.09,75.88,38.01,34.89,46.6,29.09,115.08-13.2,155.91Zm52.24-190.43c-.32,0-.63,0-.95,0-12,0-23.97-4.71-31.42-12.42-5.31-5.5-8.04-12.24-7.67-18.98,1.55-28.19,28.39-29.44,37.21-29.85,23.59-1.08,40.14,10.44,41.19,28.71,.43,7.4-2.14,14.34-7.44,20.07-7.08,7.66-18.36,12.2-30.93,12.46Zm211.87,190.35c-23.15,21.64-49.67,32.6-78.19,32.6-14.29,0-29.08-2.75-44.21-8.28-42.54-15.56-67.88-48.71-73.27-95.89-5.55-48.5,12.8-86.89,54.55-114.11,13.96-9.1,27.92-11.57,46.69-8.28,2.41,.42,4.24,2.38,4.51,4.81,.27,2.43-1.09,4.74-3.35,5.68-46.41,19.39-61,38.15-69.85,55.54-22.42,44.03-9.77,93.82,30.75,121.09,14.94,10.05,32.67,14.92,50.33,14.92,25.25,0,50.37-9.93,67.11-28.82,24.29-27.41,23.5-65.25-1.88-89.99-24.87-24.23-64.39-24.92-88.11-1.54-13.4,13.21-16.46,27.72-9.09,43.11,7.41,15.47,20.1,22.48,36.7,20.25,10.6-1.42,17.72-5,21.17-10.65,3.56-5.82,3.45-14.16-.31-24.8-.74-2.11-.14-4.45,1.53-5.94,1.67-1.49,4.07-1.82,6.07-.84,10.97,5.35,17.83,14.32,18.84,24.61,1.09,11.21-4.73,22.53-15.99,31.07-23.12,17.53-60.07,14.08-80.7-7.53-10.4-10.9-15.94-25.66-15.59-41.58,.34-15.78,6.44-30.98,17.17-42.8,15.16-16.7,36.53-26.26,60.17-26.9,24.72-.65,48.89,8.82,66.31,26.04,17.5,17.3,26.96,40.36,26.61,64.92-.34,24.26-10.28,46.73-27.99,63.29Z"/></svg>