<?xml version="1.0" encoding="UTF-8"?><svg id="a" xmlns="http://www.w3.org/2000/svg" viewBox="0 0 1080 1080"><defs><style>.b{fill:#6a45ff;}.c{fill:#9d85ff;}.d{fill:#40c0bd;}.e{fill:#9fe2e0;stroke:#9fe2e0;}.e,.f,.g{stroke-miterlimit:10;}.f{fill:#79d8d3;stroke:#79d8d3;}.g{fill:none;stroke:#b3b3ff;stroke-width:4.31px;}</style></defs><g><g><path class="g" d="M863.98,216.03c.45,.05,.93,.13,1.4,.2l-1.6-1.6c.07,.47,.15,.94,.2,1.4ZM216.03,863.98c-.45-.05-.89-.13-1.34-.18l1.52,1.52c-.05-.45-.13-.89-.18-1.34Z"/><path class="f" d="M216.03,863.98c.05,.45,.13,.89,.18,1.34,179.32,178.49,469.35,178.23,648.35-.76,178.98-178.98,179.27-469.01,.82-648.33-.47-.07-.94-.15-1.4-.2,23.05,171.9-31.49,352.2-163.62,484.33-132.11,132.11-312.41,186.66-484.33,163.62Z"/><path class="e" d="M863.98,216.03c-.06-.45-.13-.93-.2-1.4-179.32-178.45-469.37-178.18-648.35,.8-179,179-179.23,469.04-.74,648.37,.45,.05,.89,.13,1.34,.18,171.92,23.03,352.22-31.51,484.33-163.62,132.13-132.13,186.67-312.43,163.62-484.33Z"/></g><path class="d" d="M540,200.33c-187.59,0-339.67,152.07-339.67,339.67s152.07,339.67,339.67,339.67,339.67-152.07,339.67-339.67-152.07-339.67-339.67-339.67Zm61.78,598.59c-.16,30.44-13.53,37.73-40.76,22.22-62.72-35.71-105.22-57.69-168.1-93.1-20.98-11.82-29.85-27.82-29.57-51.78,.84-69.42,1.09-138.86,.05-208.28-.37-24.74,7.45-42.39,29.39-53.49l220.89-131.49c7.35-4.37,16.85-1.96,21.23,5.39l.32,.55c4.37,7.35,1.96,16.85-5.39,21.23l-191.24,113.84c-8.26,5.22-16.06,10.1-23.19,14.46-8.09,4.95-8.14,16.69-.1,21.72,4.07,2.55,7.59,4.71,11.16,6.78,56.04,32.48,92.33,55.28,148.72,87.14,17.83,10.08,26.97,22.65,26.71,44.16-.82,68.49,.23,132.15-.12,200.65Zm111.83-279.95l-.42,92.13c-.43,7.14-7.8,11.69-14.38,8.88l-5.72-2.44c-4.28-1.83-9.26-.57-12.16,3.08l-16.57,20.88c-6.16,7.76-18.66,3.24-18.43-6.66l1.78-76.88c0-2.76,0-5.48,.01-8.25,.04-9.65-4.98-18.61-13.23-23.61-21.6-13.1-76.62-45.38-102.5-60.53-6.4-3.75-6.66-12.89-.48-17,33.19-22.07,119.16-79.09,153.08-100.35,12.06-7.56,27.75,1.01,27.9,15.24,.22,21.07,.43,96.24,.57,151.48,.43,1.24,.63,2.59,.55,4.03Z"/></g><g><path class="c" d="M529.93,1079.44C232.23,1073.89-5.45,827.34,.1,529.84,5.65,232.33,252.36-5.2,550.07,.35c297.7,5.55,535.39,252.1,529.84,549.6-5.55,297.5-252.27,535.03-549.97,529.49Zm18.49-991c-249.1-4.64-455.21,194.11-460.18,443.04-5.28,264.33,194.24,455.23,443.33,459.87,249.1,4.64,455.97-194.1,460.18-443.04,4.31-254.74-194.24-455.23-443.33-459.87Z"/><path class="b" d="M529.89,1079.9c-246.73-4.6-446.39-158.01-508.65-390.85-6.28-23.5,7.69-47.65,31.21-53.93,23.52-6.29,47.68,7.68,53.97,31.19,62.99,235.59,268.38,322.59,425.12,325.51,17.92,.33,36.03-.33,53.83-1.97,24.23-2.22,45.71,15.59,47.95,39.82,2.24,24.23-15.6,45.68-39.84,47.92-21.03,1.94-42.42,2.72-63.58,2.33Zm499.15-573.67c-20.99-.39-39.31-15.78-42.67-37.22-34.01-216.6-218.19-376.79-437.95-380.88h-.34c-24.19-.46-44.4-20.33-44.14-44.54C504.21,19.25,523.27-.26,547.62,0c.06,0,1.17,.02,1.23,.02,.06,0,1.17,.02,1.23,.02,262.62,4.89,482.74,196.38,523.4,455.32,3.77,24.03-12.67,46.57-36.72,50.35-2.59,.4-5.17,.58-7.71,.53Z"/></g></svg>