<?xml version="1.0" encoding="UTF-8"?><svg id="a" xmlns="http://www.w3.org/2000/svg" xmlns:xlink="http://www.w3.org/1999/xlink" viewBox="0 0 1080 1080"><defs><style>.c{fill:#fff;}.d{fill:#ffbe2c;}.e{fill:#9b0025;}.f{fill:#204080;}.g{clip-path:url(#b);}</style><clipPath id="b"><ellipse class="d" cx="540" cy="540" rx="539.89" ry="539.83"/></clipPath></defs><g><ellipse class="d" cx="540" cy="540" rx="539.89" ry="539.83"/><g class="g"><ellipse class="e" cx="540" cy="540" rx="539.89" ry="539.83"/><path class="f" d="M894.81,133.1C771.25,25.54,600.41-24.7,427.81,11.96,136.15,73.91-50.06,360.54,11.9,652.17c11.33,53.32,30.2,103.1,55.21,148.5,511.02-207.74,736.71-503.51,827.71-667.57Z"/></g></g><path class="c" d="M781.81,216.09c-6.94-.92-13.88-1.34-20.96-1.39-92.88-.61-157.31,59.83-183.44,112.8-.64,1.3-.11,2.9,1.2,3.54,15.96,7.92,29.38,21.24,40.51,39.85,2.97,4.97-.61,11.25-6.47,11.25h-145.08c-5.85,0-9.48-6.28-6.49-11.22,11.9-19.64,26.16-33.42,43.08-41.16,1.3-.59,1.88-2.13,1.32-3.44-27.95-65.41-109.39-111.72-186.49-111.73-6.79,0-12.85,.59-20.45,1.53-20.6,2.57-36.14,20.16-36.14,40.92l-.07,443.09c1.34,91.2,76.26,165.39,167.01,165.39,40.59,0,78.96-14.64,108.73-40.48,1.01-.88,2.5-.88,3.51,0,29.77,25.84,68.15,40.48,108.74,40.48,90.8,0,165.69-74.26,166.94-165.96l.42-442.53c.03-20.67-15.4-38.28-35.86-40.95Zm-465.55,228.22h133.97c1.45,0,2.63-1.15,2.67-2.6l1.13-43.16c.04-1.45,1.22-2.6,2.67-2.6h165.78c1.48,0,2.67,1.2,2.67,2.67v42.04c0,1.48,1.2,2.67,2.67,2.67h135.46c5.7,0,10.32,4.62,10.32,10.32v15.94c0,5.7-4.62,10.32-10.32,10.32H316.26c-5.7,0-10.32-4.62-10.32-10.32v-14.96c0-5.7,4.62-10.32,10.32-10.32Zm455.12,248.76h-15.52c-1.48,0-2.67-1.2-2.67-2.67v-84.17c0-1.48-1.2-2.67-2.67-2.67h-36.56c-1.48,0-2.67,1.2-2.67,2.67v84.17c0,1.48-1.2,2.67-2.67,2.67h-16.85l-2.68-2.67c-.08-41.4,.24-82.8-.28-124.19-.24-19.44-10.87-32.96-26.04-35.85-14.9-2.84-29.8,6.13-34.57,21.98-1.94,6.44-2.25,13.74-2.29,20.65-.21,39.14-.1,78.27-.11,117.41h0c0,1.48-1.2,2.67-2.67,2.67h-48.79c-1.48,0-2.67-1.2-2.67-2.68,0-30.54,0-60.58,0-90.6,0-10.51,.2-21.04-.07-31.54-.58-22.66-12.71-37.81-30.43-38.41-18.54-.62-32.4,14.42-32.71,37.59-.54,40.97-.69,81.97,0,122.93,.03,1.49-1.17,2.71-2.67,2.71h-48.59c-1.47,0-2.68-1.21-2.68-2.68,0-36.53,0-71.63-.01-106.72,0-7.01,.33-14.07-.33-21.01-1.81-19.08-14.44-32.38-30.61-32.85-16.15-.48-29.71,12.05-32.04,30.94-1.2,9.75-.64,19.81-.65,29.73-.05,33.06-.03,66.13-.02,99.91,0,1.48-1.2,2.68-2.67,2.68h-16.61c-1.48,0-2.67-1.2-2.67-2.67v-84.63c0-1.48-1.2-2.67-2.67-2.67h-36.1c-1.48,0-2.67,1.2-2.67,2.67v84.63c0,1.48-1.2,2.67-2.67,2.67h-16.16c-1.48,0-2.67-1.2-2.67-2.67v-183.89c0-6.98,5.66-12.64,12.64-12.64h442.8c6.98,0,12.64,5.66,12.64,12.64v183.89c0,1.48-1.2,2.67-2.67,2.67Z"/></svg>