<?xml version="1.0" encoding="UTF-8"?><svg id="a" xmlns="http://www.w3.org/2000/svg" xmlns:xlink="http://www.w3.org/1999/xlink" viewBox="0 0 1080 1080"><defs><style>.c{fill:#0038a8;}.d{fill:#fff;}.e{fill:#ffbe2c;}.f{fill:#ce1126;}.g{clip-path:url(#b);}</style><clipPath id="b"><ellipse class="e" cx="540" cy="540" rx="539.89" ry="539.83"/></clipPath></defs><g><ellipse class="e" cx="540" cy="540" rx="539.89" ry="539.83"/><g class="g"><ellipse class="f" cx="540" cy="540" rx="539.89" ry="539.83"/><path class="c" d="M894.81,133.1C771.25,25.54,600.41-24.7,427.81,11.96,136.15,73.91-50.06,360.54,11.9,652.17c11.33,53.32,30.2,103.1,55.21,148.5,511.02-207.74,736.71-503.51,827.71-667.57Z"/></g></g><g><path class="d" d="M553.85,565.35c-7.67,.2-15.35,.02-23.02,.03-11.76,.01-12.57,.09-11.6,11.76,1.75,21.09-3.25,40.56-10.93,59.91-8.4,21.12-15.78,42.65-23.54,64.03-3.73,10.26-3.66,10.29,6.89,10.29,16.17,0,32.34,0,48.51-.01,17.27,0,34.54-.13,51.8,.07,5.56,.06,6.66-1.71,4.7-6.81-4.52-11.76-8.89-23.59-12.92-35.53-10.59-31.4-27.6-61.3-22.78-96.36,.71-5.19-1.79-7.52-7.11-7.38Z"/><path class="d" d="M598.92,570.58c-.17-5.18-3.95-5.46-7.59-5.11-4.18,.41-11.07-2.43-11.3,4.48-.45,13.84-2.73,27.94,2.18,41.52,10.9,30.12,22.11,60.13,32.67,90.37,2.6,7.43,5.98,11.49,12.87,9.51,13.21,.03,13.32-.02,9.07-10.77-7.96-20.11-15.42-40.45-24.27-60.17-9.55-21.31-16.32-42.88-13.58-66.55,.12-1.08-.03-2.19-.07-3.28Z"/><path class="d" d="M441.64,704.64c-.79,1.99-3.48,4.4-.2,6.43,6.36,3.94,20.57-1.11,23.11-8.07,10.16-27.84,20.18-55.73,30.54-83.5,3.89-10.43,6.78-20.87,5.39-30.37,0-6.14-.29-10.55,.07-14.92,.57-6.97-2.64-8.83-9.22-9.03-7.77-.25-11.24,2.16-10.35,10.25,2.3,21.04-2.74,40.52-11.31,59.74-10.17,22.79-18.82,46.25-28.03,69.47Z"/><path class="d" d="M781.81,216.09c-6.94-.92-13.88-1.34-20.96-1.39-92.88-.61-162.34,59.83-188.47,112.8-.06,.13,.02,43.4,.81,64.92,1.34,36.7,2.52,73.41,3.77,110.12,4.72-8.13,10.33-13.68,20.63-11.64,4.08,.81,7.39,2.49,8.35,6.8,1.03,4.59-.88,8.02-5,10.21-1.21,.64-2.5,1.14-3.7,1.8-1.49,.82-2.96,1.98-2.73,3.77,.29,2.17,2.38,1.73,3.93,1.95,13.68,1.89,14.54,3.87,11.23,16.54-1.4,5.35-1.2,11.9,3.57,16.42,3.3,3.13,4.96,6.78,4.35,11.01-5.23,36.04,8.56,67.73,22.25,99.55,7.37,17.13,14,34.57,20.93,51.89,5.48,13.7,2.18,18.85-12.89,18.9-47.19,.17-94.38,.08-141.57,.09-23.32,0-46.64,0-69.96-.02-2.19,0-4.4,.04-6.58-.1-12.32-.79-15.62-5.82-11.06-17.28,9.82-24.73,18.73-49.89,29.96-73.96,11.22-24.06,16-48.65,13.8-74.9-.51-6.07,.51-11.34,5.33-16.45,3.48-3.69,4.43-10.32,2.47-15.9-3.76-10.7-1.38-14.81,9.66-15.78,2.04-.18,5,.91,5.69-1.86,.61-2.46-1.68-3.81-3.85-4.59-4.79-1.71-8.28-4.45-7.82-10.13,.33-4.06,2.82-6.73,6.6-7.46,5.67-1.1,11.65-1.99,16.05,3.19,2.1,2.47,3.58,5.46,5.33,8.18,1.81-.04,1.4-1.41,1.43-2.31,1.24-38.91,2.34-77.83,3.69-116.74,.64-18.37,.48-55.29,.43-55.42-27.95-65.41-111.37-113.69-188.47-113.7-6.79,0-12.85,.59-20.45,1.53-20.6,2.57-36.14,20.16-36.14,40.92l-.07,443.09c1.34,91.2,76.26,165.39,167.01,165.39,40.59,0,78.96-14.64,108.73-40.48,1.01-.88,2.5-.88,3.51,0,29.77,25.84,68.15,40.48,108.74,40.48,90.8,0,165.69-74.26,166.94-165.96l.42-442.53c.03-20.67-15.4-38.28-35.86-40.95Z"/><path class="d" d="M527.14,335.95c-2.05,64.4-4.47,128.8-6.48,193.2-.63,20.1-2.42,17.42,17.25,17.56,21.79,.16,21.79,.06,21.54-19.81-2.22-62.03-4.39-122.31-6.52-182.59-.37-10.44,.86-14.22-2.92-15.6-6.44,.14-13.47,.23-19.92,.25-1.94,1.16-2.84,3.33-2.95,6.99Z"/></g><path class="d" d="M535.66,274.86l-23.07,26.2c-3.29,3.74-.64,9.61,4.34,9.61h46.14c4.98,0,7.63-5.87,4.34-9.61l-23.07-26.2c-2.3-2.62-6.38-2.62-8.68,0Z"/></svg>