<?xml version="1.0" encoding="UTF-8"?><svg id="a" xmlns="http://www.w3.org/2000/svg" viewBox="0 0 1080 1080"><defs><style>.b{fill:#6a45ff;}.c{fill:#9d85ff;}.d{fill:#8a2be2;stroke:#8a2be2;}.d,.e,.f{stroke-miterlimit:10;}.d,.f{stroke-width:4.31px;}.e{fill:#b57edc;stroke:#b57edc;}.g{fill:#fff;fill-rule:evenodd;}.f{fill:none;stroke:#b3b3ff;}</style></defs><g><g><path class="f" d="M863.98,216.03c.45,.05,.93,.13,1.4,.2l-1.6-1.6c.07,.47,.15,.94,.2,1.4ZM216.03,863.98c-.45-.05-.89-.13-1.34-.18l1.52,1.52c-.05-.45-.13-.89-.18-1.34Z"/><path class="d" d="M216.03,863.98c.05,.45,.13,.89,.18,1.34,179.32,178.49,469.35,178.23,648.35-.76,178.98-178.98,179.27-469.01,.82-648.33-.47-.07-.94-.15-1.4-.2,23.05,171.9-31.49,352.2-163.62,484.33-132.11,132.11-312.41,186.66-484.33,163.62Z"/><path class="e" d="M863.98,216.03c-.06-.45-.13-.93-.2-1.4-179.32-178.45-469.37-178.18-648.35,.8-179,179-179.23,469.04-.74,648.37,.45,.05,.89,.13,1.34,.18,171.92,23.03,352.22-31.51,484.33-163.62,132.13-132.13,186.67-312.43,163.62-484.33Z"/></g><path class="g" d="M421.91,282.64c-1.72-1.89-4.36-2.7-6.84-2.09-15.46,3.77-23.76,6.34-31.16,10.19-11.98,6.26-21.97,15.34-31.15,23.76-18.28,16.73-33.33,35.27-42.43,59.75-2.61,7.04-3.65,14.71-3.61,22.22,.12,18.58,11.14,31.58,20.01,49.2,11.94,23.78,22.96,48.44,29.57,74.16,1.33,5.13,3.01,10.86,4.21,17.18,2.28,11.79,1.45,21.29,.89,33.03l-9.75,204.68c-.18,3.88,2.85,7.16,6.73,7.28,4.35,.14,8.29,.26,12.71,.4,3.79,.12,6.98-2.8,7.17-6.59,2.33-46.76,9.91-228.71,17.91-245.19,4.57-9.4,12.49-11.95,22.29-11.4,7.23,.43,13.53,3.38,19.09,7.69,24.18,18.84,32.58,50.74,41.76,78.27,8.18,24.54,15.07,48.71,21.97,76.8,5.17,21.05,11.78,41.97,22.04,60.29,9.47,16.88,22.05,31.58,39.52,42.12,12.58,7.59,26.97,12.26,43.92,14.48,43.22,5.67,85-5.24,128.43-13.85,.14-.03,.28-.06,.41-.1,19.12-5.12,36.68-9.52,55.47-15.56,1.96-.63,3.57-2.13,4.35-4.03,2.99-7.31,2.94-8.31,2.84-17.39,0-.84,.14-1.72,.43-2.5,1.76-4.83,3.3-9.28,4.73-13.71,9.76-30.4,8.6-63.2-20.15-83.04-17.72-12.21-46.7-15.48-68.26-19.65-9.59-2.38-19.16-4.73-28.74-7.09l-17.09-.09c-8.85,2.07-17.68,4.08-26.56,6.05-.26,.06-.53,.1-.8,.13-5.63,.6-10.82,1.18-16.16,1.45-3.14,.17-6.34,.22-9.69,.11-10.86-.34-10.53-.76-16.63-6.84l-14.64-19.68c-16.21-30.48-31.67-60.43-46.87-91.42-7.44-16.4-14.85-32.81-22.27-49.23-5.16-10.99-10.32-22-15.47-32.99-13.95-29.27-27.54-58.31-40.82-87.87-.09-.2-.19-.39-.29-.58-4.56-7.99-9.1-15.95-13.66-23.93-5.52-9.98-8.89-16.08-13.34-22.25-2.71-3.74-5.82-7.5-10.08-12.16Z"/></g><g><path class="c" d="M529.93,1079.44C232.23,1073.89-5.45,827.34,.1,529.84,5.65,232.33,252.36-5.2,550.07,.35s535.39,252.1,529.84,549.6c-5.55,297.5-252.27,535.03-549.97,529.49Zm18.49-991c-249.1-4.64-455.21,194.11-460.18,443.04-5.28,264.33,194.24,455.23,443.33,459.87,249.1,4.64,455.97-194.1,460.18-443.04,4.31-254.74-194.24-455.23-443.33-459.87Z"/><path class="b" d="M529.89,1079.9c-246.73-4.6-446.39-158.01-508.65-390.85-6.28-23.5,7.69-47.65,31.21-53.93,23.52-6.29,47.68,7.68,53.97,31.19,62.99,235.59,268.38,322.59,425.12,325.51,17.92,.33,36.03-.33,53.83-1.97,24.23-2.22,45.71,15.59,47.95,39.82,2.24,24.23-15.6,45.68-39.84,47.92-21.03,1.94-42.42,2.72-63.58,2.33Zm499.15-573.67c-20.99-.39-39.31-15.78-42.67-37.22-34.01-216.6-218.19-376.79-437.95-380.88h-.34c-24.19-.46-44.4-20.33-44.14-44.54C504.21,19.25,523.27-.26,547.62,0c.06,0,1.17,.02,1.23,.02,.06,0,1.17,.02,1.23,.02,262.62,4.89,482.74,196.38,523.4,455.32,3.77,24.03-12.67,46.57-36.72,50.35-2.59,.4-5.17,.58-7.71,.53Z"/></g></svg>