<?xml version="1.0" encoding="UTF-8"?><svg id="a" xmlns="http://www.w3.org/2000/svg" viewBox="0 0 1080 1080"><defs><style>.b{fill:#6a45ff;}.c{fill:#fff;}.d{fill:#9d85ff;}.e,.f{fill:#2fadeb;}.f{stroke:#2fadeb;}.f,.g,.h{stroke-miterlimit:10;}.f,.h{stroke-width:4.31px;}.g{fill:#52b9eb;stroke:#52b9eb;}.h{fill:none;stroke:#b3b3ff;}</style></defs><g><g><path class="h" d="M863.98,216.03c.45,.05,.93,.13,1.4,.2l-1.6-1.6c.07,.47,.15,.94,.2,1.4ZM216.03,863.98c-.45-.05-.89-.13-1.34-.18l1.52,1.52c-.05-.45-.13-.89-.18-1.34Z"/><path class="f" d="M216.03,863.98c.05,.45,.13,.89,.18,1.34,179.32,178.49,469.35,178.23,648.35-.76,178.98-178.98,179.27-469.01,.82-648.33-.47-.07-.94-.15-1.4-.2,23.05,171.9-31.49,352.2-163.62,484.33-132.11,132.11-312.41,186.66-484.33,163.62Z"/><path class="g" d="M863.98,216.03c-.06-.45-.13-.93-.2-1.4-179.32-178.45-469.37-178.18-648.35,.8-179,179-179.23,469.04-.74,648.37,.45,.05,.89,.13,1.34,.18,171.92,23.03,352.22-31.51,484.33-163.62,132.13-132.13,186.67-312.43,163.62-484.33Z"/></g><g><rect class="c" x="311.28" y="470.98" width="493.16" height="317.21" rx="20.37" ry="20.37"/><g><path class="c" d="M775.83,309.06c1.26,0,2.76,.91,3.05,2.6l10.1,59.3c.18,1.05-.19,1.85-.53,2.33-.34,.48-.97,1.09-2.02,1.27l-446,75.99c-.19,.03-.37,.05-.55,.05-1.26,0-2.76-.91-3.05-2.6l-10.1-59.3c-.29-1.7,.86-3.31,2.55-3.6l446-75.99c.19-.03,.37-.05,.55-.05m0-17.25c-1.14,0-2.29,.1-3.44,.29l-446,75.99c-11.09,1.89-18.55,12.41-16.66,23.5l10.1,59.3c1.69,9.93,10.31,16.95,20.05,16.95,1.14,0,2.29-.1,3.45-.29l446-75.99c11.09-1.89,18.55-12.41,16.66-23.5l-10.1-59.3c-1.69-9.93-10.31-16.95-20.05-16.95h0Z"/><path class="c" d="M723.18,402.84l-68.67,11.7,69.29-114.15,46.55-7.93c8.65-1.47,15.03,7.91,10.48,15.41l-57.65,94.97Z"/><polygon class="c" points="557.55 431.06 488.88 442.76 558.17 328.61 626.85 316.91 557.55 431.06"/><polygon class="c" points="391.93 459.28 323.26 470.98 392.55 356.83 461.22 345.13 391.93 459.28"/></g><circle class="c" cx="311.28" cy="470.98" r="49.59"/><circle class="e" cx="311.28" cy="470.98" r="24.7"/></g></g><g><path class="d" d="M529.93,1079.44C232.23,1073.89-5.45,827.34,.1,529.84,5.65,232.33,252.36-5.2,550.07,.35s535.39,252.1,529.84,549.6c-5.55,297.5-252.27,535.03-549.97,529.49Zm18.49-991c-249.1-4.64-455.21,194.11-460.18,443.04-5.28,264.33,194.24,455.23,443.33,459.87,249.1,4.64,455.97-194.1,460.18-443.04,4.31-254.74-194.24-455.23-443.33-459.87Z"/><path class="b" d="M529.89,1079.9c-246.73-4.6-446.39-158.01-508.65-390.85-6.28-23.5,7.69-47.65,31.21-53.93,23.52-6.29,47.68,7.68,53.97,31.19,62.99,235.59,268.38,322.59,425.12,325.51,17.92,.33,36.03-.33,53.83-1.97,24.23-2.22,45.71,15.59,47.95,39.82,2.24,24.23-15.6,45.68-39.84,47.92-21.03,1.94-42.42,2.72-63.58,2.33Zm499.15-573.67c-20.99-.39-39.31-15.78-42.67-37.22-34.01-216.6-218.19-376.79-437.95-380.88h-.34c-24.19-.46-44.4-20.33-44.14-44.54C504.21,19.25,523.27-.26,547.62,0c.06,0,1.17,.02,1.23,.02,.06,0,1.17,.02,1.23,.02,262.62,4.89,482.74,196.38,523.4,455.32,3.77,24.03-12.67,46.57-36.72,50.35-2.59,.4-5.17,.58-7.71,.53Z"/></g></svg>