<?xml version="1.0" encoding="UTF-8"?><svg id="a" xmlns="http://www.w3.org/2000/svg" viewBox="0 0 1080 1080"><defs><style>.b{fill:#6a45ff;}.c{fill:#fff;}.d{fill:#9d85ff;}.e{fill:#ff553e;stroke:#ff553e;}.e,.f,.g{stroke-miterlimit:10;}.e,.g{stroke-width:4.31px;}.f{fill:coral;stroke:coral;}.g{fill:none;stroke:#b3b3ff;}</style></defs><g><path class="g" d="M863.98,216.03c.45,.05,.93,.13,1.4,.2l-1.6-1.6c.07,.47,.15,.94,.2,1.4ZM216.03,863.98c-.45-.05-.89-.13-1.34-.18l1.52,1.52c-.05-.45-.13-.89-.18-1.34Z"/><path class="e" d="M216.03,863.98c.05,.45,.13,.89,.18,1.34,179.32,178.49,469.35,178.23,648.35-.76,178.98-178.98,179.27-469.01,.82-648.33-.47-.07-.94-.15-1.4-.2,23.05,171.9-31.49,352.2-163.62,484.33-132.11,132.11-312.41,186.66-484.33,163.62Z"/><path class="f" d="M863.98,216.03c-.06-.45-.13-.93-.2-1.4-179.32-178.45-469.37-178.18-648.35,.8-179,179-179.23,469.04-.74,648.37,.45,.05,.89,.13,1.34,.18,171.92,23.03,352.22-31.51,484.33-163.62,132.13-132.13,186.67-312.43,163.62-484.33Z"/></g><g><path class="d" d="M529.93,1079.44C232.23,1073.89-5.45,827.34,.1,529.84,5.65,232.33,252.36-5.2,550.07,.35c297.7,5.55,535.39,252.1,529.84,549.6-5.55,297.5-252.27,535.03-549.97,529.49Zm18.49-991c-249.1-4.64-455.21,194.11-460.18,443.04-5.28,264.33,194.24,455.23,443.33,459.87,249.1,4.64,455.97-194.1,460.18-443.04,4.31-254.74-194.24-455.23-443.33-459.87Z"/><path class="b" d="M529.89,1079.9c-246.73-4.6-446.39-158.01-508.65-390.85-6.28-23.5,7.69-47.65,31.21-53.93,23.52-6.29,47.68,7.68,53.97,31.19,62.99,235.59,268.38,322.59,425.12,325.51,17.92,.33,36.03-.33,53.83-1.97,24.23-2.22,45.71,15.59,47.95,39.82,2.24,24.23-15.6,45.68-39.84,47.92-21.03,1.94-42.42,2.72-63.58,2.33Zm499.15-573.67c-20.99-.39-39.31-15.78-42.67-37.22-34.01-216.6-218.19-376.79-437.95-380.88h-.34c-24.19-.46-44.4-20.33-44.14-44.54C504.21,19.25,523.27-.26,547.62,0c.06,0,1.17,.02,1.23,.02,.06,0,1.17,.02,1.23,.02,262.62,4.89,482.74,196.38,523.4,455.32,3.77,24.03-12.67,46.57-36.72,50.35-2.59,.4-5.17,.58-7.71,.53Z"/></g><g><path class="c" d="M518.36,567.17h0c-10.61,0-19.2,8.6-19.2,19.2v204.97c12.55-1.49,25.32-2.28,38.28-2.28,.04,0,.09,0,.13,0v-202.69c0-10.61-8.6-19.2-19.2-19.2Z"/><path class="c" d="M807.05,394.91c7.07-14.54,11.06-30.93,11.11-48.33,.19-62.92-46.86-110.05-109.83-109.98-31.61,.03-58.83,10.66-78.54,28.75-29.83-8.66-61.44-13.15-94.17-12.71-175.5,2.35-317.36,146.22-317.32,321.74,.02,100.74,46.36,190.63,118.86,249.6,13.15,10.7,31.46,12.4,46.34,4.27,17.63-9.63,36.25-17.66,55.69-23.88v-240.03c0-13.85,5.76-27.08,15.89-36.52l32.51-30.28v-83.72c0-10.22,8.28-18.5,18.5-18.5h0c9.25,0,16.74-7.5,16.74-16.74v-51.08c0-5.55,4.67-10.01,10.29-9.67,5.02,.3,9.09,5.03,9.09,10.05v50.7c0,9.23,7.47,16.69,16.71,16.74,10.2,.06,18.54,8.3,18.54,18.5v231.73l.41,.4-.32,145.61c6.69,.83,13.32,1.88,19.88,3.12v-114.38c0-5.48,6.62-8.22,10.5-4.35l28.09,28.03c3.09,3.08,4.83,7.27,4.83,11.64v90.44c18.54,6.29,36.32,14.24,53.16,23.65,14.91,8.33,33.31,6.73,46.65-3.92,73.79-58.94,121.07-149.67,121.07-251.46,0-66.43-20.15-128.15-54.66-179.4Zm-96.71-124.07c39.84,1.34,72.17,33.86,73.3,73.7,.86,30.57-16.35,57.19-41.73,70.01-5.06,2.56-10.45,4.56-16.09,5.95-.25,.06-.51,.12-.76,.18-1.08,.25-2.17,.48-3.27,.69-.39,.07-.78,.14-1.18,.21-.98,.17-1.97,.31-2.97,.45-.45,.06-.89,.12-1.34,.17-1,.11-2.01,.2-3.02,.27-.42,.03-.84,.07-1.26,.1-1.42,.08-2.85,.13-4.29,.13-41.94,0-75.94-34-75.94-75.94,0-1.31,.03-2.61,.1-3.91,.02-.41,.07-.81,.09-1.22,.06-.88,.11-1.77,.2-2.64,.02-.21,.06-.41,.08-.62,.12-1.06,.24-2.13,.4-3.18,.05-.31,.11-.61,.16-.92,.16-.95,.31-1.89,.51-2.83,.03-.15,.07-.29,.1-.44,.23-1.09,.47-2.17,.75-3.24v-.04c.32-1.2,.66-2.39,1.02-3.56,.03-.1,.07-.19,.1-.28,.35-1.09,.71-2.18,1.1-3.25,.03-.09,.07-.18,.11-.28,.4-1.07,.81-2.13,1.25-3.17,11.85-28,40.02-47.41,72.58-46.31Z"/></g></svg>