<?xml version="1.0" encoding="UTF-8"?><svg id="a" xmlns="http://www.w3.org/2000/svg" viewBox="0 0 1080 1080"><defs><style>.b{fill:#6a45ff;}.c{fill:#fff;}.d{fill:#9d85ff;}.e{fill:#00aaa5;stroke:#00aaa5;}.e,.f,.g{stroke-miterlimit:10;}.e,.g{stroke-width:4.31px;}.f{fill:#00ced1;stroke:#00ced1;}.g{fill:none;stroke:#b3b3ff;}</style></defs><g><g><path class="g" d="M863.98,216.03c.45,.05,.93,.13,1.4,.2l-1.6-1.6c.07,.47,.15,.94,.2,1.4ZM216.03,863.98c-.45-.05-.89-.13-1.34-.18l1.52,1.52c-.05-.45-.13-.89-.18-1.34Z"/><path class="e" d="M216.03,863.98c.05,.45,.13,.89,.18,1.34,179.32,178.49,469.35,178.23,648.35-.76,178.98-178.98,179.27-469.01,.82-648.33-.47-.07-.94-.15-1.4-.2,23.05,171.9-31.49,352.2-163.62,484.33-132.11,132.11-312.41,186.66-484.33,163.62Z"/><path class="f" d="M863.98,216.03c-.06-.45-.13-.93-.2-1.4-179.32-178.45-469.37-178.18-648.35,.8-179,179-179.23,469.04-.74,648.37,.45,.05,.89,.13,1.34,.18,171.92,23.03,352.22-31.51,484.33-163.62,132.13-132.13,186.67-312.43,163.62-484.33Z"/></g><g><path class="c" d="M591.12,425.57h-102.24c-6.25,0-10.98-5.67-9.9-11.83,4.1-23.33,9.36-44.87,15.74-63.96,15.4-46.25,33.83-66.93,45.3-66.93s29.85,20.68,45.25,66.93c6.38,19.09,11.64,40.66,15.74,63.96,1.08,6.16-3.64,11.83-9.9,11.83Z"/><path class="c" d="M753.39,425.57h-98.31c-4.96,0-9.15-3.64-9.93-8.54-6.25-39.53-15.66-75.68-28.09-104.88-3.39-7.97,4.39-16.25,12.5-13.22,55.88,20.85,102.65,60.61,132.46,111.43,3.95,6.73-.84,15.21-8.64,15.21Z"/><path class="c" d="M797.14,540c0,22.07-2.79,43.53-8.06,63.99-1.13,4.38-5.16,7.39-9.69,7.39h-117.17c-5.85,0-10.41-4.96-9.99-10.8,1.44-19.99,2.18-40.29,2.18-60.59s-.74-40.62-2.18-60.59c-.42-5.83,4.14-10.8,9.99-10.8h117.17c4.53,0,8.56,3.01,9.69,7.39,5.27,20.47,8.06,41.92,8.06,63.99Z"/><path class="c" d="M762.04,669.59c-29.81,50.85-76.58,90.59-132.47,111.44-8.11,3.03-15.89-5.26-12.5-13.22,12.43-29.19,21.83-65.35,28.08-104.88,.78-4.9,4.96-8.54,9.93-8.54h98.31c7.8,0,12.58,8.48,8.64,15.2Z"/><path class="c" d="M611.36,540c0,21.24-.81,42.05-2.38,62.19-.41,5.21-4.79,9.2-10.01,9.2h-117.93c-5.22,0-9.61-3.99-10.01-9.2-1.57-20.14-2.38-40.95-2.38-62.19s.81-42.08,2.38-62.18c.41-5.21,4.8-9.2,10.02-9.2h117.92c5.23,0,9.61,3.99,10.02,9.2,1.57,20.1,2.38,40.92,2.38,62.18Z"/><path class="c" d="M591.11,654.39c6.26,0,10.99,5.68,9.91,11.84-4.1,23.33-9.36,44.87-15.74,64-15.4,46.25-33.83,66.93-45.25,66.93s-29.9-20.68-45.3-66.93c-6.38-19.1-11.64-40.67-15.74-64.01-1.08-6.16,3.64-11.83,9.9-11.83h102.23Z"/><path class="c" d="M450.43,781.03c-55.89-20.84-102.66-60.58-132.47-111.44-3.94-6.73,.84-15.2,8.64-15.2h98.31c4.96,0,9.15,3.64,9.93,8.54,6.25,39.53,15.65,75.69,28.08,104.88,3.39,7.97-4.38,16.25-12.5,13.22Z"/><path class="c" d="M425.59,540c0,20.3,.74,40.6,2.18,60.59,.42,5.83-4.14,10.8-9.99,10.8h-117.17c-4.53,0-8.56-3.01-9.69-7.4-5.27-20.49-8.06-41.91-8.06-63.99s2.79-43.53,8.06-63.99c1.13-4.38,5.16-7.39,9.69-7.39h117.17c5.85,0,10.41,4.96,9.99,10.8-1.44,19.97-2.18,40.29-2.18,60.59Z"/><path class="c" d="M462.93,312.15c-12.44,29.2-21.84,65.35-28.09,104.88-.78,4.9-4.96,8.54-9.93,8.54h-98.31c-7.8,0-12.58-8.48-8.64-15.21,29.81-50.82,76.58-90.59,132.46-111.43,8.11-3.03,15.89,5.25,12.5,13.22Z"/></g></g><g><path class="d" d="M529.93,1079.44C232.23,1073.89-5.45,827.34,.1,529.84,5.65,232.33,252.36-5.2,550.07,.35s535.39,252.1,529.84,549.6c-5.55,297.5-252.27,535.03-549.97,529.49Zm18.49-991c-249.1-4.64-455.21,194.11-460.18,443.04-5.28,264.33,194.24,455.23,443.33,459.87,249.1,4.64,455.97-194.1,460.18-443.04,4.31-254.74-194.24-455.23-443.33-459.87Z"/><path class="b" d="M529.89,1079.9c-246.73-4.6-446.39-158.01-508.65-390.85-6.28-23.5,7.69-47.65,31.21-53.93,23.52-6.29,47.68,7.68,53.97,31.19,62.99,235.59,268.38,322.59,425.12,325.51,17.92,.33,36.03-.33,53.83-1.97,24.23-2.22,45.71,15.59,47.95,39.82,2.24,24.23-15.6,45.68-39.84,47.92-21.03,1.94-42.42,2.72-63.58,2.33Zm499.15-573.67c-20.99-.39-39.31-15.78-42.67-37.22-34.01-216.6-218.19-376.79-437.95-380.88h-.34c-24.19-.46-44.4-20.33-44.14-44.54C504.21,19.25,523.27-.26,547.62,0c.06,0,1.17,.02,1.23,.02,.06,0,1.17,.02,1.23,.02,262.62,4.89,482.74,196.38,523.4,455.32,3.77,24.03-12.67,46.57-36.72,50.35-2.59,.4-5.17,.58-7.71,.53Z"/></g></svg>