<?xml version="1.0" encoding="UTF-8"?><svg id="a" xmlns="http://www.w3.org/2000/svg" xmlns:xlink="http://www.w3.org/1999/xlink" viewBox="0 0 1080 1080"><defs><style>.c{fill:#fff;}.d{fill:#ffbe2c;}.e{fill:#9e1226;}.f{fill:#bb133e;}.g{clip-path:url(#b);}</style><clipPath id="b"><ellipse class="d" cx="540" cy="540" rx="539.89" ry="539.83"/></clipPath></defs><g><ellipse class="d" cx="540" cy="540" rx="539.89" ry="539.83"/><g class="g"><ellipse class="e" cx="540" cy="540" rx="539.89" ry="539.83"/><path class="f" d="M894.81,133.1C771.25,25.54,600.41-24.7,427.81,11.96,136.15,73.91-50.06,360.54,11.9,652.17c11.33,53.32,30.2,103.1,55.21,148.5,511.02-207.74,736.71-503.51,827.71-667.57Z"/></g></g><path class="c" d="M781.81,216.09c-6.94-.92-13.88-1.34-20.96-1.39-92.44-.61-156.71,59.27-183.07,112.06,8.97,4.54,19.13,6.88,30.36,7.21,9.19,.27,18.4,.11,27.6,.02,3.72-.04,6.87,.81,8.58,4.38,1.67,3.49,.66,6.64-1.58,9.58-4.25,5.58-8.41,11.23-12.67,16.81-4.77,6.26-10.92,10.69-18.43,12.99-3.1,.95-4.09,2.52-4.01,5.7,.21,8.26,.24,16.53,0,24.79-.11,3.76,1.38,5.22,4.9,5.88,7.54,1.4,15.13,2.04,22.76,2.22,7.95,.19,15.91,.09,23.86,.04,3.65-.02,6.44,1.39,7.83,4.79,1.28,3.14,.77,6.2-1.67,8.65-7.93,7.95-15.8,15.96-23.94,23.69-4.12,3.92-9.3,6.28-14.89,7.47-2.76,.59-3.86,1.93-3.84,4.82,.11,12.94,.15,25.89-.02,38.83-.04,3.34,1.6,4.55,4.33,5.67,17.25,7.03,35.29,10.13,53.8,10.82,4.33,.16,7.81,1.35,9.02,5.81,1.26,4.65-1.25,7.63-5.03,10-13.19,8.26-27.58,13.03-43,14.62-3.3,.34-4.21,1.63-4.11,4.69,.5,15.58-2.77,11.84,12.08,16.53,18.44,5.82,37.45,7.91,56.69,8.32,4.36,.09,8.73,.04,13.1,.03,3.49,0,6.06,1.55,7.38,4.74,1.22,2.94,.9,5.89-1.34,8.29-11.01,11.81-22.41,23.18-38.33,28.25-3.64,1.16-4.88,2.97-4.69,6.72,.3,6.07,.12,12.16,.06,18.24-.06,6.5-2.66,9.43-9.01,9.15-4.75-.21-5.97,1.29-6.11,6.03-.26,9.38,1.22,18.05,5.35,26.62,5.75,11.92,10.58,24.29,15.77,36.48,3.59,8.44,.36,13.33-8.83,13.33-46.63,.02-93.26,0-139.89,0-46.32,0-92.64,0-138.95,0-10.15,0-13.15-4.65-9.13-14.05,6.38-14.91,12.77-29.8,19.11-44.73,2.99-7.05,1.19-14.46,1.31-21.71,.04-2.07-2.17-1.78-3.7-1.86-9.55-.49-11.05-2.04-11.06-11.45,0-5.93-.08-11.85,.03-17.78,.04-2.4-.87-3.75-3.16-4.45-16.34-4.96-28.12-16.3-39.41-28.3-2.51-2.67-3.11-5.77-1.63-9.06,1.51-3.37,4.41-4.55,8.02-4.5,19.84,.25,39.58-.71,58.93-5.58,6.19-1.56,12.27-3.56,18.44-5.21,2.69-.72,3.89-2.16,3.73-5-.23-4.04,1.07-8.78-.65-11.94-1.91-3.52-7.31-2.04-11.15-2.8-12.68-2.51-24.56-6.92-35.54-13.8-3.65-2.29-5.95-5.23-4.84-9.66,1.12-4.47,4.51-5.81,8.88-5.98,18.5-.71,36.54-3.73,53.82-10.73,3.25-1.32,4.56-2.96,4.5-6.51-.19-12.32-.17-24.64-.01-36.96,.04-3.48-.8-5.36-4.56-6.17-6.37-1.37-11.86-4.67-16.5-9.29-6.85-6.82-13.64-13.71-20.55-20.47-2.96-2.9-4.39-6.12-2.65-10.08,1.68-3.84,5.05-4.57,8.93-4.57,14.33,0,28.69,.6,42.93-1.76,7.31-1.22,7.32-1.17,7.32-8.47,0-7.8-.08-15.6,.04-23.39,.04-2.59-.81-3.95-3.35-4.73-8.84-2.68-15.63-8.17-20.96-15.65-3.53-4.95-7.25-9.77-10.92-14.61-2.25-2.97-3.11-6.16-1.32-9.59,1.72-3.29,4.71-4.09,8.26-4.16,11.84-.22,23.69,.71,35.51-.65,9.55-1.1,18.02-3.81,25.46-8.07-28.38-64.84-109.34-110.65-186.02-110.66-6.79,0-12.85,.59-20.45,1.53-20.6,2.57-36.14,20.16-36.14,40.92l-.07,443.09c1.34,91.2,76.26,165.39,167.01,165.39,40.59,0,78.96-14.64,108.73-40.48,1.01-.88,2.5-.88,3.51,0,29.77,25.84,68.15,40.48,108.74,40.48,90.8,0,165.69-74.26,166.94-165.96l.42-442.53c.03-20.67-15.4-38.28-35.86-40.95Z"/><g><rect class="c" x="471.56" y="469.51" width="32.29" height="37.73" rx="8.07" ry="8.07"/><rect class="c" x="576.15" y="469.51" width="32.29" height="37.73" rx="8.07" ry="8.07"/><rect class="c" x="523.85" y="469.51" width="32.29" height="37.73" rx="8.07" ry="8.07"/></g><g><rect class="c" x="471.56" y="614.3" width="32.29" height="37.73" rx="8.07" ry="8.07"/><rect class="c" x="576.15" y="614.3" width="32.29" height="37.73" rx="8.07" ry="8.07"/><rect class="c" x="628.44" y="614.3" width="32.29" height="37.73" rx="8.07" ry="8.07"/><rect class="c" x="419.27" y="614.3" width="32.29" height="37.73" rx="8.07" ry="8.07"/><rect class="c" x="523.85" y="614.3" width="32.29" height="37.73" rx="8.07" ry="8.07"/></g></svg>