<?xml version="1.0" encoding="UTF-8"?><svg id="a" xmlns="http://www.w3.org/2000/svg" viewBox="0 0 1080 1080"><defs><style>.b,.c{fill:#6a45ff;}.d{fill:#fff;}.e{fill:#9d85ff;}.f{fill:#4b1fff;stroke:#4b1fff;}.f,.c,.g{stroke-miterlimit:10;}.f,.g{stroke-width:4.31px;}.c{stroke:#6a45ff;}.g{fill:none;stroke:#b3b3ff;}</style></defs><g><g><path class="g" d="M863.98,216.03c.45,.05,.93,.13,1.4,.2l-1.6-1.6c.07,.47,.15,.94,.2,1.4ZM216.03,863.98c-.45-.05-.89-.13-1.34-.18l1.52,1.52c-.05-.45-.13-.89-.18-1.34Z"/><path class="f" d="M216.03,863.98c.05,.45,.13,.89,.18,1.34,179.32,178.49,469.35,178.23,648.35-.76,178.98-178.98,179.27-469.01,.82-648.33-.47-.07-.94-.15-1.4-.2,23.05,171.9-31.49,352.2-163.62,484.33-132.11,132.11-312.41,186.66-484.33,163.62Z"/><path class="c" d="M863.98,216.03c-.06-.45-.13-.93-.2-1.4-179.32-178.45-469.37-178.18-648.35,.8-179,179-179.23,469.04-.74,648.37,.45,.05,.89,.13,1.34,.18,171.92,23.03,352.22-31.51,484.33-163.62,132.13-132.13,186.67-312.43,163.62-484.33Z"/></g><path class="d" d="M335.87,753.96c-3.55-1.12-7.31,.73-8.63,4.2l-14.2,37.39c-5.11,13.46-3.15,28.43,5.24,40.05,8.48,11.73,22.09,18.35,36.41,17.72,5.69-.25,11.23-1.63,16.46-4.11l94.86-44.93c5.89-2.79,5.1-11.43-1.2-13.1-46.55-12.4-89.56-24.81-128.95-37.22Zm505.22-246.81c-22.48-37.46-59.09-78.43-103.05-115.36-71.83-60.33-146.38-96.52-194.54-94.4-24.64,1.08-38.59,11.76-45.94,20.51-3.63,4.32-6.57,9.3-8.72,14.79-.21,.49-.42,.96-.6,1.45l-74.6,196.43c-2.73,7.19,.35,15.34,7.2,18.83,100.42,51.14,198.75,80.02,271.77,96.1,22.86,5.03,44.3,9.07,63.92,12.31,9.07,1.5,18.34,.17,26.64-3.76l50-23.68c.36-.18,.71-.35,1.07-.54,7.14-3.44,13.23-8.12,18.08-13.88,14.39-17.14,24.11-49.91-11.25-108.79Zm-10.25,90.72c-24.88,29.62-114.84-5.01-200.94-77.33-86.09-72.33-135.72-154.96-110.84-184.58,24.88-29.62,114.84,5,200.94,77.33,86.09,72.32,135.72,154.96,110.84,184.58Zm-440.1-6.93l-42.35,111.52c-1.9,4.99,.79,10.57,5.89,12.16,61.14,19.1,124.47,36.2,182.37,50.65,4.99,1.25,10.23,.71,14.88-1.5l133.55-63.25c5.98-2.83,4.98-11.63-1.48-13.06l-.21-.05c-75.9-16.7-178.21-46.79-282.88-100.21-3.73-1.9-8.28-.18-9.77,3.73Z"/></g><g><path class="e" d="M529.93,1079.44C232.23,1073.89-5.45,827.34,.1,529.84,5.65,232.33,252.36-5.2,550.07,.35s535.39,252.1,529.84,549.6c-5.55,297.5-252.27,535.03-549.97,529.49Zm18.49-991c-249.1-4.64-455.21,194.11-460.18,443.04-5.28,264.33,194.24,455.23,443.33,459.87,249.1,4.64,455.97-194.1,460.18-443.04,4.31-254.74-194.24-455.23-443.33-459.87Z"/><path class="b" d="M529.89,1079.9c-246.73-4.6-446.39-158.01-508.65-390.85-6.28-23.5,7.69-47.65,31.21-53.93,23.52-6.29,47.68,7.68,53.97,31.19,62.99,235.59,268.38,322.59,425.12,325.51,17.92,.33,36.03-.33,53.83-1.97,24.23-2.22,45.71,15.59,47.95,39.82,2.24,24.23-15.6,45.68-39.84,47.92-21.03,1.94-42.42,2.72-63.58,2.33Zm499.15-573.67c-20.99-.39-39.31-15.78-42.67-37.22-34.01-216.6-218.19-376.79-437.95-380.88h-.34c-24.19-.46-44.4-20.33-44.14-44.54C504.21,19.25,523.27-.26,547.62,0c.06,0,1.17,.02,1.23,.02,.06,0,1.17,.02,1.23,.02,262.62,4.89,482.74,196.38,523.4,455.32,3.77,24.03-12.67,46.57-36.72,50.35-2.59,.4-5.17,.58-7.71,.53Z"/></g></svg>