<?xml version="1.0" encoding="UTF-8"?><svg id="a" xmlns="http://www.w3.org/2000/svg" viewBox="0 0 1080 1080"><defs><style>.b{fill:#6a45ff;}.c{fill:#fff;}.d{fill:#9d85ff;}.e{fill:#2fadeb;stroke:#2fadeb;}.e,.f,.g{stroke-miterlimit:10;}.e,.g{stroke-width:4.31px;}.f{fill:#52b9eb;stroke:#52b9eb;}.g{fill:none;stroke:#b3b3ff;}</style></defs><g><g><path class="g" d="M863.98,216.03c.45,.05,.93,.13,1.4,.2l-1.6-1.6c.07,.47,.15,.94,.2,1.4ZM216.03,863.98c-.45-.05-.89-.13-1.34-.18l1.52,1.52c-.05-.45-.13-.89-.18-1.34Z"/><path class="e" d="M216.03,863.98c.05,.45,.13,.89,.18,1.34,179.32,178.49,469.35,178.23,648.35-.76,178.98-178.98,179.27-469.01,.82-648.33-.47-.07-.94-.15-1.4-.2,23.05,171.9-31.49,352.2-163.62,484.33-132.11,132.11-312.41,186.66-484.33,163.62Z"/><path class="f" d="M863.98,216.03c-.06-.45-.13-.93-.2-1.4-179.32-178.45-469.37-178.18-648.35,.8-179,179-179.23,469.04-.74,648.37,.45,.05,.89,.13,1.34,.18,171.92,23.03,352.22-31.51,484.33-163.62,132.13-132.13,186.67-312.43,163.62-484.33Z"/></g><g><path class="c" d="M643.3,769.24c0-8.05-6.38-14.61-14.42-14.94-.74-.03-1.39-.07-1.91-.13-17.41-1.9-30.81-13.45-41.78-26.76-9.27-11.24-18.22-23-25.42-35.62-5.49-9.61-12.15-12.68-22.53-12.16-7.16,.36-11.18,3.33-15.03,9.11-9.24,13.87-18.66,27.73-29.21,40.6-9.24,11.26-20.8,20.95-35.58,23.59-2.38,.42-4.8,.72-7.12,.91-7.7,.66-13.6,7.15-13.6,14.88v.51c0,8.26,6.69,14.95,14.95,14.95h176.7c8.26,0,14.95-6.69,14.95-14.95h0Z"/><path class="c" d="M790.27,592.26c-1.65-33.54-16.41-64.23-45.1-93.82-18.71-19.3-38.51-38.3-57.65-56.69l-2.54-2.44c-9.88-9.49-20.15-18.98-30.08-28.17-35.16-32.52-71.52-66.14-99.12-107.05-3.47-5.14-9.22-8.28-15.43-8.28h-.24c-6.37,0-12.06,3.03-15.61,8.3-23.41,34.79-53.06,63.87-81.43,90.68-40.38,38.16-74.1,70.31-107.41,103.2-23.71,23.4-38.56,50.23-44.14,79.74-9.95,52.63,19.47,105.35,68.45,122.63,26.23,9.25,53.65,9.37,79.3,.34,25.69-9.05,47.06-26.38,61.8-50.13,8.98-14.47,16.15-30.36,21.73-48.36,8.36-26.95-7.11-55.52-34.23-63.29-.45-.13-.89-.25-1.35-.38-8.21-2.26-8.21-13.83,0-16.09,26.16-7.21,37.52-18.56,44.72-44.72,2.26-8.21,13.83-8.21,16.09,0,7.21,26.16,18.56,37.52,44.73,44.73,8.21,2.26,8.21,13.83,0,16.09-.35,.1-.69,.19-1.04,.29-27.13,7.7-42.69,36.27-34.33,63.21,5.49,17.71,12.55,33.46,21.4,47.91,28.41,46.4,80.9,67.13,133.74,52.8,48.33-13.11,80.29-58.55,77.73-110.5Z"/></g></g><g><path class="d" d="M529.93,1079.44C232.23,1073.89-5.45,827.34,.1,529.84,5.65,232.33,252.36-5.2,550.07,.35c297.7,5.55,535.39,252.1,529.84,549.6-5.55,297.5-252.27,535.03-549.97,529.49Zm18.49-991c-249.1-4.64-455.21,194.11-460.18,443.04-5.28,264.33,194.24,455.23,443.33,459.87,249.1,4.64,455.97-194.1,460.18-443.04,4.31-254.74-194.24-455.23-443.33-459.87Z"/><path class="b" d="M529.89,1079.9c-246.73-4.6-446.39-158.01-508.65-390.85-6.28-23.5,7.69-47.65,31.21-53.93,23.52-6.29,47.68,7.68,53.97,31.19,62.99,235.59,268.38,322.59,425.12,325.51,17.92,.33,36.03-.33,53.83-1.97,24.23-2.22,45.71,15.59,47.95,39.82,2.24,24.23-15.6,45.68-39.84,47.92-21.03,1.94-42.42,2.72-63.58,2.33Zm499.15-573.67c-20.99-.39-39.31-15.78-42.67-37.22-34.01-216.6-218.19-376.79-437.95-380.88h-.34c-24.19-.46-44.4-20.33-44.14-44.54C504.21,19.25,523.27-.26,547.62,0c.06,0,1.17,.02,1.23,.02,.06,0,1.17,.02,1.23,.02,262.62,4.89,482.74,196.38,523.4,455.32,3.77,24.03-12.67,46.57-36.72,50.35-2.59,.4-5.17,.58-7.71,.53Z"/></g></svg>