<?xml version="1.0" encoding="UTF-8"?><svg id="a" xmlns="http://www.w3.org/2000/svg" viewBox="0 0 1080 1080"><defs><style>.b{fill:#6a45ff;}.c{fill:#fff;}.d{fill:#9d85ff;}.e{fill:#00aaa5;stroke:#00aaa5;}.e,.f,.g{stroke-miterlimit:10;}.e,.g{stroke-width:4.31px;}.f{fill:#00ced1;stroke:#00ced1;}.g{fill:none;stroke:#b3b3ff;}</style></defs><g><path class="g" d="M863.98,216.03c.45,.05,.93,.13,1.4,.2l-1.6-1.6c.07,.47,.15,.94,.2,1.4ZM216.03,863.98c-.45-.05-.89-.13-1.34-.18l1.52,1.52c-.05-.45-.13-.89-.18-1.34Z"/><path class="e" d="M216.03,863.98c.05,.45,.13,.89,.18,1.34,179.32,178.49,469.35,178.23,648.35-.76,178.98-178.98,179.27-469.01,.82-648.33-.47-.07-.94-.15-1.4-.2,23.05,171.9-31.49,352.2-163.62,484.33-132.11,132.11-312.41,186.66-484.33,163.62Z"/><path class="f" d="M863.98,216.03c-.06-.45-.13-.93-.2-1.4-179.32-178.45-469.37-178.18-648.35,.8-179,179-179.23,469.04-.74,648.37,.45,.05,.89,.13,1.34,.18,171.92,23.03,352.22-31.51,484.33-163.62,132.13-132.13,186.67-312.43,163.62-484.33Z"/></g><g><path class="d" d="M529.93,1079.44C232.23,1073.89-5.45,827.34,.1,529.84,5.65,232.33,252.36-5.2,550.07,.35c297.7,5.55,535.39,252.1,529.84,549.6-5.55,297.5-252.27,535.03-549.97,529.49Zm18.49-991c-249.1-4.64-455.21,194.11-460.18,443.04-5.28,264.33,194.24,455.23,443.33,459.87,249.1,4.64,455.97-194.1,460.18-443.04,4.31-254.74-194.24-455.23-443.33-459.87Z"/><path class="b" d="M529.89,1079.9c-246.73-4.6-446.39-158.01-508.65-390.85-6.28-23.5,7.69-47.65,31.21-53.93,23.52-6.29,47.68,7.68,53.97,31.19,62.99,235.59,268.38,322.59,425.12,325.51,17.92,.33,36.03-.33,53.83-1.97,24.23-2.22,45.71,15.59,47.95,39.82,2.24,24.23-15.6,45.68-39.84,47.92-21.03,1.94-42.42,2.72-63.58,2.33Zm499.15-573.67c-20.99-.39-39.31-15.78-42.67-37.22-34.01-216.6-218.19-376.79-437.95-380.88h-.34c-24.19-.46-44.4-20.33-44.14-44.54C504.21,19.25,523.27-.26,547.62,0c.06,0,1.17,.02,1.23,.02,.06,0,1.17,.02,1.23,.02,262.62,4.89,482.74,196.38,523.4,455.32,3.77,24.03-12.67,46.57-36.72,50.35-2.59,.4-5.17,.58-7.71,.53Z"/></g><g><path class="c" d="M829.01,518.55c-2.1-16.02-4.37-32-8.6-47.64-4.38-16.2-10.08-31.9-16.72-47.3-1.8-4.16-3.43-5.26-7.07-1.57-15.05,15.27-30.26,30.38-45.47,45.49-2.29,2.27-2.72,4.59-1.73,7.64,6.71,20.74,9.75,42.14,10.07,63.82,.25,16.93-1.77,33.77-5.7,50.29-9.39,39.52-28.06,73.98-56.35,103.19-22.73,23.47-49.39,40.92-79.88,52.67-24.5,9.44-49.97,14.28-76.05,14.35-32.5,.09-63.76-6.55-93.42-20.46-34.29-16.09-62.61-39.27-85.03-69.71-22.32-30.31-36.12-64.17-40.51-101.54-7.91-67.38,11.15-126.37,56.71-176.64,25.98-28.66,57.79-48.65,94.52-60.29,41.72-13.22,83.93-13.98,126.03-1.52,6.75,2,11.26,1.38,16.29-3.93,13.7-14.47,27.98-28.4,42.18-42.38,3.4-3.35,2.79-4.69-1.38-6.51-29.85-13.04-60.71-22.18-93.3-24.9-.73-.06-1.43-.42-2.15-.63-14.68,0-29.35,0-44.03,0-16.03,1.98-32.13,3.72-47.69,8.16-108.47,30.96-178.55,100.64-210.15,208.92-4.7,16.1-6.51,32.76-8.58,49.34v45.16c1.63,11.14,2.75,22.38,4.96,33.4,11.85,58.88,39.51,109.32,82.49,151.17,38.16,37.17,83.15,62.22,135.12,74.63,14.48,3.46,29.18,5.2,43.86,7.23h45.16c16.4-2.04,32.76-4.19,48.8-8.38,56.56-14.77,104.36-44.05,143.5-87.28,33.06-36.53,55.44-78.84,66.88-126.9,3.45-14.48,5.25-29.18,7.25-43.87v-44.03Z"/><path class="c" d="M737.56,250.99c-11.16,6.7-19.01,17.02-28.03,26-26.11,26.01-51.74,52.5-77.75,78.61-5.27,5.29-7.78,11.02-7.63,18.55,.34,17.11,0,34.24,.18,51.35,.04,3.9-1.18,6.67-3.92,9.4-30,29.85-59.89,59.82-89.83,89.73-3.36,3.36-6.53,6.8-7.59,11.63-1.52,6.97,1.4,14.42,7.39,18.2,6.31,3.98,12.83,4.02,19.13-.01,2.19-1.4,4.05-3.35,5.91-5.2,29.55-29.51,59.13-58.99,88.55-88.62,3.42-3.45,6.83-5.11,11.8-5.02,17.11,.29,34.24-.03,51.35,.19,6.47,.08,11.61-2.02,16.14-6.56,32.68-32.77,65.41-65.47,98.17-98.16,2.96-2.95,5.49-6.17,7.56-9.78v-11.29c-4.29-8.82-11.33-12.14-21.07-11.81-13.88,.48-27.78-.03-41.67,.2-4.44,.07-5.89-1.36-5.82-5.82,.24-13.51-.28-27.04,.21-40.54,.35-9.75-3.02-16.76-11.81-21.06h-11.29Z"/><path class="c" d="M387.59,540.15c-.33,72.62,50.29,135.43,121.88,149.61,49.51,9.81,94.03-2.25,132.16-35.83,29.88-26.32,46.35-59.78,50.67-99.07,2.28-20.77-.37-41.28-7.07-61.2-1.24-3.7-3.26-4.58-6.92-5-10.87-1.25-19.34,1.61-26.63,10.41-7.53,9.09-16.43,17.07-25,25.25-2.95,2.82-3.67,5.75-3.32,9.55,4.32,47.01-32.56,86.21-76.18,89.71-48.06,3.85-87.26-32.56-90.76-76.52-3.86-48.5,33.18-87.76,76.65-90.52,2.62-.17,5.49-1.23,7.81-.51,8.61,2.66,14.04-1.36,19.5-7.32,8.13-8.86,16.74-17.32,25.53-25.54,4.09-3.83,5.61-7.89,5.38-13.38-.65-15.79,3.02-13.13-13.48-17.34-52.15-13.29-98.73-1.64-139.24,33.52-30.06,26.1-46.18,59.71-50.89,98.96-.6,5-.08,10.14-.08,15.22Z"/></g></svg>