<?xml version="1.0" encoding="UTF-8"?><svg id="a" xmlns="http://www.w3.org/2000/svg" viewBox="0 0 1080 1080"><defs><style>.b{fill:#6a45ff;}.c{fill:#9d85ff;}.d{fill:#e54888;stroke:#e54888;}.d,.e,.f,.g{stroke-miterlimit:10;}.d,.e,.g{stroke-width:4.31px;}.e{fill:#ef73a0;stroke:#ef73a0;}.f{fill:#ffa6c6;stroke:#ffa6c6;}.g{fill:none;stroke:#b3b3ff;}</style></defs><g><path class="g" d="M863.98,216.03c.45,.05,.93,.13,1.4,.2l-1.6-1.6c.07,.47,.15,.94,.2,1.4ZM216.03,863.98c-.45-.05-.89-.13-1.34-.18l1.52,1.52c-.05-.45-.13-.89-.18-1.34Z"/><path class="e" d="M216.03,863.98c.05,.45,.13,.89,.18,1.34,179.32,178.49,469.35,178.23,648.35-.76,178.98-178.98,179.27-469.01,.82-648.33-.47-.07-.94-.15-1.4-.2,23.05,171.9-31.49,352.2-163.62,484.33-132.11,132.11-312.41,186.66-484.33,163.62Z"/><path class="f" d="M863.98,216.03c-.06-.45-.13-.93-.2-1.4-179.32-178.45-469.37-178.18-648.35,.8-179,179-179.23,469.04-.74,648.37,.45,.05,.89,.13,1.34,.18,171.92,23.03,352.22-31.51,484.33-163.62,132.13-132.13,186.67-312.43,163.62-484.33Z"/></g><g><path class="d" d="M165.31,637.94c-6.29,.01-12.57-.07-18.86,.03-6.96,.11-8.29-2.49-4-7.93,6.05-7.68,12.16-15.31,18.22-22.98,67.24-85.26,134.58-170.44,201.51-255.94,6.37-8.13,10.67-9.04,19.35-3.29,78.32,51.86,157,103.16,235.36,154.95,7.02,4.64,12.37,5.2,19.96,1.38,44.59-22.46,89.47-44.34,134.18-66.55,6.01-2.98,10.94-5.23,16.34,1.65,49.1,62.64,98.45,125.1,147.64,187.68,2.06,2.62,6.15,5.36,4.7,8.73-1.84,4.26-6.83,2.07-10.41,2.17-9.77,.27-19.56-.08-29.33,.16-6.66,.16-11-1.67-10.4-9.33,.47-6.05-2.54-10.65-6.08-15.13-31.82-40.27-63.76-80.44-95.23-120.98-5.81-7.49-8.61-7.17-14.3,.16-35.09,45.24-70.75,90.04-105.96,135.19-5.62,7.2-11.7,10.56-21.19,10.29-24.08-.69-48.19-.45-72.29-.14-7.33,.09-12.21-2.35-16.8-8.2-60.1-76.67-120.49-153.1-180.6-229.76-4.72-6.02-7.01-6.61-12.06-.17-54.47,69.53-109.18,138.88-164.02,208.12-4.59,5.79-7.57,11.56-6.9,19,.71,7.99-2.77,11.6-11.01,10.98-5.9-.44-11.87-.09-17.8-.07Z"/><g><rect class="d" x="372" y="530.32" width="55.84" height="34.63"/><rect class="d" x="372" y="580.74" width="55.84" height="34.63"/><rect class="d" x="300.38" y="530.32" width="55.84" height="34.63"/><rect class="d" x="300.38" y="580.74" width="55.84" height="34.63"/></g><g><rect class="d" x="790.37" y="557.95" width="37.91" height="23.51"/><rect class="d" x="790.37" y="592.18" width="37.91" height="23.51"/><rect class="d" x="741.74" y="557.95" width="37.91" height="23.51"/><rect class="d" x="741.74" y="592.18" width="37.91" height="23.51"/></g></g><g><path class="c" d="M529.93,1079.44C232.23,1073.89-5.45,827.34,.1,529.84,5.65,232.33,252.36-5.2,550.07,.35c297.7,5.55,535.39,252.1,529.84,549.6-5.55,297.5-252.27,535.03-549.97,529.49Zm18.49-991c-249.1-4.64-455.21,194.11-460.18,443.04-5.28,264.33,194.24,455.23,443.33,459.87,249.1,4.64,455.97-194.1,460.18-443.04,4.31-254.74-194.24-455.23-443.33-459.87Z"/><path class="b" d="M529.89,1079.9c-246.73-4.6-446.39-158.01-508.65-390.85-6.28-23.5,7.69-47.65,31.21-53.93,23.52-6.29,47.68,7.68,53.97,31.19,62.99,235.59,268.38,322.59,425.12,325.51,17.92,.33,36.03-.33,53.83-1.97,24.23-2.22,45.71,15.59,47.95,39.82,2.24,24.23-15.6,45.68-39.84,47.92-21.03,1.94-42.42,2.72-63.58,2.33Zm499.15-573.67c-20.99-.39-39.31-15.78-42.67-37.22-34.01-216.6-218.19-376.79-437.95-380.88h-.34c-24.19-.46-44.4-20.33-44.14-44.54C504.21,19.25,523.27-.26,547.62,0c.06,0,1.17,.02,1.23,.02,.06,0,1.17,.02,1.23,.02,262.62,4.89,482.74,196.38,523.4,455.32,3.77,24.03-12.67,46.57-36.72,50.35-2.59,.4-5.17,.58-7.71,.53Z"/></g></svg>