<?xml version="1.0" encoding="UTF-8"?><svg id="a" xmlns="http://www.w3.org/2000/svg" viewBox="0 0 1080 1080"><defs><style>.b{fill:#6a45ff;}.c{fill:#fff;}.d{fill:#9d85ff;}.e{fill:#2fadeb;stroke:#2fadeb;}.e,.f,.g{stroke-miterlimit:10;}.e,.g{stroke-width:4.31px;}.f{fill:#52b9eb;stroke:#52b9eb;}.g{fill:none;stroke:#b3b3ff;}</style></defs><g><path class="g" d="M863.98,216.03c.45,.05,.93,.13,1.4,.2l-1.6-1.6c.07,.47,.15,.94,.2,1.4ZM216.03,863.98c-.45-.05-.89-.13-1.34-.18l1.52,1.52c-.05-.45-.13-.89-.18-1.34Z"/><path class="e" d="M216.03,863.98c.05,.45,.13,.89,.18,1.34,179.32,178.49,469.35,178.23,648.35-.76,178.98-178.98,179.27-469.01,.82-648.33-.47-.07-.94-.15-1.4-.2,23.05,171.9-31.49,352.2-163.62,484.33-132.11,132.11-312.41,186.66-484.33,163.62Z"/><path class="f" d="M863.98,216.03c-.06-.45-.13-.93-.2-1.4-179.32-178.45-469.37-178.18-648.35,.8-179,179-179.23,469.04-.74,648.37,.45,.05,.89,.13,1.34,.18,171.92,23.03,352.22-31.51,484.33-163.62,132.13-132.13,186.67-312.43,163.62-484.33Z"/></g><g><path class="d" d="M529.93,1079.44C232.23,1073.89-5.45,827.34,.1,529.84,5.65,232.33,252.36-5.2,550.07,.35c297.7,5.55,535.39,252.1,529.84,549.6-5.55,297.5-252.27,535.03-549.97,529.49Zm18.49-991c-249.1-4.64-455.21,194.11-460.18,443.04-5.28,264.33,194.24,455.23,443.33,459.87,249.1,4.64,455.97-194.1,460.18-443.04,4.31-254.74-194.24-455.23-443.33-459.87Z"/><path class="b" d="M529.89,1079.9c-246.73-4.6-446.39-158.01-508.65-390.85-6.28-23.5,7.69-47.65,31.21-53.93,23.52-6.29,47.68,7.68,53.97,31.19,62.99,235.59,268.38,322.59,425.12,325.51,17.92,.33,36.03-.33,53.83-1.97,24.23-2.22,45.71,15.59,47.95,39.82,2.24,24.23-15.6,45.68-39.84,47.92-21.03,1.94-42.42,2.72-63.58,2.33Zm499.15-573.67c-20.99-.39-39.31-15.78-42.67-37.22-34.01-216.6-218.19-376.79-437.95-380.88h-.34c-24.19-.46-44.4-20.33-44.14-44.54C504.21,19.25,523.27-.26,547.62,0c.06,0,1.17,.02,1.23,.02,.06,0,1.17,.02,1.23,.02,262.62,4.89,482.74,196.38,523.4,455.32,3.77,24.03-12.67,46.57-36.72,50.35-2.59,.4-5.17,.58-7.71,.53Z"/></g><g><path class="c" d="M695.77,505.58c25.07-11.88,49.46-23.2,73.62-34.99,13.47-6.57,29.98-1.38,36.68,12.02,6.84,13.67,1.48,29.09-12.42,35.7-28.07,13.36-56.13,26.75-84.19,40.13-1.81,.86-4.75,2.33-6.49,3.32-17.25,9.81-30.19,6.66-40.86-9.96-16.3-25.41-32.61-50.82-49.65-77.39-13.27,19.31-26.02,37.86-39.01,56.77,18.95,14.69,37.42,29.09,55.98,43.37,16.1,12.39,32.49,24.41,48.29,37.16,3.89,3.14,7.58,8.17,8.6,12.93,2.34,10.99,4.73,22.46,4.02,33.53-3.08,48.02-7.73,95.95-10.78,143.98-.94,14.83-14.15,24.43-24.92,26.1-15.15,2.35-25.76-3.7-29.88-18.59-2.54-9.2-3.77-19.02-3.92-28.58-.61-38.95-.72-77.9-.62-116.86,.02-6.9-1.58-11.26-7.78-15.28-27.8-18.01-55.16-36.68-82.69-55.11-1.18-.79-2.41-1.5-4.54-2.82-7.4,9.65-14.89,19.05-21.98,28.74-18.41,25.19-36.63,50.5-54.93,75.77-13.91,19.21-32.48,20.78-53.77,3.93-30.94-24.49-64.89-44.91-101.6-59.39-19.61-7.73-26.63-22.73-18.86-37.71,9.41-18.16,20.93-22.94,37.54-15.44,34.35,15.5,68.68,31.05,103.84,46.96,36.11-72.77,72.15-145.4,108.6-218.85-20.98-3.59-41.24-6.55-61.25-10.71-8.16-1.7-12.49,.33-17.01,7.12-11.79,17.7-24.42,34.85-36.79,52.18-9.14,12.81-23.69,15.87-35.34,7.55-11.81-8.44-13.83-23.12-4.72-35.79,15.67-21.79,31.48-43.49,47.22-65.24,9.06-12.52,21.27-18.41,36.75-18.04,33,.81,66,1.48,99,2.26,18.78,.45,37.11,5.73,53.3,15.25,5.58,3.28,11.14,6.58,16.69,9.92,8.41,5.06,15.28,12.31,19.82,21.02,12.34,23.63,38.17,73.27,50.84,99.15,.82,1.69,1.8,3.3,3.21,5.87Z"/><path class="c" d="M641.58,366.79c-31.83-.13-57.83-26.17-57.65-57.75,.18-32.21,26.26-58.04,58.35-57.8,32.3,.25,57.81,26.18,57.54,58.49-.27,31.75-26.23,57.18-58.24,57.05Z"/></g></svg>