<?xml version="1.0" encoding="UTF-8"?><svg id="a" xmlns="http://www.w3.org/2000/svg" xmlns:xlink="http://www.w3.org/1999/xlink" viewBox="0 0 1080 1080"><defs><style>.c{fill:#fff;}.d{fill:#ffbe2c;}.e{fill:#c40008;}.f{fill:#294292;}.g{clip-path:url(#b);}</style><clipPath id="b"><ellipse class="d" cx="540" cy="540" rx="539.89" ry="539.83"/></clipPath></defs><g><ellipse class="d" cx="540" cy="540" rx="539.89" ry="539.83"/><g class="g"><ellipse class="e" cx="540" cy="540" rx="539.89" ry="539.83"/><path class="f" d="M894.81,133.1C771.25,25.54,600.41-24.7,427.81,11.96,136.15,73.91-50.06,360.54,11.9,652.17c11.33,53.32,30.2,103.1,55.21,148.5,511.02-207.74,736.71-503.51,827.71-667.57Z"/></g></g><g><path class="c" d="M538.46,540c-30.91,47.74-61.81,95.48-92.7,143.23-3.49,5.39-6.92,10.82-10.74,16.79h213.84c-1.25-2.05-2.08-3.47-2.97-4.84-33.41-51.67-66.82-103.33-100.23-154.99-3.65-5.64-3.67-5.66-7.21-.19Z"/><path class="c" d="M718.46,696.31c1.96,3.04,4.18,4.22,7.74,4.08,6.14-.24,12.3-.07,18.45-.07,11.53,0,11.49,.02,5.8-10.31-36.38-66.11-72.73-132.23-109.1-198.33-10.81-19.64-21.65-39.27-32.99-59.84-9.99,15.48-19.52,30.27-29.09,45.02-1.57,2.42,.02,4.06,1.16,5.84,10.99,17.04,21.99,34.08,33,51.11,35.02,54.16,70.07,108.29,105.02,162.5Z"/><path class="c" d="M781.81,216.09c-6.94-.92-13.88-1.34-20.96-1.39-95.78-.63-186.56,66.4-188.85,125.7,0,.02-.24,17.14-.45,30.3-.03,2.06,2.65,2.87,3.77,1.14,.32-.49,.64-.99,.96-1.48,5.48-8.46,9.33-9.37,17.62-4.08,10.23,6.53,20.41,13.15,30.55,19.82,6.49,4.27,8.25,9.75,3.23,15.53-7.71,8.89-6.31,16.12-.84,25.93,45.57,81.77,90.5,163.9,135.62,245.93,4.09,7.43,8.36,14.77,12.16,22.34,1.76,3.52,3.99,4.8,7.82,4.55,6.04-.39,12.31-.83,15.7,6.56l-.96,7.01c-3.26,3.82-7.45,4.93-12.5,4.93-161.83-.09-323.66-.07-485.49-.08-1.82,0-3.69,.05-5.46-.3-4.86-.97-7.84-4.91-7.56-9.66,.29-4.95,3.78-8.21,9.15-8.5,.04,0,.08,0,.12,.01,9.53,2.22,13.46-3.44,17.56-10.94,48.91-89.43,98.07-178.72,147.36-267.93,2.96-5.36,3.06-9.14-.53-14.28-9.53-13.67-8.93-15.5,5-24.57,8.64-5.62,17.3-11.22,25.99-16.77,7.21-4.61,11.49-3.7,16.23,3.58l.04,.06c1.14,1.75,3.87,.87,3.76-1.22-.5-10.04-1.03-20.72-1.03-20.74,0-90.07-111.38-132.94-190.87-132.95-6.79,0-12.85,.59-20.45,1.53-20.6,2.57-36.14,20.16-36.14,40.92l-.07,443.09c1.34,91.2,76.26,165.39,167.01,165.39,41.39,0,80.48-15.23,110.49-42.03,30.01,26.8,69.1,42.03,110.49,42.03,90.8,0,165.69-74.26,166.94-165.96l.42-442.53c.03-20.67-15.4-38.28-35.86-40.95Z"/><path class="c" d="M517.85,386c7.1,10.94,14.18,21.89,21.17,32.9,2.28,3.58,3.48,4.02,5.94,.12,7-11.07,14.1-22.07,21.22-33.05-10.94,.36-36.57,.37-48.33,.03Z"/><path class="c" d="M503.61,475c-5.95-8.82-11.6-17.84-17.38-26.77-3.41-5.26-6.85-10.5-10.58-16.21-1.14,1.97-1.99,3.36-2.78,4.79-31.75,57.66-63.5,115.31-95.23,172.98-15.78,28.69-31.46,57.44-47.33,86.08-2.11,3.8-1.54,4.65,2.72,4.53,8.31-.25,16.63-.24,24.93,0,3.64,.11,5.76-1.28,7.65-4.25,11.28-17.65,22.71-35.2,34.09-52.79,34.59-53.45,69.17-106.91,103.83-160.31,1.89-2.91,2.06-5.11,.07-8.05Z"/></g></svg>