<?xml version="1.0" encoding="UTF-8"?><svg id="a" xmlns="http://www.w3.org/2000/svg" viewBox="0 0 1080 1080"><defs><style>.b{fill:#6a45ff;}.c{fill:#fff;}.d{fill:#9d85ff;}.e{fill:#dd1956;stroke:#dd1956;}.e,.f,.g{stroke-miterlimit:10;}.e,.g{stroke-width:4.31px;}.f{fill:#ff4576;stroke:#ff4576;}.g{fill:none;stroke:#b3b3ff;}</style></defs><g><path class="g" d="M863.98,216.03c.45,.05,.93,.13,1.4,.2l-1.6-1.6c.07,.47,.15,.94,.2,1.4ZM216.03,863.98c-.45-.05-.89-.13-1.34-.18l1.52,1.52c-.05-.45-.13-.89-.18-1.34Z"/><path class="e" d="M216.03,863.98c.05,.45,.13,.89,.18,1.34,179.32,178.49,469.35,178.23,648.35-.76,178.98-178.98,179.27-469.01,.82-648.33-.47-.07-.94-.15-1.4-.2,23.05,171.9-31.49,352.2-163.62,484.33-132.11,132.11-312.41,186.66-484.33,163.62Z"/><path class="f" d="M863.98,216.03c-.06-.45-.13-.93-.2-1.4-179.32-178.45-469.37-178.18-648.35,.8-179,179-179.23,469.04-.74,648.37,.45,.05,.89,.13,1.34,.18,171.92,23.03,352.22-31.51,484.33-163.62,132.13-132.13,186.67-312.43,163.62-484.33Z"/></g><g><path class="d" d="M529.93,1079.44C232.23,1073.89-5.45,827.34,.1,529.84,5.65,232.33,252.36-5.2,550.07,.35c297.7,5.55,535.39,252.1,529.84,549.6-5.55,297.5-252.27,535.03-549.97,529.49Zm18.49-991c-249.1-4.64-455.21,194.11-460.18,443.04-5.28,264.33,194.24,455.23,443.33,459.87,249.1,4.64,455.97-194.1,460.18-443.04,4.31-254.74-194.24-455.23-443.33-459.87Z"/><path class="b" d="M529.89,1079.9c-246.73-4.6-446.39-158.01-508.65-390.85-6.28-23.5,7.69-47.65,31.21-53.93,23.52-6.29,47.68,7.68,53.97,31.19,62.99,235.59,268.38,322.59,425.12,325.51,17.92,.33,36.03-.33,53.83-1.97,24.23-2.22,45.71,15.59,47.95,39.82,2.24,24.23-15.6,45.68-39.84,47.92-21.03,1.94-42.42,2.72-63.58,2.33Zm499.15-573.67c-20.99-.39-39.31-15.78-42.67-37.22-34.01-216.6-218.19-376.79-437.95-380.88h-.34c-24.19-.46-44.4-20.33-44.14-44.54C504.21,19.25,523.27-.26,547.62,0c.06,0,1.17,.02,1.23,.02,.06,0,1.17,.02,1.23,.02,262.62,4.89,482.74,196.38,523.4,455.32,3.77,24.03-12.67,46.57-36.72,50.35-2.59,.4-5.17,.58-7.71,.53Z"/></g><g><path class="d" d="M529.93,1079.44C232.23,1073.89-5.45,827.34,.1,529.84,5.65,232.33,252.36-5.2,550.07,.35c297.7,5.55,535.39,252.1,529.84,549.6-5.55,297.5-252.27,535.03-549.97,529.49Zm18.49-991c-249.1-4.64-455.21,194.11-460.18,443.04-5.28,264.33,194.24,455.23,443.33,459.87,249.1,4.64,455.97-194.1,460.18-443.04,4.31-254.74-194.24-455.23-443.33-459.87Z"/><path class="b" d="M529.89,1079.9c-246.73-4.6-446.39-158.01-508.65-390.85-6.28-23.5,7.69-47.65,31.21-53.93,23.52-6.29,47.68,7.68,53.97,31.19,62.99,235.59,268.38,322.59,425.12,325.51,17.92,.33,36.03-.33,53.83-1.97,24.23-2.22,45.71,15.59,47.95,39.82,2.24,24.23-15.6,45.68-39.84,47.92-21.03,1.94-42.42,2.72-63.58,2.33Zm499.15-573.67c-20.99-.39-39.31-15.78-42.67-37.22-34.01-216.6-218.19-376.79-437.95-380.88h-.34c-24.19-.46-44.4-20.33-44.14-44.54C504.21,19.25,523.27-.26,547.62,0c.06,0,1.17,.02,1.23,.02,.06,0,1.17,.02,1.23,.02,262.62,4.89,482.74,196.38,523.4,455.32,3.77,24.03-12.67,46.57-36.72,50.35-2.59,.4-5.17,.58-7.71,.53Z"/></g><path class="c" d="M820.04,734.43c-.19-7.94-4.69-12.43-12.72-12.82-5.14-.25-6.49-1.54-6.46-6.78,.34-57.77-.59-115.54,.29-173.31,2.75,0,5.51,0,8.26,0,3.77,0,7.58-.38,9.59-4.17,2.1-3.96,.28-7.22-2.18-10.49-11.68-15.48-54.97-73.9-65.06-87.55-3.91-5.29-9.18-7.8-15.76-7.55-4.1,.16-8.2,.45-12.3,.45-32.3,.04-64.6-.04-96.9,.11-4.48,.02-7.78-1.35-10.88-4.5-11.33-11.49-22.83-22.81-34.3-34.16-9.96-9.86-19.94-19.7-29.98-29.47-2.51-2.45-3.54-5.2-3.51-8.71,.06-6.93,.3-13.87-.33-20.81-.41-4.52,2.06-6,6.04-3.66,6.77,3.98,13.93,6.45,21.84,5.54,6.5-.74,12.73-2.95,18.62-5.59,7.41-3.33,15.01-3.82,22.79-3.25,4.9,.36,9.93,.63,14.08,3.99,1.8,1.46,3.95,2.58,6.24,1.12,2.13-1.37,1.72-3.71,1.57-5.82-1.05-15.7-.81-31.39-.15-47.09,.15-3.62,.53-7.9-3.37-9.86-12.27-6.15-24.89-9.22-38.38-3.48-5.58,2.37-11.34,4.48-17.21,5.94-10.58,2.64-20.07-.22-28.77-6.63-4.46-3.29-9.68-3.38-14.53-.96-4.19,2.1-4,6.4-3.99,10.45,.06,27.06,.06,54.12,.14,81.18,0,2.71-.73,4.86-2.71,6.82-21.98,21.87-43.9,43.8-65.83,65.72-2.25,2.25-5.03,3.15-8.1,3.09-4.67-.08-9.34-.46-14-.44-24.76,.11-49.52,.34-74.27,.43-7.08,.03-14.16-.19-21.23-.46-7.51-.29-13.48,2.49-17.92,8.53-6.2,8.44-12.32,16.94-18.56,25.35-12.21,16.47-43.85,56.96-49.24,64.61-1.64,2.32-.7,6.43,1.82,8.16,4.12,2.83,8.55,3.08,13.32,3.06,1.12,0,2.24,0,3.35,0,.01,47.63,.03,95.26,.04,142.89,0,10.63-.05,21.25,.05,31.88,.03,3.45-1.15,5.16-4.83,5.44-10.44,.81-14.72,5.57-14.72,15.93,0,3.26,0,6.52,.04,9.78,.02,1.26-.03,2.64,1.06,3.54,4.23,3.5,8.35,6.06,14.57,6.04,88.13-.28,176.25-.19,264.38-.19v.24c89.4,0,178.8,0,268.2,.01,7.19,0,11.69-4.21,11.91-11.52,.11-3.68,.08-7.37-.01-11.05Zm-250.82-19.22c0,4.63-1.63,6.6-6.25,6.6-15.01,.02-30.01-.07-45.02-.22-4.58-.05-5.56-1.2-5.58-6.03-.04-9.91-.01-19.82-.01-29.74h.03c0-9.63-.06-19.26,.02-28.89,.09-11.32,4.83-20.08,14.43-26.29,8.79-5.69,25.29-5.37,34.38,5.32,5.82,6.85,7.56,14.96,7.81,23.17,.57,18.67,.18,37.37,.2,56.07Zm-28.42-121.66c-33.09,0-59.91-26.82-59.91-59.91s26.82-59.91,59.91-59.91,59.91,26.82,59.91,59.91-26.82,59.91-59.91,59.91Z"/></svg>