<?xml version="1.0" encoding="UTF-8"?><svg id="a" xmlns="http://www.w3.org/2000/svg" viewBox="0 0 1080 1080"><defs><style>.b{fill:#6a45ff;}.c{fill:#fff;}.d{fill:#9d85ff;}.e{fill:#2fadeb;stroke:#2fadeb;}.e,.f,.g,.h{stroke-miterlimit:10;}.e,.g{stroke-width:4.31px;}.f{fill:#52b9eb;stroke:#52b9eb;}.g{fill:none;stroke:#b3b3ff;}.h{fill:#fcfcfc;stroke:#fff;stroke-width:3px;}</style></defs><g><g><path class="g" d="M863.98,216.03c.45,.05,.93,.13,1.4,.2l-1.6-1.6c.07,.47,.15,.94,.2,1.4ZM216.03,863.98c-.45-.05-.89-.13-1.34-.18l1.52,1.52c-.05-.45-.13-.89-.18-1.34Z"/><path class="e" d="M216.03,863.98c.05,.45,.13,.89,.18,1.34,179.32,178.49,469.35,178.23,648.35-.76,178.98-178.98,179.27-469.01,.82-648.33-.47-.07-.94-.15-1.4-.2,23.05,171.9-31.49,352.2-163.62,484.33-132.11,132.11-312.41,186.66-484.33,163.62Z"/><path class="f" d="M863.98,216.03c-.06-.45-.13-.93-.2-1.4-179.32-178.45-469.37-178.18-648.35,.8-179,179-179.23,469.04-.74,648.37,.45,.05,.89,.13,1.34,.18,171.92,23.03,352.22-31.51,484.33-163.62,132.13-132.13,186.67-312.43,163.62-484.33Z"/></g><g><path class="h" d="M541.43,241.57c142.99,0,263.52,98.16,297.7,230.61l23.24-23.24c-39.27-125.72-150.54-219.95-285.32-234.21,6.21-7.79,9.93-17.63,9.93-28.34,0-25.12-20.44-45.55-45.55-45.55s-45.55,20.44-45.55,45.55c0,10.71,3.72,20.56,9.93,28.34-134.85,14.27-246.17,108.59-285.37,234.4l23.24,23.24c34.11-132.55,154.69-230.8,297.75-230.8Zm0-80.68c14.06,0,25.5,11.44,25.5,25.5s-11.44,25.5-25.5,25.5-25.5-11.44-25.5-25.5,11.44-25.5,25.5-25.5Z"/><path class="h" d="M811.4,583.26h35.52c-17.1,153.44-147.58,273.15-305.5,273.15s-288.4-119.71-305.5-273.15h35.52l-66.17-65.26v30.99h0c0,170.95,128.27,312.49,293.61,333.47l42.53,56.71,42.54-56.71c165.34-20.97,293.61-162.52,293.61-333.47v-30.99l-66.17,65.26Z"/></g><g><path class="c" d="M385.59,550.88c27.27-16.28,47.8-40.37,71.43-60.85,31.38-27.2,63.4-52.98,104.95-63.57,18.34-4.68,36.74-5.2,55.13-2.99,13.47,1.61,24.68,8.04,26.16,23.65,.69,7.24-1.51,14.23-10.61,10.66-23.03-9.02-37.12,2.54-47.79,20.35-10.77,17.98-7.24,45.74,7.59,61.86,16.08,17.49,36.65,26.03,60.36,28.44,34.7,3.52,67.76-7.77,101.79-10.02,4.71-.31,9.51-1.8,14.08-1.38,.41-5.62,.63-11.29,.63-17.02,0-126.63-102.66-229.29-229.29-229.29s-229.29,102.66-229.29,229.29c0,5.94,.23,11.83,.67,17.66,25.12,10.59,49.72,7.83,74.21-6.79Z"/><path class="c" d="M700.58,599.92c-39.94,18.74-80.78,31.86-125.78,24.48-10.68-1.75-20.79-4.66-30.11-10.25-20.17-12.08-29.74-30.07-25.03-49.73,5.17-21.6,21.84-25.71,44.25-23.37-14-20.6-36.66-25.33-60.66-15.26-14.53,6.1-27.05,15.66-40.26,24.1-39.55,25.25-80.95,45.29-129.95,40.37-5.96-.6-11.83-1.43-17.41-2.89,21.82,103.91,113.98,181.94,224.38,181.94s208.54-83.19,226.28-192.17c-23.8,2.39-44.63,12.9-65.7,22.79Z"/></g></g><g><path class="d" d="M529.93,1079.44C232.23,1073.89-5.45,827.34,.1,529.84,5.65,232.33,252.36-5.2,550.07,.35c297.7,5.55,535.39,252.1,529.84,549.6-5.55,297.5-252.27,535.03-549.97,529.49Zm18.49-991c-249.1-4.64-455.21,194.11-460.18,443.04-5.28,264.33,194.24,455.23,443.33,459.87,249.1,4.64,455.97-194.1,460.18-443.04,4.31-254.74-194.24-455.23-443.33-459.87Z"/><path class="b" d="M529.89,1079.9c-246.73-4.6-446.39-158.01-508.65-390.85-6.28-23.5,7.69-47.65,31.21-53.93,23.52-6.29,47.68,7.68,53.97,31.19,62.99,235.59,268.38,322.59,425.12,325.51,17.92,.33,36.03-.33,53.83-1.97,24.23-2.22,45.71,15.59,47.95,39.82,2.24,24.23-15.6,45.68-39.84,47.92-21.03,1.94-42.42,2.72-63.58,2.33Zm499.15-573.67c-20.99-.39-39.31-15.78-42.67-37.22-34.01-216.6-218.19-376.79-437.95-380.88h-.34c-24.19-.46-44.4-20.33-44.14-44.54C504.21,19.25,523.27-.26,547.62,0c.06,0,1.17,.02,1.23,.02,.06,0,1.17,.02,1.23,.02,262.62,4.89,482.74,196.38,523.4,455.32,3.77,24.03-12.67,46.57-36.72,50.35-2.59,.4-5.17,.58-7.71,.53Z"/></g><g><g><path class="g" d="M863.98,216.03c.45,.05,.93,.13,1.4,.2l-1.6-1.6c.07,.47,.15,.94,.2,1.4ZM216.03,863.98c-.45-.05-.89-.13-1.34-.18l1.52,1.52c-.05-.45-.13-.89-.18-1.34Z"/><path class="e" d="M216.03,863.98c.05,.45,.13,.89,.18,1.34,179.32,178.49,469.35,178.23,648.35-.76,178.98-178.98,179.27-469.01,.82-648.33-.47-.07-.94-.15-1.4-.2,23.05,171.9-31.49,352.2-163.62,484.33-132.11,132.11-312.41,186.66-484.33,163.62Z"/><path class="f" d="M863.98,216.03c-.06-.45-.13-.93-.2-1.4-179.32-178.45-469.37-178.18-648.35,.8-179,179-179.23,469.04-.74,648.37,.45,.05,.89,.13,1.34,.18,171.92,23.03,352.22-31.51,484.33-163.62,132.13-132.13,186.67-312.43,163.62-484.33Z"/></g><g><path class="h" d="M541.43,241.57c142.99,0,263.52,98.16,297.7,230.61l23.24-23.24c-39.27-125.72-150.54-219.95-285.32-234.21,6.21-7.79,9.93-17.63,9.93-28.34,0-25.12-20.44-45.55-45.55-45.55s-45.55,20.44-45.55,45.55c0,10.71,3.72,20.56,9.93,28.34-134.85,14.27-246.17,108.59-285.37,234.4l23.24,23.24c34.11-132.55,154.69-230.8,297.75-230.8Zm0-80.68c14.06,0,25.5,11.44,25.5,25.5s-11.44,25.5-25.5,25.5-25.5-11.44-25.5-25.5,11.44-25.5,25.5-25.5Z"/><path class="h" d="M811.4,583.26h35.52c-17.1,153.44-147.58,273.15-305.5,273.15s-288.4-119.71-305.5-273.15h35.52l-66.17-65.26v30.99h0c0,170.95,128.27,312.49,293.61,333.47l42.53,56.71,42.54-56.71c165.34-20.97,293.61-162.52,293.61-333.47v-30.99l-66.17,65.26Z"/></g><g><path class="c" d="M385.59,550.88c27.27-16.28,47.8-40.37,71.43-60.85,31.38-27.2,63.4-52.98,104.95-63.57,18.34-4.68,36.74-5.2,55.13-2.99,13.47,1.61,24.68,8.04,26.16,23.65,.69,7.24-1.51,14.23-10.61,10.66-23.03-9.02-37.12,2.54-47.79,20.35-10.77,17.98-7.24,45.74,7.59,61.86,16.08,17.49,36.65,26.03,60.36,28.44,34.7,3.52,67.76-7.77,101.79-10.02,4.71-.31,9.51-1.8,14.08-1.38,.41-5.62,.63-11.29,.63-17.02,0-126.63-102.66-229.29-229.29-229.29s-229.29,102.66-229.29,229.29c0,5.94,.23,11.83,.67,17.66,25.12,10.59,49.72,7.83,74.21-6.79Z"/><path class="c" d="M700.58,599.92c-39.94,18.74-80.78,31.86-125.78,24.48-10.68-1.75-20.79-4.66-30.11-10.25-20.17-12.08-29.74-30.07-25.03-49.73,5.17-21.6,21.84-25.71,44.25-23.37-14-20.6-36.66-25.33-60.66-15.26-14.53,6.1-27.05,15.66-40.26,24.1-39.55,25.25-80.95,45.29-129.95,40.37-5.96-.6-11.83-1.43-17.41-2.89,21.82,103.91,113.98,181.94,224.38,181.94s208.54-83.19,226.28-192.17c-23.8,2.39-44.63,12.9-65.7,22.79Z"/></g></g><g><path class="d" d="M529.93,1079.44C232.23,1073.89-5.45,827.34,.1,529.84,5.65,232.33,252.36-5.2,550.07,.35c297.7,5.55,535.39,252.1,529.84,549.6-5.55,297.5-252.27,535.03-549.97,529.49Zm18.49-991c-249.1-4.64-455.21,194.11-460.18,443.04-5.28,264.33,194.24,455.23,443.33,459.87,249.1,4.64,455.97-194.1,460.18-443.04,4.31-254.74-194.24-455.23-443.33-459.87Z"/><path class="b" d="M529.89,1079.9c-246.73-4.6-446.39-158.01-508.65-390.85-6.28-23.5,7.69-47.65,31.21-53.93,23.52-6.29,47.68,7.68,53.97,31.19,62.99,235.59,268.38,322.59,425.12,325.51,17.92,.33,36.03-.33,53.83-1.97,24.23-2.22,45.71,15.59,47.95,39.82,2.24,24.23-15.6,45.68-39.84,47.92-21.03,1.94-42.42,2.72-63.58,2.33Zm499.15-573.67c-20.99-.39-39.31-15.78-42.67-37.22-34.01-216.6-218.19-376.79-437.95-380.88h-.34c-24.19-.46-44.4-20.33-44.14-44.54C504.21,19.25,523.27-.26,547.62,0c.06,0,1.17,.02,1.23,.02,.06,0,1.17,.02,1.23,.02,262.62,4.89,482.74,196.38,523.4,455.32,3.77,24.03-12.67,46.57-36.72,50.35-2.59,.4-5.17,.58-7.71,.53Z"/></g></svg>