<?xml version="1.0" encoding="UTF-8"?><svg id="a" xmlns="http://www.w3.org/2000/svg" viewBox="0 0 1080 1080"><defs><style>.b{fill:#6a45ff;}.c{fill:#f1c75a;}.d{fill:#9d85ff;}.e{fill:#ffdc83;stroke:#ffdc83;}.e,.f,.g{stroke-miterlimit:10;}.f{fill:#f9ebb4;stroke:#f9ebb4;}.g{fill:none;stroke:#b3b3ff;stroke-width:4.31px;}</style></defs><g><g><path class="g" d="M863.98,216.03c.45,.05,.93,.13,1.4,.2l-1.6-1.6c.07,.47,.15,.94,.2,1.4ZM216.03,863.98c-.45-.05-.89-.13-1.34-.18l1.52,1.52c-.05-.45-.13-.89-.18-1.34Z"/><path class="e" d="M216.03,863.98c.05,.45,.13,.89,.18,1.34,179.32,178.49,469.35,178.23,648.35-.76,178.98-178.98,179.27-469.01,.82-648.33-.47-.07-.94-.15-1.4-.2,23.05,171.9-31.49,352.2-163.62,484.33-132.11,132.11-312.41,186.66-484.33,163.62Z"/><path class="f" d="M863.98,216.03c-.06-.45-.13-.93-.2-1.4-179.32-178.45-469.37-178.18-648.35,.8-179,179-179.23,469.04-.74,648.37,.45,.05,.89,.13,1.34,.18,171.92,23.03,352.22-31.51,484.33-163.62,132.13-132.13,186.67-312.43,163.62-484.33Z"/></g><g><path class="c" d="M753.55,506.23h-21.51c-11.33,0-20.51,9.18-20.51,20.51v84.93c0,97.59-80.58,176.92-178.11,173.23-91.55-3.46-164.97-79.03-164.97-171.41v-86.75c0-11.33-9.18-20.51-20.51-20.51h-21.51c-10.95,0-19.96,8.6-20.48,19.53l-14.27,300.83c-.55,11.69,8.78,21.48,20.48,21.48h455.64c11.71,0,21.04-9.78,20.48-21.48l-14.27-300.83c-.52-10.94-9.54-19.53-20.48-19.53Z"/><path class="c" d="M540.9,710.48c53.43-.49,96.1-44.86,96.1-98.29v-85.36c0-11.38-9.22-20.6-20.6-20.6h-152.8c-11.38,0-20.6,9.22-20.6,20.6v86.66c0,53.78,44,97.48,97.9,96.99Z"/><path class="c" d="M422.53,502.01h-33.59c-7.73,0-14-6.27-14-14v-89.28c0-93.91,77.54-170.23,171.38-166.68,88.09,3.33,158.73,76.04,158.73,164.94v20.6c0,7.72-6.26,13.99-13.99,13.99h-33.6c-7.72,0-13.99-6.26-13.99-13.99v-19.21c0-57.01-45.52-104.34-102.52-104.86-57.5-.52-104.44,46.1-104.44,103.48v91.04c0,7.72-6.26,13.99-13.99,13.99Z"/></g></g><g><path class="d" d="M529.93,1079.44C232.23,1073.89-5.45,827.34,.1,529.84,5.65,232.33,252.36-5.2,550.07,.35c297.7,5.55,535.39,252.1,529.84,549.6-5.55,297.5-252.27,535.03-549.97,529.49Zm18.49-991c-249.1-4.64-455.21,194.11-460.18,443.04-5.28,264.33,194.24,455.23,443.33,459.87,249.1,4.64,455.97-194.1,460.18-443.04,4.31-254.74-194.24-455.23-443.33-459.87Z"/><path class="b" d="M529.89,1079.9c-246.73-4.6-446.39-158.01-508.65-390.85-6.28-23.5,7.69-47.65,31.21-53.93,23.52-6.29,47.68,7.68,53.97,31.19,62.99,235.59,268.38,322.59,425.12,325.51,17.92,.33,36.03-.33,53.83-1.97,24.23-2.22,45.71,15.59,47.95,39.82,2.24,24.23-15.6,45.68-39.84,47.92-21.03,1.94-42.42,2.72-63.58,2.33Zm499.15-573.67c-20.99-.39-39.31-15.78-42.67-37.22-34.01-216.6-218.19-376.79-437.95-380.88h-.34c-24.19-.46-44.4-20.33-44.14-44.54C504.21,19.25,523.27-.26,547.62,0c.06,0,1.17,.02,1.23,.02,.06,0,1.17,.02,1.23,.02,262.62,4.89,482.74,196.38,523.4,455.32,3.77,24.03-12.67,46.57-36.72,50.35-2.59,.4-5.17,.58-7.71,.53Z"/></g></svg>