<?xml version="1.0" encoding="UTF-8"?><svg id="a" xmlns="http://www.w3.org/2000/svg" viewBox="0 0 1080 1080"><defs><style>.b{fill:#2fadeb;fill-rule:evenodd;stroke:#2fadeb;stroke-width:4.31px;}.b,.c,.d{stroke-miterlimit:10;}.e{fill:#6a45ff;}.f{fill:#9d85ff;}.c{fill:#8dccf7;stroke:#8dccf7;}.d{fill:#6ebded;stroke:#6ebded;}</style></defs><g><path class="d" d="M212.61,863.99c.05,.46,.13,.88,.18,1.34,179.32,178.49,469.34,178.23,648.34-.77,178.98-178.98,179.27-469,.82-648.33-.47-.07-.95-.15-1.4-.2,23.05,171.89-31.5,352.2-163.62,484.33-132.1,132.1-312.41,186.65-484.33,163.62h.02Z"/><path class="c" d="M860.55,216.04c-.05-.46-.13-.93-.19-1.4-179.32-178.46-469.38-178.18-648.34,.8-179,179-179.23,469.05-.75,648.37,.46,.05,.88,.13,1.34,.18,171.91,23.04,352.21-31.51,484.33-163.62,132.12-132.12,186.67-312.42,163.62-484.33Z"/><path class="b" d="M218.87,587.66l81.69-49.57h-.04c9.88-5.99,10.79-20.29,1.45-27.04-6.98-5.04-17.77-5.42-34.06,9.84-14.41,13.5-38.1,39.47-55.52,59.03-3.89,4.39,1.45,10.79,6.48,7.74Zm327.75,132.65c16.69,26.28,32.5,51.17,67.98,32.82h.08c41.43-21.43,.76-134.3-9.12-161.71-.65-1.8-1.17-3.24-1.52-4.25-4.5-12.93,11.59-53.01,22.27-77.19,5.07-11.52,2.02-24.98-7.51-33.22-11.86-10.22-29.67-9.11-40.12,2.55-44.58,49.8-154.87,169.13-163.48,174.85-13.31,8.81-30.66,14.68-47.02,17.81-12.97,2.48-14.76,20.14-2.63,25.32,18.49,7.93,42.56,12.28,67.88,1.03,54.8-24.37,77.64-27.42,100.49,3.05,4.49,5.98,8.63,12.5,12.71,18.93Zm301.1-176.39c30.28,1.91,53.01,27.92,51.41,57.36l.04-.04c3.24-19.56,4.96-39.66,4.96-60.18,0-202.34-164.02-366.36-366.36-366.36S171.39,338.71,171.39,541.06c0,12.93,.69,25.7,1.98,38.29l87.83-102.05c20.25-27,60.75-27,80.96,0l55.75,67.65c14.15,17.12,40.12,17.85,55.14,1.53l136.6-148.35c21.66-23.57,58.84-23.64,80.62-.15,14.5,15.62,31.34,33.76,47.8,51.5,37.87,40.8,73.7,79.42,74.31,80.03,6.25,6.33,13.27,11.52,19.72,11.98,13.46,.95,25.24,1.75,35.58,2.44h.04Z"/></g><g><path class="f" d="M526.52,1079.44C228.81,1073.89-8.87,827.34-3.32,529.84,2.23,232.33,248.95-5.2,546.65,.35c297.7,5.55,535.39,252.1,529.84,549.6-5.55,297.5-252.27,535.03-549.97,529.49Zm18.49-991c-249.1-4.64-455.21,194.11-460.18,443.04-5.28,264.33,194.24,455.23,443.33,459.87,249.1,4.64,455.97-194.1,460.18-443.04,4.31-254.74-194.24-455.23-443.33-459.87Z"/><path class="e" d="M526.48,1079.9c-246.73-4.6-446.39-158.01-508.65-390.85-6.28-23.5,7.69-47.65,31.21-53.93,23.52-6.29,47.68,7.68,53.97,31.19,62.99,235.59,268.38,322.59,425.12,325.51,17.92,.33,36.03-.33,53.83-1.97,24.23-2.22,45.71,15.59,47.95,39.82,2.24,24.23-15.6,45.68-39.84,47.92-21.03,1.94-42.42,2.72-63.58,2.33Zm499.15-573.67c-20.99-.39-39.31-15.78-42.67-37.22-34.01-216.6-218.19-376.79-437.95-380.88h-.34c-24.19-.46-44.4-20.33-44.14-44.54C500.8,19.25,519.86-.26,544.2,0c.06,0,1.17,.02,1.23,.02,.06,0,1.17,.02,1.23,.02,262.62,4.89,482.74,196.38,523.4,455.32,3.77,24.03-12.67,46.57-36.72,50.35-2.59,.4-5.17,.58-7.71,.53Z"/></g></svg>