<?xml version="1.0" encoding="UTF-8"?><svg id="a" xmlns="http://www.w3.org/2000/svg" viewBox="0 0 1080 1080"><defs><style>.b,.c{fill:#6a45ff;}.d{fill:#fff;}.e{fill:#9d85ff;}.f{fill:#4b1fff;stroke:#4b1fff;}.f,.c,.g{stroke-miterlimit:10;}.f,.g{stroke-width:4.31px;}.c{stroke:#6a45ff;}.g{fill:none;stroke:#b3b3ff;}</style></defs><g><g><path class="g" d="M863.98,216.03c.45,.05,.93,.13,1.4,.2l-1.6-1.6c.07,.47,.15,.94,.2,1.4ZM216.03,863.98c-.45-.05-.89-.13-1.34-.18l1.52,1.52c-.05-.45-.13-.89-.18-1.34Z"/><path class="f" d="M216.03,863.98c.05,.45,.13,.89,.18,1.34,179.32,178.49,469.35,178.23,648.35-.76,178.98-178.98,179.27-469.01,.82-648.33-.47-.07-.94-.15-1.4-.2,23.05,171.9-31.49,352.2-163.62,484.33-132.11,132.11-312.41,186.66-484.33,163.62Z"/><path class="c" d="M863.98,216.03c-.06-.45-.13-.93-.2-1.4-179.32-178.45-469.37-178.18-648.35,.8-179,179-179.23,469.04-.74,648.37,.45,.05,.89,.13,1.34,.18,171.92,23.03,352.22-31.51,484.33-163.62,132.13-132.13,186.67-312.43,163.62-484.33Z"/></g><g><path class="d" d="M554.41,237.6c-91.49,0-165.67,46.36-165.67,103.56,0,42.16,40.31,78.42,98.17,94.57,3.2,.89,5.38,3.84,5.37,7.16v29.32c0,5.94,6.62,9.49,11.57,6.19l48.72-32.49c1.2-.8,2.61-1.22,4.06-1.24,90.49-.74,163.46-46.81,163.46-103.53s-74.16-103.56-165.67-103.56Zm-72.83,128.73c-16.64,2.1-30.62-11.94-28.46-28.56,1.47-11.3,10.62-20.4,21.93-21.79,16.57-2.04,30.48,11.89,28.4,28.46-1.42,11.31-10.55,20.45-21.87,21.88Zm72.83,.21c-14.38,0-25.95-11.96-25.35-26.45,.54-13.06,11.37-23.83,24.43-24.29,14.44-.51,26.3,11.03,26.3,25.36s-11.36,25.38-25.38,25.38Zm79.44-.21c-16.64,2.1-30.62-11.94-28.46-28.56,1.47-11.3,10.62-20.39,21.93-21.79,16.57-2.04,30.48,11.89,28.4,28.46-1.42,11.31-10.55,20.45-21.87,21.88Z"/><g><circle class="d" cx="383.22" cy="522.36" r="89.98"/><path class="d" d="M244.62,752.12c-4.97,20.73,6.89,41.8,27.26,48.06,22.58,6.93,59.01,13.65,115.42,13.65s89.37-6.42,110.11-13.19c18.69-6.1,30.39-24.46,27.83-43.96-5.83-44.36-30.83-124.99-135.45-124.99s-134.34,75.33-145.17,120.43Z"/></g><g><circle class="d" cx="694.13" cy="522.36" r="89.98"/><path class="d" d="M555.54,752.12c-4.97,20.73,6.89,41.8,27.26,48.06,22.58,6.93,59.01,13.65,115.42,13.65s89.37-6.42,110.11-13.19c18.69-6.1,30.39-24.46,27.83-43.96-5.83-44.36-30.83-124.99-135.45-124.99s-134.34,75.33-145.17,120.43Z"/></g></g></g><g><path class="e" d="M529.93,1079.44C232.23,1073.89-5.45,827.34,.1,529.84,5.65,232.33,252.36-5.2,550.07,.35s535.39,252.1,529.84,549.6c-5.55,297.5-252.27,535.03-549.97,529.49Zm18.49-991c-249.1-4.64-455.21,194.11-460.18,443.04-5.28,264.33,194.24,455.23,443.33,459.87,249.1,4.64,455.97-194.1,460.18-443.04,4.31-254.74-194.24-455.23-443.33-459.87Z"/><path class="b" d="M529.89,1079.9c-246.73-4.6-446.39-158.01-508.65-390.85-6.28-23.5,7.69-47.65,31.21-53.93,23.52-6.29,47.68,7.68,53.97,31.19,62.99,235.59,268.38,322.59,425.12,325.51,17.92,.33,36.03-.33,53.83-1.97,24.23-2.22,45.71,15.59,47.95,39.82,2.24,24.23-15.6,45.68-39.84,47.92-21.03,1.94-42.42,2.72-63.58,2.33Zm499.15-573.67c-20.99-.39-39.31-15.78-42.67-37.22-34.01-216.6-218.19-376.79-437.95-380.88h-.34c-24.19-.46-44.4-20.33-44.14-44.54C504.21,19.25,523.27-.26,547.62,0c.06,0,1.17,.02,1.23,.02,.06,0,1.17,.02,1.23,.02,262.62,4.89,482.74,196.38,523.4,455.32,3.77,24.03-12.67,46.57-36.72,50.35-2.59,.4-5.17,.58-7.71,.53Z"/></g></svg>