<?xml version="1.0" encoding="UTF-8"?><svg id="a" xmlns="http://www.w3.org/2000/svg" viewBox="0 0 1080 1080"><defs><style>.b{fill:#6a45ff;}.c{fill:#9d85ff;}.d{fill:#40c0bd;}.e{fill:#9fe2e0;stroke:#9fe2e0;}.e,.f,.g{stroke-miterlimit:10;}.f{fill:#79d8d3;stroke:#79d8d3;}.g{fill:none;stroke:#b3b3ff;stroke-width:4.31px;}</style></defs><g><path class="g" d="M863.98,216.03c.45,.05,.93,.13,1.4,.2l-1.6-1.6c.07,.47,.15,.94,.2,1.4ZM216.03,863.98c-.45-.05-.89-.13-1.34-.18l1.52,1.52c-.05-.45-.13-.89-.18-1.34Z"/><path class="f" d="M216.03,863.98c.05,.45,.13,.89,.18,1.34,179.32,178.49,469.35,178.23,648.35-.76,178.98-178.98,179.27-469.01,.82-648.33-.47-.07-.94-.15-1.4-.2,23.05,171.9-31.49,352.2-163.62,484.33-132.11,132.11-312.41,186.66-484.33,163.62Z"/><path class="e" d="M863.98,216.03c-.06-.45-.13-.93-.2-1.4-179.32-178.45-469.37-178.18-648.35,.8-179,179-179.23,469.04-.74,648.37,.45,.05,.89,.13,1.34,.18,171.92,23.03,352.22-31.51,484.33-163.62,132.13-132.13,186.67-312.43,163.62-484.33Z"/></g><g><path class="c" d="M529.93,1079.44C232.23,1073.89-5.45,827.34,.1,529.84,5.65,232.33,252.36-5.2,550.07,.35c297.7,5.55,535.39,252.1,529.84,549.6-5.55,297.5-252.27,535.03-549.97,529.49Zm18.49-991c-249.1-4.64-455.21,194.11-460.18,443.04-5.28,264.33,194.24,455.23,443.33,459.87,249.1,4.64,455.97-194.1,460.18-443.04,4.31-254.74-194.24-455.23-443.33-459.87Z"/><path class="b" d="M529.89,1079.9c-246.73-4.6-446.39-158.01-508.65-390.85-6.28-23.5,7.69-47.65,31.21-53.93,23.52-6.29,47.68,7.68,53.97,31.19,62.99,235.59,268.38,322.59,425.12,325.51,17.92,.33,36.03-.33,53.83-1.97,24.23-2.22,45.71,15.59,47.95,39.82,2.24,24.23-15.6,45.68-39.84,47.92-21.03,1.94-42.42,2.72-63.58,2.33Zm499.15-573.67c-20.99-.39-39.31-15.78-42.67-37.22-34.01-216.6-218.19-376.79-437.95-380.88h-.34c-24.19-.46-44.4-20.33-44.14-44.54C504.21,19.25,523.27-.26,547.62,0c.06,0,1.17,.02,1.23,.02,.06,0,1.17,.02,1.23,.02,262.62,4.89,482.74,196.38,523.4,455.32,3.77,24.03-12.67,46.57-36.72,50.35-2.59,.4-5.17,.58-7.71,.53Z"/></g><g><path class="c" d="M529.93,1079.44C232.23,1073.89-5.45,827.34,.1,529.84,5.65,232.33,252.36-5.2,550.07,.35c297.7,5.55,535.39,252.1,529.84,549.6-5.55,297.5-252.27,535.03-549.97,529.49Zm18.49-991c-249.1-4.64-455.21,194.11-460.18,443.04-5.28,264.33,194.24,455.23,443.33,459.87,249.1,4.64,455.97-194.1,460.18-443.04,4.31-254.74-194.24-455.23-443.33-459.87Z"/><path class="b" d="M529.89,1079.9c-246.73-4.6-446.39-158.01-508.65-390.85-6.28-23.5,7.69-47.65,31.21-53.93,23.52-6.29,47.68,7.68,53.97,31.19,62.99,235.59,268.38,322.59,425.12,325.51,17.92,.33,36.03-.33,53.83-1.97,24.23-2.22,45.71,15.59,47.95,39.82,2.24,24.23-15.6,45.68-39.84,47.92-21.03,1.94-42.42,2.72-63.58,2.33Zm499.15-573.67c-20.99-.39-39.31-15.78-42.67-37.22-34.01-216.6-218.19-376.79-437.95-380.88h-.34c-24.19-.46-44.4-20.33-44.14-44.54C504.21,19.25,523.27-.26,547.62,0c.06,0,1.17,.02,1.23,.02,.06,0,1.17,.02,1.23,.02,262.62,4.89,482.74,196.38,523.4,455.32,3.77,24.03-12.67,46.57-36.72,50.35-2.59,.4-5.17,.58-7.71,.53Z"/></g><g><path class="d" d="M826.07,683.23c-21.48-5.64-42.51-11.05-63.67-15.31-130.29-26.2-263.01-29.25-394.47-9.05-39.77,6.11-78.41,14.4-114.86,24.63-5.44,1.53-22,6.18-20.24,25.16v.11c1.04,9.75,3.51,18.32,7.54,26.2,4.92,9.62,12.3,14.54,21.61,14.54,2.81,0,5.79-.45,8.93-1.35,40.19-11.5,83.76-20.15,137.12-27.24,105.52-14,163.55-14.14,258.69-.61l.14,.02c50.99,6.35,96.7,15.13,139.75,26.83,18.9,5.14,27.44,1.01,35.12-16.98,1.85-4.33,3.33-9.18,4.4-14.4,3.87-18.87-1.57-27.7-20.06-32.55Z"/><path class="d" d="M377.2,435.26c15.04,26.68,30.59,54.27,46.13,81.28,6.38,11.09,17.14,17.28,30.29,17.41h.19c12.48,0,23.73-6.29,30.11-16.85,6.63-10.97,6.83-24.6,.55-36.44-12.89-24.29-26.64-48.59-39.94-72.09-5.95-10.52-12.11-21.4-18.1-32.12-6.07-10.87-16.4-14.73-28.33-10.6-12.26,4.25-22.1,10.34-30.06,18.63-7.92,8.24-9.36,17.94-4.07,27.31,4.42,7.82,8.83,15.65,13.24,23.47Z"/><path class="d" d="M619.37,532.23c3.58,1.14,7.16,1.69,10.68,1.69,12.35,0,23.81-6.84,30.89-19.06,13.84-23.9,27.59-48.36,40.89-72.02,3.93-6.99,7.85-13.97,11.79-20.96,6.23-11.06,9.64-19.64,7.37-28.21-2.27-8.55-9.48-14.37-20.38-20.98-3.32-2.01-7-3.77-11.25-5.39-17.21-6.54-25.65-3.48-34.75,12.61-14.69,25.97-29.47,52.46-43.77,78.07l-9.04,16.19c-3.56,6.37-6.91,13.42-7.38,21.84-.97,16.33,9.29,31.22,24.95,36.21Z"/><path class="d" d="M538.75,508.58c.57,.03,1.13,.05,1.7,.05,15.65,0,29.83-12.09,33.39-28.77,1.13-5.28,1.31-10.56,1.35-15.02,.09-12.5,.08-25.18,.06-37.45,0-4.73-.01-9.45-.01-14.18,0-5.08,.01-10.16,.02-15.24,.02-11.52,.05-23.43-.05-35.16-.18-22.47-8.17-30.89-30.53-32.19-6.61-.39-13.32,.22-20.51,1.86-11.85,2.7-18.66,10.81-18.69,22.26-.02,7.24-.05,14.48-.07,21.71-.13,32.37-.26,65.84,.51,98.79,.42,17.99,14.53,32.33,32.83,33.35Z"/><path class="d" d="M662.03,579.23c6.58,11.42,17.72,17.59,29.8,17.59,6.36,0,12.97-1.71,19.33-5.25,24.33-13.58,48.81-27.79,72.48-41.53,8.42-4.89,16.84-9.78,25.27-14.65,5.45-3.15,12.63-8.89,12.01-22.28l-.08-.8c-1.46-9.86-6.8-20.6-15.42-31.05-11.66-14.13-24.21-11.23-32.69-6.3-12.2,7.09-24.67,14.23-36.72,21.13-19.65,11.25-39.97,22.89-59.79,34.68-18.76,11.16-24.46,30.64-14.18,48.48Z"/><path class="d" d="M273.43,537.05c10.13,5.59,20.35,11.52,30.23,17.26,5.46,3.17,10.92,6.34,16.4,9.48,4.85,2.78,9.78,5.66,14.55,8.45,11.96,7,24.32,14.25,36.99,20.64,5.27,2.66,10.9,3.99,16.48,3.99,6.51,0,12.94-1.81,18.62-5.39,10.43-6.59,16.48-17.98,16.18-30.46v-.18c-.83-17.87-12.87-26.99-23.27-32.94-30.84-17.65-61.6-35.32-84.95-48.75-10.63-6.11-18.87-9.47-27.13-7.32-8.32,2.17-13.8,9.13-19.94,19.68-1.9,3.25-3.71,6.81-5.39,10.56-6.67,14.87-2.68,27.29,11.26,34.98Z"/></g></svg>