<?xml version="1.0" encoding="UTF-8"?><svg id="a" xmlns="http://www.w3.org/2000/svg" viewBox="0 0 1080 1080"><defs><style>.b{fill:#6a45ff;}.c{fill:#fff;}.d{fill:#9d85ff;}.e{fill:#2fadeb;stroke:#2fadeb;}.e,.f,.g{stroke-miterlimit:10;}.e,.g{stroke-width:4.31px;}.f{fill:#52b9eb;stroke:#52b9eb;}.g{stroke:#b3b3ff;}.g,.h{fill:none;}.h{stroke:#fff;stroke-linecap:round;stroke-linejoin:round;stroke-width:8.62px;}</style></defs><g><g><path class="g" d="M863.98,216.03c.45,.05,.93,.13,1.4,.2l-1.6-1.6c.07,.47,.15,.94,.2,1.4ZM216.03,863.98c-.45-.05-.89-.13-1.34-.18l1.52,1.52c-.05-.45-.13-.89-.18-1.34Z"/><path class="e" d="M216.03,863.98c.05,.45,.13,.89,.18,1.34,179.32,178.49,469.35,178.23,648.35-.76,178.98-178.98,179.27-469.01,.82-648.33-.47-.07-.94-.15-1.4-.2,23.05,171.9-31.49,352.2-163.62,484.33-132.11,132.11-312.41,186.66-484.33,163.62Z"/><path class="f" d="M863.98,216.03c-.06-.45-.13-.93-.2-1.4-179.32-178.45-469.37-178.18-648.35,.8-179,179-179.23,469.04-.74,648.37,.45,.05,.89,.13,1.34,.18,171.92,23.03,352.22-31.51,484.33-163.62,132.13-132.13,186.67-312.43,163.62-484.33Z"/></g><g><g><path class="h" d="M785.8,531.58c-1.89-56.35-22.73-107.9-56.37-148.46-29.5-35.62-68.87-62.77-113.91-77.29-23.82-7.68-49.22-11.84-75.6-11.84s-54.18,4.55-78.96,12.95c-43.62,14.76-81.76,41.45-110.53,76.16-33.64,40.56-54.49,92.1-56.38,148.46h0c-.09,2.8-.15,5.62-.15,8.44,0,47.73,13.59,92.3,37.11,130.01h0c29.94,48.01,75.94,84.94,130.51,103.24,24.61,8.29,50.99,12.76,78.39,12.76s53.53-4.44,78.05-12.63c54.5-18.23,100.49-54.97,130.49-102.78,23.75-37.85,37.49-82.62,37.49-130.61,0-2.81-.06-5.62-.15-8.41Z"/><g><path class="h" d="M601.86,607.08h-123.67l-.2-.63-38.01-117.56,.53-.39,99.53-72.6,100.03,73.14-38.2,118.04Zm-122.36-1.81h121.05l37.39-115.55-97.92-71.6-97.94,71.45,37.41,115.7Z"/><polygon class="h" points="764.51 550.87 719.79 466.83 699.7 378.25 729.56 382.23 729.32 384.01 702.03 380.38 721.52 466.33 765.05 548.05 785.34 530.78 786.53 532.13 786.39 532.26 764.51 550.87"/><polygon class="h" points="315.37 550.87 293.47 532.23 294.53 530.76 314.83 548.05 358.36 466.33 377.86 380.38 350.56 384.01 350.33 382.23 380.18 378.25 360.02 467.06 315.37 550.87"/><path class="h" d="M617.47,774.12l-30.53-20.14,67.64-72.11c.6-.27,61.4-28.07,84.46-44.92l1.06-.78,9.2,34.17-1.74,.47-8.52-31.64c-23.33,16.58-80.08,42.67-83.56,44.26l-65.77,70.21,28.74,18.97-.99,1.5Z"/><path class="h" d="M461.86,774.11l-1.04-1.48,.19-.13,28.58-18.86-65.77-70.21c-3.47-1.59-60.23-27.68-83.56-44.26l-8.54,31.65-1.74-.48,.17-.58,9.05-33.56,1.06,.77c23.07,16.86,83.85,44.65,84.47,44.92l.28,.2,67.35,71.91-30.5,20.13Z"/><path class="h" d="M540.1,343.38l-.39-.1c-.74-.18-73.03-17.88-87.91-12.63l-1.9,.68,10.24-24.73,1.67,.69-8.77,21.19c17.92-3.64,80.57,11.47,86.72,12.97,15.14-9.91,76.26-12.18,86.74-12.49l-11.76-22.69,1.59-.83,13.1,25.24-1.44,.04c-.73,.02-72.42,1.92-87.54,12.44l-.33,.24Z"/><polygon class="h" points="639.23 490.24 638.76 488.51 720.43 465.77 720.91 467.51 639.23 490.24"/><polygon class="h" points="539.12 417.01 539.01 342.4 540.81 342.4 540.92 417.01 539.12 417.01"/><path class="h" d="M379.77,379.8l-1.5-.98c.4-.62,10.52-15.6,72.79-49.82l.87,1.58c-61.63,33.87-72.05,49.06-72.15,49.21Z"/><path class="h" d="M700.26,379.98c-20.4-18.63-72.25-49.1-72.78-49.4l.91-1.55c.52,.3,52.54,30.87,73.07,49.63l-1.21,1.32Z"/><rect class="h" x="627.18" y="597.68" width="1.8" height="93.51" transform="translate(-256.29 478.08) rotate(-35.08)"/><polygon class="h" points="425.09 683.22 423.62 682.17 478.11 605.65 479.58 606.7 425.09 683.22"/><rect class="h" x="399.22" y="435.5" width="1.8" height="84.87" transform="translate(-167.08 736.4) rotate(-74.56)"/><path class="h" d="M338.93,638.1c-13.55-25.93-24.61-87.86-24.72-88.48l1.77-.32c.11,.63,11.11,62.29,24.54,87.97l-1.6,.83Z"/><path class="h" d="M740.39,638.06l-1.64-.76c12.42-26.6,25.01-87.42,25.14-88.02l1.76,.36c-.13,.62-12.77,61.63-25.27,88.43Z"/><path class="h" d="M549.17,757.1c-28.69,0-57.83-2.36-58.27-2.38l.15-1.8c.66,.06,66.1,5.34,97.13,0l.3,1.77c-10.48,1.8-24.84,2.4-39.31,2.4Z"/></g></g><path class="c" d="M615.52,305.83l12.42,23.96s-72.5,1.81-88.02,12.61c0,0-73.13-18.01-88.43-12.61l9.47-22.86c24.77-8.4,51.33-12.95,78.96-12.95s51.78,4.16,75.6,11.84Z"/><path class="c" d="M379.02,379.31l-19.81,87.33-44.11,82.83-21.05-17.91c1.89-56.36,22.74-107.89,56.38-148.46v.03l28.59-3.81Z"/><path class="c" d="M424.36,682.7l66.61,71.11-29.45,19.43c-54.56-18.31-100.56-55.24-130.51-103.24l8.71-32.31c23.41,17.1,84.63,45.01,84.63,45.01Z"/><path class="c" d="M748.43,670.59h.02c-29.99,47.82-75.98,84.56-130.49,102.79l-29.64-19.56,66.63-71.11s61.21-27.91,84.62-45.01l8.86,32.9Z"/><path class="c" d="M785.8,531.58l-21.02,17.89-44.11-82.83-19.81-87.33,28.57,3.81c33.64,40.55,54.48,92.11,56.37,148.46Z"/><polygon class="c" points="639 489.38 601.21 606.18 478.85 606.18 441.03 489.23 540.02 417.01 639 489.38"/></g></g><g><path class="d" d="M529.93,1079.44C232.23,1073.89-5.45,827.34,.1,529.84,5.65,232.33,252.36-5.2,550.07,.35s535.39,252.1,529.84,549.6c-5.55,297.5-252.27,535.03-549.97,529.49Zm18.49-991c-249.1-4.64-455.21,194.11-460.18,443.04-5.28,264.33,194.24,455.23,443.33,459.87,249.1,4.64,455.97-194.1,460.18-443.04,4.31-254.74-194.24-455.23-443.33-459.87Z"/><path class="b" d="M529.89,1079.9c-246.73-4.6-446.39-158.01-508.65-390.85-6.28-23.5,7.69-47.65,31.21-53.93,23.52-6.29,47.68,7.68,53.97,31.19,62.99,235.59,268.38,322.59,425.12,325.51,17.92,.33,36.03-.33,53.83-1.97,24.23-2.22,45.71,15.59,47.95,39.82,2.24,24.23-15.6,45.68-39.84,47.92-21.03,1.94-42.42,2.72-63.58,2.33Zm499.15-573.67c-20.99-.39-39.31-15.78-42.67-37.22-34.01-216.6-218.19-376.79-437.95-380.88h-.34c-24.19-.46-44.4-20.33-44.14-44.54C504.21,19.25,523.27-.26,547.62,0c.06,0,1.17,.02,1.23,.02,.06,0,1.17,.02,1.23,.02,262.62,4.89,482.74,196.38,523.4,455.32,3.77,24.03-12.67,46.57-36.72,50.35-2.59,.4-5.17,.58-7.71,.53Z"/></g></svg>