<?xml version="1.0" encoding="UTF-8"?><svg id="a" xmlns="http://www.w3.org/2000/svg" viewBox="0 0 1080 1080"><defs><style>.b{fill:#6a45ff;}.c{fill:#f1c75a;}.d{fill:#9d85ff;}.e{fill:#ffdc83;stroke:#ffdc83;}.e,.f,.g{stroke-miterlimit:10;}.f{fill:#f9ebb4;stroke:#f9ebb4;}.g{fill:none;stroke:#b3b3ff;stroke-width:4.31px;}</style></defs><g><path class="g" d="M863.98,216.03c.45,.05,.93,.13,1.4,.2l-1.6-1.6c.07,.47,.15,.94,.2,1.4ZM216.03,863.98c-.45-.05-.89-.13-1.34-.18l1.52,1.52c-.05-.45-.13-.89-.18-1.34Z"/><path class="e" d="M216.03,863.98c.05,.45,.13,.89,.18,1.34,179.32,178.49,469.35,178.23,648.35-.76,178.98-178.98,179.27-469.01,.82-648.33-.47-.07-.94-.15-1.4-.2,23.05,171.9-31.49,352.2-163.62,484.33-132.11,132.11-312.41,186.66-484.33,163.62Z"/><path class="f" d="M863.98,216.03c-.06-.45-.13-.93-.2-1.4-179.32-178.45-469.37-178.18-648.35,.8-179,179-179.23,469.04-.74,648.37,.45,.05,.89,.13,1.34,.18,171.92,23.03,352.22-31.51,484.33-163.62,132.13-132.13,186.67-312.43,163.62-484.33Z"/></g><path class="c" d="M540,194.83c-190.63,0-345.17,154.54-345.17,345.17s154.54,345.17,345.17,345.17,345.17-154.54,345.17-345.17-154.54-345.17-345.17-345.17Z"/><path class="f" d="M332.82,492.16v215.51c0,9.97,8.08,18.05,18.05,18.05h29.94c.78,0,26.02-.21,60.15-5.05,14.8-2.1,20.73-20.25,10.08-30.75-30.17-29.74-45.73-66.82-45.73-110.23v-82.21c0-12.66,10.47-22.86,23.22-22.44,12.2,.41,21.68,10.82,21.68,23.03v81.62c0,30.68,11.19,54.92,28.82,74.06,32.67,35.47,89.26,35.47,121.93,0,17.63-19.14,28.82-43.38,28.82-74.06v-82.21c0-12.66,10.47-22.86,23.22-22.44,12.2,.41,21.68,10.82,21.68,23.03v81.62c0,43.41-15.56,80.49-45.73,110.23-10.65,10.5-4.72,28.65,10.08,30.75,34.14,4.85,59.38,5.05,60.17,5.06h24.6c12.91,0,23.37-10.46,23.37-23.37v-210.18c0-8.66-4-16.84-10.84-22.16l-179.1-139.25c-10.14-7.88-24.33-7.88-34.46,0l-179.1,139.25c-6.84,5.32-10.84,13.5-10.84,22.16Z"/><path class="d" d="M529.93,1079.44C232.23,1073.89-5.45,827.34,.1,529.84,5.65,232.33,252.36-5.2,550.07,.35c297.7,5.55,535.39,252.1,529.84,549.6-5.55,297.5-252.27,535.03-549.97,529.49Zm18.49-991c-249.1-4.64-455.21,194.11-460.18,443.04-5.28,264.33,194.24,455.23,443.33,459.87,249.1,4.64,455.97-194.1,460.18-443.04,4.31-254.74-194.24-455.23-443.33-459.87Z"/><path class="b" d="M529.89,1079.9c-246.73-4.6-446.39-158.01-508.65-390.85-6.28-23.5,7.69-47.65,31.21-53.93,23.52-6.29,47.68,7.68,53.97,31.19,62.99,235.59,268.38,322.59,425.12,325.51,17.92,.33,36.03-.33,53.83-1.97,24.23-2.22,45.71,15.59,47.95,39.82,2.24,24.23-15.6,45.68-39.84,47.92-21.03,1.94-42.42,2.72-63.58,2.33Zm499.15-573.67c-20.99-.39-39.31-15.78-42.67-37.22-34.01-216.6-218.19-376.79-437.95-380.88h-.34c-24.19-.46-44.4-20.33-44.14-44.54C504.21,19.25,523.27-.26,547.62,0c.06,0,1.17,.02,1.23,.02,.06,0,1.17,.02,1.23,.02,262.62,4.89,482.74,196.38,523.4,455.32,3.77,24.03-12.67,46.57-36.72,50.35-2.59,.4-5.17,.58-7.71,.53Z"/></svg>