<?xml version="1.0" encoding="UTF-8"?><svg id="a" xmlns="http://www.w3.org/2000/svg" viewBox="0 0 1080 1080"><defs><style>.b{fill:#6a45ff;}.c{fill:#fff;}.d{fill:#9d85ff;}.e{fill:#00aaa5;stroke:#00aaa5;}.e,.f,.g{stroke-miterlimit:10;}.e,.g{stroke-width:4.31px;}.f{fill:#00ced1;stroke:#00ced1;}.g{fill:none;stroke:#b3b3ff;}</style></defs><g><path class="g" d="M863.98,216.03c.45,.05,.93,.13,1.4,.2l-1.6-1.6c.07,.47,.15,.94,.2,1.4ZM216.03,863.98c-.45-.05-.89-.13-1.34-.18l1.52,1.52c-.05-.45-.13-.89-.18-1.34Z"/><path class="e" d="M216.03,863.98c.05,.45,.13,.89,.18,1.34,179.32,178.49,469.35,178.23,648.35-.76,178.98-178.98,179.27-469.01,.82-648.33-.47-.07-.94-.15-1.4-.2,23.05,171.9-31.49,352.2-163.62,484.33-132.11,132.11-312.41,186.66-484.33,163.62Z"/><path class="f" d="M863.98,216.03c-.06-.45-.13-.93-.2-1.4-179.32-178.45-469.37-178.18-648.35,.8-179,179-179.23,469.04-.74,648.37,.45,.05,.89,.13,1.34,.18,171.92,23.03,352.22-31.51,484.33-163.62,132.13-132.13,186.67-312.43,163.62-484.33Z"/></g><g><path class="d" d="M529.93,1079.44C232.23,1073.89-5.45,827.34,.1,529.84,5.65,232.33,252.36-5.2,550.07,.35c297.7,5.55,535.39,252.1,529.84,549.6-5.55,297.5-252.27,535.03-549.97,529.49Zm18.49-991c-249.1-4.64-455.21,194.11-460.18,443.04-5.28,264.33,194.24,455.23,443.33,459.87,249.1,4.64,455.97-194.1,460.18-443.04,4.31-254.74-194.24-455.23-443.33-459.87Z"/><path class="b" d="M529.89,1079.9c-246.73-4.6-446.39-158.01-508.65-390.85-6.28-23.5,7.69-47.65,31.21-53.93,23.52-6.29,47.68,7.68,53.97,31.19,62.99,235.59,268.38,322.59,425.12,325.51,17.92,.33,36.03-.33,53.83-1.97,24.23-2.22,45.71,15.59,47.95,39.82,2.24,24.23-15.6,45.68-39.84,47.92-21.03,1.94-42.42,2.72-63.58,2.33Zm499.15-573.67c-20.99-.39-39.31-15.78-42.67-37.22-34.01-216.6-218.19-376.79-437.95-380.88h-.34c-24.19-.46-44.4-20.33-44.14-44.54C504.21,19.25,523.27-.26,547.62,0c.06,0,1.17,.02,1.23,.02,.06,0,1.17,.02,1.23,.02,262.62,4.89,482.74,196.38,523.4,455.32,3.77,24.03-12.67,46.57-36.72,50.35-2.59,.4-5.17,.58-7.71,.53Z"/></g><g><path class="c" d="M608.81,639.69c-.91,94.49-75.38,169.23-169.5,168.87-93.92-.36-168.01-75.27-168-168.65,.01-93.89,74.83-168.84,169-168.62,93.86,.22,167.4,74.85,168.49,168.4Z"/><path class="c" d="M808.89,438.49c-1.83,57.39-23.84,103.04-68.79,137.02-24.33,18.4-51.94,28.59-82.07,32.32-.33,.04-.67,.04-1,.06-11.94,.91-12.62,.19-15.33-11.46-12.29-52.75-40.19-95.05-84.72-126.18-22.38-15.65-47.03-26.01-73.62-32.01-11.77-2.66-12.73-4.11-11.3-16.04,3.48-29.09,12.94-56.01,30.28-79.75,28.78-39.42,67.2-63.32,115.87-69.5,49.12-6.24,92.88,6.76,130.8,38.64,32,26.91,50.78,61.47,57.61,102.55,1.41,8.5,1.64,17.19,2.29,24.35Z"/><path class="c" d="M444.42,277.31h-79.05c-11.3,0-18.36,12.23-12.71,22.02l9.35,16.19c-54.14,28.16-87.98,81.24-90.86,144.98-.61,13.47,6.92,23.25,18.44,23.25,10.39,0,19.65-7.56,19.33-21.43-.17-7.34,.71-14.64,2.19-21.81,8.66-41.79,31.91-72.61,69.58-92.64l11.5,19.92c5.65,9.79,19.77,9.79,25.42,0l39.52-68.46c5.65-9.79-1.41-22.02-12.71-22.02Z"/><path class="c" d="M634.6,802.41l79.05-.02c11.3,0,18.36-12.24,12.71-22.02l-9.35-16.19c54.14-28.17,87.96-81.26,90.83-145,.6-13.47-6.93-23.25-18.44-23.24-10.39,0-19.64,7.57-19.32,21.43,.17,7.34-.7,14.64-2.19,21.81-8.65,41.79-31.89,72.62-69.56,92.65l-11.5-19.92c-5.65-9.78-19.78-9.78-25.42,0l-39.51,68.46c-5.65,9.79,1.42,22.02,12.72,22.01Z"/></g></svg>