<?xml version="1.0" encoding="UTF-8"?><svg id="a" xmlns="http://www.w3.org/2000/svg" xmlns:xlink="http://www.w3.org/1999/xlink" viewBox="0 0 1080 1080"><defs><style>.c{fill:#fff;}.d{fill:#ed1d24;}.e{fill:#2a3087;}.f{clip-path:url(#b);}</style><clipPath id="b"><ellipse class="d" cx="540" cy="540" rx="539.89" ry="539.83"/></clipPath></defs><g><ellipse class="d" cx="540" cy="540" rx="539.89" ry="539.83"/><g class="f"><ellipse class="d" cx="540" cy="540" rx="539.89" ry="539.83"/><path class="e" d="M894.81,133.4C771.25,25.84,600.41-24.41,427.81,12.26,136.15,74.21-50.06,360.84,11.9,652.47c11.33,53.32,30.2,103.1,55.21,148.5,511.02-207.74,736.71-503.51,827.71-667.57Z"/></g></g><path class="c" d="M781.81,216.09c-6.94-.92-13.88-1.34-20.96-1.39-91.42-.6-162.32,57.95-189.44,110.31,3.54,1.36,3.43,4.74,2.9,8.78-2.13,16.03-3.95,32.09-5.77,48.15-.29,2.56-2.1,7.05,2.12,7.05,12.68-.01,14.74,9.31,18.76,16.34,4,6.99,8.6,11.17,18,10.59,7.99-.5,8.95,3.69,6.52,9.61-4.61,11.21-8.83,22.54-13.44,33.75-2.08,5.05-3.1,9.14,5.43,8.62,9.6-.58,10.35,3.66,7.51,10.45-4.41,10.52-8.29,21.22-12.71,31.74-2.5,5.96-1.88,9.44,6.49,9.25,7.7-.17,9.33,3.18,6.7,9.46-4.81,11.51-9.06,23.21-13.69,34.78-2.09,5.23-1.08,8.18,5.92,7.76,10.03-.61,9.83,4.23,7.19,10.65-4.2,10.22-7.93,20.59-12.3,30.75-2.67,6.2-2.78,10.17,6.54,9.98,8.26-.17,8.58,3.98,6.31,9.76-5.2,13.22-15.82,27.39-13.55,39.58,2.42,12.99,5.16,26.46,7.58,39.69,2.03,11.11,3.8,22.28,5.16,33.49,1.22,10.01-7.51,18.77-18.77,18.79l-108.6,.23c-11.09,.02-19.83-8.46-18.9-18.35,1.89-20.2,3.93-40.46,9.72-59.75,6-20-4.05-34.71-9.61-51.35-2.34-6.99-4.16-12.56,7.53-12.29,7.66,.18,6.85-3.95,5.05-8.47-4.23-10.58-8.25-21.24-12.7-31.75-3.04-7.18-2.41-11.7,7.9-11.03,6.74,.44,6.94-2.95,5.2-7.38-4.54-11.6-8.82-23.29-13.69-34.78-2.53-5.96-1.99-9.72,6.13-9.57,8.92,.16,9.6-3.45,6.83-9.89-4.5-10.49-8.38-21.19-12.7-31.74-2.55-6.21-2.11-10.53,6.97-9.97,9.05,.55,8.31-3.47,5.95-9.1-4.69-11.18-8.85-22.53-13.41-33.75-2.22-5.45-1.29-9.7,5.99-9.07,11.43,.99,15.79-5.42,20.11-12.9,3.63-6.27,5.52-14.03,16.69-13.94,5.16,.04,3.02-4.84,2.7-7.68-1.81-16.06-3.61-32.13-5.82-48.15-.4-2.88-.28-5.18,.88-6.74-.64-.09-1.01-.18-1.05-.28-27.95-65.41-109.39-111.72-186.49-111.73-6.79,0-12.85,.59-20.45,1.53-20.6,2.57-36.14,20.16-36.14,40.92l-.07,443.09c1.34,91.2,76.26,165.39,167.01,165.39,40.59,0,78.96-14.64,108.73-40.48,1.01-.88,2.5-.88,3.51,0,29.77,25.84,68.15,40.48,108.74,40.48,90.8,0,165.69-74.26,166.94-165.96l.42-442.53c.03-20.67-15.4-38.28-35.86-40.95Z"/><rect class="c" x="523.34" y="713.74" width="33.32" height="68.49" rx="7.51" ry="7.51"/><circle class="c" cx="540" cy="662.06" r="31.78"/><rect class="c" x="512.85" y="433.93" width="54.29" height="20.95" rx="4.82" ry="4.82"/><rect class="c" x="512.85" y="483.02" width="54.29" height="20.95" rx="4.82" ry="4.82"/><rect class="c" x="512.85" y="532.1" width="54.29" height="20.95" rx="4.82" ry="4.82"/><rect class="c" x="512.85" y="581.18" width="54.29" height="20.95" rx="4.82" ry="4.82"/></svg>