<?xml version="1.0" encoding="UTF-8"?><svg id="a" xmlns="http://www.w3.org/2000/svg" viewBox="0 0 1080 1080"><defs><style>.b{fill:#6a45ff;}.c{fill:#fff;}.d{fill:#9d85ff;}.e{fill:#dd1956;stroke:#dd1956;}.e,.f,.g{stroke-miterlimit:10;}.e,.g{stroke-width:4.31px;}.f{fill:#ff4576;stroke:#ff4576;}.g{fill:none;stroke:#b3b3ff;}</style></defs><g><g><path class="g" d="M863.98,216.03c.45,.05,.93,.13,1.4,.2l-1.6-1.6c.07,.47,.15,.94,.2,1.4ZM216.03,863.98c-.45-.05-.89-.13-1.34-.18l1.52,1.52c-.05-.45-.13-.89-.18-1.34Z"/><path class="e" d="M216.03,863.98c.05,.45,.13,.89,.18,1.34,179.32,178.49,469.35,178.23,648.35-.76,178.98-178.98,179.27-469.01,.82-648.33-.47-.07-.94-.15-1.4-.2,23.05,171.9-31.49,352.2-163.62,484.33-132.11,132.11-312.41,186.66-484.33,163.62Z"/><path class="f" d="M863.98,216.03c-.06-.45-.13-.93-.2-1.4-179.32-178.45-469.37-178.18-648.35,.8-179,179-179.23,469.04-.74,648.37,.45,.05,.89,.13,1.34,.18,171.92,23.03,352.22-31.51,484.33-163.62,132.13-132.13,186.67-312.43,163.62-484.33Z"/></g><g><g><path class="c" d="M675.56,449.95H413.16c-4.13,0-7.5,3.36-7.5,7.5v341.35h74.7v-159.16c0-4.28,3.48-7.76,7.76-7.76h112.48c4.31,0,7.76,3.48,7.76,7.76v159.16h74.73V457.45c0-4.13-3.36-7.5-7.53-7.5Zm-153.74,125.45c0,4.13-3.36,7.5-7.5,7.5h-63.87c-4.16,0-7.53-3.36-7.53-7.5v-79.43c0-4.13,3.36-7.5,7.53-7.5h63.87c4.13,0,7.5,3.36,7.5,7.5v79.43Zm123.97,0c0,4.13-3.36,7.5-7.5,7.5h-63.87c-4.16,0-7.53-3.36-7.53-7.5v-79.43c0-4.13,3.36-7.5,7.53-7.5h63.87c4.13,0,7.5,3.36,7.5,7.5v79.43Z"/><path class="c" d="M794.13,836.64H294.61c-4.6,0-8.11-4.09-7.43-8.63l3.44-22.81c.55-3.68,3.71-6.39,7.43-6.39h492.64c3.72,0,6.88,2.72,7.43,6.39l3.44,22.81c.68,4.54-2.83,8.63-7.43,8.63Z"/><rect class="c" x="390.6" y="410.5" width="307.53" height="28.98" rx="7.51" ry="7.51"/><path class="c" d="M540.64,311.59l-125.44,71.59c-6.69,3.82-3.98,14.04,3.72,14.04h250.88c7.71,0,10.42-10.22,3.72-14.04l-125.44-71.59c-2.31-1.32-5.14-1.32-7.45,0Z"/><rect class="c" x="536.85" y="224.27" width="15.03" height="113.24" rx="7.51" ry="7.51"/><path class="c" d="M600.42,280.89h-51.99c-5.06,0-9.16-3.36-9.16-7.51v-41.59c0-4.15,4.1-7.51,9.16-7.51h51.99c7.42,0,11.76,6.87,7.48,11.84l-8.16,9.5c-3.44,4.01-3.44,9.93,0,13.94l8.16,9.5c4.28,4.98-.06,11.84-7.48,11.84Z"/><path class="c" d="M797.95,543.6h-86.04c-4.15,0-7.51-3.36-7.51-7.51v-40.12c0-4.15,3.36-7.51,7.51-7.51h58.32c2.47,0,4.78,1.21,6.18,3.24l27.72,40.12c3.44,4.98-.12,11.79-6.18,11.79Z"/><path class="c" d="M711.91,527.5h64.94c4.15,0,7.51,3.37,7.51,7.51v263.79h-79.97v-263.79c0-4.15,3.37-7.51,7.51-7.51Z"/><path class="c" d="M291.07,543.6h86.04c4.15,0,7.51-3.36,7.51-7.51v-40.12c0-4.15-3.36-7.51-7.51-7.51h-58.32c-2.47,0-4.78,1.21-6.18,3.24l-27.72,40.12c-3.44,4.98,.12,11.79,6.18,11.79Z"/><path class="c" d="M304.65,527.5h79.97v263.79c0,4.15-3.37,7.51-7.51,7.51h-64.94c-4.15,0-7.51-3.37-7.51-7.51v-263.79h0Z" transform="translate(689.27 1326.31) rotate(-180)"/></g><rect class="c" x="334.08" y="488.46" width="90.8" height="318.22"/><rect class="c" x="645.79" y="488.47" width="84.74" height="310.33"/></g></g><g><path class="d" d="M529.93,1079.44C232.23,1073.89-5.45,827.34,.1,529.84,5.65,232.33,252.36-5.2,550.07,.35c297.7,5.55,535.39,252.1,529.84,549.6-5.55,297.5-252.27,535.03-549.97,529.49Zm18.49-991c-249.1-4.64-455.21,194.11-460.18,443.04-5.28,264.33,194.24,455.23,443.33,459.87,249.1,4.64,455.97-194.1,460.18-443.04,4.31-254.74-194.24-455.23-443.33-459.87Z"/><path class="b" d="M529.89,1079.9c-246.73-4.6-446.39-158.01-508.65-390.85-6.28-23.5,7.69-47.65,31.21-53.93,23.52-6.29,47.68,7.68,53.97,31.19,62.99,235.59,268.38,322.59,425.12,325.51,17.92,.33,36.03-.33,53.83-1.97,24.23-2.22,45.71,15.59,47.95,39.82,2.24,24.23-15.6,45.68-39.84,47.92-21.03,1.94-42.42,2.72-63.58,2.33Zm499.15-573.67c-20.99-.39-39.31-15.78-42.67-37.22-34.01-216.6-218.19-376.79-437.95-380.88h-.34c-24.19-.46-44.4-20.33-44.14-44.54C504.21,19.25,523.27-.26,547.62,0c.06,0,1.17,.02,1.23,.02,.06,0,1.17,.02,1.23,.02,262.62,4.89,482.74,196.38,523.4,455.32,3.77,24.03-12.67,46.57-36.72,50.35-2.59,.4-5.17,.58-7.71,.53Z"/></g></svg>