<?xml version="1.0" encoding="UTF-8"?><svg id="a" xmlns="http://www.w3.org/2000/svg" viewBox="0 0 1080 1080"><defs><style>.b{fill:#6a45ff;}.c{fill:#fff;}.d{fill:#9d85ff;}.e{fill:#00aaa5;stroke:#00aaa5;}.e,.f,.g{stroke-miterlimit:10;}.e,.g{stroke-width:4.31px;}.f{fill:#00ced1;stroke:#00ced1;}.g{fill:none;stroke:#b3b3ff;}</style></defs><g><g><path class="g" d="M863.98,216.03c.45,.05,.93,.13,1.4,.2l-1.6-1.6c.07,.47,.15,.94,.2,1.4ZM216.03,863.98c-.45-.05-.89-.13-1.34-.18l1.52,1.52c-.05-.45-.13-.89-.18-1.34Z"/><path class="e" d="M216.03,863.98c.05,.45,.13,.89,.18,1.34,179.32,178.49,469.35,178.23,648.35-.76,178.98-178.98,179.27-469.01,.82-648.33-.47-.07-.94-.15-1.4-.2,23.05,171.9-31.49,352.2-163.62,484.33-132.11,132.11-312.41,186.66-484.33,163.62Z"/><path class="f" d="M863.98,216.03c-.06-.45-.13-.93-.2-1.4-179.32-178.45-469.37-178.18-648.35,.8-179,179-179.23,469.04-.74,648.37,.45,.05,.89,.13,1.34,.18,171.92,23.03,352.22-31.51,484.33-163.62,132.13-132.13,186.67-312.43,163.62-484.33Z"/></g><path class="c" d="M864.57,493.17v90.18c0,61.18-49.6,110.79-110.84,110.79h-61.53c-3.39,0-6.79-.15-10.08-.5-1.1-.1-2.2-.3-3.29-.45-1.36-.16-2.73-.33-4.1-.54l-5.94-1.24c-1.97-.47-3.95-.93-5.87-1.5-1.35-.4-2.65-.8-3.94-1.25-1.75-.6-3.49-1.2-5.19-1.9-1.3-.55-2.6-1.05-3.89-1.64-1.65-.7-3.24-1.5-4.84-2.35-1.25-.6-2.5-1.25-3.69-1.95-1.6-.85-3.14-1.84-4.64-2.79-1.15-.75-2.35-1.44-3.44-2.2-1.65-1.15-3.19-2.34-4.79-3.59-.9-.7-1.85-1.35-2.74-2.1-.05-.05-.1-.05-.15-.1-22.86-19.11-37.43-47.76-37.43-79.9v-26.8c0-10.42-8.45-18.86-18.86-18.86h-38.03c-10.42,0-18.86,8.45-18.86,18.86v26.8c0,57.44-46.56,104-104,104h-61.58c-6.24,0-12.28-.5-18.21-1.5-.45-.05-.9-.15-1.3-.25-2.1-.35-4.19-.8-6.24-1.25-.2-.05-.4-.1-.6-.15-32.74-7.99-59.73-30.49-73.86-60.28-.15-.35-.3-.65-.45-.95-.7-1.6-1.4-3.19-2.1-4.84-.2-.5-.4-1.05-.6-1.55-.6-1.5-1.15-3.04-1.65-4.59-.15-.5-.35-1-.5-1.5-.65-2-1.25-3.99-1.8-6.04v-.05c-.55-2.05-1-4.19-1.45-6.29-.1-.55-.15-1.1-.3-1.64-.25-1.55-.5-3.15-.75-4.69-.1-.7-.15-1.4-.25-2.14-.2-1.5-.3-3.05-.45-4.54-.05-.7-.1-1.35-.15-2-.1-2.2-.2-4.34-.2-6.54v-1.7h-8.28c-6.78,0-12.28-5.5-12.28-12.28v-53.03c0-6.78,5.5-12.28,12.28-12.28h8.28v-10.88c0-59.29,48.06-107.29,107.29-107.29h414c59.24,0,107.29,48.01,107.29,107.29Z"/></g><g><path class="d" d="M529.93,1079.44C232.23,1073.89-5.45,827.34,.1,529.84,5.65,232.33,252.36-5.2,550.07,.35s535.39,252.1,529.84,549.6c-5.55,297.5-252.27,535.03-549.97,529.49Zm18.49-991c-249.1-4.64-455.21,194.11-460.18,443.04-5.28,264.33,194.24,455.23,443.33,459.87,249.1,4.64,455.97-194.1,460.18-443.04,4.31-254.74-194.24-455.23-443.33-459.87Z"/><path class="b" d="M529.89,1079.9c-246.73-4.6-446.39-158.01-508.65-390.85-6.28-23.5,7.69-47.65,31.21-53.93,23.52-6.29,47.68,7.68,53.97,31.19,62.99,235.59,268.38,322.59,425.12,325.51,17.92,.33,36.03-.33,53.83-1.97,24.23-2.22,45.71,15.59,47.95,39.82,2.24,24.23-15.6,45.68-39.84,47.92-21.03,1.94-42.42,2.72-63.58,2.33Zm499.15-573.67c-20.99-.39-39.31-15.78-42.67-37.22-34.01-216.6-218.19-376.79-437.95-380.88h-.34c-24.19-.46-44.4-20.33-44.14-44.54C504.21,19.25,523.27-.26,547.62,0c.06,0,1.17,.02,1.23,.02,.06,0,1.17,.02,1.23,.02,262.62,4.89,482.74,196.38,523.4,455.32,3.77,24.03-12.67,46.57-36.72,50.35-2.59,.4-5.17,.58-7.71,.53Z"/></g></svg>