<?xml version="1.0" encoding="UTF-8"?><svg id="a" xmlns="http://www.w3.org/2000/svg" viewBox="0 0 1080 1080"><defs><style>.b{fill:#6a45ff;}.c{fill:#fff;}.d{fill:#9d85ff;}.e{fill:#8a2be2;stroke:#8a2be2;}.e,.f,.g{stroke-miterlimit:10;}.e,.g{stroke-width:4.31px;}.f{fill:#b57edc;stroke:#b57edc;}.g{fill:none;stroke:#b3b3ff;}</style></defs><g><g><path class="g" d="M863.98,216.03c.45,.05,.93,.13,1.4,.2l-1.6-1.6c.07,.47,.15,.94,.2,1.4ZM216.03,863.98c-.45-.05-.89-.13-1.34-.18l1.52,1.52c-.05-.45-.13-.89-.18-1.34Z"/><path class="e" d="M216.03,863.98c.05,.45,.13,.89,.18,1.34,179.32,178.49,469.35,178.23,648.35-.76,178.98-178.98,179.27-469.01,.82-648.33-.47-.07-.94-.15-1.4-.2,23.05,171.9-31.49,352.2-163.62,484.33-132.11,132.11-312.41,186.66-484.33,163.62Z"/><path class="f" d="M863.98,216.03c-.06-.45-.13-.93-.2-1.4-179.32-178.45-469.37-178.18-648.35,.8-179,179-179.23,469.04-.74,648.37,.45,.05,.89,.13,1.34,.18,171.92,23.03,352.22-31.51,484.33-163.62,132.13-132.13,186.67-312.43,163.62-484.33Z"/></g><g><path class="c" d="M642.23,384.8c-24.52-15.87-53.06-26.05-83.8-28.76-.45,8.65-7.57,15.55-16.41,15.55s-15.96-6.9-16.41-15.55c-34.35,3.02-65.99,15.42-92.32,34.66l1.35-21.91,.23-3.7,2.21-36.6,3.97-64.59c0-12.94,10.46-23.39,23.39-23.39h147.63c12.94,0,23.4,10.46,23.4,23.39l3.74,67.03,1.62,29.34,.41,6.85,.99,17.67Z"/><polygon class="c" points="407.09 394.9 415.94 342.26 438.09 327.85 442.52 361.38 407.09 394.9"/><polygon class="c" points="670.6 394.9 661.74 342.26 639.61 327.85 635.17 361.38 670.6 394.9"/><path class="c" d="M642.23,695.2l-.99,17.67-.41,6.85-1.62,29.39-3.74,67.03c0,12.89-10.46,23.35-23.4,23.35h-147.63c-12.94,0-23.39-10.46-23.39-23.35l-3.97-64.59-2.21-36.65-.23-3.7-1.35-21.91c26.33,19.25,57.97,31.64,92.32,34.66,.45-8.65,7.62-15.55,16.41-15.55s15.96,6.9,16.41,15.55c30.74-2.71,59.28-12.89,83.8-28.76Z"/><polygon class="c" points="407.09 685.1 415.94 737.74 438.09 752.16 442.52 718.63 407.09 685.1"/><polygon class="c" points="670.6 685.1 661.74 737.74 639.61 752.16 635.17 718.63 670.6 685.1"/><path class="c" d="M758.46,395.26c8.14,9.92,6.72,24.58-3.22,32.73l-13.08,10.73c-9.92,8.13-24.59,6.68-32.73-3.24l-29.04-35.39c-8.14-9.93-6.69-24.59,3.22-32.73l13.09-10.73c9.94-8.15,24.58-6.69,32.73,3.24l29.03,35.39Z"/><path class="c" d="M351.22,359.74c8.27-9.82,22.93-11.1,32.77-2.82l12.95,10.9c9.81,8.26,11.07,22.95,2.8,32.77l-29.48,35.02c-8.28,9.83-22.96,11.08-32.77,2.82l-12.94-10.9c-9.83-8.28-11.08-22.94-2.8-32.77l29.48-35.02Z"/><path class="c" d="M668.69,686.63c-.45-.09-.9-.22-1.35-.4-.27-.09-.54-.18-.81-.31-.72-.27-1.4-.59-2.07-.99-.45-.27-.9-.54-1.35-.9-.72-.5-1.4-1.08-2.03-1.71-.18-.18-.4-.4-.59-.63-5.77,4.87-11.9,9.37-18.26,13.52l-.99,17.67,27.68-26.19s-.14,0-.23-.05Zm54.36-243.1c-12.13-22.67-28.44-42.87-47.83-59.46-2.43-2.12-4.96-4.15-7.48-6.13-8.47-6.58-17.44-12.49-26.91-17.67-1.71-.99-3.43-1.89-5.18-2.8-28.08-14.47-59.91-22.63-93.62-22.63-36.15,0-70.09,9.37-99.62,25.87-2.52,1.35-5.05,2.84-7.53,4.37-9.15,5.59-17.8,11.9-25.92,18.89-1.31,1.08-2.57,2.16-3.83,3.29-17.31,15.6-32,34.03-43.23,54.59-15.96,29.17-25.02,62.61-25.02,98.13,0,62.39,27.99,118.37,72.08,156.01,8.11,6.99,16.77,13.3,25.92,18.89,2.48,1.53,5,3.02,7.53,4.37,29.53,16.5,63.47,25.87,99.62,25.87,33.72,0,65.54-8.16,93.62-22.63,1.76-.9,3.47-1.8,5.18-2.8,9.47-5.19,18.44-11.09,26.91-17.67,48.28-37.55,79.43-96.24,79.43-162.05,0-34.84-8.74-67.7-24.12-96.46Zm-39.4,214.92c-6.99,8.43-14.74,16.18-23.17,23.22-5.77,4.87-11.9,9.37-18.26,13.52-24.52,15.87-53.06,26.05-83.8,28.76-5.41,.5-10.86,.72-16.41,.72s-11-.22-16.41-.72c-34.35-3.02-65.99-15.42-92.32-34.66-3.34-2.43-6.58-4.96-9.74-7.62-8.43-7.03-16.18-14.79-23.17-23.22-23.57-28.13-38.9-63.38-42.33-102.05-.5-5.41-.72-10.86-.72-16.41s.22-11,.72-16.41c3.43-38.68,18.75-73.93,42.33-102.05,6.99-8.43,14.74-16.18,23.17-23.21,3.16-2.66,6.4-5.18,9.74-7.62,26.33-19.25,57.97-31.64,92.32-34.66,5.41-.5,10.86-.72,16.41-.72s11,.23,16.41,.72c30.74,2.71,59.28,12.89,83.8,28.76,6.36,4.15,12.49,8.66,18.26,13.52,8.43,7.03,16.18,14.79,23.17,23.21,23.57,28.13,38.9,63.38,42.33,102.05,.5,5.41,.72,10.86,.72,16.41s-.23,11-.72,16.41c-3.42,38.67-18.75,73.93-42.33,102.05Zm-14.97,28.17c-.45-.13-.9-.22-1.35-.4-.27-.09-.54-.18-.81-.31-.72-.27-1.4-.59-2.07-.99-.45-.27-.9-.54-1.35-.9-.72-.5-1.4-1.08-2.03-1.71-.18-.18-.4-.4-.59-.63-5.77,4.87-11.9,9.37-18.26,13.52l-.99,17.67,27.68-26.19s-.14,0-.23-.05Z"/><path class="c" d="M558.48,540.01c0,9.07-7.36,16.44-16.45,16.44s-16.44-7.37-16.44-16.44,7.37-16.45,16.44-16.45,16.45,7.36,16.45,16.45Z"/><path class="c" d="M542.03,549.02c-4.98,0-9.02-4.04-9.02-9.02v-144.97c0-4.98,4.04-9.02,9.02-9.02s9.02,4.04,9.02,9.02v144.97c0,4.98-4.04,9.02-9.02,9.02Z"/><path class="c" d="M558.48,355.18c0,.27,0,.59-.05,.86-.45,8.65-7.57,15.55-16.41,15.55s-15.96-6.9-16.41-15.55c-.05-.27-.05-.59-.05-.86,0-9.11,7.39-16.45,16.45-16.45s16.45,7.35,16.45,16.45Z"/><path class="c" d="M684.35,420.94c-6.42,6.41-16.83,6.42-23.26-.01-6.42-6.41-6.42-16.83,0-23.25,6.43-6.43,16.84-6.42,23.26,0,6.43,6.43,6.43,16.84,0,23.26Z"/><path class="c" d="M726.86,556.45c-9.07,0-16.44-7.36-16.44-16.45s7.36-16.44,16.44-16.44,16.45,7.37,16.45,16.44-7.36,16.45-16.45,16.45Z"/><path class="c" d="M661.09,682.32c-6.42-6.41-6.42-16.82,.01-23.25,6.41-6.41,16.83-6.42,23.24,0,6.43,6.42,6.42,16.84,0,23.26-6.43,6.43-16.83,6.43-23.26,0Z"/><path class="c" d="M558.48,724.81c0,9.11-7.39,16.45-16.45,16.45s-16.45-7.35-16.45-16.45c0-.27,0-.59,.05-.86,.45-8.65,7.62-15.55,16.41-15.55s15.96,6.9,16.41,15.55c.05,.27,.05,.59,.05,.86Z"/><path class="c" d="M399.71,659.06c6.41-6.41,16.82-6.42,23.26,0,6.41,6.41,6.42,16.84,0,23.25-6.43,6.42-16.84,6.42-23.26,0-6.43-6.43-6.43-16.84,0-23.26Z"/><path class="c" d="M357.21,523.55c9.07,0,16.44,7.36,16.44,16.45s-7.37,16.44-16.44,16.44-16.45-7.37-16.45-16.44,7.36-16.45,16.45-16.45Z"/><path class="c" d="M422.97,397.68c6.41,6.42,6.42,16.83-.01,23.25-6.41,6.41-16.83,6.42-23.25,0-6.43-6.43-6.42-16.84,0-23.26,6.43-6.43,16.83-6.43,23.26,0Z"/><path class="c" d="M623.28,551.43h-71.59c-6.22,0-11.27-5.04-11.27-11.27s5.04-11.27,11.27-11.27h71.59c6.22,0,11.27,5.04,11.27,11.27s-5.04,11.27-11.27,11.27Z"/></g></g><g><path class="d" d="M529.93,1079.44C232.23,1073.89-5.45,827.34,.1,529.84,5.65,232.33,252.36-5.2,550.07,.35s535.39,252.1,529.84,549.6c-5.55,297.5-252.27,535.03-549.97,529.49Zm18.49-991c-249.1-4.64-455.21,194.11-460.18,443.04-5.28,264.33,194.24,455.23,443.33,459.87,249.1,4.64,455.97-194.1,460.18-443.04,4.31-254.74-194.24-455.23-443.33-459.87Z"/><path class="b" d="M529.89,1079.9c-246.73-4.6-446.39-158.01-508.65-390.85-6.28-23.5,7.69-47.65,31.21-53.93,23.52-6.29,47.68,7.68,53.97,31.19,62.99,235.59,268.38,322.59,425.12,325.51,17.92,.33,36.03-.33,53.83-1.97,24.23-2.22,45.71,15.59,47.95,39.82,2.24,24.23-15.6,45.68-39.84,47.92-21.03,1.94-42.42,2.72-63.58,2.33Zm499.15-573.67c-20.99-.39-39.31-15.78-42.67-37.22-34.01-216.6-218.19-376.79-437.95-380.88h-.34c-24.19-.46-44.4-20.33-44.14-44.54C504.21,19.25,523.27-.26,547.62,0c.06,0,1.17,.02,1.23,.02,.06,0,1.17,.02,1.23,.02,262.62,4.89,482.74,196.38,523.4,455.32,3.77,24.03-12.67,46.57-36.72,50.35-2.59,.4-5.17,.58-7.71,.53Z"/></g></svg>