<?xml version="1.0" encoding="UTF-8"?><svg id="a" xmlns="http://www.w3.org/2000/svg" viewBox="0 0 1080 1080"><defs><style>.b,.c{fill:#6a45ff;}.d{fill:#fff;}.e{fill:#9d85ff;}.f{fill:#4b1fff;stroke:#4b1fff;}.f,.c,.g{stroke-miterlimit:10;}.f,.g{stroke-width:4.31px;}.c{stroke:#6a45ff;}.g{fill:none;stroke:#b3b3ff;}</style></defs><g><g><path class="g" d="M863.98,216.03c.45,.05,.93,.13,1.4,.2l-1.6-1.6c.07,.47,.15,.94,.2,1.4ZM216.03,863.98c-.45-.05-.89-.13-1.34-.18l1.52,1.52c-.05-.45-.13-.89-.18-1.34Z"/><path class="f" d="M216.03,863.98c.05,.45,.13,.89,.18,1.34,179.32,178.49,469.35,178.23,648.35-.76,178.98-178.98,179.27-469.01,.82-648.33-.47-.07-.94-.15-1.4-.2,23.05,171.9-31.49,352.2-163.62,484.33-132.11,132.11-312.41,186.66-484.33,163.62Z"/><path class="c" d="M863.98,216.03c-.06-.45-.13-.93-.2-1.4-179.32-178.45-469.37-178.18-648.35,.8-179,179-179.23,469.04-.74,648.37,.45,.05,.89,.13,1.34,.18,171.92,23.03,352.22-31.51,484.33-163.62,132.13-132.13,186.67-312.43,163.62-484.33Z"/></g><g><circle class="d" cx="540" cy="349.77" r="83.65"/><path class="d" d="M783.85,341.54c-12.03-13.03-25.1-9.09-37.96-1.26l-104.97,82.59s-.04,.04-.17,.08c-.63,.54-46.93,40.77-100.74,40.86v0c-53.81-.08-100.12-40.31-100.75-40.86-.13-.04-.17-.08-.17-.08l-104.97-82.59c-12.86-7.84-25.94-11.78-37.97,1.26-9.47,10.22-8.63,22.34-.08,34.7,32.06,46.35,126.8,139.29,126.8,139.29,5.57,4.9,8.97,11.98,9.22,19.65,.96,41.86,14.25,87.29,29.58,127.68,.54,1.42,1.01,2.93,1.26,4.36l23.09,136.65c8.88,35.33,30.09,59.13,53.97,59.92v0c23.89-.8,45.1-24.6,53.98-59.92l23.09-136.65c.25-1.43,.71-2.93,1.26-4.36,15.34-40.4,28.62-85.82,29.58-127.68,.25-7.67,3.65-14.75,9.22-19.65,0,0,94.75-92.95,126.8-139.29,8.55-12.36,9.39-24.47-.08-34.7Z"/></g></g><g><path class="e" d="M529.93,1079.44C232.23,1073.89-5.45,827.34,.1,529.84,5.65,232.33,252.36-5.2,550.07,.35s535.39,252.1,529.84,549.6c-5.55,297.5-252.27,535.03-549.97,529.49Zm18.49-991c-249.1-4.64-455.21,194.11-460.18,443.04-5.28,264.33,194.24,455.23,443.33,459.87,249.1,4.64,455.97-194.1,460.18-443.04,4.31-254.74-194.24-455.23-443.33-459.87Z"/><path class="b" d="M529.89,1079.9c-246.73-4.6-446.39-158.01-508.65-390.85-6.28-23.5,7.69-47.65,31.21-53.93,23.52-6.29,47.68,7.68,53.97,31.19,62.99,235.59,268.38,322.59,425.12,325.51,17.92,.33,36.03-.33,53.83-1.97,24.23-2.22,45.71,15.59,47.95,39.82,2.24,24.23-15.6,45.68-39.84,47.92-21.03,1.94-42.42,2.72-63.58,2.33Zm499.15-573.67c-20.99-.39-39.31-15.78-42.67-37.22-34.01-216.6-218.19-376.79-437.95-380.88h-.34c-24.19-.46-44.4-20.33-44.14-44.54C504.21,19.25,523.27-.26,547.62,0c.06,0,1.17,.02,1.23,.02,.06,0,1.17,.02,1.23,.02,262.62,4.89,482.74,196.38,523.4,455.32,3.77,24.03-12.67,46.57-36.72,50.35-2.59,.4-5.17,.58-7.71,.53Z"/></g></svg>